<svg width="151" height="151" viewBox="0 0 151 151" fill="none" xmlns="http://www.w3.org/2000/svg">
<g clip-path="url(#clip0_503_5)">
<path d="M119.542 12.5833H113.25V6.29167C113.25 4.62301 112.587 3.0227 111.407 1.84279C110.227 0.66287 108.627 0 106.958 0C105.29 0 103.689 0.66287 102.509 1.84279C101.33 3.0227 100.667 4.62301 100.667 6.29167V12.5833H50.3333V6.29167C50.3333 4.62301 49.6705 3.0227 48.4905 1.84279C47.3106 0.66287 45.7103 0 44.0417 0C42.373 0 40.7727 0.66287 39.5928 1.84279C38.4129 3.0227 37.75 4.62301 37.75 6.29167V12.5833H31.4583C23.1181 12.5933 15.1224 15.9109 9.22497 21.8083C3.32755 27.7057 0.00999027 35.7015 0 44.0417L0 119.542C0.00999027 127.882 3.32755 135.878 9.22497 141.775C15.1224 147.672 23.1181 150.99 31.4583 151H119.542C127.882 150.99 135.878 147.672 141.775 141.775C147.672 135.878 150.99 127.882 151 119.542V44.0417C150.99 35.7015 147.672 27.7057 141.775 21.8083C135.878 15.9109 127.882 12.5933 119.542 12.5833V12.5833ZM12.5833 44.0417C12.5833 39.0357 14.5719 34.2348 18.1117 30.695C21.6514 27.1553 26.4524 25.1667 31.4583 25.1667H119.542C124.548 25.1667 129.349 27.1553 132.888 30.695C136.428 34.2348 138.417 39.0357 138.417 44.0417V50.3333H12.5833V44.0417ZM119.542 138.417H31.4583C26.4524 138.417 21.6514 136.428 18.1117 132.888C14.5719 129.349 12.5833 124.548 12.5833 119.542V62.9167H138.417V119.542C138.417 124.548 136.428 129.349 132.888 132.888C129.349 136.428 124.548 138.417 119.542 138.417Z" fill="#717BBC"/>
<path d="M75.5 103.812C80.7122 103.812 84.9375 99.5872 84.9375 94.375C84.9375 89.1628 80.7122 84.9375 75.5 84.9375C70.2878 84.9375 66.0625 89.1628 66.0625 94.375C66.0625 99.5872 70.2878 103.812 75.5 103.812Z" fill="#717BBC"/>
<path d="M44.0406 103.812C49.2528 103.812 53.4781 99.5872 53.4781 94.375C53.4781 89.1628 49.2528 84.9375 44.0406 84.9375C38.8285 84.9375 34.6031 89.1628 34.6031 94.375C34.6031 99.5872 38.8285 103.812 44.0406 103.812Z" fill="#717BBC"/>
<path d="M106.959 103.812C112.171 103.812 116.397 99.5872 116.397 94.375C116.397 89.1628 112.171 84.9375 106.959 84.9375C101.747 84.9375 97.5217 89.1628 97.5217 94.375C97.5217 99.5872 101.747 103.812 106.959 103.812Z" fill="#717BBC"/>
</g>
<defs>
<clipPath id="clip0_503_5">
<rect width="151" height="151" fill="white"/>
</clipPath>
</defs>
</svg>
