<svg width="150" height="150" viewBox="0 0 150 150" fill="none" xmlns="http://www.w3.org/2000/svg">
<path d="M25.1844 119.999L21.9963 117.805C21.9963 117.805 20.1546 120.482 17.3397 118.616C15.8778 117.646 15.78 116.185 15.9744 115.25C16.2003 114.165 16.9674 113.279 17.9781 112.824C19.1322 112.305 20.8749 112.31 22.7628 114.167L27.7089 106.978L24.5565 104.809L21.6591 109.02C21.6591 109.02 16.4514 107.121 13.0989 111.993C9.89131 116.655 13.3269 120.614 15.1164 121.846C16.485 122.787 21.3744 125.664 25.1844 119.999Z" fill="#EBEBEB"/>
<path d="M25.5344 103.306L28.7336 105.507L30.7894 102.52L27.5902 100.318L25.5344 103.306Z" fill="#EBEBEB"/>
<path d="M38.7778 128.817L40.4707 128.37C40.4707 128.37 40.0957 126.949 41.5663 126.534C42.3301 126.318 42.8605 126.716 43.1236 127.058C43.4293 127.456 43.5067 127.98 43.3648 128.461C43.2025 129.011 42.6868 129.607 41.4928 129.707L42.4996 133.524L44.1736 133.082L43.5838 130.846C43.5838 130.846 45.7714 129.62 45.0889 127.033C44.4358 124.557 42.0643 124.568 41.1139 124.818C40.387 125.01 37.9579 125.839 38.7778 128.817Z" fill="#EBEBEB"/>
<path d="M44.4061 133.857L42.7072 134.305L43.1258 135.892L44.8247 135.444L44.4061 133.857Z" fill="#EBEBEB"/>
<path d="M66.8988 21.9213C67.7661 21.3972 68.6895 20.9997 69.6417 20.7291L70.2066 18.0141L74.7939 17.9337L75.4542 20.6271C76.4154 20.8641 77.3523 21.2286 78.2376 21.7221L80.556 20.2023L83.8566 23.3892L82.4196 25.7592C82.944 26.6268 83.3412 27.5505 83.6115 28.503L86.3262 29.0679L86.4069 33.6552L83.7135 34.3155C83.4768 35.2767 83.112 36.2133 82.6185 37.0986L84.138 39.4173L80.9514 42.7179L78.5811 41.2809C77.7135 41.805 76.7901 42.2025 75.8376 42.4728L75.2724 45.1878L70.6854 45.2682L70.0251 42.5745C69.0639 42.3375 68.1273 41.9727 67.242 41.4795L64.9236 42.9993L61.623 39.8124L63.06 37.4424C62.5359 36.5748 62.1381 35.6514 61.8678 34.6989L59.1528 34.134L59.0724 29.5467L61.7658 28.8864C62.0028 27.9252 62.3676 26.9886 62.8608 26.1033L61.3413 23.7849L64.5279 20.4843L66.8988 21.9213ZM69.3441 28.032C67.4559 29.9877 67.5108 33.1035 69.4665 34.9914C71.4222 36.8793 74.538 36.8247 76.4259 34.869C78.3138 32.9136 78.2592 29.7975 76.3035 27.9096C74.3478 26.022 71.232 26.0766 69.3441 28.032Z" fill="#F5F5F5"/>
<path d="M47.688 12.3585C48.1875 12.0567 48.7194 11.8278 49.2678 11.6718L49.5933 10.1079L52.2354 10.0617L52.6155 11.613C53.1693 11.7495 53.7087 11.9595 54.2187 12.2436L55.554 11.3682L57.4551 13.2039L56.6274 14.5689C56.9295 15.0687 57.1584 15.6006 57.3141 16.149L58.8777 16.4745L58.9242 19.1166L57.3729 19.497C57.2364 20.0505 57.0264 20.5902 56.7423 21.0999L57.6174 22.4352L55.782 24.3363L54.4167 23.5086C53.9172 23.8107 53.385 24.0393 52.8366 24.195L52.5111 25.7589L49.869 25.8054L49.4886 24.2541C48.9351 24.1176 48.3954 23.9076 47.8857 23.6235L46.5504 24.4989L44.6493 22.6635L45.477 21.2985C45.1752 20.7987 44.946 20.2671 44.7903 19.7184L43.2267 19.3929L43.1802 16.7508L44.7315 16.3704C44.868 15.8169 45.0783 15.2772 45.3621 14.7675L44.487 13.4322L46.3224 11.5311L47.688 12.3585ZM49.0965 15.8781C48.009 17.0046 48.0405 18.7989 49.167 19.8864C50.2935 20.9739 52.0881 20.9424 53.1753 19.8159C54.2628 18.6897 54.2313 16.8948 53.1048 15.8076C51.9783 14.7204 50.1837 14.7519 49.0965 15.8781Z" fill="#EBEBEB"/>
<path d="M132.02 61.4136C132.519 61.1118 133.051 60.8829 133.6 60.7269L133.925 59.163L136.567 59.1165L136.947 60.6678C137.501 60.8043 138.04 61.0143 138.55 61.2984L139.886 60.423L141.787 62.2587L140.959 63.6237C141.261 64.1235 141.49 64.6554 141.646 65.2041L143.209 65.5296L143.256 68.1717L141.705 68.5521C141.568 69.1056 141.358 69.645 141.074 70.155L141.949 71.4903L140.114 73.3914L138.748 72.5637C138.249 72.8658 137.717 73.0944 137.168 73.2501L136.843 74.814L134.201 74.8602L133.82 73.3089C133.267 73.1724 132.727 72.9624 132.217 72.6783L130.882 73.5537L128.981 71.7183L129.809 70.3533C129.507 69.8535 129.278 69.3219 129.122 68.7732L127.558 68.4477L127.512 65.8056L129.063 65.4252C129.2 64.8717 129.41 64.332 129.694 63.8223L128.819 62.487L130.654 60.5859L132.02 61.4136ZM133.428 64.9332C132.341 66.0597 132.372 67.854 133.499 68.9415C134.625 70.029 136.42 69.9975 137.507 68.871C138.595 67.7445 138.563 65.9499 137.437 64.8627C136.31 63.7755 134.516 63.807 133.428 64.9332Z" fill="#EBEBEB"/>
<path d="M139.134 139.593C139.134 139.637 110.687 139.671 75.603 139.671C40.5072 139.671 12.066 139.636 12.066 139.593C12.066 139.55 40.5072 139.515 75.603 139.515C110.687 139.515 139.134 139.55 139.134 139.593Z" fill="#263238"/>
<path d="M125.297 139.375L82.692 139.35C77.568 139.347 73.4157 135.192 73.4169 130.068L73.4379 23.2569C73.4388 18.1299 77.5968 13.9752 82.7238 13.9779L125.329 14.0028C130.453 14.0058 134.605 18.1611 134.604 23.2854L134.583 130.097C134.582 135.224 130.424 139.378 125.297 139.375Z" fill="#455A64"/>
<path d="M125.284 17.781L117.023 17.7762C115.916 17.7756 115.017 18.714 115.017 19.872L115.017 21.3702C115.017 22.5282 114.118 23.4666 113.011 23.466L96.9093 23.4564C95.8017 23.4558 94.9038 22.5165 94.9038 21.3585L94.9041 19.8603C94.9041 18.7023 94.0062 17.7627 92.8986 17.7624L89.9934 17.7606L82.7637 17.7564C79.173 17.7543 76.2612 20.6643 76.2603 24.2547L76.2399 128.51C76.239 132.099 79.1469 135.009 82.7358 135.011L125.255 135.036C128.846 135.038 131.758 132.128 131.759 128.538L131.779 24.2823C131.78 20.6931 128.872 17.7831 125.284 17.781Z" fill="white"/>
<path d="M131.776 39.6942V24.1617C131.713 20.6286 128.832 17.7831 125.284 17.781L117.023 17.7762C115.915 17.7756 115.017 18.714 115.017 19.8717L115.016 21.3702C115.016 22.5282 114.118 23.4666 113.01 23.466L96.909 23.4564C95.8014 23.4558 94.9035 22.5165 94.9035 21.3585L94.9038 19.86C94.9038 18.702 94.0059 17.7627 92.8983 17.7621L89.9931 17.7603L82.7634 17.7561C79.1727 17.754 76.2606 20.664 76.26 24.2544L76.257 39.7395H131.776L131.776 39.6942Z" fill="#EBEBEB"/>
<path d="M87.5811 60.7602C91.2974 60.7602 94.3101 57.7538 94.3101 54.0453C94.3101 50.3367 91.2974 47.3304 87.5811 47.3304C83.8647 47.3304 80.8521 50.3367 80.8521 54.0453C80.8521 57.7538 83.8647 60.7602 87.5811 60.7602Z" fill="#E0E0E0"/>
<path d="M84.4392 55.7256L86.2005 55.5762L90.5037 56.301L91.0116 59.5383L90.9396 59.9148C88.8591 61.0695 86.532 61.041 84.561 60.0615L84.4392 55.7256Z" fill="#455A64"/>
<path d="M89.5836 56.2491C89.5836 56.2491 90.939 55.9809 91.8153 57.2301C92.3517 57.9945 92.6148 58.5012 92.6148 58.5012C91.9152 59.262 91.3455 59.8413 90.372 60.1791L89.5836 56.2491Z" fill="#455A64"/>
<path d="M84.4392 55.7256C84.4392 55.7256 83.2749 55.8681 82.8228 56.8605C82.3707 57.8532 82.2681 58.1652 82.2681 58.1652C82.8708 58.8894 83.6361 59.7468 84.5748 60.0684C84.5748 60.0684 84.789 57.5679 84.8175 56.8605C84.8484 56.0856 84.8787 55.7034 84.4392 55.7256Z" fill="#455A64"/>
<path d="M85.505 49.3656C86.1338 48.5988 86.9783 48.1572 87.9713 48.1407C88.5314 48.1314 88.7633 48.2475 89.1668 48.3561C89.5703 48.4647 89.9342 48.6807 90.1748 49.0215C90.4607 49.4262 90.7007 49.8798 90.7547 50.3721C90.8102 50.8779 90.8657 51.3867 90.8276 51.894C90.7895 52.4013 90.6512 52.9122 90.3518 53.3238L89.0585 53.5479C88.3442 53.5722 87.62 53.5956 86.924 53.433C86.228 53.2704 85.5518 52.8966 85.1792 52.2882C84.6611 51.4428 84.8762 50.1324 85.505 49.3656Z" fill="#263238"/>
<path d="M84.2513 53.1125C84.2834 52.8212 84.4364 52.5353 84.6893 52.3862C84.9422 52.2371 85.2953 52.2527 85.5059 52.4567L85.709 52.6985C86.0276 52.8338 86.2277 53.1953 86.1893 53.5385C86.1509 53.882 85.8863 54.1847 85.5548 54.2855C85.2236 54.3863 84.8438 54.2888 84.5906 54.053C84.3374 53.8172 84.2135 53.456 84.2513 53.1125Z" fill="#263238"/>
<path d="M84.5079 53.9829C84.5172 53.9784 84.4275 53.8959 84.4383 53.7261C84.4491 53.5608 84.5694 53.3442 84.7344 53.1459C84.9027 52.9464 85.101 52.8102 85.2528 52.7313C85.4043 52.65 85.5084 52.6206 85.5054 52.6098C85.5042 52.6035 85.3944 52.6179 85.233 52.6911C85.0719 52.7616 84.861 52.8975 84.6861 53.1051C84.5985 53.208 84.5283 53.3172 84.477 53.4225C84.4251 53.5272 84.3927 53.6331 84.3936 53.7249C84.3933 53.8167 84.423 53.8881 84.4515 53.9295C84.4806 53.9712 84.5055 53.9856 84.5079 53.9829Z" fill="#455A64"/>
<path d="M89.0466 56.018C89.0466 56.018 89.0397 54.8186 89.0397 54.8204C89.0397 54.8204 90.0945 54.7046 90.3858 53.3555C90.5307 52.6847 90.5577 51.5732 90.5502 50.663C90.5436 49.8437 89.8446 48.7283 88.8309 48.7247L88.3806 48.6725L86.6562 49.3565C86.4072 49.3691 86.2092 49.5698 86.2005 49.8185L86.1486 55.58L86.9385 56.687C87.5934 57.6059 89.0412 57.1463 89.0466 56.018Z" fill="#FFBE9D"/>
<path d="M88.358 53.0402C88.3673 52.9691 88.4069 52.9061 88.4576 52.8632C88.5587 52.7768 88.7063 52.7684 88.8143 52.8428C88.9223 52.9172 88.9844 53.0699 88.964 53.2118C88.9034 53.2949 88.8104 53.3513 88.7078 53.36C88.6919 53.3615 88.6757 53.3621 88.6598 53.3615C88.5818 53.3594 88.5026 53.3333 88.4432 53.276C88.3832 53.2187 88.3463 53.1278 88.358 53.0402Z" fill="#EB996E"/>
<path d="M89.9282 51.6036C89.9264 51.696 89.8466 51.7707 89.75 51.7704C89.6534 51.7704 89.5766 51.6954 89.5784 51.6033C89.5802 51.5109 89.66 51.4362 89.7566 51.4362C89.8532 51.4365 89.93 51.5115 89.9282 51.6036Z" fill="#263238"/>
<path d="M90.2144 51.1686C90.1916 51.1902 90.0644 51.0852 89.876 51.0753C89.6882 51.0627 89.5448 51.1518 89.5256 51.1278C89.516 51.117 89.5406 51.0771 89.603 51.0369C89.6645 50.9967 89.768 50.9598 89.885 50.9667C90.0023 50.9739 90.0983 51.0222 90.1526 51.0693C90.2084 51.117 90.2258 51.159 90.2144 51.1686Z" fill="#263238"/>
<path d="M89.0318 52.5915C89.0315 52.5807 89.1497 52.5669 89.3405 52.5531C89.3888 52.5507 89.435 52.5438 89.4449 52.5114C89.4581 52.4772 89.441 52.4247 89.4206 52.3674C89.3819 52.2489 89.341 52.1247 89.2984 51.9945C89.1298 51.4638 89.0105 51.0285 89.0318 51.0219C89.0534 51.0153 89.2076 51.4401 89.3762 51.9708C89.4167 52.1016 89.4554 52.2264 89.492 52.3455C89.5073 52.401 89.5348 52.4646 89.5066 52.5351C89.4916 52.5702 89.455 52.5942 89.4238 52.6008C89.3926 52.6086 89.3654 52.6074 89.3417 52.6077C89.1503 52.6077 89.0318 52.602 89.0318 52.5915Z" fill="#263238"/>
<path d="M89.0396 54.8208C89.0396 54.8208 88.1189 54.8295 87.2399 54.2346C87.2399 54.2346 87.6746 55.2045 89.0465 55.1517L89.0396 54.8208Z" fill="#EB996E"/>
<path d="M88.4708 52.6907C88.5014 52.6907 88.4906 52.8944 88.6577 53.0486C88.8242 53.2034 89.0432 53.1923 89.0432 53.2208C89.0453 53.2337 88.9925 53.2577 88.9004 53.2553C88.8101 53.2535 88.6799 53.2172 88.5779 53.123C88.4759 53.0285 88.4366 52.9076 88.4342 52.8236C88.4312 52.7381 88.457 52.6889 88.4708 52.6907Z" fill="#263238"/>
<path d="M90.1772 50.4608C90.143 50.5049 90.0005 50.4665 89.8316 50.4713C89.6624 50.4707 89.5205 50.5127 89.4857 50.4692C89.4704 50.4482 89.4911 50.4044 89.552 50.3615C89.612 50.3186 89.7137 50.2817 89.8301 50.2802C89.9465 50.279 90.0485 50.3135 90.1091 50.3549C90.1706 50.3963 90.1922 50.4392 90.1772 50.4608Z" fill="#263238"/>
<path d="M87.8645 51.5909C87.8597 51.683 87.9338 51.7634 88.0304 51.7703C88.1267 51.7772 88.2089 51.7082 88.2137 51.6158C88.2185 51.5237 88.1444 51.4433 88.0481 51.4364C87.9518 51.4295 87.8696 51.4988 87.8645 51.5909Z" fill="#263238"/>
<path d="M87.6356 51.1013C87.6569 51.1244 87.7913 51.0287 87.9797 51.0326C88.1681 51.0335 88.3046 51.1328 88.3253 51.11C88.3355 51.1001 88.3139 51.0584 88.2548 51.0137C88.1963 50.969 88.0958 50.9249 87.9785 50.9234C87.8612 50.9219 87.7616 50.9633 87.704 51.0065C87.6455 51.05 87.6251 51.0908 87.6356 51.1013Z" fill="#263238"/>
<path d="M87.5273 50.6975C87.5636 50.7407 87.7097 50.699 87.8846 50.6999C88.0595 50.6954 88.2068 50.7341 88.2419 50.6903C88.2572 50.6687 88.2347 50.6258 88.1705 50.5841C88.1075 50.5427 88.0013 50.5079 87.8813 50.5091C87.761 50.5106 87.6563 50.5472 87.5948 50.5901C87.5324 50.633 87.5114 50.6765 87.5273 50.6975Z" fill="#263238"/>
<path d="M86.4344 52.1058C86.4398 52.0044 86.3354 51.759 86.2361 51.738C85.9706 51.6816 85.4867 51.6767 85.445 52.355C85.3877 53.2823 86.3327 53.1485 86.336 53.1218C86.3384 53.1011 86.4161 52.4556 86.4344 52.1058Z" fill="#FFBE9D"/>
<path d="M86.1002 52.7673C86.0963 52.764 86.0834 52.7778 86.0552 52.7886C86.0276 52.7991 85.9814 52.8048 85.934 52.7838C85.838 52.7418 85.7648 52.5813 85.7708 52.4136C85.7735 52.329 85.7963 52.2498 85.8305 52.185C85.8632 52.119 85.91 52.0743 85.9601 52.0686C86.0099 52.0602 86.0432 52.092 86.0528 52.1187C86.0636 52.1454 86.0567 52.1637 86.0615 52.1655C86.0639 52.1679 86.0825 52.1511 86.0774 52.1124C86.0747 52.0938 86.0651 52.0713 86.0444 52.0521C86.0231 52.0326 85.991 52.0215 85.9562 52.023C85.8842 52.0236 85.8158 52.0854 85.7783 52.1565C85.7369 52.2276 85.7093 52.3167 85.7063 52.4115C85.7006 52.5987 85.7858 52.7796 85.9178 52.8264C85.982 52.8474 86.0378 52.8312 86.0675 52.8108C86.0972 52.7898 86.1035 52.7694 86.1002 52.7673Z" fill="#EB996E"/>
<path d="M86.198 51.7404L86.4341 51.9849C87.4538 51.0108 89.4467 48.5721 89.3354 48.7176C89.3354 48.7176 88.637 48.4308 87.8786 48.5598C87.1205 48.6888 85.682 49.0674 85.7042 49.9599C85.7264 50.8521 86.198 51.7404 86.198 51.7404Z" fill="#263238"/>
<path d="M84.8477 51.5357C84.8462 51.5351 84.851 51.5168 84.8618 51.482C84.8729 51.4475 84.893 51.3971 84.9251 51.3359C84.9899 51.2138 85.1135 51.0485 85.3136 50.8997C85.5107 50.747 85.7843 50.6222 86.0957 50.5244C86.4065 50.4233 86.7572 50.345 87.101 50.1974C87.4472 50.0555 87.7559 49.8725 88.0193 49.6841C88.2818 49.4936 88.4984 49.2962 88.6673 49.1186C88.8365 48.9407 88.9592 48.7844 89.042 48.6749C89.0801 48.6227 89.111 48.5804 89.1353 48.5471C89.1569 48.518 89.1689 48.503 89.1704 48.5039C89.1719 48.5048 89.1626 48.5213 89.1434 48.5522C89.1239 48.5828 89.0966 48.6287 89.0573 48.6854C88.9787 48.7988 88.8593 48.9593 88.6919 49.1414C88.5248 49.3232 88.3085 49.5251 88.0451 49.7192C87.7808 49.9115 87.4694 50.0975 87.1193 50.2409C86.7707 50.39 86.4179 50.4677 86.1089 50.5658C85.7987 50.6609 85.5296 50.78 85.3337 50.9264C85.1348 51.0689 85.01 51.2273 84.9413 51.3446C84.8732 51.4634 84.8525 51.5375 84.8477 51.5357Z" fill="#455A64"/>
<path d="M85.118 51.6819C85.118 51.6819 85.1087 51.606 85.154 51.4791C85.1972 51.3534 85.3073 51.1824 85.5032 51.0423C85.6973 50.8977 85.9742 50.8083 86.2787 50.739C86.5844 50.6715 86.9162 50.5857 87.2423 50.4339C87.5681 50.2833 87.8603 50.1009 88.1015 49.9047C88.3442 49.7097 88.5398 49.5075 88.6904 49.3269C88.8431 49.1475 88.9454 48.9858 89.0189 48.8763C89.051 48.8235 89.0768 48.7806 89.0978 48.7464C89.1164 48.717 89.1266 48.7017 89.1281 48.7026C89.1296 48.7035 89.1218 48.72 89.1062 48.7509C89.0873 48.7863 89.0639 48.831 89.0348 48.8856C88.9661 48.9984 88.8671 49.164 88.7165 49.3479C88.5677 49.5327 88.3727 49.7394 88.1291 49.9383C87.8867 50.1387 87.5918 50.3244 87.2621 50.4768C86.9327 50.6304 86.5934 50.7168 86.2886 50.7813C85.9847 50.8482 85.7132 50.9325 85.5227 51.0693C85.3295 51.2022 85.2188 51.3645 85.1714 51.4851C85.1219 51.6072 85.1246 51.6828 85.118 51.6819Z" fill="#455A64"/>
<path d="M84.5747 60.0618C84.5576 60.0618 84.5438 59.6646 84.5438 59.175C84.5438 58.6851 84.5576 58.2882 84.5747 58.2882C84.5918 58.2882 84.6059 58.6851 84.6059 59.175C84.6056 59.6646 84.5918 60.0618 84.5747 60.0618Z" fill="#263238"/>
<path d="M90.9423 59.9382C90.933 59.9373 90.9417 59.8167 90.9528 59.6232C90.9618 59.4297 90.9741 59.1612 90.9267 58.8714C90.8778 58.5819 90.78 58.3305 90.7107 58.149C90.639 57.9681 90.5937 57.8559 90.6021 57.852C90.6093 57.849 90.669 57.9546 90.7512 58.1325C90.8313 58.3107 90.9375 58.5639 90.9879 58.8618C91.0365 59.16 91.0164 59.4333 90.9963 59.6268C90.9741 59.8206 90.9501 59.9388 90.9423 59.9382Z" fill="#263238"/>
<path d="M123.323 62.5704H100.39C99.2511 62.5704 98.328 61.6473 98.328 60.5085V50.8788L95.7999 48.6345H98.328H123.323C124.462 48.6345 125.385 49.5576 125.385 50.6964V60.5085C125.385 61.6473 124.461 62.5704 123.323 62.5704Z" fill="#EBEBEB"/>
<path d="M121.751 64.1307C121.751 64.1739 120.655 64.2087 119.305 64.2087C117.953 64.2087 116.858 64.1736 116.858 64.1307C116.858 64.0875 117.953 64.0527 119.305 64.0527C120.655 64.0524 121.751 64.0875 121.751 64.1307Z" fill="#E0E0E0"/>
<path d="M122.763 64.3233C122.737 64.32 122.723 64.3149 122.709 64.3002L122.236 63.8047C122.207 63.7747 122.208 63.7273 122.238 63.6985C122.268 63.6703 122.316 63.6708 122.344 63.7008L122.764 64.1403L123.683 63.2047C123.713 63.1753 123.76 63.1749 123.79 63.2037C123.819 63.2328 123.82 63.2803 123.791 63.31L122.817 64.3008C122.802 64.3152 122.783 64.3233 122.763 64.3233Z" fill="#FF725E"/>
<path d="M123.439 64.3077C123.439 64.3077 123.438 64.3077 123.437 64.3077L123.35 64.3056C123.309 64.3047 123.276 64.2702 123.277 64.2288C123.278 64.1874 123.318 64.1556 123.354 64.1556L123.409 64.1571L124.36 63.189C124.39 63.1596 124.437 63.1593 124.466 63.1881C124.495 63.2172 124.496 63.2646 124.467 63.2943L123.493 64.2855C123.478 64.2996 123.46 64.3077 123.439 64.3077Z" fill="#FF725E"/>
<path d="M121.751 101.832C121.751 101.875 120.655 101.91 119.305 101.91C117.953 101.91 116.858 101.875 116.858 101.832C116.858 101.789 117.953 101.754 119.305 101.754C120.655 101.754 121.751 101.789 121.751 101.832Z" fill="#E0E0E0"/>
<path d="M122.763 102.024H122.763C122.743 102.024 122.723 102.016 122.709 102.001L122.236 101.506C122.207 101.476 122.208 101.428 122.238 101.4C122.268 101.371 122.316 101.372 122.344 101.402L122.764 101.842L123.683 100.906C123.713 100.876 123.76 100.876 123.79 100.905C123.819 100.934 123.82 100.981 123.791 101.011L122.817 102.002C122.802 102.016 122.783 102.024 122.763 102.024Z" fill="#FF725E"/>
<path d="M123.439 102.009C123.439 102.009 123.438 102.009 123.437 102.009L123.35 102.007C123.309 102.005 123.276 101.971 123.277 101.93C123.278 101.888 123.309 101.849 123.354 101.857L123.409 101.858L124.36 100.89C124.39 100.86 124.437 100.86 124.466 100.889C124.495 100.919 124.496 100.966 124.467 100.995L123.493 101.986C123.478 102.001 123.46 102.009 123.439 102.009Z" fill="#FF725E"/>
<path d="M123.029 51.3921C123.029 51.4353 118.022 51.4701 111.847 51.4701C105.67 51.4701 100.665 51.435 100.665 51.3921C100.665 51.3492 105.67 51.3141 111.847 51.3141C118.022 51.3141 123.029 51.3489 123.029 51.3921Z" fill="white"/>
<path d="M123.029 53.0352C123.029 53.0784 118.022 53.1132 111.847 53.1132C105.67 53.1132 100.665 53.0781 100.665 53.0352C100.665 52.9923 105.67 52.9572 111.847 52.9572C118.022 52.9569 123.029 52.992 123.029 53.0352Z" fill="white"/>
<path d="M123.029 54.678C123.029 54.7212 118.022 54.756 111.847 54.756C105.67 54.756 100.665 54.7209 100.665 54.678C100.665 54.6351 105.67 54.6 111.847 54.6C118.022 54.6 123.029 54.6348 123.029 54.678Z" fill="white"/>
<path d="M87.5811 102.63C91.2974 102.63 94.3101 99.6236 94.3101 95.9151C94.3101 92.2066 91.2974 89.2002 87.5811 89.2002C83.8647 89.2002 80.8521 92.2066 80.8521 95.9151C80.8521 99.6236 83.8647 102.63 87.5811 102.63Z" fill="#E0E0E0"/>
<path d="M84.4392 97.5954L86.2005 97.446L90.5037 98.1708L91.0116 101.408L90.9396 101.785C88.8591 102.939 86.532 102.911 84.561 101.931L84.4392 97.5954Z" fill="#455A64"/>
<path d="M89.5836 98.1192C89.5836 98.1192 90.939 97.851 91.8153 99.1002C92.3517 99.8646 92.6148 100.371 92.6148 100.371C91.9152 101.132 91.3455 101.711 90.372 102.049L89.5836 98.1192Z" fill="#455A64"/>
<path d="M84.4392 97.5954C84.4392 97.5954 83.2749 97.7379 82.8228 98.7306C82.3707 99.7233 82.2681 100.035 82.2681 100.035C82.8708 100.759 83.6361 101.617 84.5748 101.939C84.5748 101.939 84.789 99.438 84.8175 98.7306C84.8484 97.9557 84.8787 97.5732 84.4392 97.5954Z" fill="#455A64"/>
<path d="M85.505 91.2354C86.1338 90.4686 86.9783 90.027 87.9713 90.0105C88.5314 90.0012 88.7633 90.1173 89.1668 90.2262C89.5703 90.3348 89.9342 90.5508 90.1748 90.8916C90.4607 91.2963 90.7007 91.7499 90.7547 92.2419C90.8102 92.7477 90.8657 93.2568 90.8276 93.7638C90.7895 94.2711 90.6512 94.782 90.3518 95.1936L89.0585 95.4177C88.3442 95.442 87.62 95.4654 86.924 95.3028C86.228 95.1402 85.5518 94.7664 85.1792 94.158C84.6611 93.3129 84.8762 92.0025 85.505 91.2354Z" fill="#263238"/>
<path d="M84.2513 94.9824C84.2834 94.6911 84.4364 94.4052 84.6893 94.2561C84.9422 94.107 85.2953 94.1226 85.5059 94.3266L85.709 94.5684C86.0276 94.7037 86.2277 95.0652 86.1893 95.4087C86.1509 95.7522 85.8863 96.0549 85.5548 96.1557C85.2236 96.2565 84.8438 96.1587 84.5906 95.9232C84.3374 95.6874 84.2135 95.3259 84.2513 94.9824Z" fill="#263238"/>
<path d="M84.5079 95.8527C84.5172 95.8482 84.4275 95.7657 84.4383 95.5959C84.4491 95.4306 84.5694 95.214 84.7344 95.0157C84.9027 94.8162 85.101 94.68 85.2528 94.6011C85.4043 94.5198 85.5084 94.4904 85.5054 94.4796C85.5042 94.4733 85.3944 94.4877 85.233 94.5609C85.0719 94.6314 84.861 94.7673 84.6861 94.9749C84.5985 95.0778 84.5283 95.187 84.477 95.2923C84.4251 95.397 84.3927 95.5029 84.3936 95.5947C84.3933 95.6868 84.423 95.7579 84.4515 95.7993C84.4806 95.841 84.5055 95.8557 84.5079 95.8527Z" fill="#455A64"/>
<path d="M89.0525 97.998C89.0525 97.998 89.0456 96.7983 89.0456 96.8007C89.0456 96.8007 90.1004 96.6846 90.3917 95.3358C90.5366 94.665 90.5636 93.5535 90.5561 92.6436C90.5495 91.8243 89.8505 90.7089 88.8368 90.7053L88.3865 90.6531L86.6621 91.3371C86.4131 91.3497 86.2151 91.5504 86.2064 91.7991L86.1545 97.5606L86.9444 98.6676C87.5993 99.5859 89.0471 99.1263 89.0525 97.998Z" fill="#FFBE9D"/>
<path d="M88.358 94.9101C88.3673 94.839 88.4069 94.776 88.4576 94.7331C88.5587 94.6467 88.7063 94.6383 88.8143 94.7127C88.9223 94.7871 88.9844 94.9398 88.964 95.0817C88.9034 95.1648 88.8104 95.2212 88.7078 95.2299C88.6919 95.2311 88.6757 95.2317 88.6598 95.2314C88.5818 95.2293 88.5026 95.2032 88.4432 95.1459C88.3832 95.0886 88.3463 94.9977 88.358 94.9101Z" fill="#EB996E"/>
<path d="M89.9282 93.5874C89.9264 93.6798 89.8466 93.7545 89.75 93.7542C89.6534 93.7542 89.5766 93.6795 89.5784 93.5871C89.5802 93.4947 89.66 93.42 89.7566 93.4203C89.8532 93.4203 89.93 93.4953 89.9282 93.5874Z" fill="#263238"/>
<path d="M90.2144 93.1527C90.1916 93.1743 90.0644 93.0693 89.876 93.0594C89.6882 93.0468 89.5448 93.1359 89.5256 93.1119C89.516 93.1011 89.5406 93.0612 89.603 93.021C89.6645 92.9808 89.768 92.9439 89.885 92.9508C90.0023 92.958 90.0983 93.0063 90.1526 93.0534C90.2084 93.1008 90.2258 93.1431 90.2144 93.1527Z" fill="#263238"/>
<path d="M89.0318 94.5753C89.0315 94.5645 89.1497 94.551 89.3405 94.5369C89.3888 94.5345 89.435 94.5276 89.4449 94.4952C89.4581 94.461 89.441 94.4082 89.4206 94.3512C89.3819 94.2327 89.341 94.1085 89.2984 93.9783C89.1298 93.4476 89.0105 93.0123 89.0318 93.0057C89.0534 92.9991 89.2076 93.4239 89.3762 93.9546C89.4167 94.0854 89.4554 94.2102 89.492 94.3293C89.5073 94.3848 89.5348 94.4484 89.5066 94.5189C89.4916 94.554 89.455 94.578 89.4238 94.5846C89.3926 94.5924 89.3654 94.5912 89.3417 94.5915C89.1503 94.5915 89.0318 94.5858 89.0318 94.5753Z" fill="#263238"/>
<path d="M89.0396 96.8046C89.0396 96.8046 88.1189 96.8133 87.2399 96.2184C87.2399 96.2184 87.6746 97.1883 89.0465 97.1358L89.0396 96.8046Z" fill="#EB996E"/>
<path d="M88.4708 94.6749C88.5014 94.6749 88.4906 94.8786 88.6577 95.0328C88.8242 95.1876 89.0432 95.1765 89.0432 95.205C89.0453 95.2179 88.9925 95.2419 88.9004 95.2395C88.8101 95.2377 88.6799 95.2014 88.5779 95.1072C88.4759 95.0127 88.4366 94.8918 88.4342 94.8078C88.4312 94.722 88.457 94.6728 88.4708 94.6749Z" fill="#263238"/>
<path d="M90.1772 92.4447C90.143 92.4888 90.0005 92.4501 89.8316 92.4549C89.6624 92.4543 89.5205 92.4963 89.4857 92.4528C89.4704 92.4318 89.4911 92.388 89.552 92.3451C89.612 92.3025 89.7137 92.2653 89.8301 92.2638C89.9465 92.2626 90.0485 92.2971 90.1091 92.3385C90.1706 92.3802 90.1922 92.4234 90.1772 92.4447Z" fill="#263238"/>
<path d="M87.8645 93.5747C87.8597 93.6671 87.9338 93.7472 88.0304 93.7541C88.1267 93.761 88.2089 93.692 88.2137 93.5996C88.2185 93.5075 88.1444 93.4271 88.0481 93.4202C87.9518 93.4136 87.8696 93.4826 87.8645 93.5747Z" fill="#263238"/>
<path d="M87.6356 93.0851C87.6569 93.1082 87.7913 93.0125 87.9797 93.0164C88.1681 93.0173 88.3046 93.1166 88.3253 93.0938C88.3355 93.0839 88.3139 93.0423 88.2548 92.9976C88.1963 92.9529 88.0958 92.9088 87.9785 92.9073C87.8612 92.9061 87.7616 92.9474 87.704 92.9903C87.6455 93.0338 87.6251 93.0749 87.6356 93.0851Z" fill="#263238"/>
<path d="M87.5273 92.6816C87.5636 92.7248 87.7097 92.6831 87.8846 92.684C88.0595 92.6795 88.2068 92.7183 88.2419 92.6742C88.2572 92.6526 88.2347 92.6097 88.1705 92.568C88.1075 92.5266 88.0013 92.4918 87.8813 92.493C87.761 92.4942 87.6563 92.531 87.5948 92.5739C87.5324 92.6168 87.5114 92.6603 87.5273 92.6816Z" fill="#263238"/>
<path d="M86.4344 93.9756C86.4398 93.8742 86.3354 93.6288 86.2361 93.6078C85.9706 93.5514 85.4867 93.5466 85.445 94.2249C85.3877 95.1522 86.3327 95.0184 86.336 94.9917C86.3384 94.971 86.4161 94.3254 86.4344 93.9756Z" fill="#FFBE9D"/>
<path d="M86.1002 94.6374C86.0963 94.6341 86.0834 94.6476 86.0552 94.6587C86.0276 94.6692 85.9814 94.6749 85.934 94.6539C85.838 94.6119 85.7648 94.4514 85.7708 94.2837C85.7735 94.1991 85.7963 94.1199 85.8305 94.0551C85.8632 93.9891 85.91 93.9444 85.9601 93.9387C86.0099 93.9303 86.0432 93.9621 86.0528 93.9888C86.0636 94.0155 86.0567 94.0338 86.0615 94.0356C86.0639 94.038 86.0825 94.0212 86.0774 93.9825C86.0747 93.9639 86.0651 93.9411 86.0444 93.9222C86.0231 93.9027 85.991 93.8916 85.9562 93.8931C85.8842 93.8937 85.8158 93.9555 85.7783 94.0266C85.7369 94.0977 85.7093 94.1868 85.7063 94.2816C85.7006 94.4688 85.7858 94.6497 85.9178 94.6965C85.982 94.7175 86.0378 94.7013 86.0675 94.6809C86.0972 94.6596 86.1035 94.6392 86.1002 94.6374Z" fill="#EB996E"/>
<path d="M86.198 93.6105L86.4341 93.855C87.4538 92.8809 89.4467 90.4422 89.3354 90.5877C89.3354 90.5877 88.637 90.3009 87.8786 90.4299C87.1205 90.5589 85.682 90.9375 85.7042 91.83C85.7264 92.7219 86.198 93.6105 86.198 93.6105Z" fill="#263238"/>
<path d="M84.8477 93.4056C84.8462 93.4053 84.851 93.3867 84.8618 93.3519C84.8729 93.3171 84.893 93.267 84.9251 93.2058C84.9899 93.0837 85.1135 92.9184 85.3136 92.7696C85.5107 92.6169 85.7843 92.4921 86.0957 92.3943C86.4065 92.2932 86.7572 92.2149 87.101 92.0673C87.4472 91.9254 87.7559 91.7424 88.0193 91.554C88.2818 91.3635 88.4984 91.1661 88.6673 90.9885C88.8365 90.8106 88.9592 90.6543 89.042 90.5448C89.0801 90.4926 89.111 90.4503 89.1353 90.417C89.1569 90.3879 89.1689 90.3729 89.1704 90.3738C89.1719 90.3747 89.1626 90.3912 89.1434 90.4221C89.1239 90.4527 89.0966 90.4989 89.0573 90.5556C88.9787 90.669 88.8593 90.8295 88.6919 91.0116C88.5248 91.1934 88.3085 91.3953 88.0451 91.5894C87.7808 91.7817 87.4694 91.9677 87.1193 92.1111C86.7707 92.2602 86.4179 92.3379 86.1089 92.436C85.7987 92.5311 85.5296 92.6502 85.3337 92.7966C85.1348 92.9391 85.01 93.0975 84.9413 93.2148C84.8732 93.3333 84.8525 93.4074 84.8477 93.4056Z" fill="#455A64"/>
<path d="M85.118 93.5517C85.118 93.5517 85.1087 93.4758 85.154 93.3489C85.1972 93.2232 85.3073 93.0522 85.5032 92.9121C85.6973 92.7675 85.9742 92.6781 86.2787 92.6088C86.5844 92.5416 86.9162 92.4555 87.2423 92.3037C87.5681 92.1531 87.8603 91.9707 88.1015 91.7745C88.3442 91.5795 88.5398 91.3773 88.6904 91.1967C88.8431 91.0173 88.9454 90.8556 89.0189 90.7464C89.051 90.6936 89.0768 90.6507 89.0978 90.6165C89.1164 90.5871 89.1266 90.5718 89.1281 90.5727C89.1296 90.5736 89.1218 90.5901 89.1062 90.621C89.0873 90.6564 89.0639 90.7011 89.0348 90.7557C88.9661 90.8685 88.8671 91.0341 88.7165 91.218C88.5677 91.4028 88.3727 91.6095 88.1291 91.8084C87.8867 92.0088 87.5918 92.1945 87.2621 92.3469C86.9327 92.5005 86.5934 92.5869 86.2886 92.6514C85.9847 92.7183 85.7132 92.8026 85.5227 92.9394C85.3295 93.0723 85.2188 93.2346 85.1714 93.3552C85.1219 93.477 85.1246 93.5526 85.118 93.5517Z" fill="#455A64"/>
<path d="M84.5747 101.932C84.5576 101.932 84.5438 101.534 84.5438 101.045C84.5438 100.555 84.5576 100.158 84.5747 100.158C84.5918 100.158 84.6059 100.555 84.6059 101.045C84.6056 101.534 84.5918 101.932 84.5747 101.932Z" fill="#263238"/>
<path d="M90.9423 101.808C90.933 101.807 90.9417 101.687 90.9528 101.493C90.9618 101.3 90.9741 101.031 90.9267 100.741C90.8778 100.451 90.78 100.2 90.7107 100.019C90.639 99.8376 90.5937 99.7257 90.6021 99.7218C90.6093 99.7188 90.669 99.8244 90.7512 100.002C90.8313 100.181 90.9375 100.434 90.9879 100.731C91.0365 101.03 91.0164 101.303 90.9963 101.496C90.9741 101.69 90.9501 101.809 90.9423 101.808Z" fill="#263238"/>
<path d="M123.323 99.8631H100.39C99.2511 99.8631 98.328 98.94 98.328 97.8012V92.7489L95.7999 90.5046H98.328H123.323C124.462 90.5046 125.385 91.4277 125.385 92.5665V97.8012C125.385 98.9397 124.461 99.8631 123.323 99.8631Z" fill="#EBEBEB"/>
<path d="M123.029 93.2622C123.029 93.3054 118.022 93.3402 111.847 93.3402C105.67 93.3402 100.665 93.3051 100.665 93.2622C100.665 93.2193 105.67 93.1842 111.847 93.1842C118.022 93.1839 123.029 93.219 123.029 93.2622Z" fill="white"/>
<path d="M123.029 94.905C123.029 94.9482 118.022 94.983 111.847 94.983C105.67 94.983 100.665 94.9479 100.665 94.905C100.665 94.8621 105.67 94.827 111.847 94.827C118.022 94.827 123.029 94.8618 123.029 94.905Z" fill="white"/>
<path d="M123.029 96.5478C123.029 96.591 118.022 96.6258 111.847 96.6258C105.67 96.6258 100.665 96.5907 100.665 96.5478C100.665 96.5046 105.67 96.4698 111.847 96.4698C118.022 96.4698 123.029 96.5049 123.029 96.5478Z" fill="white"/>
<path d="M123.029 56.3208C123.029 56.364 118.022 56.3988 111.847 56.3988C105.67 56.3988 100.665 56.3637 100.665 56.3208C100.665 56.2779 105.67 56.2428 111.847 56.2428C118.022 56.2428 123.029 56.2779 123.029 56.3208Z" fill="white"/>
<path d="M123.029 57.9639C123.029 58.0071 118.022 58.0419 111.847 58.0419C105.67 58.0419 100.665 58.0068 100.665 57.9639C100.665 57.921 105.67 57.8859 111.847 57.8859C118.022 57.8856 123.029 57.9207 123.029 57.9639Z" fill="white"/>
<path d="M123.029 59.9382C123.029 59.9814 118.022 60.0162 111.847 60.0162C105.67 60.0162 100.665 59.9811 100.665 59.9382C100.665 59.8953 105.67 59.8602 111.847 59.8602C118.022 59.8599 123.029 59.895 123.029 59.9382Z" fill="white"/>
<path d="M100.785 31.389C100.785 30.7341 101.288 30.2655 101.965 30.2655C102.34 30.2655 102.654 30.402 102.859 30.6504L102.536 30.9483C102.39 30.7806 102.207 30.6936 101.99 30.6936C101.584 30.6936 101.295 30.9792 101.295 31.3887C101.295 31.7985 101.584 32.0838 101.99 32.0838C102.207 32.0838 102.39 31.9968 102.536 31.8264L102.859 32.1243C102.654 32.3757 102.34 32.5122 101.962 32.5122C101.288 32.5125 100.785 32.0439 100.785 31.389Z" fill="#263238"/>
<path d="M104.869 31.5195V32.4756H104.385V31.5942C104.385 31.3242 104.26 31.2 104.046 31.2C103.813 31.2 103.646 31.3428 103.646 31.65V32.4756H103.162V30.1728H103.646V30.9798C103.776 30.8493 103.963 30.7812 104.177 30.7812C104.571 30.7809 104.869 31.0104 104.869 31.5195Z" fill="#263238"/>
<path d="M106.783 31.5225V32.4753H106.33V32.2674C106.239 32.4195 106.066 32.5002 105.82 32.5002C105.43 32.5002 105.197 32.2827 105.197 31.9941C105.197 31.6992 105.405 31.4943 105.914 31.4943H106.299C106.299 31.2864 106.174 31.1652 105.914 31.1652C105.737 31.1652 105.554 31.224 105.433 31.3203L105.259 30.9819C105.442 30.8514 105.712 30.7803 105.979 30.7803C106.488 30.7809 106.783 31.0167 106.783 31.5225ZM106.299 31.9479V31.7772H105.966C105.74 31.7772 105.668 31.8609 105.668 31.9728C105.668 32.0937 105.771 32.1744 105.941 32.1744C106.103 32.1744 106.243 32.0997 106.299 31.9479Z" fill="#263238"/>
<path d="M108.297 32.3946C108.197 32.466 108.052 32.5002 107.902 32.5002C107.508 32.5002 107.279 32.2983 107.279 31.9011V31.2153H107.021V30.8427H107.279V30.4362H107.763V30.8427H108.179V31.2153H107.763V31.8951C107.763 32.0379 107.84 32.1153 107.971 32.1153C108.042 32.1153 108.114 32.0937 108.166 32.0532L108.297 32.3946Z" fill="#263238"/>
<path d="M116.858 34.7355C116.858 34.7787 111.745 34.8135 105.439 34.8135C99.1317 34.8135 94.0197 34.7784 94.0197 34.7355C94.0197 34.6923 99.1314 34.6575 105.439 34.6575C111.745 34.6575 116.858 34.6923 116.858 34.7355Z" fill="#263238"/>
<path d="M126.977 31.3887C127.271 31.3887 127.509 31.1507 127.509 30.8571C127.509 30.5635 127.271 30.3255 126.977 30.3255C126.683 30.3255 126.445 30.5635 126.445 30.8571C126.445 31.1507 126.683 31.3887 126.977 31.3887Z" fill="#263238"/>
<path d="M127.509 32.4069C127.509 32.7006 127.271 32.9385 126.977 32.9385C126.683 32.9385 126.445 32.7006 126.445 32.4069C126.445 32.1132 126.684 31.8753 126.977 31.8753C127.271 31.875 127.509 32.1132 127.509 32.4069Z" fill="#263238"/>
<path d="M127.509 33.9564C127.509 34.2501 127.271 34.488 126.977 34.488C126.683 34.488 126.445 34.2498 126.445 33.9564C126.445 33.6627 126.684 33.4248 126.977 33.4248C127.271 33.4248 127.509 33.663 127.509 33.9564Z" fill="#263238"/>
<path d="M83.7945 32.6571C83.7633 32.6571 83.7324 32.6478 83.7057 32.628L82.2978 31.5954C82.2591 31.5669 82.2363 31.5216 82.2366 31.4736C82.2369 31.4256 82.26 31.3806 82.299 31.3527L83.7069 30.3396C83.7735 30.2913 83.8677 30.3063 83.9163 30.3738C83.9646 30.441 83.9493 30.5349 83.8821 30.5832L82.6416 31.4757L83.8833 32.3862C83.9502 32.4354 83.9646 32.5293 83.9154 32.5959C83.8863 32.6358 83.8404 32.6571 83.7945 32.6571Z" fill="#263238"/>
<path d="M120.513 83.1024C124.229 83.1024 127.242 80.096 127.242 76.3875C127.242 72.679 124.229 69.6726 120.513 69.6726C116.796 69.6726 113.784 72.679 113.784 76.3875C113.784 80.096 116.796 83.1024 120.513 83.1024Z" fill="#E0E0E0"/>
<path d="M122.355 80.3547H118.816C118.564 80.3547 118.359 80.1504 118.359 79.8981C118.359 79.6458 118.564 79.4415 118.816 79.4415H122.355C122.607 79.4415 122.811 79.6458 122.811 79.8981C122.811 80.1501 122.607 80.3547 122.355 80.3547Z" fill="#263238"/>
<path d="M120.786 72.0207H120.475V73.5927H120.786V72.0207Z" fill="#263238"/>
<path d="M116.042 78.3066C116.547 78.3066 116.956 77.8976 116.956 77.3931C116.956 76.8886 116.547 76.4796 116.042 76.4796C115.538 76.4796 115.129 76.8886 115.129 77.3931C115.129 77.8976 115.538 78.3066 116.042 78.3066Z" fill="#EBEBEB"/>
<path d="M125.263 78.2466C125.768 78.2466 126.177 77.8376 126.177 77.3331C126.177 76.8286 125.768 76.4196 125.263 76.4196C124.759 76.4196 124.35 76.8286 124.35 77.3331C124.35 77.8376 124.759 78.2466 125.263 78.2466Z" fill="#EBEBEB"/>
<path d="M120.766 73.2636C120.766 73.2636 124.48 73.2189 125.068 76.4358C125.656 79.6527 122.515 79.7127 121.612 79.7736C121.202 79.8012 120.326 79.8042 119.553 79.7907C117.84 79.761 116.631 79.4295 116.219 77.8413C116.171 77.6562 116.139 77.466 116.127 77.2725C116.017 75.5313 117.196 73.1781 120.766 73.2636Z" fill="#EBEBEB"/>
<path d="M118.072 78.1629L123.468 78.2472C124.033 78.2559 124.499 77.8047 124.508 77.2392C124.516 76.6737 124.065 76.2081 123.5 76.1991L118.104 76.1148C117.538 76.1061 117.073 76.5573 117.064 77.1228C117.055 77.6886 117.506 78.1542 118.072 78.1629Z" fill="#263238"/>
<path d="M122.348 77.1276C122.383 77.3058 122.555 77.4219 122.734 77.3871C122.912 77.3523 123.028 77.1795 122.993 77.0013C122.958 76.8231 122.785 76.707 122.607 76.7421C122.429 76.7769 122.313 76.9494 122.348 77.1276Z" fill="white"/>
<path d="M118.578 77.0673C118.613 77.2455 118.786 77.3616 118.964 77.3268C119.142 77.292 119.258 77.1192 119.223 76.941C119.189 76.7628 119.016 76.6467 118.838 76.6815C118.659 76.7166 118.543 76.8894 118.578 77.0673Z" fill="white"/>
<path d="M121.143 71.9892C121.143 72.2721 120.913 72.5016 120.63 72.5016C120.347 72.5016 120.118 72.2721 120.118 71.9892C120.118 71.7063 120.347 71.4768 120.63 71.4768C120.913 71.4771 121.143 71.7063 121.143 71.9892Z" fill="#EBEBEB"/>
<path d="M121.403 76.9761C121.412 76.9746 121.426 77.0016 121.436 77.0547C121.445 77.1078 121.444 77.1885 121.416 77.2827C121.389 77.3769 121.33 77.4831 121.236 77.5752C121.142 77.667 121.006 77.7426 120.849 77.7585C120.691 77.7714 120.544 77.7216 120.436 77.6481C120.326 77.5746 120.249 77.481 120.205 77.3931C120.161 77.3055 120.145 77.2263 120.145 77.1723C120.144 77.1183 120.154 77.0892 120.163 77.0889C120.186 77.0871 120.193 77.2026 120.292 77.3412C120.339 77.4102 120.411 77.4819 120.505 77.5368C120.598 77.592 120.716 77.6262 120.836 77.6166C120.956 77.6043 121.066 77.5494 121.147 77.4783C121.23 77.4072 121.288 77.3235 121.322 77.247C121.393 77.0934 121.38 76.9785 121.403 76.9761Z" fill="white"/>
<path d="M125.059 76.3308C125.061 76.3302 125.072 76.3584 125.089 76.4103C125.098 76.4361 125.108 76.4679 125.117 76.5057C125.126 76.5432 125.139 76.5858 125.147 76.6338C125.168 76.7292 125.185 76.8444 125.195 76.9734C125.203 77.1024 125.204 77.2446 125.191 77.3934C125.177 77.5419 125.152 77.682 125.121 77.8074C125.088 77.9325 125.052 78.0432 125.014 78.1332C124.998 78.1791 124.978 78.2187 124.962 78.2538C124.946 78.2892 124.931 78.3189 124.918 78.3426C124.892 78.3906 124.876 78.4167 124.875 78.4155C124.873 78.4146 124.885 78.3867 124.908 78.3375C124.919 78.3129 124.933 78.2829 124.948 78.2472C124.962 78.2115 124.98 78.1716 124.996 78.1257C125.03 78.0351 125.065 77.925 125.095 77.8008C125.125 77.6763 125.149 77.5374 125.163 77.3904C125.175 77.2434 125.176 77.1024 125.169 76.9746C125.16 76.8471 125.146 76.7325 125.128 76.6374C125.121 76.5894 125.11 76.5471 125.102 76.5093C125.094 76.4715 125.086 76.4394 125.078 76.4133C125.065 76.3608 125.058 76.3314 125.059 76.3308Z" fill="#263238"/>
<path d="M116.261 76.3506C116.259 76.35 116.248 76.3782 116.231 76.4301C116.222 76.4559 116.212 76.4877 116.203 76.5255C116.194 76.563 116.181 76.6056 116.173 76.6536C116.152 76.749 116.135 76.8642 116.125 76.9932C116.117 77.1222 116.116 77.2644 116.129 77.4132C116.143 77.5617 116.168 77.7018 116.199 77.8272C116.232 77.9523 116.268 78.063 116.305 78.153C116.322 78.1989 116.342 78.2385 116.358 78.2736C116.374 78.309 116.389 78.3387 116.402 78.3624C116.428 78.4104 116.443 78.4362 116.445 78.4353C116.447 78.4344 116.435 78.4065 116.412 78.3573C116.401 78.3327 116.387 78.3027 116.372 78.267C116.358 78.2313 116.34 78.1914 116.324 78.1455C116.29 78.0552 116.255 77.9448 116.224 77.8206C116.195 77.6961 116.171 77.5572 116.157 77.4102C116.145 77.2632 116.144 77.1222 116.151 76.9944C116.16 76.8666 116.174 76.7523 116.192 76.6569C116.199 76.6089 116.21 76.5666 116.218 76.5288C116.226 76.491 116.234 76.4589 116.242 76.4328C116.256 76.3806 116.263 76.3512 116.261 76.3506Z" fill="#263238"/>
<path d="M117.064 82.1532C117.064 82.1532 118.166 81.075 120.475 81.075C122.783 81.075 123.963 82.1532 123.963 82.1532C123.963 82.1532 120.747 84.3264 117.064 82.1532Z" fill="#EBEBEB"/>
<path d="M83.6907 83.2335H106.624C107.762 83.2335 108.685 82.3104 108.685 81.1716V74.5176L111.214 72.2733H108.685H83.6907C82.5519 72.2733 81.6288 73.1964 81.6288 74.3352V81.1716C81.6285 82.3101 82.5516 83.2335 83.6907 83.2335Z" fill="#EBEBEB"/>
<path d="M105.607 75.5262C105.607 75.5694 100.883 75.6042 95.0579 75.6042C89.2307 75.6042 84.5084 75.5691 84.5084 75.5262C84.5084 75.483 89.2307 75.4482 95.0579 75.4482C100.883 75.4482 105.607 75.483 105.607 75.5262Z" fill="white"/>
<path d="M105.607 77.3076C105.607 77.3508 100.883 77.3856 95.0579 77.3856C89.2307 77.3856 84.5084 77.3508 84.5084 77.3076C84.5084 77.2644 89.2307 77.2296 95.0579 77.2296C100.883 77.2296 105.607 77.2644 105.607 77.3076Z" fill="white"/>
<path d="M105.607 79.089C105.607 79.1322 100.883 79.167 95.0579 79.167C89.2307 79.167 84.5084 79.1319 84.5084 79.089C84.5084 79.0458 89.2307 79.011 95.0579 79.011C100.883 79.011 105.607 79.0458 105.607 79.089Z" fill="white"/>
<path d="M105.607 80.8704C105.607 80.9136 100.883 80.9484 95.0579 80.9484C89.2307 80.9484 84.5084 80.9136 84.5084 80.8704C84.5084 80.8272 89.2307 80.7924 95.0579 80.7924C100.883 80.7924 105.607 80.8272 105.607 80.8704Z" fill="white"/>
<path d="M120.513 120.386C124.229 120.386 127.242 117.379 127.242 113.671C127.242 109.962 124.229 106.956 120.513 106.956C116.796 106.956 113.784 109.962 113.784 113.671C113.784 117.379 116.796 120.386 120.513 120.386Z" fill="#E0E0E0"/>
<path d="M122.355 117.638H118.816C118.564 117.638 118.359 117.434 118.359 117.182C118.359 116.929 118.564 116.725 118.816 116.725H122.355C122.607 116.725 122.811 116.929 122.811 117.182C122.811 117.434 122.607 117.638 122.355 117.638Z" fill="#263238"/>
<path d="M120.786 109.304H120.475V110.876H120.786V109.304Z" fill="#263238"/>
<path d="M116.042 115.59C116.547 115.59 116.956 115.181 116.956 114.677C116.956 114.172 116.547 113.763 116.042 113.763C115.538 113.763 115.129 114.172 115.129 114.677C115.129 115.181 115.538 115.59 116.042 115.59Z" fill="#CCCCCC"/>
<path d="M125.263 115.53C125.768 115.53 126.177 115.121 126.177 114.616C126.177 114.112 125.768 113.703 125.263 113.703C124.759 113.703 124.35 114.112 124.35 114.616C124.35 115.121 124.759 115.53 125.263 115.53Z" fill="#CCCCCC"/>
<path d="M120.766 110.547C120.766 110.547 124.48 110.502 125.068 113.719C125.656 116.936 122.515 116.996 121.612 117.057C121.202 117.085 120.326 117.088 119.553 117.074C117.84 117.044 116.631 116.713 116.219 115.125C116.171 114.94 116.139 114.749 116.127 114.556C116.017 112.815 117.196 110.462 120.766 110.547Z" fill="#CCCCCC"/>
<path d="M118.072 115.447L123.468 115.531C124.033 115.54 124.499 115.088 124.508 114.523C124.516 113.957 124.065 113.492 123.5 113.483L118.104 113.399C117.538 113.39 117.073 113.841 117.064 114.407C117.055 114.972 117.506 115.438 118.072 115.447Z" fill="#263238"/>
<path d="M122.348 114.411C122.383 114.589 122.555 114.705 122.734 114.67C122.912 114.636 123.028 114.463 122.993 114.285C122.958 114.107 122.785 113.99 122.607 114.025C122.429 114.06 122.313 114.233 122.348 114.411Z" fill="white"/>
<path d="M118.578 114.351C118.613 114.529 118.786 114.645 118.964 114.61C119.142 114.575 119.258 114.403 119.223 114.224C119.189 114.046 119.016 113.93 118.838 113.965C118.659 114 118.543 114.173 118.578 114.351Z" fill="white"/>
<path d="M121.143 109.273C121.143 109.555 120.913 109.785 120.63 109.785C120.347 109.785 120.118 109.555 120.118 109.273C120.118 108.99 120.347 108.76 120.63 108.76C120.913 108.76 121.143 108.99 121.143 109.273Z" fill="#CCCCCC"/>
<path d="M121.403 114.259C121.412 114.258 121.426 114.285 121.436 114.338C121.445 114.391 121.444 114.472 121.416 114.566C121.389 114.66 121.33 114.766 121.236 114.859C121.142 114.95 121.006 115.026 120.849 115.042C120.691 115.055 120.544 115.005 120.436 114.931C120.326 114.858 120.249 114.764 120.205 114.676C120.161 114.589 120.145 114.51 120.145 114.456C120.144 114.402 120.154 114.373 120.163 114.372C120.186 114.37 120.193 114.486 120.292 114.625C120.339 114.694 120.411 114.765 120.505 114.82C120.598 114.875 120.716 114.91 120.836 114.9C120.956 114.888 121.066 114.833 121.147 114.762C121.23 114.691 121.288 114.607 121.322 114.53C121.393 114.377 121.38 114.262 121.403 114.259Z" fill="white"/>
<path d="M125.059 113.614C125.061 113.614 125.072 113.642 125.089 113.694C125.098 113.72 125.108 113.751 125.117 113.789C125.126 113.827 125.139 113.869 125.147 113.917C125.168 114.013 125.185 114.128 125.195 114.257C125.203 114.386 125.204 114.528 125.191 114.677C125.177 114.825 125.152 114.965 125.121 115.091C125.088 115.216 125.052 115.327 125.014 115.417C124.998 115.463 124.978 115.502 124.962 115.537C124.946 115.573 124.931 115.602 124.918 115.626C124.892 115.674 124.876 115.7 124.875 115.699C124.873 115.698 124.885 115.67 124.908 115.621C124.919 115.596 124.933 115.566 124.948 115.53C124.962 115.495 124.98 115.455 124.996 115.409C125.03 115.319 125.065 115.208 125.095 115.084C125.125 114.959 125.149 114.821 125.163 114.674C125.175 114.527 125.176 114.386 125.169 114.258C125.16 114.13 125.146 114.016 125.128 113.92C125.121 113.872 125.11 113.83 125.102 113.792C125.094 113.754 125.086 113.722 125.078 113.696C125.065 113.644 125.058 113.615 125.059 113.614Z" fill="#263238"/>
<path d="M116.261 113.634C116.259 113.633 116.248 113.662 116.231 113.713C116.222 113.739 116.212 113.771 116.203 113.809C116.194 113.846 116.181 113.889 116.173 113.937C116.152 114.032 116.135 114.148 116.125 114.277C116.117 114.406 116.116 114.548 116.129 114.697C116.143 114.845 116.168 114.985 116.199 115.111C116.232 115.236 116.268 115.346 116.305 115.436C116.322 115.482 116.342 115.522 116.358 115.557C116.374 115.592 116.389 115.622 116.402 115.646C116.428 115.694 116.443 115.72 116.445 115.719C116.447 115.718 116.435 115.69 116.412 115.641C116.401 115.616 116.387 115.586 116.372 115.55C116.358 115.515 116.34 115.475 116.324 115.429C116.29 115.338 116.255 115.228 116.224 115.104C116.195 114.979 116.171 114.841 116.157 114.694C116.145 114.547 116.144 114.406 116.151 114.278C116.16 114.15 116.174 114.036 116.192 113.941C116.199 113.893 116.21 113.85 116.218 113.812C116.226 113.775 116.234 113.743 116.242 113.716C116.256 113.664 116.263 113.635 116.261 113.634Z" fill="#263238"/>
<path d="M117.064 119.437C117.064 119.437 118.166 118.358 120.475 118.358C122.783 118.358 123.963 119.437 123.963 119.437C123.963 119.437 120.747 121.61 117.064 119.437Z" fill="#CCCCCC"/>
<path d="M83.6907 120.517H106.624C107.762 120.517 108.685 119.594 108.685 118.455V111.801L111.214 109.557H108.685H83.6907C82.5519 109.557 81.6288 110.48 81.6288 111.619V118.455C81.6285 119.594 82.5516 120.517 83.6907 120.517Z" fill="#EBEBEB"/>
<path d="M83.6907 130.922H106.624C107.762 130.922 108.685 129.999 108.685 128.86V126.655L111.214 124.411H108.685H83.6907C82.5519 124.411 81.6288 125.334 81.6288 126.472V128.86C81.6285 129.998 82.5516 130.922 83.6907 130.922Z" fill="#EBEBEB"/>
<path d="M105.607 112.81C105.607 112.853 100.883 112.888 95.0579 112.888C89.2307 112.888 84.5084 112.853 84.5084 112.81C84.5084 112.767 89.2307 112.732 95.0579 112.732C100.883 112.732 105.607 112.766 105.607 112.81Z" fill="white"/>
<path d="M105.607 114.591C105.607 114.634 100.883 114.669 95.0579 114.669C89.2307 114.669 84.5084 114.634 84.5084 114.591C84.5084 114.548 89.2307 114.513 95.0579 114.513C100.883 114.513 105.607 114.548 105.607 114.591Z" fill="white"/>
<path d="M105.607 116.372C105.607 116.416 100.883 116.45 95.0579 116.45C89.2307 116.45 84.5084 116.415 84.5084 116.372C84.5084 116.33 89.2307 116.294 95.0579 116.294C100.883 116.294 105.607 116.329 105.607 116.372Z" fill="white"/>
<path d="M105.607 118.154C105.607 118.197 100.883 118.232 95.0579 118.232C89.2307 118.232 84.5084 118.197 84.5084 118.154C84.5084 118.111 89.2307 118.076 95.0579 118.076C100.883 118.076 105.607 118.111 105.607 118.154Z" fill="white"/>
<path d="M105.672 127.76C105.672 127.804 100.998 127.838 95.2344 127.838C89.4684 127.838 84.7959 127.803 84.7959 127.76C84.7959 127.718 89.4684 127.682 95.2344 127.682C100.998 127.682 105.672 127.718 105.672 127.76Z" fill="white"/>
<path d="M28.932 123.418C29.7444 123.583 30.4371 124.156 30.8733 124.861C31.3092 125.566 31.5102 126.394 31.5894 127.22C31.7424 128.817 31.1889 130.579 30.498 132.027C28.9425 131.158 28.2177 129.223 27.9117 128.218C27.4278 126.629 27.5184 123.464 28.932 123.418Z" fill="#455A64"/>
<path d="M32.5686 134.278C32.172 133.441 32.3343 132.396 32.8836 131.65C33.4329 130.905 34.3242 130.45 35.2425 130.328C35.667 130.271 36.1443 130.298 36.4563 130.591C36.7479 130.865 36.8178 131.32 36.7095 131.705C36.6015 132.091 36.3423 132.416 36.0543 132.695C35.0673 133.65 33.9369 134.392 32.5686 134.278Z" fill="#455A64"/>
<path d="M31.8951 139.416C31.8867 139.416 31.8807 139.298 31.8741 139.086C31.8678 138.852 31.8597 138.55 31.8498 138.186C31.842 137.432 31.8093 136.356 32.1588 135.23C32.5014 134.109 33.1221 133.206 33.6984 132.701C33.9834 132.444 34.2441 132.272 34.4325 132.171C34.5246 132.117 34.6026 132.087 34.653 132.063C34.7043 132.04 34.7322 132.03 34.734 132.034C34.7487 132.057 34.302 132.239 33.7545 132.761C33.2028 133.272 32.607 134.162 32.2698 135.265C31.9266 136.367 31.9446 137.431 31.932 138.186C31.9293 138.566 31.9269 138.873 31.9194 139.086C31.9122 139.299 31.9026 139.416 31.8951 139.416Z" fill="#263238"/>
<path d="M29.0759 125.834C29.0798 125.833 29.0954 125.88 29.1215 125.97C29.1497 126.073 29.1857 126.204 29.2304 126.367C29.3228 126.712 29.4503 127.213 29.6024 127.834C29.9069 129.075 30.3038 130.796 30.6992 132.705C31.094 134.616 31.4123 136.353 31.625 137.613C31.7315 138.243 31.8134 138.753 31.8656 139.107C31.8893 139.274 31.9082 139.409 31.9232 139.514C31.9352 139.607 31.9394 139.657 31.9355 139.658C31.9316 139.658 31.9196 139.61 31.9001 139.518C31.8797 139.414 31.8536 139.28 31.8209 139.114C31.7528 138.749 31.6589 138.244 31.544 137.627C31.3106 136.371 30.9797 134.638 30.5852 132.728C30.1901 130.82 29.8064 129.098 29.5223 127.853C29.3828 127.24 29.2688 126.74 29.1863 126.377C29.1503 126.212 29.1212 126.079 29.0987 125.975C29.0798 125.883 29.072 125.834 29.0759 125.834Z" fill="#263238"/>
<path d="M30.4968 135.708C29.799 133.884 28.1667 132.447 26.2692 131.985C25.7859 131.868 25.1838 131.852 24.8922 132.254C24.6 132.658 24.8049 133.228 25.0776 133.644C26.2125 135.379 28.4703 136.295 30.4929 135.842" fill="#455A64"/>
<path d="M26.7948 133.42C26.7966 133.412 26.9046 133.434 27.0993 133.482C27.1968 133.505 27.3159 133.535 27.4497 133.584C27.5832 133.633 27.741 133.674 27.9036 133.751C28.0683 133.822 28.251 133.895 28.4352 133.999C28.6254 134.092 28.8165 134.212 29.0172 134.339C29.4111 134.604 29.8212 134.934 30.1965 135.335C30.5682 135.74 30.867 136.173 31.0995 136.588C31.2093 136.799 31.3146 136.999 31.3896 137.197C31.4766 137.39 31.5339 137.578 31.5885 137.749C31.6494 137.918 31.6749 138.08 31.7103 138.217C31.746 138.355 31.7625 138.477 31.7751 138.576C31.8021 138.775 31.8132 138.884 31.8051 138.886C31.7793 138.89 31.7325 138.448 31.5102 137.774C31.4511 137.607 31.3905 137.423 31.3008 137.235C31.2234 137.041 31.1163 136.846 31.0059 136.64C30.7722 136.235 30.4764 135.812 30.1113 135.415C29.7423 135.02 29.3418 134.695 28.9575 134.429C28.7616 134.301 28.5753 134.18 28.3896 134.084C28.2099 133.979 28.0317 133.902 27.8709 133.827C27.2214 133.541 26.7879 133.444 26.7948 133.42Z" fill="#263238"/>
<path d="M36.3291 45.5091L35.2188 42.0456C36.3474 40.2135 36.9999 38.0568 36.9999 35.7468C36.9999 29.1042 31.6152 23.7195 24.9726 23.7195C18.33 23.7195 12.9456 29.1042 12.9456 35.7468C12.9456 42.3891 18.3303 47.7738 24.9726 47.7738C27.7461 47.7738 30.2985 46.8324 32.3331 45.2553L32.3289 45.2607L36.3291 45.5091Z" fill="#FAFAFA"/>
<path d="M36.3288 45.5091C36.3288 45.5091 36.2466 45.5073 36.0771 45.4989C35.9013 45.4896 35.6487 45.4767 35.3172 45.4593C34.6347 45.4218 33.6318 45.3666 32.3268 45.2946C32.3082 45.2937 32.2938 45.2778 32.295 45.2592C32.2953 45.2523 32.298 45.2454 32.3022 45.2403L32.3064 45.2349L32.3541 45.2823C31.1262 46.2384 29.3055 47.2728 26.9244 47.667C26.3325 47.7669 25.7091 47.823 25.0629 47.8278C24.4182 47.8011 23.7465 47.799 23.0676 47.6688C21.7074 47.4561 20.2941 46.9944 18.9597 46.2291C17.6262 45.4668 16.3746 44.4024 15.3585 43.0698C14.3421 41.7402 13.5651 40.1406 13.1691 38.3901C12.7641 36.6426 12.7695 34.7454 13.2171 32.9082C13.2759 32.6793 13.335 32.4495 13.3941 32.2194C13.4619 31.9917 13.5537 31.7709 13.6326 31.5453C13.7217 31.3239 13.7814 31.089 13.8957 30.8766C13.9998 30.66 14.1045 30.4428 14.2092 30.2253C14.3055 30.003 14.4366 29.799 14.5629 29.5917L14.943 28.9686L15.3822 28.3812L15.6027 28.0866C15.678 27.9897 15.7659 27.903 15.8469 27.8106C17.1687 26.307 18.8199 25.1289 20.6268 24.4599C22.4244 23.7714 24.336 23.5344 26.1501 23.7042C27.9672 23.877 29.6736 24.4791 31.1319 25.347C32.5929 26.2164 33.8058 27.3573 34.7217 28.6125C35.6409 29.8683 36.2628 31.236 36.6249 32.5764C36.8229 33.2448 36.9066 33.9147 36.9954 34.5582C37.0233 35.2074 37.0779 35.8338 37.0302 36.4356C36.8877 38.8524 36.0555 40.7655 35.247 42.0624L35.2503 42.0354C35.6034 43.1649 35.8752 44.0349 36.0606 44.6283C36.1494 44.916 36.2175 45.1356 36.2649 45.2889C36.3093 45.4368 36.3288 45.5091 36.3288 45.5091C36.3288 45.5091 36.3 45.4299 36.2499 45.2796C36.1986 45.1254 36.1251 44.9043 36.0291 44.6145C35.8365 44.0289 35.5542 43.1703 35.1876 42.0555C35.1846 42.0462 35.1861 42.0363 35.1909 42.0285C35.9838 40.7313 36.7974 38.8269 36.9276 36.4299C36.9723 35.8329 36.915 35.2122 36.885 34.569C36.7941 33.9315 36.7089 33.2682 36.5103 32.6073C36.147 31.2813 35.5275 29.9298 34.6149 28.6899C33.7056 27.4506 32.5038 26.3253 31.0584 25.4688C29.6157 24.6138 27.9294 24.0219 26.1345 23.8533C24.3423 23.6877 22.4553 23.9238 20.6811 24.6042C18.8979 25.2654 17.2683 26.4291 15.9636 27.9132C15.8835 28.0044 15.7968 28.0899 15.7224 28.1856L15.5049 28.4763L15.0714 29.0559L14.6964 29.6709C14.5716 29.8755 14.4423 30.0768 14.3472 30.2964C14.2437 30.5112 14.1405 30.7254 14.0373 30.9393C13.9242 31.1487 13.8657 31.3806 13.7775 31.5993C13.6995 31.8219 13.6083 32.0397 13.5414 32.2644C13.4829 32.4918 13.4247 32.7183 13.3665 32.9445C12.9234 34.7574 12.9165 36.6318 13.3146 38.3577C13.7037 40.0869 14.4684 41.6679 15.4707 42.984C16.4724 44.3031 17.7075 45.3582 19.0245 46.1154C20.3424 46.8759 21.7395 47.337 23.0856 47.5521C23.7573 47.6835 24.4224 47.6877 25.0614 47.7168C25.7016 47.7147 26.3199 47.6613 26.907 47.565C29.2695 47.1846 31.083 46.1697 32.3121 45.2289C32.3268 45.2175 32.3481 45.2199 32.3598 45.2349C32.3694 45.2472 32.3691 45.2646 32.3598 45.2766L32.3556 45.282L32.331 45.2274C33.6249 45.3168 34.6188 45.3855 35.2953 45.4323C35.6304 45.4566 35.886 45.4749 36.0636 45.4875C36.237 45.5001 36.3288 45.5091 36.3288 45.5091Z" fill="#263238"/>
<path d="M21.5829 35.743C21.5829 36.4177 21.036 36.9649 20.3613 36.9649C19.6863 36.9649 19.1394 36.418 19.1394 35.743C19.1394 35.0683 19.6863 34.5211 20.3613 34.5211C21.0357 34.5214 21.5829 35.0683 21.5829 35.743Z" fill="#263238"/>
<path d="M26.4724 35.743C26.4724 36.4177 25.9252 36.9649 25.2505 36.9649C24.5758 36.9649 24.0286 36.418 24.0286 35.743C24.0286 35.0683 24.5755 34.5211 25.2505 34.5211C25.9255 34.5214 26.4724 35.0683 26.4724 35.743Z" fill="#263238"/>
<path d="M31.3495 35.1321C31.687 35.7165 31.4866 36.4638 30.9022 36.801C30.3178 37.1385 29.5705 36.9381 29.2333 36.3537C28.8958 35.7693 29.0962 35.022 29.6806 34.6845C30.265 34.3476 31.012 34.5477 31.3495 35.1321Z" fill="#263238"/>
<path d="M31.8349 89.712L19.1851 88.3908L13.8472 76.2438L9.68921 77.3286C9.68921 77.3286 12.7624 90.1641 16.1974 92.1528C19.6324 94.1415 31.3831 94.503 31.3831 94.503L31.8349 89.712Z" fill="#F2F2F2"/>
<path d="M38.5585 95.873C40.6146 93.5594 40.4059 90.017 38.0922 87.9608C35.7786 85.9047 32.2362 86.1135 30.1801 88.4271C28.124 90.7408 28.3327 94.2831 30.6464 96.3393C32.96 98.3954 36.5024 98.1866 38.5585 95.873Z" fill="#263238"/>
<path d="M34.3656 97.7643C32.8665 97.7643 31.4574 97.1805 30.3975 96.1206C29.3376 95.061 28.7538 93.6519 28.7538 92.1525C28.7538 90.6531 29.3376 89.2443 30.3975 88.1844C31.4574 87.1245 32.8665 86.5404 34.3656 86.5404C35.8647 86.5404 37.2738 87.1242 38.3337 88.1844C39.3936 89.244 39.9771 90.6534 39.9771 92.1525C39.9771 93.6513 39.3933 95.0607 38.3337 96.1206C37.2738 97.1805 35.8647 97.7643 34.3656 97.7643ZM34.3656 86.556C32.8707 86.556 31.4652 87.138 30.408 88.1952C29.3511 89.2521 28.7688 90.6576 28.7688 92.1525C28.7688 93.6474 29.3508 95.0529 30.408 96.1098C31.4652 97.167 32.8707 97.749 34.3656 97.749C35.8605 97.749 37.266 97.167 38.3229 96.1098C39.3801 95.0529 39.9621 93.6474 39.9621 92.1525C39.9621 90.6576 39.3801 89.2521 38.3229 88.1952C37.266 87.138 35.8605 86.556 34.3656 86.556Z" fill="#263238"/>
<path d="M18.0646 93.1186C20.322 92.5768 21.7127 90.3076 21.1709 88.0502C20.6291 85.7929 18.3599 84.4022 16.1025 84.944C13.8452 85.4858 12.4545 87.755 12.9963 90.0123C13.5381 92.2697 15.8073 93.6604 18.0646 93.1186Z" fill="#263238"/>
<path d="M13.8923 77.2283C15.2334 75.8872 15.2334 73.7129 13.8923 72.3718C12.5512 71.0307 10.3769 71.0307 9.0358 72.3718C7.69471 73.7129 7.69471 75.8872 9.0358 77.2283C10.3769 78.5694 12.5512 78.5694 13.8923 77.2283Z" fill="#263238"/>
<path d="M13.9957 75.3264L16.819 72.942C17.1295 72.6798 17.1688 72.2154 16.9066 71.9049L16.837 71.8227C16.5748 71.5122 16.1104 71.4729 15.7999 71.7354L12.9766 74.1198L13.9957 75.3264Z" fill="#263238"/>
<path d="M13.2261 72.1554V68.5662C13.2261 68.1597 12.8967 67.8303 12.4902 67.8303H12.3825C11.976 67.8303 11.6466 68.1597 11.6466 68.5662V72.1554C11.6466 72.2139 11.694 72.2616 11.7528 72.2616H13.1202C13.1787 72.2613 13.2261 72.2139 13.2261 72.1554Z" fill="#263238"/>
<path d="M11.4634 72.0828L10.6798 68.58C10.591 68.1834 10.1974 67.9338 9.80077 68.0223L9.69577 68.0457C9.29917 68.1345 9.04957 68.5278 9.13807 68.9247L9.92167 72.4275C9.93457 72.4848 9.99127 72.5208 10.0486 72.5079L11.3833 72.2094C11.4403 72.1968 11.4763 72.1401 11.4634 72.0828Z" fill="#263238"/>
<path d="M9.73445 72.5658L7.93985 69.4575C7.73675 69.1053 7.28645 68.9847 6.93455 69.1881L6.84125 69.2418C6.48905 69.4452 6.36875 69.8952 6.57185 70.2474L8.36645 73.3557C8.39585 73.4064 8.46065 73.4238 8.51135 73.3947L9.69575 72.711C9.74645 72.6816 9.76385 72.6168 9.73445 72.5658Z" fill="#263238"/>
<path d="M86.754 121.172L90.5352 119.563L79.6213 93.9044L75.8401 95.5127L86.754 121.172Z" fill="#F2F2F2"/>
<path d="M80.1639 96.3534C82.1646 93.9918 81.8721 90.4554 79.5105 88.4547C77.1488 86.454 73.6125 86.7465 71.6118 89.1081C69.611 91.4697 69.9036 95.0061 72.2652 97.0068C74.6268 99.0076 78.1632 98.715 80.1639 96.3534Z" fill="#263238"/>
<path d="M75.8946 98.3516C75.3387 98.3516 74.7801 98.2682 74.2338 98.0993C72.8016 97.6577 71.6269 96.6845 70.9264 95.3594C70.2259 94.0343 70.0833 92.5157 70.5252 91.0829C70.9671 89.6507 71.94 88.4762 73.2654 87.7757C74.5911 87.0755 76.1094 86.9327 77.5416 87.3749C78.9738 87.8165 80.1486 88.7897 80.8488 90.1148C81.5493 91.4399 81.6919 92.9588 81.25 94.3913C80.8081 95.8235 79.8351 96.9983 78.5097 97.6985C77.6901 98.1317 76.7964 98.3516 75.8946 98.3516ZM75.8805 87.1379C74.9814 87.1379 74.0898 87.3569 73.2723 87.7892C71.9508 88.4876 70.9803 89.6591 70.5396 91.0877C70.0989 92.5163 70.2411 94.0307 70.9395 95.3525C71.6382 96.674 72.8095 97.6448 74.2381 98.0852C75.667 98.5256 77.1816 98.3837 78.5028 97.685C79.8246 96.9866 80.7952 95.8151 81.2359 94.3865C81.6763 92.9579 81.534 91.4432 80.8356 90.1217C80.1369 88.8002 78.9657 87.8294 77.5368 87.389C76.9923 87.2213 76.4349 87.1379 75.8805 87.1379Z" fill="#263238"/>
<path d="M87.2416 109.488C87.8633 107.252 86.5541 104.934 84.3174 104.313C82.0807 103.691 79.7636 105 79.1419 107.237C78.5202 109.474 79.8294 111.791 82.0661 112.412C84.3028 113.034 86.62 111.725 87.2416 109.488Z" fill="#263238"/>
<path d="M92.7792 120.352C92.1786 118.553 90.2334 117.581 88.4343 118.182C86.6352 118.782 85.6635 120.727 86.2641 122.527C86.8647 124.326 88.8099 125.297 90.609 124.697C92.4081 124.096 93.3795 122.151 92.7792 120.352Z" fill="#263238"/>
<path d="M86.9541 121.742L85.0311 124.897C84.8196 125.245 84.9294 125.698 85.2765 125.909L85.3686 125.965C85.7157 126.177 86.1687 126.067 86.3802 125.72L88.3032 122.564L86.9541 121.742Z" fill="#263238"/>
<path d="M88.6881 124.506L89.8245 127.911C89.9532 128.296 90.3702 128.504 90.7557 128.376L90.858 128.341C91.2435 128.213 91.4517 127.796 91.323 127.41L90.1866 124.006C90.168 123.95 90.108 123.92 90.0522 123.938L88.755 124.371C88.6995 124.39 88.6695 124.45 88.6881 124.506Z" fill="#263238"/>
<path d="M90.3831 124.017L92.2353 127.091C92.445 127.439 92.8974 127.552 93.2457 127.342L93.3381 127.286C93.6864 127.076 93.7986 126.624 93.5886 126.276L91.7364 123.201C91.7061 123.151 91.641 123.135 91.5906 123.165L90.4191 123.871C90.369 123.901 90.3528 123.966 90.3831 124.017Z" fill="#263238"/>
<path d="M91.8702 123.011L94.5567 125.391C94.8609 125.661 95.3262 125.632 95.5956 125.328L95.667 125.248C95.9364 124.943 95.9085 124.478 95.6043 124.209L92.9178 121.828C92.874 121.79 92.8068 121.794 92.7681 121.837L91.8612 122.861C91.8222 122.905 91.8264 122.972 91.8702 123.011Z" fill="#263238"/>
<path d="M32.6892 86.3232C32.6892 86.3232 33.0936 125.663 55.1709 126.433C77.2482 127.202 78.1734 86.6046 78.1734 86.3232C78.1734 86.3232 75.5661 80.4561 55.4313 80.6859C35.2965 80.9154 32.6892 86.3232 32.6892 86.3232Z" fill="#F2F2F2"/>
<path d="M45.0933 79.3965H63.7542C64.9719 79.3965 65.9592 78.4095 65.9592 77.1915V76.8687C65.9592 75.651 64.9722 74.6637 63.7542 74.6637H45.0933C43.8756 74.6637 42.8883 75.6507 42.8883 76.8687V77.1915C42.8886 78.4095 43.8756 79.3965 45.0933 79.3965Z" fill="#263238"/>
<path d="M53.6229 44.4139H55.2339V36.2677H53.6229V44.4139Z" fill="#263238"/>
<path d="M79.0666 68.6567C81.6101 68.052 83.1818 65.4999 82.5771 62.9564C81.9724 60.4129 79.4203 58.8412 76.8768 59.4459C74.3333 60.0506 72.7616 62.6027 73.3663 65.1462C73.971 67.6897 76.5231 69.2614 79.0666 68.6567Z" fill="#F2F2F2"/>
<path d="M31.2259 68.3521C33.7754 67.7738 35.3734 65.2383 34.7951 62.6887C34.2168 60.1392 31.6812 58.5412 29.1317 59.1195C26.5822 59.6978 24.9842 62.2334 25.5625 64.7829C26.1408 67.3324 28.6764 68.9304 31.2259 68.3521Z" fill="#F2F2F2"/>
<path d="M53.4886 42.6476C53.4886 42.6476 34.2409 42.4163 31.1938 59.0873C28.1467 75.7586 44.4244 76.0697 49.1059 76.3856C51.229 76.5287 55.7707 76.5434 59.7784 76.4741C68.6512 76.3199 74.9206 74.6027 77.0542 66.371C77.3029 65.411 77.4709 64.4255 77.5336 63.4229C78.0979 54.4004 71.9905 42.2036 53.4886 42.6476Z" fill="#F2F2F2"/>
<path d="M67.4517 68.0391L39.4884 68.4756C36.5574 68.5215 34.1442 66.1824 34.0983 63.2514C34.0527 60.3204 36.3915 57.9072 39.3225 57.8616L67.2858 57.4251C70.2168 57.3792 72.63 59.7183 72.6756 62.6493C72.7218 65.58 70.3827 67.9932 67.4517 68.0391Z" fill="#263238"/>
<path d="M45.291 62.6724C45.1101 63.5955 44.2152 64.1973 43.2921 64.0164C42.369 63.8355 41.7672 62.9406 41.9481 62.0175C42.129 61.0944 43.0242 60.4926 43.9473 60.6735C44.8701 60.8544 45.4719 61.7493 45.291 62.6724Z" fill="white"/>
<path d="M64.8268 62.361C64.6459 63.2841 63.751 63.8859 62.8279 63.705C61.9048 63.5241 61.303 62.6292 61.4839 61.7061C61.6648 60.783 62.5597 60.1812 63.4828 60.3621C64.4059 60.5427 65.0077 61.4376 64.8268 62.361Z" fill="white"/>
<path d="M62.0158 101.947C61.7095 106.139 58.0621 109.29 53.8693 108.983C49.6765 108.677 46.5259 105.03 46.8325 100.837C47.1391 96.6441 50.7862 93.4938 54.979 93.8001C59.1718 94.1067 62.3221 97.7538 62.0158 101.947Z" fill="#263238"/>
<path d="M59.9563 101.796C59.7331 104.851 57.0751 107.147 54.0199 106.924C50.9647 106.7 48.6688 104.042 48.8923 100.987C49.1158 97.9319 51.7735 95.6363 54.8287 95.8595C57.8836 96.083 60.1795 98.7407 59.9563 101.796Z" fill="white"/>
<path d="M57.2812 102.804C57.2599 102.791 57.2437 102.463 57.2299 101.889C57.2161 101.315 57.2047 100.498 57.2038 99.4992L57.265 99.609C56.4343 99.1245 55.4671 98.5602 54.4111 97.9446L54.5704 97.947C53.6749 98.4501 52.7041 98.9958 51.6907 99.5652C51.6127 99.6951 51.7957 99.3888 51.7768 99.4206V99.4215V99.423V99.4263V99.4332L51.7765 99.4467L51.7762 99.474L51.7753 99.5283L51.7738 99.6369L51.7705 99.8529L51.7636 100.281C51.7588 100.565 51.7543 100.845 51.7495 101.121C51.739 101.672 51.7288 102.208 51.7189 102.724L51.6412 102.584C52.6843 103.222 53.635 103.802 54.4606 104.307L54.3349 104.305C55.2148 103.831 55.9396 103.454 56.4514 103.194C56.9632 102.933 57.2599 102.792 57.2812 102.804C57.3025 102.817 57.0466 102.984 56.5606 103.281C56.0746 103.577 55.357 104.004 54.4576 104.524L54.3961 104.559L54.3319 104.522C53.4964 104.035 52.534 103.473 51.478 102.857L51.3994 102.811L51.4003 102.718C51.4054 102.202 51.4108 101.667 51.4165 101.116C51.4201 100.839 51.4234 100.559 51.427 100.276L51.433 99.8475L51.436 99.6315L51.4375 99.5229L51.4384 99.4686L51.4387 99.4416L51.439 99.4278V99.4209V99.4176V99.4158V99.4149C51.4201 99.4461 51.6034 99.1392 51.526 99.2691C52.5427 98.7057 53.5168 98.166 54.4153 97.668L54.4969 97.6227L54.5746 97.6701C55.6177 98.3073 56.5732 98.8911 57.394 99.3924L57.4573 99.4311L57.4552 99.5022C57.4246 100.54 57.3889 101.375 57.3586 101.943C57.328 102.513 57.3025 102.817 57.2812 102.804Z" fill="#F2F2F2"/>
<path d="M56.3052 37.983C57.3421 36.9461 57.3421 35.2649 56.3052 34.2279C55.2682 33.191 53.587 33.191 52.55 34.2279C51.5131 35.2649 51.5131 36.9461 52.55 37.983C53.587 39.02 55.2682 39.02 56.3052 37.983Z" fill="#F2F2F2"/>
<path d="M50.1876 61.887C50.3142 61.9005 50.2512 62.4963 50.6229 63.2883C50.8026 63.6816 51.1017 64.1115 51.5271 64.4769C51.9492 64.8426 52.5114 65.1231 53.1273 65.187C53.745 65.2359 54.3486 65.0619 54.8301 64.7787C55.3146 64.4967 55.6869 64.128 55.9347 63.7737C56.4438 63.0621 56.4897 62.4651 56.6166 62.4744C56.6661 62.4753 56.718 62.6259 56.718 62.9076C56.7198 63.189 56.6382 63.6003 56.4081 64.0581C56.1807 64.5153 55.7838 65.0049 55.2123 65.3886C54.6471 65.7717 53.88 66.0321 53.0562 65.9649C52.2342 65.8818 51.5274 65.4867 51.0408 65.0076C50.5482 64.5267 50.2467 63.9735 50.1057 63.4827C49.9626 62.991 49.9566 62.5713 50.0094 62.295C50.0607 62.0175 50.1387 61.8789 50.1876 61.887Z" fill="white"/>
<path d="M75.8155 69.6609C75.7873 69.6447 76.1323 69.1209 76.4644 68.1756C76.8052 67.2354 77.1025 65.8743 77.245 64.3521C77.3971 62.829 77.374 61.4388 77.335 60.4368C77.3116 59.9355 77.2882 59.5296 77.2657 59.2497C77.2456 58.9695 77.2396 58.8135 77.2504 58.8123C77.2612 58.8111 77.2876 58.9644 77.3263 59.2437C77.3674 59.5224 77.4079 59.9283 77.4454 60.4308C77.5129 61.4352 77.5537 62.8332 77.4007 64.3674C77.2573 65.9004 76.9399 67.2729 76.5682 68.214C76.3876 68.6865 76.2013 69.0528 76.0588 69.2961C75.9106 69.537 75.8248 69.6666 75.8155 69.6609Z" fill="#263238"/>
<path d="M31.2375 58.5429C31.2477 58.5462 31.2132 58.6989 31.1424 58.971C31.1052 59.1066 31.062 59.273 31.0227 59.4689C30.9819 59.6642 30.9249 59.8844 30.8877 60.1328C30.7938 60.6257 30.7209 61.2198 30.6768 61.881C30.6426 62.5428 30.6432 63.2724 30.7074 64.0347C30.7785 64.7967 30.9063 65.5151 31.0566 66.1607C31.2162 66.8039 31.3929 67.3757 31.572 67.8446C31.6524 68.0825 31.7472 68.2892 31.8219 68.4743C31.8951 68.6603 31.9671 68.8164 32.0274 68.9433C32.145 69.1986 32.2059 69.3429 32.1963 69.348C32.1867 69.3531 32.1078 69.2186 31.9728 68.9702C31.9038 68.8469 31.8234 68.6937 31.7421 68.5101C31.6593 68.3271 31.5567 68.1221 31.4691 67.8845C31.2753 67.4168 31.086 66.8435 30.9168 66.1952C30.7572 65.5451 30.6234 64.8188 30.5517 64.0487C30.4869 63.278 30.4905 62.5401 30.5331 61.872C30.5853 61.2045 30.6708 60.6062 30.7791 60.1121C30.8238 59.8631 30.8886 59.6429 30.9378 59.4485C30.9855 59.2535 31.0377 59.0886 31.0839 58.9548C31.173 58.6857 31.227 58.5393 31.2375 58.5429Z" fill="#263238"/>
<path d="M32.5974 86.2881C32.5983 86.2857 32.6376 86.2971 32.7132 86.322C32.7957 86.3499 32.9064 86.3877 33.0474 86.4357C33.348 86.5416 33.7776 86.6931 34.3269 86.8869C34.605 86.9862 34.9131 87.0963 35.2497 87.2163C35.5893 87.3297 35.964 87.4368 36.3633 87.561C37.1649 87.7992 38.067 88.1073 39.0924 88.3485C39.6024 88.4793 40.1364 88.6164 40.6926 88.7589C41.2497 88.899 41.8389 89.0034 42.4434 89.1348C43.6503 89.412 44.9598 89.6004 46.3329 89.8227C49.0896 90.1971 52.1427 90.4542 55.3548 90.468C58.5681 90.4548 61.6218 90.1983 64.3791 89.8242C65.7528 89.6019 67.0623 89.4138 68.2692 89.1369C68.8737 89.0058 69.4629 88.9014 70.02 88.7613C70.5762 88.6188 71.1105 88.4817 71.6202 88.3509C72.6456 88.1097 73.5477 87.8019 74.3493 87.5637C74.7486 87.4395 75.123 87.3327 75.4629 87.219C75.7995 87.099 76.1079 86.9889 76.3857 86.8896C76.935 86.6961 77.3643 86.5446 77.6649 86.4387C77.8059 86.3907 77.9166 86.3532 77.9991 86.325C78.0747 86.3001 78.114 86.2887 78.1149 86.2914C78.1158 86.2938 78.0786 86.3103 78.0048 86.34C77.9238 86.3715 77.8149 86.4141 77.676 86.4681C77.3775 86.5806 76.9512 86.7414 76.4058 86.9469C76.1289 87.0501 75.8217 87.1644 75.4863 87.2895C75.1476 87.4074 74.7738 87.5184 74.3754 87.6468C73.575 87.8931 72.6738 88.209 71.6484 88.4574C71.1384 88.5915 70.6041 88.7319 70.0476 88.8783C69.4902 89.0217 68.9004 89.1294 68.2953 89.2635C67.0869 89.5467 65.7753 89.7399 64.3992 89.9667C61.6368 90.3495 58.5756 90.6108 55.3545 90.624C52.1346 90.6102 49.074 90.3483 46.3122 89.9649C44.9364 89.7381 43.6248 89.5446 42.4164 89.2614C41.811 89.1273 41.2215 89.0196 40.6641 88.8759C40.1076 88.7295 39.5733 88.5891 39.0633 88.4547C38.0379 88.2063 37.1367 87.8901 36.3363 87.6438C35.9379 87.5154 35.5641 87.4041 35.2254 87.2862C34.89 87.1611 34.5828 87.0468 34.3059 86.9436C33.7605 86.7381 33.3342 86.5773 33.0357 86.4645C32.8968 86.4105 32.7879 86.3679 32.7069 86.3364C32.6337 86.307 32.5962 86.2905 32.5974 86.2881Z" fill="#263238"/>
<g opacity="0.3">
<path d="M32.6892 86.3232C32.6892 86.3232 35.2965 80.9154 55.4313 80.6859C75.5661 80.4564 78.1734 86.3232 78.1734 86.3232C78.1734 86.3232 57.8631 96.3402 32.6892 86.3232Z" fill="black"/>
</g>
<path d="M51.0523 43.8948C51.0523 43.8975 51.0289 43.9014 50.983 43.9065C50.9278 43.9116 50.8609 43.9176 50.7796 43.9248C50.6011 43.9434 50.3362 43.9488 49.9981 43.9896C49.3204 44.0511 48.3418 44.1846 47.1574 44.4603C45.973 44.7342 44.5876 45.1779 43.1293 45.8538C41.6713 46.527 40.1503 47.4501 38.716 48.6246C37.2904 49.8105 36.0952 51.129 35.1574 52.4328C34.2172 53.7366 33.5185 55.0128 33.025 56.1237C32.5294 57.2343 32.2129 58.1694 32.0239 58.8234C31.9198 59.1477 31.864 59.4066 31.8121 59.5785C31.7893 59.6571 31.7707 59.7216 31.7554 59.7747C31.7416 59.8188 31.7335 59.841 31.7308 59.8404C31.7281 59.8398 31.7314 59.8164 31.7398 59.7711C31.7512 59.7168 31.7647 59.6511 31.7815 59.571C31.8238 59.3967 31.87 59.1348 31.9654 58.8069C32.137 58.146 32.4388 57.2016 32.9242 56.079C33.4075 54.9564 34.1005 53.6664 35.0407 52.3491C35.9785 51.0315 37.1797 49.6995 38.617 48.5043C40.063 47.3205 41.5981 46.3941 43.0696 45.7233C44.5414 45.0501 45.9394 44.6145 47.1331 44.3529C48.3271 44.0895 49.312 43.9722 49.9933 43.929C50.3332 43.8975 50.5993 43.9017 50.7787 43.8933C50.8606 43.8921 50.9278 43.8912 50.983 43.8903C51.0286 43.8906 51.0523 43.8921 51.0523 43.8948Z" fill="white"/>
<path d="M32.2189 66.9888C32.2009 66.9963 32.0848 66.7722 31.9453 66.3897C31.8055 66.0078 31.6507 65.4642 31.5538 64.8495C31.4581 64.2345 31.4392 63.6693 31.4554 63.2631C31.4713 62.8563 31.5133 62.6076 31.5328 62.6091C31.582 62.6112 31.5139 63.6132 31.7083 64.8252C31.8937 66.0384 32.2648 66.9717 32.2189 66.9888Z" fill="white"/>
<path d="M27.1704 65.4387C27.1629 65.445 27.1023 65.3901 27.0081 65.277C26.9136 65.1642 26.7906 64.9881 26.6688 64.7529C26.424 64.2882 26.2116 63.5496 26.3187 62.7366C26.4273 61.9236 26.8251 61.2657 27.1824 60.8808C27.3612 60.6855 27.5259 60.5475 27.6465 60.4632C27.7671 60.3786 27.84 60.3414 27.8454 60.3492C27.8628 60.3717 27.5925 60.5547 27.2661 60.9528C26.9406 61.3446 26.577 61.9818 26.4735 62.757C26.3715 63.5319 26.556 64.242 26.7681 64.7052C26.9796 65.1741 27.1929 65.4216 27.1704 65.4387Z" fill="white"/>
<path d="M54.6043 34.2549C54.5977 34.2843 54.3304 34.1859 53.8984 34.2375C53.4772 34.2816 52.8715 34.5246 52.5121 35.0763C52.1599 35.6328 52.1914 36.2847 52.3264 36.6861C52.4593 37.1007 52.66 37.3026 52.636 37.3209C52.6294 37.3272 52.5736 37.284 52.4911 37.188C52.408 37.0923 52.306 36.936 52.2223 36.723C52.0525 36.3087 51.994 35.6046 52.3807 34.992C52.7767 34.3857 53.4409 34.1457 53.8885 34.1277C54.1171 34.1154 54.3016 34.143 54.4231 34.1787C54.5449 34.2135 54.6073 34.2462 54.6043 34.2549Z" fill="white"/>
<path d="M80.7486 61.8C80.7159 61.8354 80.2491 61.3899 79.5441 61.0524C78.8424 60.7074 78.2037 60.6165 78.2112 60.5691C78.21 60.5307 78.8814 60.5538 79.6122 60.912C80.3457 61.2639 80.7798 61.7769 80.7486 61.8Z" fill="white"/>
<path d="M39.613 114.321C39.6106 114.322 39.5977 114.302 39.5749 114.263C39.5482 114.215 39.5161 114.157 39.4768 114.086C39.3874 113.917 39.2659 113.687 39.1126 113.398C39.0343 113.246 38.9482 113.08 38.8543 112.898C38.7673 112.711 38.6731 112.508 38.5723 112.291C38.368 111.856 38.1382 111.359 37.915 110.797C37.8001 110.517 37.6798 110.224 37.5547 109.919C37.4401 109.609 37.321 109.287 37.1974 108.954C36.9397 108.291 36.7213 107.563 36.4639 106.805C35.9938 105.277 35.5324 103.58 35.1274 101.779C34.7311 99.9768 34.4275 98.2443 34.1884 96.6636C33.9676 95.0802 33.7927 93.651 33.6967 92.4456C33.6382 91.8441 33.6031 91.2984 33.5731 90.8193C33.5395 90.3405 33.517 89.9277 33.5074 89.5896C33.4966 89.2626 33.4879 89.0031 33.4816 88.812C33.4804 88.731 33.4795 88.6647 33.4789 88.6095C33.4792 88.5639 33.4807 88.5405 33.4834 88.5405C33.4861 88.5405 33.49 88.5636 33.4951 88.6089C33.4999 88.6638 33.5059 88.7298 33.5134 88.8105C33.5269 89.0013 33.5452 89.2599 33.5683 89.5863C33.5875 89.9235 33.6187 90.3351 33.6607 90.813C33.6991 91.2909 33.7417 91.8354 33.8071 92.4354C33.9169 93.6375 34.1029 95.0631 34.3312 96.6423C34.5775 98.2188 34.885 99.9468 35.2801 101.745C35.6842 103.541 36.1402 105.235 36.6016 106.762C36.8545 107.518 37.0675 108.246 37.3195 108.91C37.4395 109.243 37.5556 109.565 37.6672 109.875C37.7887 110.181 37.9057 110.474 38.0173 110.755C38.2333 111.319 38.4556 111.817 38.6518 112.254C38.7481 112.472 38.8381 112.677 38.9215 112.865C39.0109 113.049 39.0928 113.217 39.1672 113.37C39.3091 113.665 39.4219 113.899 39.505 114.071C39.5389 114.145 39.5665 114.205 39.5893 114.255C39.6073 114.297 39.6154 114.319 39.613 114.321Z" fill="white"/>
<path d="M27.8611 89.8631C27.8581 89.906 26.8765 89.8712 25.669 89.7854C24.4612 89.6993 23.4847 89.5947 23.4877 89.5518C23.4907 89.5089 24.472 89.5436 25.6801 89.6297C26.8876 89.7155 27.8644 89.8202 27.8611 89.8631Z" fill="white"/>
<path d="M16.5751 83.4579C16.5373 83.4786 16.0261 82.6083 15.4333 81.5145C14.8405 80.4204 14.3908 79.5171 14.4289 79.4964C14.4667 79.476 14.9779 80.346 15.5707 81.4401C16.1632 82.5339 16.6129 83.4375 16.5751 83.4579Z" fill="white"/>
<path d="M50.2503 123.78C50.2485 123.79 50.1237 123.775 49.8987 123.737C49.6734 123.703 49.3515 123.627 48.9606 123.51C48.5685 123.396 48.1131 123.223 47.6226 122.996C47.136 122.762 46.6164 122.47 46.104 122.114C45.5949 121.752 45.1446 121.362 44.7594 120.983C44.3799 120.598 44.0628 120.228 43.8228 119.898C43.581 119.569 43.4007 119.292 43.2921 119.092C43.1805 118.893 43.1235 118.781 43.1328 118.776C43.1583 118.76 43.4091 119.197 43.9101 119.831C44.1585 120.149 44.4804 120.507 44.8602 120.881C45.2457 121.249 45.6921 121.63 46.1937 121.986C46.6986 122.338 47.208 122.629 47.6847 122.867C48.165 123.097 48.6105 123.279 48.9942 123.405C49.7601 123.662 50.256 123.751 50.2503 123.78Z" fill="white"/>
<path d="M54.8526 109.901C54.8529 109.906 54.7806 109.913 54.6423 109.922C54.504 109.925 54.2994 109.955 54.0363 109.94C53.5098 109.939 52.7424 109.854 51.8364 109.583C51.3828 109.45 50.9028 109.251 50.4036 109.006C49.9146 108.743 49.3998 108.44 48.9138 108.044C47.9319 107.272 47.0205 106.188 46.4322 104.861C45.8643 103.525 45.6945 102.119 45.8004 100.874C45.8433 100.249 45.9735 99.6657 46.1148 99.1284C46.2765 98.5965 46.4592 98.1102 46.6719 97.6881C47.0922 96.8412 47.5545 96.2229 47.913 95.8374C48.0813 95.6343 48.2433 95.5056 48.3396 95.4066C48.4404 95.3115 48.495 95.2638 48.4989 95.2677C48.5109 95.2797 48.2994 95.4804 47.9592 95.8773C47.6172 96.2721 47.1741 96.894 46.7718 97.7361C46.5681 98.1558 46.3941 98.6379 46.2399 99.1638C46.1061 99.6948 45.9825 100.27 45.9444 100.885C45.8478 102.112 46.02 103.491 46.5759 104.8C47.1525 106.099 48.0426 107.166 49.0041 107.932C49.4799 108.325 49.9845 108.627 50.4636 108.892C50.9529 109.138 51.4239 109.34 51.8697 109.478C52.7598 109.759 53.5164 109.86 54.0387 109.879C54.5607 109.901 54.852 109.884 54.8526 109.901Z" fill="white"/>
<path d="M18.5316 86.2761C18.519 86.3013 18.2997 86.1894 17.9211 86.1033C17.5443 86.0154 17.0001 85.9821 16.4247 86.1183C15.8499 86.2578 15.3801 86.5347 15.084 86.784C14.7858 87.0324 14.6409 87.2316 14.6184 87.2148C14.6055 87.2076 14.7195 86.9817 15.0108 86.7012C15.2985 86.4207 15.7851 86.1123 16.3881 85.9665C16.9914 85.8231 17.565 85.8774 17.9487 85.9965C18.3354 86.1141 18.5397 86.2638 18.5316 86.2761Z" fill="white"/>
<path d="M62.8308 56.4477C62.8308 56.4909 59.1474 56.5257 54.6048 56.5257C50.0604 56.5257 46.3779 56.4906 46.3779 56.4477C46.3779 56.4045 50.0604 56.3697 54.6048 56.3697C59.1474 56.3694 62.8308 56.4045 62.8308 56.4477Z" fill="white"/>
<path d="M48.7933 75.2058C48.7936 75.2112 48.7459 75.2187 48.6541 75.2283C48.544 75.2379 48.4117 75.2493 48.2527 75.2628C48.0784 75.2778 47.8648 75.2916 47.6161 75.2955C47.3677 75.3009 47.0845 75.315 46.7716 75.3054C46.1455 75.3039 45.4003 75.261 44.5768 75.1737C43.7545 75.0777 42.8542 74.9319 41.923 74.7159C40.9927 74.4936 40.1221 74.2221 39.343 73.941C38.5669 73.6515 37.8808 73.3575 37.3201 73.0794C37.0357 72.9486 36.7888 72.8094 36.5689 72.6939C36.3481 72.5796 36.1633 72.4719 36.0139 72.3807C35.8777 72.2976 35.7646 72.2283 35.6701 72.1707C35.5924 72.1212 35.5531 72.093 35.5558 72.0885C35.5585 72.0837 35.6032 72.1029 35.686 72.1437C35.7841 72.1941 35.902 72.2547 36.0433 72.3276C36.1969 72.4104 36.3853 72.51 36.6091 72.6165C36.832 72.7242 37.0813 72.8559 37.3672 72.9798C37.9315 73.2438 38.6179 73.5255 39.3919 73.8057C40.1686 74.0775 41.0347 74.343 41.9587 74.5638C42.8839 74.7783 43.777 74.9274 44.5933 75.0306C45.4108 75.1251 46.1509 75.1791 46.7737 75.195C47.0848 75.2118 47.3668 75.2052 47.6143 75.2082C47.8621 75.2127 48.0751 75.2076 48.2494 75.2022C48.4087 75.2001 48.5413 75.1983 48.6514 75.1971C48.7444 75.1974 48.793 75.2004 48.7933 75.2058Z" fill="white"/>
<path d="M72.7399 88.7262C72.7408 88.7289 72.7165 88.7397 72.6682 88.7589C72.6112 88.7802 72.5401 88.8069 72.4525 88.8399C72.2503 88.9119 71.9713 89.0112 71.6179 89.1369C71.2558 89.2674 70.8106 89.4198 70.2859 89.5737C69.7624 89.7306 69.1708 89.9259 68.503 90.0924C68.17 90.1806 67.8217 90.2727 67.4587 90.3687C67.0951 90.4632 66.712 90.5412 66.3178 90.6327C65.5309 90.8235 64.6789 90.9732 63.7846 91.1421C61.99 91.4448 60.0028 91.6983 57.9061 91.8339C55.8079 91.956 53.8039 91.9479 51.9856 91.8669C51.0772 91.809 50.2132 91.7643 49.4089 91.6716C49.0066 91.629 48.6166 91.5984 48.2443 91.5492C47.8723 91.4985 47.5153 91.4496 47.1739 91.4031C46.4908 91.3197 45.8797 91.1979 45.3409 91.1064C44.8015 91.0179 44.341 90.921 43.9657 90.8358C43.5997 90.7542 43.3108 90.69 43.1011 90.6432C43.0102 90.6213 42.9364 90.6036 42.8773 90.5892C42.8269 90.5763 42.8017 90.5682 42.8023 90.5655C42.8029 90.5628 42.8296 90.5655 42.8809 90.5736C42.9412 90.5838 43.0156 90.5967 43.108 90.6123C43.3189 90.6519 43.6096 90.7068 43.9777 90.7761C44.3545 90.852 44.8159 90.9399 45.3559 91.0203C45.8953 91.1034 46.5061 91.2174 47.1889 91.2936C47.5297 91.3371 47.8867 91.3824 48.2581 91.4295C48.6301 91.4757 49.0192 91.5027 49.4209 91.5426C50.224 91.6296 51.0859 91.6692 51.9922 91.7232C53.806 91.7961 55.804 91.8 57.8962 91.6782C59.9869 91.5429 61.969 91.2945 63.76 91.0005C64.6525 90.8361 65.5033 90.6915 66.2896 90.5067C66.6835 90.4179 67.0663 90.3432 67.4299 90.252C67.7929 90.1596 68.1415 90.0708 68.4745 89.9862C69.1429 89.8269 69.7354 89.6391 70.2604 89.4906C70.7866 89.3448 71.2339 89.2011 71.5987 89.0796C71.9557 88.9656 72.2377 88.8759 72.442 88.8108C72.5317 88.7838 72.6043 88.7622 72.6628 88.7445C72.7132 88.7298 72.739 88.7238 72.7399 88.7262Z" fill="white"/>
</svg>
