<svg width="330" height="332" viewBox="0 0 330 332" fill="none" xmlns="http://www.w3.org/2000/svg">
<path d="M230.226 63.8469C225.708 63.8469 221.755 67.518 221.755 72.3175V88.4123C221.755 92.9297 220.061 97.4483 216.954 100.554L198.318 120.32C194.082 124.837 187.023 120.602 189.282 118.626L203.683 104.225C207.918 99.9899 207.918 92.9311 203.683 88.4124C200.859 85.5889 199.165 90.9538 181.093 107.896C168.951 120.038 175.164 133.875 173.469 165.782C173.469 166.347 173.751 166.63 174.316 166.63H200.577C201.141 166.63 201.425 166.348 201.425 165.782L201.423 155.336C201.423 142.346 210.741 137.547 225.989 116.935C237.566 105.357 231.918 92.0858 233.331 67.2388C233.331 65.2616 231.919 63.8497 230.225 63.8497L230.226 63.8469Z" fill="#FFE3B8"/>
<path d="M128.291 166.064C128.291 166.628 128.573 166.911 129.139 166.911H155.117C155.681 166.911 155.965 166.629 155.965 166.064C154.271 135.004 160.482 121.167 148.34 109.306L129.14 90.1057C128.858 89.5415 128.292 89.5415 127.728 89.5415C127.164 89.5415 126.599 89.8236 126.316 90.1057C122.081 94.3411 122.081 101.4 126.316 105.636C140.152 119.755 142.129 120.32 140.435 121.731C137.894 124.273 133.941 124.273 131.399 121.449C117.28 104.789 108.246 101.119 108.246 89.8236V74.0106C108.246 71.7513 107.398 69.7752 105.704 68.0816C104.293 66.6698 102.033 65.5402 99.7753 65.5402C98.0815 65.5402 96.6697 66.9519 96.6697 68.6458C98.0815 92.9293 92.4343 106.201 104.012 117.779L123.212 141.217C126.601 145.17 128.295 150.252 128.295 155.617L128.291 166.064Z" fill="#FFE3B8"/>
<path d="M158.502 171.432H125.465C124.901 171.432 124.617 171.714 124.617 172.28V179.622C124.617 180.186 124.899 180.469 125.465 180.469H158.22C158.784 180.469 159.068 180.187 159.068 179.622V172.28C159.35 171.996 158.784 171.432 158.502 171.432Z" fill="#98B0FA"/>
<path d="M203.682 171.432H170.926C170.362 171.432 170.079 171.714 170.079 172.28V179.622C170.079 180.186 170.361 180.469 170.926 180.469H203.682C204.246 180.469 204.529 180.187 204.529 179.622V172.28C204.529 171.996 204.246 171.432 203.682 171.432Z" fill="#98B0FA"/>
<mask id="path-5-inside-1_11_8" fill="white">
<path d="M187.305 90.6732C194.364 92.085 201.706 85.8723 200.576 77.9658C197.753 78.53 190.128 78.2479 190.976 75.9899C191.258 75.4257 191.824 75.1423 192.388 75.1423C207.071 79.6596 213.284 64.6943 205.942 57.07C211.871 52.2691 211.589 43.2345 205.094 38.7158C209.329 32.5033 206.224 23.7505 199.165 21.4912C198.883 23.4671 197.189 29.1154 195.494 27.9859C194.93 27.7038 194.646 26.8563 195.212 26.5742C195.212 26.5742 196.624 24.3148 197.188 21.2092C199.729 12.7386 192.387 4.83216 184.48 6.52608C180.809 -0.532786 171.491 -1.66228 166.408 3.42046L166.409 36.7396C167.257 36.1755 167.821 35.3279 168.103 34.4803C168.385 33.9161 168.951 33.6327 169.515 33.9161C170.079 34.1982 170.363 34.7637 170.079 35.3279C169.515 37.0217 168.103 38.4335 166.408 39.2811V59.8936C168.384 60.7412 170.079 62.153 170.925 64.4109C171.208 64.9751 170.925 65.5406 170.361 65.8227C169.797 66.1048 169.232 65.8227 168.95 65.2585C168.385 64.1289 167.538 62.9992 166.408 62.435V92.0835C170.927 100.838 183.916 99.9899 187.305 90.6717L187.305 90.6732ZM198.317 31.6591C201.988 36.7418 200.011 42.9534 198.035 42.9534C197.753 42.9534 197.753 42.9534 197.471 42.6713C196.907 42.3892 196.907 41.5416 197.189 41.2595C199.73 37.3063 196.625 33.0712 196.625 33.0712C195.494 31.6594 197.47 30.5294 198.317 31.6591ZM196.341 57.0721C203.118 55.3783 205.659 49.4479 203.683 43.5185C203.401 42.9543 203.965 42.3888 204.531 42.1067C207.072 41.2591 207.92 51.1427 203.119 55.9422C208.202 63.0011 203.401 70.9076 201.143 70.9076C200.013 70.9076 199.731 69.4958 200.579 68.9316C203.685 66.6723 204.532 61.8728 201.427 57.3541C200.297 58.2017 198.603 58.7659 196.909 59.3301H196.627C196.063 59.3301 195.78 59.048 195.497 58.4825C195.494 57.9196 195.776 57.3542 196.341 57.0721ZM195.212 63.2847C196.341 64.9785 196.059 67.5201 194.647 68.9319C193.236 70.3436 191.258 70.3436 189.846 70.9078C188.153 71.472 187.871 72.8838 188.153 73.4492C188.717 74.2968 188.153 75.1431 187.305 75.1431C185.611 75.1431 184.482 70.6258 188.999 68.9305C189.563 68.6484 190.129 68.6484 190.693 68.3663C191.54 68.0842 192.669 67.8022 193.234 67.2367C194.082 66.6725 194.082 65.2607 193.516 64.4131C193.234 63.8489 193.234 63.2835 193.798 62.7193C194.364 62.7193 194.928 62.7192 195.212 63.2847ZM194.646 37.024C194.646 37.5882 194.082 38.1537 193.516 38.1537C189.563 37.8716 186.458 39.5655 184.198 41.5429C188.716 43.5188 192.952 45.4961 194.08 48.8849C194.363 49.4491 194.08 50.0146 193.516 50.2967H193.234C192.67 50.2967 192.387 50.0146 192.105 49.4491C190.975 46.6256 185.046 44.3664 181.939 42.6725C181.657 42.3904 176.574 40.6965 175.726 31.9426C175.726 30.5308 177.702 30.2487 177.986 31.6605C178.268 34.484 179.115 38.1553 182.221 40.131C184.762 37.8717 188.998 35.3302 194.081 35.6137C194.364 35.8945 194.928 36.1765 194.646 37.024ZM180.245 24.0348C179.398 22.9052 181.093 21.4934 181.939 22.623C185.892 28.2702 183.351 35.0469 181.091 33.6352C180.527 33.3531 180.527 32.5055 180.809 32.2234C183.352 28.5537 180.245 24.0348 180.245 24.0348ZM169.798 7.09236C168.387 5.1164 173.752 3.13911 177.705 6.24477C181.658 9.06831 182.222 14.4331 185.611 17.2569C187.023 18.3865 189.001 18.9507 190.694 17.8211C192.388 16.6914 194.083 20.6446 189 20.6446C185.329 20.6446 182.788 18.1032 181.094 14.7156C179.118 20.3627 173.187 17.8212 172.905 23.4697C172.905 24.0339 172.341 24.5993 171.776 24.5993C171.212 24.5993 170.646 24.0352 170.646 23.4697C170.646 15.8454 180.812 18.1047 179.117 11.6099V11.3279C178.269 10.1982 177.705 9.06849 176.575 8.22223C175.163 7.09257 172.904 6.52838 171.493 7.65805C170.645 7.94014 170.081 7.65784 169.798 7.09236ZM169.798 47.4734C170.928 45.4974 173.752 44.932 176.293 47.4734C177.423 48.6031 178.269 50.0148 179.399 50.579C181.658 51.4266 181.94 48.3197 183.634 49.1672C185.61 50.2969 182.505 52.8383 180.245 52.8383C178.269 52.8383 177.14 51.4265 175.728 50.0147C175.164 49.1671 174.316 48.0388 173.186 48.0388C172.622 48.0388 172.057 48.3209 172.057 48.603C171.775 49.1671 171.209 49.4505 170.645 49.1671C169.799 48.603 169.515 48.0376 169.798 47.4734ZM170.645 58.2033C170.363 57.6391 170.645 57.0736 171.209 56.7915C176.574 54.8156 180.527 57.3557 182.786 62.1565C186.457 60.1805 190.411 60.4626 191.541 57.921C191.823 57.0734 191.823 55.9451 191.258 54.8154C190.976 54.2512 191.258 53.6857 191.823 53.4036C192.387 53.1215 192.952 53.4036 193.234 53.9678C194.082 55.9438 194.364 57.6388 193.517 59.0505C192.387 61.3099 190.127 62.1562 188.152 62.7216C185.892 63.2858 184.198 63.8512 182.787 64.9809C181.375 65.8285 180.245 66.9569 179.963 68.0866C179.681 68.6507 179.681 69.4983 179.681 70.3459C179.681 70.9101 179.117 71.4756 178.551 71.4756C177.987 71.4756 177.422 70.9114 177.422 70.3459C177.422 67.5224 178.833 65.2632 181.093 63.5693C179.399 59.616 176.575 57.6402 172.339 59.0519C171.492 59.0493 170.645 58.7675 170.645 58.2033ZM172.34 93.4993C172.904 90.9578 177.423 95.7586 180.81 87.2867C177.421 86.157 174.598 83.0512 172.34 78.2507C172.058 77.6865 172.34 77.121 172.904 76.8389C173.468 76.5568 174.034 76.8389 174.316 77.4031C178.269 85.3096 185.046 88.6974 191.541 82.7681C192.105 82.486 192.67 82.486 193.234 82.7681C195.21 84.744 187.305 88.4152 183.069 87.8508C179.399 96.8881 172.056 95.4764 172.34 93.4993Z"/>
</mask>
<path d="M187.305 90.6732C194.364 92.085 201.706 85.8723 200.576 77.9658C197.753 78.53 190.128 78.2479 190.976 75.9899C191.258 75.4257 191.824 75.1423 192.388 75.1423C207.071 79.6596 213.284 64.6943 205.942 57.07C211.871 52.2691 211.589 43.2345 205.094 38.7158C209.329 32.5033 206.224 23.7505 199.165 21.4912C198.883 23.4671 197.189 29.1154 195.494 27.9859C194.93 27.7038 194.646 26.8563 195.212 26.5742C195.212 26.5742 196.624 24.3148 197.188 21.2092C199.729 12.7386 192.387 4.83216 184.48 6.52608C180.809 -0.532786 171.491 -1.66228 166.408 3.42046L166.409 36.7396C167.257 36.1755 167.821 35.3279 168.103 34.4803C168.385 33.9161 168.951 33.6327 169.515 33.9161C170.079 34.1982 170.363 34.7637 170.079 35.3279C169.515 37.0217 168.103 38.4335 166.408 39.2811V59.8936C168.384 60.7412 170.079 62.153 170.925 64.4109C171.208 64.9751 170.925 65.5406 170.361 65.8227C169.797 66.1048 169.232 65.8227 168.95 65.2585C168.385 64.1289 167.538 62.9992 166.408 62.435V92.0835C170.927 100.838 183.916 99.9899 187.305 90.6717L187.305 90.6732ZM198.317 31.6591C201.988 36.7418 200.011 42.9534 198.035 42.9534C197.753 42.9534 197.753 42.9534 197.471 42.6713C196.907 42.3892 196.907 41.5416 197.189 41.2595C199.73 37.3063 196.625 33.0712 196.625 33.0712C195.494 31.6594 197.47 30.5294 198.317 31.6591ZM196.341 57.0721C203.118 55.3783 205.659 49.4479 203.683 43.5185C203.401 42.9543 203.965 42.3888 204.531 42.1067C207.072 41.2591 207.92 51.1427 203.119 55.9422C208.202 63.0011 203.401 70.9076 201.143 70.9076C200.013 70.9076 199.731 69.4958 200.579 68.9316C203.685 66.6723 204.532 61.8728 201.427 57.3541C200.297 58.2017 198.603 58.7659 196.909 59.3301H196.627C196.063 59.3301 195.78 59.048 195.497 58.4825C195.494 57.9196 195.776 57.3542 196.341 57.0721ZM195.212 63.2847C196.341 64.9785 196.059 67.5201 194.647 68.9319C193.236 70.3436 191.258 70.3436 189.846 70.9078C188.153 71.472 187.871 72.8838 188.153 73.4492C188.717 74.2968 188.153 75.1431 187.305 75.1431C185.611 75.1431 184.482 70.6258 188.999 68.9305C189.563 68.6484 190.129 68.6484 190.693 68.3663C191.54 68.0842 192.669 67.8022 193.234 67.2367C194.082 66.6725 194.082 65.2607 193.516 64.4131C193.234 63.8489 193.234 63.2835 193.798 62.7193C194.364 62.7193 194.928 62.7192 195.212 63.2847ZM194.646 37.024C194.646 37.5882 194.082 38.1537 193.516 38.1537C189.563 37.8716 186.458 39.5655 184.198 41.5429C188.716 43.5188 192.952 45.4961 194.08 48.8849C194.363 49.4491 194.08 50.0146 193.516 50.2967H193.234C192.67 50.2967 192.387 50.0146 192.105 49.4491C190.975 46.6256 185.046 44.3664 181.939 42.6725C181.657 42.3904 176.574 40.6965 175.726 31.9426C175.726 30.5308 177.702 30.2487 177.986 31.6605C178.268 34.484 179.115 38.1553 182.221 40.131C184.762 37.8717 188.998 35.3302 194.081 35.6137C194.364 35.8945 194.928 36.1765 194.646 37.024ZM180.245 24.0348C179.398 22.9052 181.093 21.4934 181.939 22.623C185.892 28.2702 183.351 35.0469 181.091 33.6352C180.527 33.3531 180.527 32.5055 180.809 32.2234C183.352 28.5537 180.245 24.0348 180.245 24.0348ZM169.798 7.09236C168.387 5.1164 173.752 3.13911 177.705 6.24477C181.658 9.06831 182.222 14.4331 185.611 17.2569C187.023 18.3865 189.001 18.9507 190.694 17.8211C192.388 16.6914 194.083 20.6446 189 20.6446C185.329 20.6446 182.788 18.1032 181.094 14.7156C179.118 20.3627 173.187 17.8212 172.905 23.4697C172.905 24.0339 172.341 24.5993 171.776 24.5993C171.212 24.5993 170.646 24.0352 170.646 23.4697C170.646 15.8454 180.812 18.1047 179.117 11.6099V11.3279C178.269 10.1982 177.705 9.06849 176.575 8.22223C175.163 7.09257 172.904 6.52838 171.493 7.65805C170.645 7.94014 170.081 7.65784 169.798 7.09236ZM169.798 47.4734C170.928 45.4974 173.752 44.932 176.293 47.4734C177.423 48.6031 178.269 50.0148 179.399 50.579C181.658 51.4266 181.94 48.3197 183.634 49.1672C185.61 50.2969 182.505 52.8383 180.245 52.8383C178.269 52.8383 177.14 51.4265 175.728 50.0147C175.164 49.1671 174.316 48.0388 173.186 48.0388C172.622 48.0388 172.057 48.3209 172.057 48.603C171.775 49.1671 171.209 49.4505 170.645 49.1671C169.799 48.603 169.515 48.0376 169.798 47.4734ZM170.645 58.2033C170.363 57.6391 170.645 57.0736 171.209 56.7915C176.574 54.8156 180.527 57.3557 182.786 62.1565C186.457 60.1805 190.411 60.4626 191.541 57.921C191.823 57.0734 191.823 55.9451 191.258 54.8154C190.976 54.2512 191.258 53.6857 191.823 53.4036C192.387 53.1215 192.952 53.4036 193.234 53.9678C194.082 55.9438 194.364 57.6388 193.517 59.0505C192.387 61.3099 190.127 62.1562 188.152 62.7216C185.892 63.2858 184.198 63.8512 182.787 64.9809C181.375 65.8285 180.245 66.9569 179.963 68.0866C179.681 68.6507 179.681 69.4983 179.681 70.3459C179.681 70.9101 179.117 71.4756 178.551 71.4756C177.987 71.4756 177.422 70.9114 177.422 70.3459C177.422 67.5224 178.833 65.2632 181.093 63.5693C179.399 59.616 176.575 57.6402 172.339 59.0519C171.492 59.0493 170.645 58.7675 170.645 58.2033ZM172.34 93.4993C172.904 90.9578 177.423 95.7586 180.81 87.2867C177.421 86.157 174.598 83.0512 172.34 78.2507C172.058 77.6865 172.34 77.121 172.904 76.8389C173.468 76.5568 174.034 76.8389 174.316 77.4031C178.269 85.3096 185.046 88.6974 191.541 82.7681C192.105 82.486 192.67 82.486 193.234 82.7681C195.21 84.744 187.305 88.4152 183.069 87.8508C179.399 96.8881 172.056 95.4764 172.34 93.4993Z" stroke="#98B0FA" stroke-width="2" mask="url(#path-5-inside-1_11_8)"/>
<path d="M127.739 71.3319L127.699 71.3006C123.612 68.0899 122.145 62.0405 125.948 56.2874C123.505 53.7695 122.637 50.1883 122.637 47.2941C122.637 45.786 122.872 44.4194 123.275 43.4456C123.475 42.9619 123.732 42.538 124.056 42.2503C124.392 41.9511 124.825 41.7836 125.305 41.9036C125.306 41.9036 125.306 41.9037 125.306 41.9037L125.184 42.3887L127.739 71.3319ZM127.739 71.3319L127.784 71.3546M127.739 71.3319L127.784 71.3546M127.784 71.3546C128.146 71.5355 128.595 71.6273 129.016 71.5806C129.438 71.5337 129.907 71.3324 130.149 70.8489C130.33 70.4871 130.422 70.0378 130.375 69.6174C130.33 69.2109 130.142 68.7611 129.697 68.5124M127.784 71.3546L129.697 68.5124M129.697 68.5124C127.199 66.4824 126.094 62.2072 128.727 58.0268C129.484 58.4673 130.612 59.0823 131.653 59.4497C132.268 59.6669 132.925 59.8247 133.478 59.757C133.764 59.7219 134.055 59.6221 134.291 59.4073C134.525 59.194 134.66 58.9079 134.711 58.5806L129.697 68.5124ZM145.422 6.73606L145.786 6.80344L145.957 6.4751C149.437 -0.218045 158.211 -1.32897 163.086 3.34819L163.084 35.9032C162.757 35.5088 162.516 35.0589 162.365 34.6057L162.354 34.5719L162.338 34.54C162.153 34.1712 161.861 33.8647 161.487 33.7045C161.103 33.5401 160.667 33.5463 160.255 33.7522C159.886 33.9366 159.58 34.2287 159.42 34.6028C159.26 34.9763 159.261 35.3991 159.451 35.8009C160.042 37.5385 161.433 38.9677 163.085 39.8673V59.5671C161.67 60.219 160.2 61.4582 159.301 62.6676C158.823 63.3109 158.458 64.0108 158.402 64.6565C158.373 64.9906 158.425 65.3324 158.612 65.6357C158.8 65.9405 159.093 66.157 159.457 66.2933L159.465 66.2966L159.474 66.2995C160.023 66.4822 160.496 66.4283 160.899 66.1379C161.246 65.8885 161.498 65.4874 161.716 65.1347C161.737 65.1006 161.758 65.0664 161.78 65.0319C162.111 64.495 162.476 63.9027 163.085 63.3854L163.083 91.1153C158.716 99.3645 146.385 98.5303 143.157 89.6555L143.009 89.2485L142.585 89.3369C136.123 90.6844 129.634 85.561 129.634 78.5321V77.7355C130.604 77.9024 131.528 77.9024 132.222 77.9024H132.239C132.962 77.9024 134.833 77.8308 136.467 77.504C137.275 77.3421 138.078 77.108 138.654 76.7564C138.944 76.5793 139.212 76.3512 139.38 76.0528C139.557 75.738 139.603 75.3795 139.497 75.0058L139.491 74.9864L139.484 74.9676C139.344 74.595 139.118 74.305 138.785 74.1314C138.468 73.9659 138.113 73.9379 137.774 73.9608C137.433 73.9837 137.057 74.0621 136.666 74.1562C136.468 74.2038 136.259 74.2574 136.045 74.3123C135.828 74.3675 135.604 74.4247 135.37 74.4811C133.511 74.9287 131.018 75.3299 127.911 74.1161C124.142 72.4976 121.445 68.7247 121.445 64.1308C121.445 61.1454 122.53 58.4517 124.404 56.5779L124.804 56.1775L124.358 55.8297C121.932 53.9429 120.315 50.9805 120.315 47.4702C120.315 43.6876 122.207 40.4484 124.903 38.5617L125.303 38.2816L125.032 37.875C123.947 36.2448 123.14 34.0816 123.14 31.9395C123.14 27.2738 126.131 23.3515 130.199 21.8557C130.61 23.3643 131.116 24.6808 131.533 25.6743C131.715 26.108 131.881 26.483 132.013 26.782C132.05 26.864 132.083 26.9402 132.114 27.0104C132.187 27.1763 132.242 27.303 132.278 27.3951C132.291 27.4289 132.3 27.4537 132.306 27.4712V27.5887L132.406 27.7219C132.993 28.5058 133.972 28.598 134.653 28.2576C134.999 28.0841 135.302 27.7834 135.428 27.3693C135.556 26.9476 135.48 26.484 135.21 26.0351L135.21 26.0351L135.206 26.0279L135.206 26.0278L135.206 26.0277L135.206 26.0275L135.206 26.0274L135.204 26.0239L135.193 26.0074C135.184 25.9922 135.17 25.9685 135.151 25.9368C135.114 25.8734 135.06 25.7777 134.992 25.6526C134.856 25.4023 134.668 25.0346 134.462 24.5716C134.05 23.644 133.571 22.3416 133.298 20.8382L133.293 20.8129L133.286 20.7882C130.853 12.4032 138.152 5.38979 145.422 6.73606ZM132.314 27.4988C132.314 27.4986 132.313 27.4965 132.313 27.4927C132.314 27.4971 132.314 27.499 132.314 27.4988ZM155.048 31.6909L155.049 31.6749V31.6588C155.049 31.2133 154.832 30.8101 154.549 30.5282C154.267 30.2463 153.864 30.0291 153.42 30.0291C152.974 30.0291 152.571 30.2468 152.289 30.529C152.013 30.8051 151.799 31.1973 151.79 31.6309C151.518 34.3324 150.731 37.6307 148.081 39.5091C145.651 37.5971 142.485 36.1746 139.877 35.5489C138.527 35.2249 137.275 35.1016 136.333 35.2693C135.86 35.3534 135.422 35.5184 135.094 35.8111C134.75 36.1183 134.566 36.5338 134.565 37.0232L134.565 37.0543L134.569 37.0853C134.614 37.4412 134.735 37.7579 134.984 37.9959C135.227 38.2277 135.533 38.327 135.823 38.3768C136.112 38.4261 136.445 38.4358 136.789 38.4418C136.848 38.4428 136.908 38.4437 136.969 38.4447C137.273 38.4493 137.602 38.4543 137.965 38.4757C139.56 38.5694 141.852 38.9784 144.83 41.1526C141.493 42.7135 139.276 44.0995 137.851 45.2868C136.338 46.5472 135.646 47.6451 135.555 48.5509C135.509 49.0184 135.625 49.43 135.868 49.7474C136.107 50.0594 136.445 50.25 136.795 50.325C137.485 50.4728 138.325 50.1794 138.639 49.3409L138.641 49.3363C138.882 48.6729 139.394 48.0346 140.123 47.4155C140.849 46.7987 141.76 46.2264 142.752 45.6868C143.743 45.148 144.797 44.6509 145.809 44.1784C145.871 44.1494 145.932 44.1206 145.994 44.0918C146.932 43.6539 147.832 43.2336 148.576 42.8276L148.639 42.7935L148.662 42.7708C148.668 42.7672 148.676 42.7625 148.687 42.7568C148.725 42.7359 148.773 42.7111 148.837 42.678C148.854 42.6693 148.872 42.6599 148.892 42.6499C149.07 42.5577 149.317 42.4281 149.607 42.2515C150.189 41.8981 150.942 41.3587 151.704 40.5417C153.234 38.8997 154.759 36.1768 155.048 31.6909ZM149.631 31.9992L149.616 31.9674L149.595 31.9382C148.446 30.2783 148.558 28.4116 149.059 26.9106C149.308 26.1622 149.649 25.5247 149.954 25.0812C150.107 24.8584 150.244 24.695 150.348 24.5936C150.375 24.5677 150.397 24.5484 150.414 24.5344H150.623L150.761 24.258C150.942 23.8962 151.034 23.447 150.987 23.0265C150.94 22.6042 150.739 22.1351 150.255 21.8933C149.894 21.7125 149.444 21.6206 149.024 21.6673C148.621 21.7121 148.175 21.8976 147.925 22.3351C147.854 22.4197 147.767 22.543 147.676 22.6804C147.546 22.8766 147.384 23.142 147.209 23.4661C146.86 24.1135 146.456 25.0037 146.162 26.0521C145.575 28.1444 145.416 30.9043 147.053 33.5965C147.265 34.0052 147.609 34.2472 148.02 34.3059C148.406 34.361 148.794 34.2475 149.126 34.0818C149.547 33.8713 149.796 33.5232 149.856 33.1051C149.911 32.7193 149.797 32.3305 149.631 31.9992ZM150.458 24.5026C150.458 24.5028 150.455 24.5043 150.451 24.5067C150.455 24.5037 150.458 24.5025 150.458 24.5026ZM131.23 31.4351L131.178 31.5406V31.5642C131.155 31.6085 131.122 31.6688 131.077 31.7503C131.067 31.7676 131.057 31.7857 131.047 31.8044C130.948 31.9823 130.815 32.2227 130.668 32.512C130.341 33.1518 129.938 34.0397 129.643 35.0882C129.055 37.1843 128.896 39.9568 130.691 42.6564C130.971 43.1173 131.372 43.3855 131.816 43.4596C132.25 43.5319 132.674 43.4116 133.007 43.1973C133.339 42.9837 133.619 42.6531 133.737 42.2519C133.859 41.8382 133.799 41.379 133.498 40.971C132.711 39.7861 132.462 38.7247 132.482 37.78C132.502 36.8221 132.798 35.9488 133.157 35.1456C133.298 34.8313 133.443 34.5362 133.585 34.2486C133.626 34.1665 133.666 34.0851 133.706 34.004C133.88 33.648 134.048 33.2931 134.159 32.9598C134.269 32.6296 134.342 32.269 134.28 31.9125C134.214 31.5318 134.004 31.2142 133.662 30.9697L133.63 30.9469L133.595 30.9294C133.233 30.7485 132.784 30.6567 132.364 30.7033C131.941 30.7502 131.472 30.9515 131.23 31.4351ZM137.114 66.8843L137.1 66.8707L137.086 66.8582C136.669 66.5009 136.556 66.2077 136.535 65.9751C136.512 65.7148 136.592 65.4409 136.731 65.0942C136.751 65.0452 136.772 64.9928 136.795 64.9377C136.913 64.6538 137.061 64.2975 137.099 63.9578C137.124 63.7343 137.107 63.4924 137.007 63.2489C136.908 63.0074 136.74 62.7977 136.513 62.6151C136.227 62.3783 135.901 62.2456 135.555 62.2472C135.212 62.2489 134.903 62.3824 134.647 62.5785C134.149 62.9611 133.787 63.6247 133.594 64.3567C133.207 65.8297 133.43 67.8695 135.004 69.2942C135.785 70.0708 136.64 70.4542 137.456 70.714C137.778 70.8166 138.103 70.9024 138.409 70.9832C138.486 71.0033 138.561 71.0232 138.634 71.0429C139.011 71.1438 139.358 71.2436 139.682 71.3732L139.701 71.3808L139.72 71.3868C140.604 71.6588 140.972 71.9357 141.123 72.1409C141.251 72.3142 141.27 72.4993 141.212 72.7875C141.187 72.912 141.152 73.0347 141.112 73.1776C141.103 73.2101 141.093 73.2438 141.084 73.2787C141.035 73.4541 140.98 73.6615 140.958 73.8745C140.935 74.0923 140.943 74.3371 141.034 74.5863C141.127 74.8394 141.293 75.0619 141.531 75.2526L141.542 75.2611L141.553 75.269C141.887 75.5077 142.257 75.6153 142.63 75.5793C142.998 75.5438 143.323 75.3741 143.588 75.1381C144.109 74.6729 144.45 73.9081 144.529 73.0737C144.693 71.353 143.771 69.2452 140.893 68.1828C140.324 67.9563 139.701 67.8121 139.145 67.6832C138.971 67.643 138.804 67.6042 138.647 67.5649C137.939 67.3879 137.43 67.2004 137.114 66.8843ZM158.15 93.4275L158.147 93.4085L158.143 93.3898C158.052 92.9813 157.865 92.6557 157.554 92.439C157.26 92.2339 156.917 92.17 156.606 92.1477C156.349 92.1293 156.06 92.1371 155.778 92.1448C155.721 92.1463 155.665 92.1479 155.609 92.1492C155.262 92.1573 154.905 92.1587 154.533 92.1182C153.802 92.0387 153.003 91.7967 152.184 91.0932C151.415 90.4324 150.603 89.342 149.828 87.5332C152.901 86.0077 155.905 83.1393 158.105 78.4676C158.309 78.057 158.314 77.6228 158.15 77.2402C157.989 76.8663 157.682 76.5754 157.313 76.392C156.901 76.1854 156.465 76.1794 156.081 76.344C155.707 76.5043 155.415 76.8113 155.23 77.1798C153.284 81.0728 151.36 82.9743 149.896 83.9392C149.164 84.422 148.536 84.6773 148.061 84.8288C147.822 84.9051 147.619 84.9559 147.45 84.9982C147.438 85.001 147.427 85.0039 147.415 85.0069C147.308 85.0335 147.176 85.066 147.066 85.1088C144.028 85.6201 141.987 84.5701 140.46 83.5524C140.197 83.3773 139.956 83.2075 139.723 83.0435C139.608 82.9623 139.495 82.8826 139.382 82.8043C139.051 82.5752 138.726 82.3603 138.415 82.2058C138.106 82.0523 137.764 81.9351 137.407 81.95C137.029 81.9659 136.694 82.1266 136.406 82.4147L136.394 82.4265L136.383 82.4391C136.047 82.8233 135.909 83.2705 135.984 83.7382C136.056 84.1797 136.308 84.5817 136.629 84.9325C137.27 85.633 138.331 86.2843 139.518 86.8236C140.716 87.3682 142.091 87.8205 143.405 88.1015C144.546 88.3454 145.672 88.467 146.608 88.3907C148.494 92.7839 151.277 94.7332 153.658 95.291C154.867 95.5743 155.977 95.4979 156.792 95.1873C157.558 94.895 158.272 94.286 158.15 93.4275ZM157.78 59.5222L157.809 59.532L157.84 59.538C158.821 59.735 159.599 59.1368 159.884 58.4217C160.029 58.0607 160.062 57.6397 159.915 57.2448C159.764 56.8395 159.441 56.5123 158.97 56.3239L158.97 56.3237L158.957 56.3189C156.163 55.2892 153.617 55.4235 151.501 56.4816C149.531 57.4666 147.982 59.2272 146.953 61.4823C146.034 61.0795 145.017 60.7734 144.044 60.4863C143.99 60.4705 143.937 60.4547 143.883 60.439C142.778 60.1131 141.742 59.8077 140.891 59.406C139.997 58.9845 139.398 58.4978 139.13 57.8668C138.867 57.2481 138.869 56.3646 139.471 55.0245C139.681 54.5956 139.652 54.1554 139.48 53.7898C139.311 53.4337 139.012 53.1542 138.678 52.9869C138.343 52.8197 137.93 52.7437 137.528 52.8615C137.111 52.9839 136.773 53.2957 136.581 53.7699C135.55 56.1319 135.591 58.2167 136.617 59.8744C137.631 61.5119 139.539 62.6219 142.007 63.2033C144.204 63.7536 145.851 64.5757 147.233 65.4055L147.233 65.4057C148.532 66.184 149.318 67.219 149.85 68.2739C150.094 69.0199 150.096 69.5113 150.096 70.3418C150.096 70.7872 150.314 71.1905 150.596 71.4724C150.878 71.7542 151.281 71.9715 151.725 71.9715C152.171 71.9715 152.574 71.7537 152.856 71.4716C153.138 71.1896 153.355 70.7864 153.355 70.3418C153.355 67.4637 151.974 65.1499 149.8 63.41C150.601 61.6739 151.619 60.423 152.853 59.7307C154.153 59.0016 155.767 58.8512 157.78 59.5222ZM156.864 48.5328L156.885 48.5304L156.906 48.5261C157.13 48.4814 157.269 48.5248 157.389 48.5971C157.52 48.6757 157.628 48.7843 157.782 48.9404C157.809 48.9672 157.837 48.9954 157.867 49.0252C158.04 49.1986 158.299 49.4495 158.659 49.5504C159.048 49.6594 159.451 49.5715 159.873 49.3217C160.234 49.1369 160.534 48.8482 160.691 48.48C160.856 48.0961 160.849 47.6601 160.644 47.2483C159.999 45.9573 158.764 45.1253 157.206 45.2075C155.675 45.2882 153.935 46.2435 152.193 48.2761L152.193 48.276L152.187 48.2836C151.216 49.4625 150.535 49.9326 150.065 50.0779C149.652 50.2057 149.348 50.098 149.022 49.8577C148.849 49.7296 148.684 49.5731 148.498 49.3951L148.477 49.3749C148.306 49.211 148.111 49.0244 147.905 48.873C147.687 48.7131 147.421 48.5644 147.103 48.519C146.773 48.4718 146.442 48.5433 146.112 48.7316L146.36 49.1656L146.112 48.7316C145.487 49.0889 145.158 49.6237 145.2 50.2492C145.238 50.8189 145.579 51.3502 146.008 51.7783C146.87 52.6404 148.335 53.3367 149.75 53.3367C151.828 53.3367 153.089 52.0382 154.083 50.8655C154.206 50.7206 154.324 50.5789 154.439 50.4412C154.804 50.0016 155.136 49.6027 155.491 49.2697C155.947 48.8424 156.38 48.5864 156.864 48.5328ZM141.101 20.8664C143.514 20.8663 146.578 19.518 149.1 15.5514C149.524 16.4105 150.068 17.0577 150.703 17.5766C151.519 18.2439 152.468 18.6854 153.43 19.0995C153.646 19.2761 153.911 19.3634 154.076 19.4178C154.087 19.4215 154.098 19.4251 154.109 19.4285C154.351 19.5093 154.437 19.5485 154.478 19.5898L154.521 19.6332L154.574 19.6649C155.895 20.4581 156.873 21.7314 156.873 23.1894C156.873 23.6349 157.09 24.0381 157.373 24.32C157.655 24.6019 158.058 24.8191 158.502 24.8191C158.948 24.8191 159.351 24.6014 159.633 24.3193C159.915 24.0372 160.132 23.6341 160.132 23.1894C160.132 20.4587 158.612 18.0269 156.185 16.8132C155.747 16.5944 155.27 16.4121 154.821 16.2403C154.664 16.1803 154.51 16.1216 154.363 16.0631C153.772 15.8283 153.245 15.585 152.811 15.2433C152.386 14.91 152.042 14.4768 151.828 13.8441C151.618 13.2217 151.527 12.3811 151.645 11.2161C152.999 9.08229 154.38 8.00117 155.569 7.5634C156.762 7.1239 157.79 7.31898 158.497 7.78613C159.318 8.39117 160.252 8.06528 160.702 7.4645C160.931 7.15949 161.061 6.75607 160.984 6.33327C160.905 5.90471 160.627 5.53054 160.182 5.26031C157.399 3.41127 154.06 4.36758 151.999 5.84005L151.981 5.85287L151.965 5.86723C150.154 7.41886 149.026 9.42907 148.025 11.2109C147.888 11.4547 147.754 11.6942 147.62 11.9277L147.616 11.9353L147.612 11.943C146.215 14.5974 145 16.1193 143.967 16.959C142.952 17.7844 142.116 17.9489 141.426 17.8903C140.831 17.8397 140.326 17.6287 139.82 17.4173C139.701 17.368 139.583 17.3187 139.464 17.2714C139.173 17.1562 138.838 17.0389 138.505 17.036C138.13 17.0328 137.782 17.1742 137.506 17.5059L137.484 17.5319L137.466 17.5605C137.214 17.9636 137.159 18.41 137.28 18.8364C137.398 19.2495 137.672 19.6119 138.025 19.9043C138.728 20.488 139.829 20.8664 141.101 20.8664Z" stroke="#98B0FA"/>
<path d="M57.016 265.469V239.569H62.64L70.891 255.997L79.031 239.569H84.655V265.469H79.919V247.598L72.704 261.769H68.967L61.752 247.598V265.469H57.016ZM98.4861 265.913C96.6361 265.913 94.9957 265.519 93.5651 264.729C92.1344 263.94 91.0121 262.83 90.1981 261.399C89.3841 259.969 88.9771 258.316 88.9771 256.441C88.9771 254.542 89.3717 252.852 90.1611 251.372C90.9751 249.892 92.0851 248.745 93.4911 247.931C94.9217 247.093 96.5991 246.673 98.5231 246.673C100.324 246.673 101.915 247.068 103.296 247.857C104.677 248.647 105.75 249.732 106.515 251.113C107.304 252.47 107.699 253.987 107.699 255.664C107.699 255.936 107.687 256.219 107.662 256.515C107.662 256.811 107.65 257.12 107.625 257.44H93.6761C93.7747 258.871 94.2681 259.993 95.1561 260.807C96.0687 261.621 97.1664 262.028 98.4491 262.028C99.4111 262.028 100.213 261.819 100.854 261.399C101.52 260.955 102.013 260.388 102.334 259.697H107.144C106.799 260.857 106.219 261.917 105.405 262.879C104.616 263.817 103.629 264.557 102.445 265.099C101.286 265.642 99.9661 265.913 98.4861 265.913ZM98.5231 250.521C97.3637 250.521 96.3401 250.854 95.4521 251.52C94.5641 252.162 93.9967 253.148 93.7501 254.48H102.889C102.815 253.272 102.371 252.31 101.557 251.594C100.743 250.879 99.7317 250.521 98.5231 250.521ZM111.682 265.469V247.117H115.863L116.233 250.225C116.801 249.14 117.615 248.277 118.675 247.635C119.761 246.994 121.031 246.673 122.486 246.673C124.756 246.673 126.519 247.389 127.777 248.819C129.035 250.25 129.664 252.347 129.664 255.109V265.469H124.928V255.553C124.928 253.975 124.608 252.766 123.966 251.927C123.325 251.089 122.326 250.669 120.969 250.669C119.637 250.669 118.54 251.138 117.676 252.075C116.838 253.013 116.418 254.32 116.418 255.997V265.469H111.682ZM142.37 265.469C140.446 265.469 138.904 265.001 137.745 264.063C136.586 263.126 136.006 261.461 136.006 259.068V251.076H132.861V247.117H136.006L136.561 242.196H140.742V247.117H145.7V251.076H140.742V259.105C140.742 259.993 140.927 260.61 141.297 260.955C141.692 261.276 142.358 261.436 143.295 261.436H145.589V265.469H142.37ZM156.093 265.913C154.515 265.913 153.22 265.667 152.208 265.173C151.197 264.655 150.445 263.977 149.951 263.138C149.458 262.3 149.211 261.375 149.211 260.363C149.211 258.661 149.877 257.28 151.209 256.219C152.541 255.159 154.539 254.628 157.203 254.628H161.865V254.184C161.865 252.926 161.508 252.001 160.792 251.409C160.077 250.817 159.189 250.521 158.128 250.521C157.166 250.521 156.328 250.756 155.612 251.224C154.897 251.668 154.453 252.334 154.28 253.222H149.655C149.779 251.89 150.223 250.731 150.987 249.744C151.777 248.758 152.788 248.005 154.021 247.487C155.255 246.945 156.636 246.673 158.165 246.673C160.78 246.673 162.84 247.327 164.344 248.634C165.849 249.942 166.601 251.792 166.601 254.184V265.469H162.568L162.124 262.509C161.582 263.496 160.817 264.31 159.83 264.951C158.868 265.593 157.623 265.913 156.093 265.913ZM157.166 262.213C158.523 262.213 159.571 261.769 160.311 260.881C161.076 259.993 161.557 258.896 161.754 257.588H157.721C156.463 257.588 155.563 257.823 155.02 258.291C154.478 258.735 154.206 259.29 154.206 259.956C154.206 260.672 154.478 261.227 155.02 261.621C155.563 262.016 156.278 262.213 157.166 262.213ZM171.121 265.469V238.829H175.857V265.469H171.121ZM189.623 265.469V239.569H206.532V243.38H194.359V250.484H205.422V254.184H194.359V261.658H206.532V265.469H189.623ZM219.339 265.913C217.612 265.913 216.071 265.494 214.714 264.655C213.357 263.817 212.284 262.67 211.495 261.214C210.706 259.759 210.311 258.106 210.311 256.256C210.311 254.406 210.706 252.766 211.495 251.335C212.284 249.88 213.357 248.745 214.714 247.931C216.071 247.093 217.612 246.673 219.339 246.673C220.72 246.673 221.929 246.932 222.965 247.45C224.001 247.968 224.84 248.696 225.481 249.633V238.829H230.217V265.469H225.999L225.481 262.842C224.889 263.656 224.1 264.372 223.113 264.988C222.151 265.605 220.893 265.913 219.339 265.913ZM220.338 261.769C221.867 261.769 223.113 261.264 224.075 260.252C225.062 259.216 225.555 257.897 225.555 256.293C225.555 254.69 225.062 253.383 224.075 252.371C223.113 251.335 221.867 250.817 220.338 250.817C218.833 250.817 217.588 251.323 216.601 252.334C215.614 253.346 215.121 254.653 215.121 256.256C215.121 257.86 215.614 259.179 216.601 260.215C217.588 261.251 218.833 261.769 220.338 261.769ZM242.81 259.993C241.922 259.993 241.095 259.895 240.331 259.697L238.962 261.066C239.381 261.288 239.948 261.473 240.664 261.621C241.379 261.769 242.538 261.917 244.142 262.065C246.584 262.287 248.36 262.867 249.47 263.804C250.58 264.742 251.135 266.037 251.135 267.689C251.135 268.775 250.839 269.798 250.247 270.76C249.655 271.747 248.742 272.536 247.509 273.128C246.275 273.745 244.697 274.053 242.773 274.053C240.158 274.053 238.049 273.56 236.446 272.573C234.842 271.611 234.041 270.156 234.041 268.207C234.041 266.555 234.842 265.124 236.446 263.915C235.952 263.693 235.521 263.459 235.151 263.212C234.805 262.966 234.497 262.707 234.226 262.435V261.584L237.445 258.18C236.014 256.922 235.299 255.307 235.299 253.333C235.299 252.1 235.595 250.978 236.187 249.966C236.803 248.955 237.667 248.153 238.777 247.561C239.887 246.969 241.231 246.673 242.81 246.673C243.846 246.673 244.808 246.821 245.696 247.117H252.652V250.003L249.507 250.225C250 251.163 250.247 252.199 250.247 253.333C250.247 254.567 249.951 255.689 249.359 256.7C248.767 257.712 247.903 258.513 246.769 259.105C245.659 259.697 244.339 259.993 242.81 259.993ZM242.81 256.367C243.772 256.367 244.561 256.108 245.178 255.59C245.819 255.072 246.14 254.332 246.14 253.37C246.14 252.408 245.819 251.668 245.178 251.15C244.561 250.632 243.772 250.373 242.81 250.373C241.798 250.373 240.984 250.632 240.368 251.15C239.751 251.668 239.443 252.408 239.443 253.37C239.443 254.332 239.751 255.072 240.368 255.59C240.984 256.108 241.798 256.367 242.81 256.367ZM238.37 267.726C238.37 268.639 238.789 269.317 239.628 269.761C240.491 270.23 241.539 270.464 242.773 270.464C243.957 270.464 244.919 270.218 245.659 269.724C246.399 269.256 246.769 268.614 246.769 267.8C246.769 267.134 246.522 266.579 246.029 266.135C245.56 265.691 244.61 265.42 243.18 265.321C242.168 265.247 241.231 265.136 240.368 264.988C239.652 265.383 239.134 265.815 238.814 266.283C238.518 266.752 238.37 267.233 238.37 267.726ZM264.3 265.913C262.45 265.913 260.809 265.519 259.379 264.729C257.948 263.94 256.826 262.83 256.012 261.399C255.198 259.969 254.791 258.316 254.791 256.441C254.791 254.542 255.185 252.852 255.975 251.372C256.789 249.892 257.899 248.745 259.305 247.931C260.735 247.093 262.413 246.673 264.337 246.673C266.137 246.673 267.728 247.068 269.11 247.857C270.491 248.647 271.564 249.732 272.329 251.113C273.118 252.47 273.513 253.987 273.513 255.664C273.513 255.936 273.5 256.219 273.476 256.515C273.476 256.811 273.463 257.12 273.439 257.44H259.49C259.588 258.871 260.082 259.993 260.97 260.807C261.882 261.621 262.98 262.028 264.263 262.028C265.225 262.028 266.026 261.819 266.668 261.399C267.334 260.955 267.827 260.388 268.148 259.697H272.958C272.612 260.857 272.033 261.917 271.219 262.879C270.429 263.817 269.443 264.557 268.259 265.099C267.099 265.642 265.78 265.913 264.3 265.913ZM264.337 250.521C263.177 250.521 262.154 250.854 261.266 251.52C260.378 252.162 259.81 253.148 259.564 254.48H268.703C268.629 253.272 268.185 252.31 267.371 251.594C266.557 250.879 265.545 250.521 264.337 250.521Z" fill="white"/>
<path d="M3.37931 305.469V294.269H4.72331V299.213H10.5313V294.269H11.8753V305.469H10.5313V300.317H4.72331V305.469H3.37931ZM17.7267 305.661C16.9694 305.661 16.2974 305.491 15.7107 305.149C15.124 304.797 14.66 304.312 14.3187 303.693C13.988 303.075 13.8227 302.344 13.8227 301.501C13.8227 300.669 13.988 299.944 14.3187 299.325C14.6494 298.696 15.108 298.211 15.6947 297.869C16.292 297.517 16.98 297.341 17.7587 297.341C18.5267 297.341 19.188 297.517 19.7427 297.869C20.308 298.211 20.74 298.664 21.0387 299.229C21.3374 299.795 21.4867 300.403 21.4867 301.053C21.4867 301.171 21.4814 301.288 21.4707 301.405C21.4707 301.523 21.4707 301.656 21.4707 301.805H15.1507C15.1827 302.413 15.3214 302.92 15.5667 303.325C15.8227 303.72 16.1374 304.019 16.5107 304.221C16.8947 304.424 17.3 304.525 17.7267 304.525C18.2814 304.525 18.7454 304.397 19.1187 304.141C19.492 303.885 19.764 303.539 19.9347 303.101H21.2627C21.0494 303.837 20.6387 304.451 20.0307 304.941C19.4334 305.421 18.6654 305.661 17.7267 305.661ZM17.7267 298.477C17.0867 298.477 16.516 298.675 16.0147 299.069C15.524 299.453 15.2414 300.019 15.1667 300.765H20.1587C20.1267 300.051 19.8814 299.491 19.4227 299.085C18.964 298.68 18.3987 298.477 17.7267 298.477ZM25.9081 305.661C25.2467 305.661 24.6974 305.549 24.2601 305.325C23.8227 305.101 23.4974 304.803 23.2841 304.429C23.0707 304.056 22.9641 303.651 22.9641 303.213C22.9641 302.403 23.2734 301.779 23.8921 301.341C24.5107 300.904 25.3534 300.685 26.4201 300.685H28.5641V300.589C28.5641 299.896 28.3827 299.373 28.0201 299.021C27.6574 298.659 27.1721 298.477 26.5641 298.477C26.0414 298.477 25.5881 298.611 25.2041 298.877C24.8307 299.133 24.5961 299.512 24.5001 300.013H23.1241C23.1774 299.437 23.3694 298.952 23.7001 298.557C24.0414 298.163 24.4627 297.864 24.9641 297.661C25.4654 297.448 25.9987 297.341 26.5641 297.341C27.6734 297.341 28.5054 297.64 29.0601 298.237C29.6254 298.824 29.9081 299.608 29.9081 300.589V305.469H28.7081L28.6281 304.045C28.4041 304.493 28.0734 304.877 27.6361 305.197C27.2094 305.507 26.6334 305.661 25.9081 305.661ZM26.1161 304.525C26.6281 304.525 27.0654 304.392 27.4281 304.125C27.8014 303.859 28.0841 303.512 28.2761 303.085C28.4681 302.659 28.5641 302.211 28.5641 301.741V301.725H26.5321C25.7427 301.725 25.1827 301.864 24.8521 302.141C24.5321 302.408 24.3721 302.744 24.3721 303.149C24.3721 303.565 24.5214 303.901 24.8201 304.157C25.1294 304.403 25.5614 304.525 26.1161 304.525ZM31.9243 305.469V293.949H33.2683V305.469H31.9243ZM38.6072 305.469C37.8819 305.469 37.3112 305.293 36.8952 304.941C36.4792 304.589 36.2712 303.955 36.2712 303.037V298.669H34.8952V297.533H36.2712L36.4472 295.629H37.6152V297.533H39.9512V298.669H37.6152V303.037C37.6152 303.539 37.7165 303.88 37.9192 304.061C38.1219 304.232 38.4792 304.317 38.9912 304.317H39.8232V305.469H38.6072ZM41.6587 305.469V293.949H43.0027V298.893C43.2694 298.403 43.648 298.024 44.1387 297.757C44.6294 297.48 45.1627 297.341 45.7387 297.341C46.656 297.341 47.392 297.629 47.9467 298.205C48.5014 298.771 48.7787 299.645 48.7787 300.829V305.469H47.4507V300.973C47.4507 299.32 46.784 298.493 45.4507 298.493C44.7574 298.493 44.176 298.744 43.7067 299.245C43.2374 299.736 43.0027 300.44 43.0027 301.357V305.469H41.6587ZM51.4446 308.989L53.4126 304.701H52.9486L49.7966 297.533H51.2526L53.8766 303.709L56.6606 297.533H58.0526L52.8526 308.989H51.4446ZM63.7056 305.469V293.949H65.0496V305.469H63.7056ZM68.0684 295.773C67.8018 295.773 67.5778 295.688 67.3964 295.517C67.2258 295.336 67.1404 295.112 67.1404 294.845C67.1404 294.589 67.2258 294.376 67.3964 294.205C67.5778 294.035 67.8018 293.949 68.0684 293.949C68.3244 293.949 68.5431 294.035 68.7244 294.205C68.9058 294.376 68.9964 294.589 68.9964 294.845C68.9964 295.112 68.9058 295.336 68.7244 295.517C68.5431 295.688 68.3244 295.773 68.0684 295.773ZM67.3964 305.469V297.533H68.7404V305.469H67.3964ZM71.5126 305.469V298.669H70.3126V297.533H71.5126V296.157C71.5126 295.389 71.7046 294.829 72.0886 294.477C72.4726 294.125 73.0326 293.949 73.7686 293.949H74.5686V295.101H73.9766C73.5712 295.101 73.2832 295.187 73.1126 295.357C72.9419 295.517 72.8566 295.795 72.8566 296.189V297.533H74.8086V298.669H72.8566V305.469H71.5126ZM79.6642 305.661C78.9069 305.661 78.2349 305.491 77.6482 305.149C77.0615 304.797 76.5975 304.312 76.2562 303.693C75.9255 303.075 75.7602 302.344 75.7602 301.501C75.7602 300.669 75.9255 299.944 76.2562 299.325C76.5869 298.696 77.0455 298.211 77.6322 297.869C78.2295 297.517 78.9175 297.341 79.6962 297.341C80.4642 297.341 81.1255 297.517 81.6802 297.869C82.2455 298.211 82.6775 298.664 82.9762 299.229C83.2749 299.795 83.4242 300.403 83.4242 301.053C83.4242 301.171 83.4189 301.288 83.4082 301.405C83.4082 301.523 83.4082 301.656 83.4082 301.805H77.0882C77.1202 302.413 77.2589 302.92 77.5042 303.325C77.7602 303.72 78.0749 304.019 78.4482 304.221C78.8322 304.424 79.2375 304.525 79.6642 304.525C80.2189 304.525 80.6829 304.397 81.0562 304.141C81.4295 303.885 81.7015 303.539 81.8722 303.101H83.2002C82.9869 303.837 82.5762 304.451 81.9682 304.941C81.3709 305.421 80.6029 305.661 79.6642 305.661ZM79.6642 298.477C79.0242 298.477 78.4535 298.675 77.9522 299.069C77.4615 299.453 77.1789 300.019 77.1042 300.765H82.0962C82.0642 300.051 81.8189 299.491 81.3602 299.085C80.9015 298.68 80.3362 298.477 79.6642 298.477ZM90.2559 295.773C89.9893 295.773 89.7653 295.688 89.5839 295.517C89.4133 295.336 89.3279 295.112 89.3279 294.845C89.3279 294.589 89.4133 294.376 89.5839 294.205C89.7653 294.035 89.9893 293.949 90.2559 293.949C90.5119 293.949 90.7306 294.035 90.9119 294.205C91.0933 294.376 91.1839 294.589 91.1839 294.845C91.1839 295.112 91.0933 295.336 90.9119 295.517C90.7306 295.688 90.5119 295.773 90.2559 295.773ZM89.5839 305.469V297.533H90.9279V305.469H89.5839ZM96.3081 305.661C95.3587 305.661 94.5694 305.421 93.9401 304.941C93.3107 304.461 92.9427 303.811 92.8361 302.989H94.2121C94.2974 303.405 94.5161 303.768 94.8681 304.077C95.2307 304.376 95.7161 304.525 96.3241 304.525C96.8894 304.525 97.3054 304.408 97.5721 304.173C97.8387 303.928 97.9721 303.64 97.9721 303.309C97.9721 302.829 97.7961 302.509 97.4441 302.349C97.1027 302.189 96.6174 302.045 95.9881 301.917C95.5614 301.832 95.1347 301.709 94.7081 301.549C94.2814 301.389 93.9241 301.165 93.6361 300.877C93.3481 300.579 93.2041 300.189 93.2041 299.709C93.2041 299.016 93.4601 298.451 93.9721 298.013C94.4947 297.565 95.1987 297.341 96.0841 297.341C96.9267 297.341 97.6147 297.555 98.1481 297.981C98.6921 298.397 99.0067 298.995 99.0921 299.773H97.7641C97.7107 299.368 97.5347 299.053 97.2361 298.829C96.9481 298.595 96.5587 298.477 96.0681 298.477C95.5881 298.477 95.2147 298.579 94.9481 298.781C94.6921 298.984 94.5641 299.251 94.5641 299.581C94.5641 299.901 94.7294 300.152 95.0601 300.333C95.4014 300.515 95.8601 300.669 96.4361 300.797C96.9267 300.904 97.3907 301.037 97.8281 301.197C98.2761 301.347 98.6387 301.576 98.9161 301.885C99.2041 302.184 99.3481 302.621 99.3481 303.197C99.3587 303.912 99.0867 304.504 98.5321 304.973C97.9881 305.432 97.2467 305.661 96.3081 305.661ZM105.502 305.469V293.949H106.846V298.893C107.113 298.403 107.492 298.024 107.982 297.757C108.473 297.48 109.006 297.341 109.582 297.341C110.5 297.341 111.236 297.629 111.79 298.205C112.345 298.771 112.622 299.645 112.622 300.829V305.469H111.294V300.973C111.294 299.32 110.628 298.493 109.294 298.493C108.601 298.493 108.02 298.744 107.55 299.245C107.081 299.736 106.846 300.44 106.846 301.357V305.469H105.502ZM117.299 305.661C116.637 305.661 116.088 305.549 115.651 305.325C115.213 305.101 114.888 304.803 114.675 304.429C114.461 304.056 114.355 303.651 114.355 303.213C114.355 302.403 114.664 301.779 115.283 301.341C115.901 300.904 116.744 300.685 117.811 300.685H119.955V300.589C119.955 299.896 119.773 299.373 119.411 299.021C119.048 298.659 118.563 298.477 117.955 298.477C117.432 298.477 116.979 298.611 116.595 298.877C116.221 299.133 115.987 299.512 115.891 300.013H114.515C114.568 299.437 114.76 298.952 115.091 298.557C115.432 298.163 115.853 297.864 116.355 297.661C116.856 297.448 117.389 297.341 117.955 297.341C119.064 297.341 119.896 297.64 120.451 298.237C121.016 298.824 121.299 299.608 121.299 300.589V305.469H120.099L120.019 304.045C119.795 304.493 119.464 304.877 119.027 305.197C118.6 305.507 118.024 305.661 117.299 305.661ZM117.507 304.525C118.019 304.525 118.456 304.392 118.819 304.125C119.192 303.859 119.475 303.512 119.667 303.085C119.859 302.659 119.955 302.211 119.955 301.741V301.725H117.923C117.133 301.725 116.573 301.864 116.243 302.141C115.923 302.408 115.763 302.744 115.763 303.149C115.763 303.565 115.912 303.901 116.211 304.157C116.52 304.403 116.952 304.525 117.507 304.525ZM125.306 305.469L122.298 297.533H123.706L126.09 304.173L128.49 297.533H129.866L126.858 305.469H125.306ZM132.178 295.773C131.911 295.773 131.687 295.688 131.506 295.517C131.335 295.336 131.25 295.112 131.25 294.845C131.25 294.589 131.335 294.376 131.506 294.205C131.687 294.035 131.911 293.949 132.178 293.949C132.434 293.949 132.652 294.035 132.834 294.205C133.015 294.376 133.106 294.589 133.106 294.845C133.106 295.112 133.015 295.336 132.834 295.517C132.652 295.688 132.434 295.773 132.178 295.773ZM131.506 305.469V297.533H132.85V305.469H131.506ZM135.19 305.469V297.533H136.406L136.486 298.957C136.742 298.456 137.11 298.061 137.59 297.773C138.07 297.485 138.614 297.341 139.222 297.341C140.161 297.341 140.907 297.629 141.462 298.205C142.027 298.771 142.31 299.645 142.31 300.829V305.469H140.966V300.973C140.966 299.32 140.283 298.493 138.918 298.493C138.235 298.493 137.665 298.744 137.206 299.245C136.758 299.736 136.534 300.44 136.534 301.357V305.469H135.19ZM147.482 302.973C147.034 302.973 146.624 302.915 146.25 302.797L145.45 303.549C145.568 303.635 145.712 303.709 145.882 303.773C146.064 303.827 146.32 303.88 146.65 303.933C146.981 303.976 147.445 304.024 148.042 304.077C149.109 304.152 149.872 304.397 150.33 304.813C150.789 305.229 151.018 305.773 151.018 306.445C151.018 306.904 150.89 307.341 150.634 307.757C150.389 308.173 150.005 308.515 149.482 308.781C148.97 309.048 148.309 309.181 147.498 309.181C146.784 309.181 146.149 309.085 145.594 308.893C145.04 308.712 144.608 308.429 144.298 308.045C143.989 307.672 143.834 307.197 143.834 306.621C143.834 306.323 143.914 305.997 144.074 305.645C144.234 305.304 144.533 304.979 144.97 304.669C144.736 304.573 144.533 304.472 144.362 304.365C144.202 304.248 144.053 304.12 143.914 303.981V303.613L145.274 302.269C144.645 301.736 144.33 301.032 144.33 300.157C144.33 299.635 144.453 299.16 144.698 298.733C144.944 298.307 145.301 297.971 145.77 297.725C146.24 297.469 146.81 297.341 147.482 297.341C147.941 297.341 148.357 297.405 148.73 297.533H151.658V298.541L150.17 298.605C150.48 299.053 150.634 299.571 150.634 300.157C150.634 300.68 150.506 301.155 150.25 301.581C150.005 302.008 149.648 302.349 149.178 302.605C148.72 302.851 148.154 302.973 147.482 302.973ZM147.482 301.869C148.048 301.869 148.496 301.725 148.826 301.437C149.168 301.139 149.338 300.712 149.338 300.157C149.338 299.613 149.168 299.197 148.826 298.909C148.496 298.611 148.048 298.461 147.482 298.461C146.906 298.461 146.448 298.611 146.106 298.909C145.776 299.197 145.61 299.613 145.61 300.157C145.61 300.712 145.776 301.139 146.106 301.437C146.448 301.725 146.906 301.869 147.482 301.869ZM145.146 306.493C145.146 307.027 145.37 307.421 145.818 307.677C146.266 307.944 146.826 308.077 147.498 308.077C148.16 308.077 148.688 307.933 149.082 307.645C149.488 307.357 149.69 306.973 149.69 306.493C149.69 306.152 149.552 305.853 149.274 305.597C148.997 305.352 148.485 305.208 147.738 305.165C147.152 305.123 146.645 305.069 146.218 305.005C145.781 305.24 145.493 305.491 145.354 305.757C145.216 306.035 145.146 306.28 145.146 306.493ZM160.049 305.661C159.387 305.661 158.838 305.549 158.401 305.325C157.963 305.101 157.638 304.803 157.425 304.429C157.211 304.056 157.105 303.651 157.105 303.213C157.105 302.403 157.414 301.779 158.033 301.341C158.651 300.904 159.494 300.685 160.561 300.685H162.705V300.589C162.705 299.896 162.523 299.373 162.161 299.021C161.798 298.659 161.313 298.477 160.705 298.477C160.182 298.477 159.729 298.611 159.345 298.877C158.971 299.133 158.737 299.512 158.641 300.013H157.265C157.318 299.437 157.51 298.952 157.841 298.557C158.182 298.163 158.603 297.864 159.105 297.661C159.606 297.448 160.139 297.341 160.705 297.341C161.814 297.341 162.646 297.64 163.201 298.237C163.766 298.824 164.049 299.608 164.049 300.589V305.469H162.849L162.769 304.045C162.545 304.493 162.214 304.877 161.777 305.197C161.35 305.507 160.774 305.661 160.049 305.661ZM160.257 304.525C160.769 304.525 161.206 304.392 161.569 304.125C161.942 303.859 162.225 303.512 162.417 303.085C162.609 302.659 162.705 302.211 162.705 301.741V301.725H160.673C159.883 301.725 159.323 301.864 158.993 302.141C158.673 302.408 158.513 302.744 158.513 303.149C158.513 303.565 158.662 303.901 158.961 304.157C159.27 304.403 159.702 304.525 160.257 304.525ZM170.299 305.469V293.949H171.643V298.893C171.91 298.403 172.289 298.024 172.779 297.757C173.27 297.48 173.803 297.341 174.379 297.341C175.297 297.341 176.033 297.629 176.587 298.205C177.142 298.771 177.419 299.645 177.419 300.829V305.469H176.091V300.973C176.091 299.32 175.425 298.493 174.091 298.493C173.398 298.493 172.817 298.744 172.347 299.245C171.878 299.736 171.643 300.44 171.643 301.357V305.469H170.299ZM183.024 305.661C182.266 305.661 181.594 305.491 181.008 305.149C180.421 304.797 179.957 304.312 179.616 303.693C179.285 303.075 179.12 302.344 179.12 301.501C179.12 300.669 179.285 299.944 179.616 299.325C179.946 298.696 180.405 298.211 180.992 297.869C181.589 297.517 182.277 297.341 183.056 297.341C183.824 297.341 184.485 297.517 185.04 297.869C185.605 298.211 186.037 298.664 186.336 299.229C186.634 299.795 186.784 300.403 186.784 301.053C186.784 301.171 186.778 301.288 186.768 301.405C186.768 301.523 186.768 301.656 186.768 301.805H180.448C180.48 302.413 180.618 302.92 180.864 303.325C181.12 303.72 181.434 304.019 181.808 304.221C182.192 304.424 182.597 304.525 183.024 304.525C183.578 304.525 184.042 304.397 184.416 304.141C184.789 303.885 185.061 303.539 185.232 303.101H186.56C186.346 303.837 185.936 304.451 185.328 304.941C184.73 305.421 183.962 305.661 183.024 305.661ZM183.024 298.477C182.384 298.477 181.813 298.675 181.312 299.069C180.821 299.453 180.538 300.019 180.464 300.765H185.456C185.424 300.051 185.178 299.491 184.72 299.085C184.261 298.68 183.696 298.477 183.024 298.477ZM191.205 305.661C190.544 305.661 189.994 305.549 189.557 305.325C189.12 305.101 188.794 304.803 188.581 304.429C188.368 304.056 188.261 303.651 188.261 303.213C188.261 302.403 188.57 301.779 189.189 301.341C189.808 300.904 190.65 300.685 191.717 300.685H193.861V300.589C193.861 299.896 193.68 299.373 193.317 299.021C192.954 298.659 192.469 298.477 191.861 298.477C191.338 298.477 190.885 298.611 190.501 298.877C190.128 299.133 189.893 299.512 189.797 300.013H188.421C188.474 299.437 188.666 298.952 188.997 298.557C189.338 298.163 189.76 297.864 190.261 297.661C190.762 297.448 191.296 297.341 191.861 297.341C192.97 297.341 193.802 297.64 194.357 298.237C194.922 298.824 195.205 299.608 195.205 300.589V305.469H194.005L193.925 304.045C193.701 304.493 193.37 304.877 192.933 305.197C192.506 305.507 191.93 305.661 191.205 305.661ZM191.413 304.525C191.925 304.525 192.362 304.392 192.725 304.125C193.098 303.859 193.381 303.512 193.573 303.085C193.765 302.659 193.861 302.211 193.861 301.741V301.725H191.829C191.04 301.725 190.48 301.864 190.149 302.141C189.829 302.408 189.669 302.744 189.669 303.149C189.669 303.565 189.818 303.901 190.117 304.157C190.426 304.403 190.858 304.525 191.413 304.525ZM197.221 305.469V293.949H198.565V305.469H197.221ZM203.904 305.469C203.179 305.469 202.608 305.293 202.192 304.941C201.776 304.589 201.568 303.955 201.568 303.037V298.669H200.192V297.533H201.568L201.744 295.629H202.912V297.533H205.248V298.669H202.912V303.037C202.912 303.539 203.013 303.88 203.216 304.061C203.419 304.232 203.776 304.317 204.288 304.317H205.12V305.469H203.904ZM206.956 305.469V293.949H208.3V298.893C208.566 298.403 208.945 298.024 209.436 297.757C209.926 297.48 210.46 297.341 211.036 297.341C211.953 297.341 212.689 297.629 213.244 298.205C213.798 298.771 214.076 299.645 214.076 300.829V305.469H212.748V300.973C212.748 299.32 212.081 298.493 210.748 298.493C210.054 298.493 209.473 298.744 209.004 299.245C208.534 299.736 208.3 300.44 208.3 301.357V305.469H206.956ZM216.741 308.989L218.709 304.701H218.245L215.093 297.533H216.549L219.173 303.709L221.957 297.533H223.349L218.149 308.989H216.741ZM229.002 305.469V297.533H230.218L230.314 298.685C230.57 298.259 230.912 297.928 231.338 297.693C231.765 297.459 232.245 297.341 232.778 297.341C233.408 297.341 233.946 297.469 234.394 297.725C234.853 297.981 235.205 298.371 235.45 298.893C235.728 298.413 236.106 298.035 236.586 297.757C237.077 297.48 237.605 297.341 238.17 297.341C239.12 297.341 239.877 297.629 240.442 298.205C241.008 298.771 241.29 299.645 241.29 300.829V305.469H239.962V300.973C239.962 300.152 239.797 299.533 239.466 299.117C239.136 298.701 238.661 298.493 238.042 298.493C237.402 298.493 236.869 298.744 236.442 299.245C236.026 299.736 235.818 300.44 235.818 301.357V305.469H234.474V300.973C234.474 300.152 234.309 299.533 233.978 299.117C233.648 298.701 233.173 298.493 232.554 298.493C231.925 298.493 231.397 298.744 230.97 299.245C230.554 299.736 230.346 300.44 230.346 301.357V305.469H229.002ZM244.131 295.773C243.864 295.773 243.64 295.688 243.459 295.517C243.288 295.336 243.203 295.112 243.203 294.845C243.203 294.589 243.288 294.376 243.459 294.205C243.64 294.035 243.864 293.949 244.131 293.949C244.387 293.949 244.606 294.035 244.787 294.205C244.968 294.376 245.059 294.589 245.059 294.845C245.059 295.112 244.968 295.336 244.787 295.517C244.606 295.688 244.387 295.773 244.131 295.773ZM243.459 305.469V297.533H244.803V305.469H243.459ZM247.143 305.469V297.533H248.359L248.439 298.957C248.695 298.456 249.063 298.061 249.543 297.773C250.023 297.485 250.567 297.341 251.175 297.341C252.114 297.341 252.86 297.629 253.415 298.205C253.98 298.771 254.263 299.645 254.263 300.829V305.469H252.919V300.973C252.919 299.32 252.236 298.493 250.871 298.493C250.188 298.493 249.618 298.744 249.159 299.245C248.711 299.736 248.487 300.44 248.487 301.357V305.469H247.143ZM259.899 305.661C259.11 305.661 258.417 305.48 257.819 305.117C257.233 304.755 256.774 304.259 256.443 303.629C256.123 303 255.963 302.285 255.963 301.485C255.963 300.685 256.129 299.976 256.459 299.357C256.79 298.728 257.249 298.237 257.835 297.885C258.422 297.523 259.115 297.341 259.915 297.341C260.566 297.341 261.142 297.475 261.643 297.741C262.145 298.008 262.534 298.381 262.811 298.861V293.949H264.155V305.469H262.939L262.811 304.157C262.555 304.541 262.187 304.888 261.707 305.197C261.227 305.507 260.625 305.661 259.899 305.661ZM260.043 304.493C260.577 304.493 261.046 304.371 261.451 304.125C261.867 303.869 262.187 303.517 262.411 303.069C262.646 302.621 262.763 302.099 262.763 301.501C262.763 300.904 262.646 300.381 262.411 299.933C262.187 299.485 261.867 299.139 261.451 298.893C261.046 298.637 260.577 298.509 260.043 298.509C259.521 298.509 259.051 298.637 258.635 298.893C258.23 299.139 257.91 299.485 257.675 299.933C257.451 300.381 257.339 300.904 257.339 301.501C257.339 302.099 257.451 302.621 257.675 303.069C257.91 303.517 258.23 303.869 258.635 304.125C259.051 304.371 259.521 304.493 260.043 304.493ZM273.621 305.661C272.671 305.661 271.882 305.421 271.253 304.941C270.623 304.461 270.255 303.811 270.149 302.989H271.525C271.61 303.405 271.829 303.768 272.181 304.077C272.543 304.376 273.029 304.525 273.637 304.525C274.202 304.525 274.618 304.408 274.885 304.173C275.151 303.928 275.285 303.64 275.285 303.309C275.285 302.829 275.109 302.509 274.757 302.349C274.415 302.189 273.93 302.045 273.301 301.917C272.874 301.832 272.447 301.709 272.021 301.549C271.594 301.389 271.237 301.165 270.949 300.877C270.661 300.579 270.517 300.189 270.517 299.709C270.517 299.016 270.773 298.451 271.285 298.013C271.807 297.565 272.511 297.341 273.397 297.341C274.239 297.341 274.927 297.555 275.461 297.981C276.005 298.397 276.319 298.995 276.405 299.773H275.077C275.023 299.368 274.847 299.053 274.549 298.829C274.261 298.595 273.871 298.477 273.381 298.477C272.901 298.477 272.527 298.579 272.261 298.781C272.005 298.984 271.877 299.251 271.877 299.581C271.877 299.901 272.042 300.152 272.373 300.333C272.714 300.515 273.173 300.669 273.749 300.797C274.239 300.904 274.703 301.037 275.141 301.197C275.589 301.347 275.951 301.576 276.229 301.885C276.517 302.184 276.661 302.621 276.661 303.197C276.671 303.912 276.399 304.504 275.845 304.973C275.301 305.432 274.559 305.661 273.621 305.661ZM282.197 305.661C281.45 305.661 280.778 305.491 280.181 305.149C279.583 304.808 279.109 304.328 278.757 303.709C278.415 303.08 278.245 302.344 278.245 301.501C278.245 300.659 278.421 299.928 278.773 299.309C279.125 298.68 279.599 298.195 280.197 297.853C280.805 297.512 281.482 297.341 282.229 297.341C282.975 297.341 283.647 297.512 284.245 297.853C284.842 298.195 285.311 298.68 285.653 299.309C286.005 299.928 286.181 300.659 286.181 301.501C286.181 302.344 286.005 303.08 285.653 303.709C285.301 304.328 284.821 304.808 284.213 305.149C283.615 305.491 282.943 305.661 282.197 305.661ZM282.197 304.509C282.655 304.509 283.082 304.397 283.477 304.173C283.871 303.949 284.191 303.613 284.437 303.165C284.682 302.717 284.805 302.163 284.805 301.501C284.805 300.84 284.682 300.285 284.437 299.837C284.202 299.389 283.887 299.053 283.493 298.829C283.098 298.605 282.677 298.493 282.229 298.493C281.77 298.493 281.343 298.605 280.949 298.829C280.554 299.053 280.234 299.389 279.989 299.837C279.743 300.285 279.621 300.84 279.621 301.501C279.621 302.163 279.743 302.717 279.989 303.165C280.234 303.613 280.549 303.949 280.933 304.173C281.327 304.397 281.749 304.509 282.197 304.509ZM296.524 305.661C295.873 305.661 295.292 305.528 294.78 305.261C294.278 304.995 293.894 304.621 293.628 304.141L293.5 305.469H292.284V293.949H293.628V298.845C293.884 298.461 294.246 298.115 294.716 297.805C295.196 297.496 295.804 297.341 296.54 297.341C297.329 297.341 298.017 297.523 298.604 297.885C299.19 298.248 299.644 298.744 299.964 299.373C300.294 300.003 300.46 300.717 300.46 301.517C300.46 302.317 300.294 303.032 299.964 303.661C299.644 304.28 299.185 304.771 298.588 305.133C298.001 305.485 297.313 305.661 296.524 305.661ZM296.38 304.493C296.913 304.493 297.382 304.371 297.788 304.125C298.193 303.869 298.513 303.517 298.748 303.069C298.982 302.621 299.1 302.099 299.1 301.501C299.1 300.904 298.982 300.381 298.748 299.933C298.513 299.485 298.193 299.139 297.788 298.893C297.382 298.637 296.913 298.509 296.38 298.509C295.846 298.509 295.377 298.637 294.972 298.893C294.566 299.139 294.246 299.485 294.012 299.933C293.777 300.381 293.66 300.904 293.66 301.501C293.66 302.099 293.777 302.621 294.012 303.069C294.246 303.517 294.566 303.869 294.972 304.125C295.377 304.371 295.846 304.493 296.38 304.493ZM305.227 305.661C304.288 305.661 303.541 305.379 302.987 304.813C302.432 304.237 302.155 303.357 302.155 302.173V297.533H303.499V302.029C303.499 303.683 304.176 304.509 305.531 304.509C306.224 304.509 306.795 304.264 307.243 303.773C307.701 303.272 307.931 302.563 307.931 301.645V297.533H309.275V305.469H308.059L307.963 304.045C307.717 304.547 307.349 304.941 306.859 305.229C306.379 305.517 305.835 305.661 305.227 305.661ZM312.303 295.773C312.036 295.773 311.812 295.688 311.631 295.517C311.46 295.336 311.375 295.112 311.375 294.845C311.375 294.589 311.46 294.376 311.631 294.205C311.812 294.035 312.036 293.949 312.303 293.949C312.559 293.949 312.777 294.035 312.959 294.205C313.14 294.376 313.231 294.589 313.231 294.845C313.231 295.112 313.14 295.336 312.959 295.517C312.777 295.688 312.559 295.773 312.303 295.773ZM311.631 305.469V297.533H312.975V305.469H311.631ZM315.315 305.469V293.949H316.659V305.469H315.315ZM322.462 305.661C321.672 305.661 320.979 305.48 320.382 305.117C319.795 304.755 319.336 304.259 319.006 303.629C318.686 303 318.526 302.285 318.526 301.485C318.526 300.685 318.691 299.976 319.022 299.357C319.352 298.728 319.811 298.237 320.398 297.885C320.984 297.523 321.678 297.341 322.478 297.341C323.128 297.341 323.704 297.475 324.206 297.741C324.707 298.008 325.096 298.381 325.374 298.861V293.949H326.718V305.469H325.502L325.374 304.157C325.118 304.541 324.75 304.888 324.27 305.197C323.79 305.507 323.187 305.661 322.462 305.661ZM322.606 304.493C323.139 304.493 323.608 304.371 324.014 304.125C324.43 303.869 324.75 303.517 324.974 303.069C325.208 302.621 325.326 302.099 325.326 301.501C325.326 300.904 325.208 300.381 324.974 299.933C324.75 299.485 324.43 299.139 324.014 298.893C323.608 298.637 323.139 298.509 322.606 298.509C322.083 298.509 321.614 298.637 321.198 298.893C320.792 299.139 320.472 299.485 320.238 299.933C320.014 300.381 319.902 300.904 319.902 301.501C319.902 302.099 320.014 302.621 320.238 303.069C320.472 303.517 320.792 303.869 321.198 304.125C321.614 304.371 322.083 304.493 322.606 304.493ZM29.3221 326.661C28.6608 326.661 28.1115 326.549 27.6741 326.325C27.2368 326.101 26.9115 325.803 26.6981 325.429C26.4848 325.056 26.3781 324.651 26.3781 324.213C26.3781 323.403 26.6875 322.779 27.3061 322.341C27.9248 321.904 28.7675 321.685 29.8341 321.685H31.9781V321.589C31.9781 320.896 31.7968 320.373 31.4341 320.021C31.0715 319.659 30.5861 319.477 29.9781 319.477C29.4555 319.477 29.0021 319.611 28.6181 319.877C28.2448 320.133 28.0101 320.512 27.9141 321.013H26.5381C26.5915 320.437 26.7835 319.952 27.1141 319.557C27.4555 319.163 27.8768 318.864 28.3781 318.661C28.8795 318.448 29.4128 318.341 29.9781 318.341C31.0875 318.341 31.9195 318.64 32.4741 319.237C33.0395 319.824 33.3221 320.608 33.3221 321.589V326.469H32.1221L32.0421 325.045C31.8181 325.493 31.4875 325.877 31.0501 326.197C30.6235 326.507 30.0475 326.661 29.3221 326.661ZM29.5301 325.525C30.0421 325.525 30.4795 325.392 30.8421 325.125C31.2155 324.859 31.4981 324.512 31.6901 324.085C31.8821 323.659 31.9781 323.211 31.9781 322.741V322.725H29.9461C29.1568 322.725 28.5968 322.864 28.2661 323.141C27.9461 323.408 27.7861 323.744 27.7861 324.149C27.7861 324.565 27.9355 324.901 28.2341 325.157C28.5435 325.403 28.9755 325.525 29.5301 325.525ZM39.5728 326.469V314.949H40.9168V319.893C41.1834 319.403 41.5621 319.024 42.0528 318.757C42.5434 318.48 43.0768 318.341 43.6528 318.341C44.5701 318.341 45.3061 318.629 45.8608 319.205C46.4154 319.771 46.6927 320.645 46.6927 321.829V326.469H45.3648V321.973C45.3648 320.32 44.6981 319.493 43.3648 319.493C42.6714 319.493 42.0901 319.744 41.6208 320.245C41.1514 320.736 40.9168 321.44 40.9168 322.357V326.469H39.5728ZM52.297 326.661C51.5397 326.661 50.8677 326.491 50.281 326.149C49.6943 325.797 49.2303 325.312 48.889 324.693C48.5583 324.075 48.393 323.344 48.393 322.501C48.393 321.669 48.5583 320.944 48.889 320.325C49.2197 319.696 49.6783 319.211 50.265 318.869C50.8623 318.517 51.5503 318.341 52.329 318.341C53.097 318.341 53.7583 318.517 54.313 318.869C54.8783 319.211 55.3103 319.664 55.609 320.229C55.9077 320.795 56.057 321.403 56.057 322.053C56.057 322.171 56.0517 322.288 56.041 322.405C56.041 322.523 56.041 322.656 56.041 322.805H49.721C49.753 323.413 49.8917 323.92 50.137 324.325C50.393 324.72 50.7077 325.019 51.081 325.221C51.465 325.424 51.8703 325.525 52.297 325.525C52.8517 325.525 53.3157 325.397 53.689 325.141C54.0623 324.885 54.3343 324.539 54.505 324.101H55.833C55.6197 324.837 55.209 325.451 54.601 325.941C54.0037 326.421 53.2357 326.661 52.297 326.661ZM52.297 319.477C51.657 319.477 51.0863 319.675 50.585 320.069C50.0943 320.453 49.8117 321.019 49.737 321.765H54.729C54.697 321.051 54.4517 320.491 53.993 320.085C53.5343 319.68 52.969 319.477 52.297 319.477ZM60.4784 326.661C59.817 326.661 59.2677 326.549 58.8304 326.325C58.393 326.101 58.0677 325.803 57.8544 325.429C57.641 325.056 57.5344 324.651 57.5344 324.213C57.5344 323.403 57.8437 322.779 58.4624 322.341C59.081 321.904 59.9237 321.685 60.9904 321.685H63.1344V321.589C63.1344 320.896 62.953 320.373 62.5904 320.021C62.2277 319.659 61.7424 319.477 61.1344 319.477C60.6117 319.477 60.1584 319.611 59.7744 319.877C59.401 320.133 59.1664 320.512 59.0704 321.013H57.6944C57.7477 320.437 57.9397 319.952 58.2704 319.557C58.6117 319.163 59.033 318.864 59.5344 318.661C60.0357 318.448 60.569 318.341 61.1344 318.341C62.2437 318.341 63.0757 318.64 63.6304 319.237C64.1957 319.824 64.4784 320.608 64.4784 321.589V326.469H63.2784L63.1984 325.045C62.9744 325.493 62.6437 325.877 62.2064 326.197C61.7797 326.507 61.2037 326.661 60.4784 326.661ZM60.6864 325.525C61.1984 325.525 61.6357 325.392 61.9984 325.125C62.3717 324.859 62.6544 324.512 62.8464 324.085C63.0384 323.659 63.1344 323.211 63.1344 322.741V322.725H61.1024C60.313 322.725 59.753 322.864 59.4224 323.141C59.1024 323.408 58.9424 323.744 58.9424 324.149C58.9424 324.565 59.0917 324.901 59.3904 325.157C59.6997 325.403 60.1317 325.525 60.6864 325.525ZM66.4946 326.469V314.949H67.8386V326.469H66.4946ZM73.1775 326.469C72.4522 326.469 71.8815 326.293 71.4655 325.941C71.0495 325.589 70.8415 324.955 70.8415 324.037V319.669H69.4655V318.533H70.8415L71.0175 316.629H72.1855V318.533H74.5215V319.669H72.1855V324.037C72.1855 324.539 72.2868 324.88 72.4895 325.061C72.6922 325.232 73.0495 325.317 73.5615 325.317H74.3935V326.469H73.1775ZM76.229 326.469V314.949H77.573V319.893C77.8397 319.403 78.2183 319.024 78.709 318.757C79.1997 318.48 79.733 318.341 80.309 318.341C81.2263 318.341 81.9623 318.629 82.517 319.205C83.0717 319.771 83.349 320.645 83.349 321.829V326.469H82.021V321.973C82.021 320.32 81.3543 319.493 80.021 319.493C79.3277 319.493 78.7463 319.744 78.277 320.245C77.8077 320.736 77.573 321.44 77.573 322.357V326.469H76.229ZM86.0149 329.989L87.9829 325.701H87.5189L84.3669 318.533H85.8229L88.4469 324.709L91.2309 318.533H92.6229L87.4229 329.989H86.0149ZM98.2759 326.469V318.533H99.4919L99.5879 319.685C99.8439 319.259 100.185 318.928 100.612 318.693C101.039 318.459 101.519 318.341 102.052 318.341C102.681 318.341 103.22 318.469 103.668 318.725C104.127 318.981 104.479 319.371 104.724 319.893C105.001 319.413 105.38 319.035 105.86 318.757C106.351 318.48 106.879 318.341 107.444 318.341C108.393 318.341 109.151 318.629 109.716 319.205C110.281 319.771 110.564 320.645 110.564 321.829V326.469H109.236V321.973C109.236 321.152 109.071 320.533 108.74 320.117C108.409 319.701 107.935 319.493 107.316 319.493C106.676 319.493 106.143 319.744 105.716 320.245C105.3 320.736 105.092 321.44 105.092 322.357V326.469H103.748V321.973C103.748 321.152 103.583 320.533 103.252 320.117C102.921 319.701 102.447 319.493 101.828 319.493C101.199 319.493 100.671 319.744 100.244 320.245C99.8279 320.736 99.6199 321.44 99.6199 322.357V326.469H98.2759ZM113.404 316.773C113.138 316.773 112.914 316.688 112.732 316.517C112.562 316.336 112.476 316.112 112.476 315.845C112.476 315.589 112.562 315.376 112.732 315.205C112.914 315.035 113.138 314.949 113.404 314.949C113.66 314.949 113.879 315.035 114.06 315.205C114.242 315.376 114.332 315.589 114.332 315.845C114.332 316.112 114.242 316.336 114.06 316.517C113.879 316.688 113.66 316.773 113.404 316.773ZM112.732 326.469V318.533H114.076V326.469H112.732ZM116.417 326.469V318.533H117.633L117.713 319.957C117.969 319.456 118.337 319.061 118.817 318.773C119.297 318.485 119.841 318.341 120.449 318.341C121.387 318.341 122.134 318.629 122.689 319.205C123.254 319.771 123.536 320.645 123.536 321.829V326.469H122.193V321.973C122.193 320.32 121.51 319.493 120.145 319.493C119.462 319.493 118.891 319.744 118.433 320.245C117.985 320.736 117.761 321.44 117.761 322.357V326.469H116.417ZM129.173 326.661C128.383 326.661 127.69 326.48 127.093 326.117C126.506 325.755 126.047 325.259 125.717 324.629C125.397 324 125.237 323.285 125.237 322.485C125.237 321.685 125.402 320.976 125.733 320.357C126.063 319.728 126.522 319.237 127.109 318.885C127.695 318.523 128.389 318.341 129.189 318.341C129.839 318.341 130.415 318.475 130.917 318.741C131.418 319.008 131.807 319.381 132.085 319.861V314.949H133.429V326.469H132.213L132.085 325.157C131.829 325.541 131.461 325.888 130.981 326.197C130.501 326.507 129.898 326.661 129.173 326.661ZM129.317 325.493C129.85 325.493 130.319 325.371 130.725 325.125C131.141 324.869 131.461 324.517 131.685 324.069C131.919 323.621 132.037 323.099 132.037 322.501C132.037 321.904 131.919 321.381 131.685 320.933C131.461 320.485 131.141 320.139 130.725 319.893C130.319 319.637 129.85 319.509 129.317 319.509C128.794 319.509 128.325 319.637 127.909 319.893C127.503 320.139 127.183 320.485 126.949 320.933C126.725 321.381 126.613 321.904 126.613 322.501C126.613 323.099 126.725 323.621 126.949 324.069C127.183 324.517 127.503 324.869 127.909 325.125C128.325 325.371 128.794 325.493 129.317 325.493ZM142.99 326.469C142.265 326.469 141.694 326.293 141.278 325.941C140.862 325.589 140.654 324.955 140.654 324.037V319.669H139.278V318.533H140.654L140.83 316.629H141.998V318.533H144.334V319.669H141.998V324.037C141.998 324.539 142.099 324.88 142.302 325.061C142.505 325.232 142.862 325.317 143.374 325.317H144.206V326.469H142.99ZM146.042 326.469V314.949H147.386V319.893C147.652 319.403 148.031 319.024 148.522 318.757C149.012 318.48 149.546 318.341 150.122 318.341C151.039 318.341 151.775 318.629 152.33 319.205C152.884 319.771 153.161 320.645 153.161 321.829V326.469H151.834V321.973C151.834 320.32 151.167 319.493 149.834 319.493C149.14 319.493 148.559 319.744 148.09 320.245C147.62 320.736 147.386 321.44 147.386 322.357V326.469H146.042ZM158.766 326.661C158.008 326.661 157.336 326.491 156.75 326.149C156.163 325.797 155.699 325.312 155.358 324.693C155.027 324.075 154.862 323.344 154.862 322.501C154.862 321.669 155.027 320.944 155.358 320.325C155.688 319.696 156.147 319.211 156.734 318.869C157.331 318.517 158.019 318.341 158.798 318.341C159.566 318.341 160.227 318.517 160.782 318.869C161.347 319.211 161.779 319.664 162.078 320.229C162.376 320.795 162.526 321.403 162.526 322.053C162.526 322.171 162.52 322.288 162.51 322.405C162.51 322.523 162.51 322.656 162.51 322.805H156.19C156.222 323.413 156.36 323.92 156.606 324.325C156.862 324.72 157.176 325.019 157.55 325.221C157.934 325.424 158.339 325.525 158.766 325.525C159.32 325.525 159.784 325.397 160.158 325.141C160.531 324.885 160.803 324.539 160.974 324.101H162.302C162.088 324.837 161.678 325.451 161.07 325.941C160.472 326.421 159.704 326.661 158.766 326.661ZM158.766 319.477C158.126 319.477 157.555 319.675 157.054 320.069C156.563 320.453 156.28 321.019 156.206 321.765H161.198C161.166 321.051 160.92 320.491 160.462 320.085C160.003 319.68 159.438 319.477 158.766 319.477ZM164.307 326.469V318.533H165.523L165.603 319.957C165.859 319.456 166.227 319.061 166.707 318.773C167.187 318.485 167.731 318.341 168.339 318.341C169.278 318.341 170.024 318.629 170.579 319.205C171.144 319.771 171.427 320.645 171.427 321.829V326.469H170.083V321.973C170.083 320.32 169.4 319.493 168.035 319.493C167.352 319.493 166.782 319.744 166.323 320.245C165.875 320.736 165.651 321.44 165.651 322.357V326.469H164.307ZM180.834 326.469C180.108 326.469 179.538 326.293 179.122 325.941C178.706 325.589 178.498 324.955 178.498 324.037V319.669H177.122V318.533H178.498L178.674 316.629H179.842V318.533H182.178V319.669H179.842V324.037C179.842 324.539 179.943 324.88 180.146 325.061C180.348 325.232 180.706 325.317 181.218 325.317H182.05V326.469H180.834ZM183.885 326.469V314.949H185.229V319.893C185.496 319.403 185.875 319.024 186.365 318.757C186.856 318.48 187.389 318.341 187.965 318.341C188.883 318.341 189.619 318.629 190.173 319.205C190.728 319.771 191.005 320.645 191.005 321.829V326.469H189.677V321.973C189.677 320.32 189.011 319.493 187.677 319.493C186.984 319.493 186.403 319.744 185.933 320.245C185.464 320.736 185.229 321.44 185.229 322.357V326.469H183.885ZM196.61 326.661C195.852 326.661 195.18 326.491 194.594 326.149C194.007 325.797 193.543 325.312 193.202 324.693C192.871 324.075 192.706 323.344 192.706 322.501C192.706 321.669 192.871 320.944 193.202 320.325C193.532 319.696 193.991 319.211 194.578 318.869C195.175 318.517 195.863 318.341 196.641 318.341C197.41 318.341 198.071 318.517 198.626 318.869C199.191 319.211 199.623 319.664 199.922 320.229C200.22 320.795 200.37 321.403 200.37 322.053C200.37 322.171 200.364 322.288 200.354 322.405C200.354 322.523 200.354 322.656 200.354 322.805H194.034C194.066 323.413 194.204 323.92 194.45 324.325C194.706 324.72 195.02 325.019 195.394 325.221C195.778 325.424 196.183 325.525 196.61 325.525C197.164 325.525 197.628 325.397 198.002 325.141C198.375 324.885 198.647 324.539 198.818 324.101H200.146C199.932 324.837 199.522 325.451 198.914 325.941C198.316 326.421 197.548 326.661 196.61 326.661ZM196.61 319.477C195.97 319.477 195.399 319.675 194.898 320.069C194.407 320.453 194.124 321.019 194.049 321.765H199.042C199.01 321.051 198.764 320.491 198.306 320.085C197.847 319.68 197.282 319.477 196.61 319.477ZM206.385 326.469V314.949H207.729V319.893C207.996 319.403 208.375 319.024 208.865 318.757C209.356 318.48 209.889 318.341 210.465 318.341C211.383 318.341 212.119 318.629 212.673 319.205C213.228 319.771 213.505 320.645 213.505 321.829V326.469H212.177V321.973C212.177 320.32 211.511 319.493 210.177 319.493C209.484 319.493 208.903 319.744 208.433 320.245C207.964 320.736 207.729 321.44 207.729 322.357V326.469H206.385ZM219.11 326.661C218.352 326.661 217.68 326.491 217.094 326.149C216.507 325.797 216.043 325.312 215.702 324.693C215.371 324.075 215.206 323.344 215.206 322.501C215.206 321.669 215.371 320.944 215.702 320.325C216.032 319.696 216.491 319.211 217.078 318.869C217.675 318.517 218.363 318.341 219.141 318.341C219.91 318.341 220.571 318.517 221.126 318.869C221.691 319.211 222.123 319.664 222.422 320.229C222.72 320.795 222.87 321.403 222.87 322.053C222.87 322.171 222.864 322.288 222.854 322.405C222.854 322.523 222.854 322.656 222.854 322.805H216.534C216.566 323.413 216.704 323.92 216.95 324.325C217.206 324.72 217.52 325.019 217.894 325.221C218.278 325.424 218.683 325.525 219.11 325.525C219.664 325.525 220.128 325.397 220.502 325.141C220.875 324.885 221.147 324.539 221.318 324.101H222.646C222.432 324.837 222.022 325.451 221.414 325.941C220.816 326.421 220.048 326.661 219.11 326.661ZM219.11 319.477C218.47 319.477 217.899 319.675 217.398 320.069C216.907 320.453 216.624 321.019 216.549 321.765H221.542C221.51 321.051 221.264 320.491 220.806 320.085C220.347 319.68 219.782 319.477 219.11 319.477ZM227.291 326.661C226.63 326.661 226.08 326.549 225.643 326.325C225.206 326.101 224.88 325.803 224.667 325.429C224.454 325.056 224.347 324.651 224.347 324.213C224.347 323.403 224.656 322.779 225.275 322.341C225.894 321.904 226.736 321.685 227.803 321.685H229.947V321.589C229.947 320.896 229.766 320.373 229.403 320.021C229.04 319.659 228.555 319.477 227.947 319.477C227.424 319.477 226.971 319.611 226.587 319.877C226.214 320.133 225.979 320.512 225.883 321.013H224.507C224.56 320.437 224.752 319.952 225.083 319.557C225.424 319.163 225.846 318.864 226.347 318.661C226.848 318.448 227.382 318.341 227.947 318.341C229.056 318.341 229.888 318.64 230.443 319.237C231.008 319.824 231.291 320.608 231.291 321.589V326.469H230.091L230.011 325.045C229.787 325.493 229.456 325.877 229.019 326.197C228.592 326.507 228.016 326.661 227.291 326.661ZM227.499 325.525C228.011 325.525 228.448 325.392 228.811 325.125C229.184 324.859 229.467 324.512 229.659 324.085C229.851 323.659 229.947 323.211 229.947 322.741V322.725H227.915C227.126 322.725 226.566 322.864 226.235 323.141C225.915 323.408 225.755 323.744 225.755 324.149C225.755 324.565 225.904 324.901 226.203 325.157C226.512 325.403 226.944 325.525 227.499 325.525ZM233.307 326.469V314.949H234.651V326.469H233.307ZM239.99 326.469C239.265 326.469 238.694 326.293 238.278 325.941C237.862 325.589 237.654 324.955 237.654 324.037V319.669H236.278V318.533H237.654L237.83 316.629H238.998V318.533H241.334V319.669H238.998V324.037C238.998 324.539 239.099 324.88 239.302 325.061C239.505 325.232 239.862 325.317 240.374 325.317H241.206V326.469H239.99ZM243.042 326.469V314.949H244.386V319.893C244.652 319.403 245.031 319.024 245.522 318.757C246.012 318.48 246.546 318.341 247.122 318.341C248.039 318.341 248.775 318.629 249.33 319.205C249.884 319.771 250.161 320.645 250.161 321.829V326.469H248.834V321.973C248.834 320.32 248.167 319.493 246.834 319.493C246.14 319.493 245.559 319.744 245.09 320.245C244.62 320.736 244.386 321.44 244.386 322.357V326.469H243.042ZM252.827 329.989L254.795 325.701H254.331L251.179 318.533H252.635L255.259 324.709L258.043 318.533H259.435L254.235 329.989H252.827ZM269.328 326.661C268.678 326.661 268.096 326.528 267.584 326.261C267.083 325.995 266.699 325.621 266.432 325.141L266.304 326.469H265.088V314.949H266.432V319.845C266.688 319.461 267.051 319.115 267.52 318.805C268 318.496 268.608 318.341 269.344 318.341C270.134 318.341 270.822 318.523 271.408 318.885C271.995 319.248 272.448 319.744 272.768 320.373C273.099 321.003 273.264 321.717 273.264 322.517C273.264 323.317 273.099 324.032 272.768 324.661C272.448 325.28 271.99 325.771 271.392 326.133C270.806 326.485 270.118 326.661 269.328 326.661ZM269.184 325.493C269.718 325.493 270.187 325.371 270.592 325.125C270.998 324.869 271.318 324.517 271.552 324.069C271.787 323.621 271.904 323.099 271.904 322.501C271.904 321.904 271.787 321.381 271.552 320.933C271.318 320.485 270.998 320.139 270.592 319.893C270.187 319.637 269.718 319.509 269.184 319.509C268.651 319.509 268.182 319.637 267.776 319.893C267.371 320.139 267.051 320.485 266.816 320.933C266.582 321.381 266.464 321.904 266.464 322.501C266.464 323.099 266.582 323.621 266.816 324.069C267.051 324.517 267.371 324.869 267.776 325.125C268.182 325.371 268.651 325.493 269.184 325.493ZM278.751 326.661C278.005 326.661 277.333 326.491 276.735 326.149C276.138 325.808 275.663 325.328 275.311 324.709C274.97 324.08 274.799 323.344 274.799 322.501C274.799 321.659 274.975 320.928 275.327 320.309C275.679 319.68 276.154 319.195 276.751 318.853C277.359 318.512 278.037 318.341 278.783 318.341C279.53 318.341 280.202 318.512 280.799 318.853C281.397 319.195 281.866 319.68 282.207 320.309C282.559 320.928 282.735 321.659 282.735 322.501C282.735 323.344 282.559 324.08 282.207 324.709C281.855 325.328 281.375 325.808 280.767 326.149C280.17 326.491 279.498 326.661 278.751 326.661ZM278.751 325.509C279.21 325.509 279.637 325.397 280.031 325.173C280.426 324.949 280.746 324.613 280.991 324.165C281.237 323.717 281.359 323.163 281.359 322.501C281.359 321.84 281.237 321.285 280.991 320.837C280.757 320.389 280.442 320.053 280.047 319.829C279.653 319.605 279.231 319.493 278.783 319.493C278.325 319.493 277.898 319.605 277.503 319.829C277.109 320.053 276.789 320.389 276.543 320.837C276.298 321.285 276.175 321.84 276.175 322.501C276.175 323.163 276.298 323.717 276.543 324.165C276.789 324.613 277.103 324.949 277.487 325.173C277.882 325.397 278.303 325.509 278.751 325.509ZM288.204 326.661C287.415 326.661 286.721 326.48 286.124 326.117C285.537 325.755 285.079 325.259 284.748 324.629C284.428 324 284.268 323.285 284.268 322.485C284.268 321.685 284.433 320.976 284.764 320.357C285.095 319.728 285.553 319.237 286.14 318.885C286.727 318.523 287.42 318.341 288.22 318.341C288.871 318.341 289.447 318.475 289.948 318.741C290.449 319.008 290.839 319.381 291.116 319.861V314.949H292.46V326.469H291.244L291.116 325.157C290.86 325.541 290.492 325.888 290.012 326.197C289.532 326.507 288.929 326.661 288.204 326.661ZM288.348 325.493C288.881 325.493 289.351 325.371 289.756 325.125C290.172 324.869 290.492 324.517 290.716 324.069C290.951 323.621 291.068 323.099 291.068 322.501C291.068 321.904 290.951 321.381 290.716 320.933C290.492 320.485 290.172 320.139 289.756 319.893C289.351 319.637 288.881 319.509 288.348 319.509C287.825 319.509 287.356 319.637 286.94 319.893C286.535 320.139 286.215 320.485 285.98 320.933C285.756 321.381 285.644 321.904 285.644 322.501C285.644 323.099 285.756 323.621 285.98 324.069C286.215 324.517 286.535 324.869 286.94 325.125C287.356 325.371 287.825 325.493 288.348 325.493ZM295.515 329.989L297.483 325.701H297.019L293.867 318.533H295.323L297.947 324.709L300.731 318.533H302.123L296.923 329.989H295.515ZM302.865 326.549C302.598 326.549 302.374 326.464 302.193 326.293C302.022 326.112 301.937 325.893 301.937 325.637C301.937 325.381 302.022 325.168 302.193 324.997C302.374 324.816 302.598 324.725 302.865 324.725C303.121 324.725 303.334 324.816 303.505 324.997C303.686 325.168 303.777 325.381 303.777 325.637C303.777 325.893 303.686 326.112 303.505 326.293C303.334 326.464 303.121 326.549 302.865 326.549Z" fill="#E2E2E2"/>
</svg>
