<svg width="50" height="50" viewBox="0 0 50 50" fill="none" xmlns="http://www.w3.org/2000/svg">
<path d="M14.1877 29.3066L7.1111 28.6109L4.12517 22.2153L1.79913 22.7865C1.79913 22.7865 3.51832 29.5446 5.43991 30.5917C7.36133 31.6388 13.935 31.8291 13.935 31.8291L14.1877 29.3066Z" fill="#FF735D"/>
<path d="M12.4685 30.5917C12.4685 32.2213 13.872 33.5424 15.6036 33.5424C17.3351 33.5424 18.7386 32.2213 18.7386 30.5917C18.7386 28.962 17.3351 27.6409 15.6036 27.6409C13.872 27.6409 12.4685 28.962 12.4685 30.5917Z" fill="#1A2E35"/>
<path d="M15.6035 27.645C14.7673 27.645 13.981 27.9514 13.3896 28.508C12.7984 29.0645 12.4726 29.8045 12.4726 30.5916C12.4726 31.3789 12.7984 32.1187 13.3896 32.6754C13.981 33.2318 14.7673 33.5384 15.6035 33.5384C16.4398 33.5384 17.2261 33.2318 17.8173 32.6754C18.4087 32.1187 18.7345 31.3789 18.7345 30.5916C18.7345 29.8045 18.4087 29.0645 17.8173 28.508C17.2261 27.9514 16.4398 27.645 15.6035 27.645ZM15.6035 33.5463C14.7649 33.5463 13.9767 33.2389 13.3837 32.6809C12.7908 32.123 12.4642 31.3809 12.4642 30.5916C12.4642 29.8023 12.7908 29.0604 13.3837 28.5025C13.9767 27.9445 14.7649 27.6369 15.6035 27.6369C16.4422 27.6369 17.2304 27.9445 17.8234 28.5025C18.4163 29.0604 18.7429 29.8025 18.7429 30.5916C18.7429 31.3808 18.4163 32.123 17.8234 32.6809C17.2304 33.2389 16.4422 33.5463 15.6035 33.5463Z" fill="#1A2E35"/>
<path d="M3.58466 28.9472C3.58466 30.1694 4.63742 31.1603 5.93604 31.1603C7.23466 31.1603 8.28725 30.1694 8.28725 28.9472C8.28725 27.7251 7.23466 26.7341 5.93604 26.7341C4.63742 26.7341 3.58466 27.7251 3.58466 28.9472Z" fill="#1A2E35"/>
<path d="M0.871216 21.4555C0.871216 22.4541 1.73131 23.2637 2.7923 23.2637C3.85345 23.2637 4.71355 22.4541 4.71355 21.4555C4.71355 20.4569 3.85345 19.6474 2.7923 19.6474C1.73131 19.6474 0.871216 20.4569 0.871216 21.4555Z" fill="#1A2E35"/>
<path d="M4.20828 21.7323L5.78767 20.477C5.96154 20.3388 5.98336 20.0943 5.83668 19.9308L5.79774 19.8875C5.65107 19.7241 5.39127 19.7034 5.21758 19.8414L3.63818 21.0968L4.20828 21.7323Z" fill="#1A2E35"/>
<path d="M3.77787 20.0627V18.173C3.77787 17.9589 3.59343 17.7855 3.36603 17.7855H3.30578C3.07837 17.7855 2.8941 17.9589 2.8941 18.173V20.0627C2.8941 20.0937 2.92062 20.1187 2.95335 20.1187H3.71846C3.75118 20.1187 3.77787 20.0937 3.77787 20.0627Z" fill="#1A2E35"/>
<path d="M2.79173 20.0246L2.35338 18.1803C2.3037 17.9714 2.08352 17.8399 1.86165 17.8867L1.80275 17.8992C1.58088 17.9459 1.44125 18.153 1.49093 18.362L1.92929 20.2061C1.93633 20.2363 1.96822 20.2552 2.00011 20.2484L2.74676 20.0913C2.77864 20.0845 2.79878 20.0546 2.79173 20.0246Z" fill="#1A2E35"/>
<path d="M1.82455 20.279L0.820625 18.6422C0.70684 18.457 0.455104 18.3935 0.258078 18.5004L0.205885 18.5288C0.00902743 18.6358 -0.0584378 18.8729 0.0551791 19.0581L1.0591 20.6949C1.07555 20.7216 1.1118 20.7307 1.14016 20.7152L1.80273 20.3553C1.83126 20.3398 1.84099 20.3057 1.82455 20.279Z" fill="#1A2E35"/>
<path d="M47.0252 45.0218L44.9099 45.8685L38.8048 32.3583L40.9201 31.5115L47.0252 45.0218Z" fill="#FF735D"/>
<path d="M41.8274 31.7692C42.3376 30.2119 41.4102 28.5602 39.7554 28.08C38.1009 27.5997 36.3459 28.4727 35.8357 30.0298C35.3254 31.5872 36.2529 33.239 37.9075 33.7192C39.5621 34.1995 41.317 33.3263 41.8274 31.7692Z" fill="#1A2E35"/>
<path d="M38.8275 27.9515C38.3245 27.9515 37.8258 28.0668 37.3684 28.2944C36.629 28.6621 36.0863 29.2789 35.8397 30.0311C35.5932 30.7833 35.6727 31.5808 36.0634 32.2766C36.4543 32.9724 37.1097 33.4834 37.9087 33.7154C38.708 33.9473 39.5554 33.8726 40.2945 33.5047C41.0339 33.137 41.5768 32.5201 41.8235 31.768C42.0697 31.0158 41.9903 30.2184 41.5996 29.5225C41.2086 28.8267 40.5534 28.3157 39.7541 28.0837C39.4495 27.9952 39.1376 27.9515 38.8275 27.9515ZM38.8354 33.8557C38.5244 33.8557 38.2119 33.8117 37.9063 33.7228C37.105 33.4903 36.4479 32.9779 36.0561 32.2802C35.6642 31.5825 35.5845 30.783 35.8317 30.0286C36.0789 29.2745 36.6231 28.6561 37.3646 28.2873C38.106 27.9186 38.9556 27.8434 39.7567 28.0762C40.5581 28.3087 41.2151 28.8212 41.607 29.5188C41.9987 30.2165 42.0784 31.0161 41.8312 31.7705C41.5842 32.5246 41.0399 33.143 40.2985 33.5118C39.8398 33.7399 39.3399 33.8557 38.8354 33.8557Z" fill="#1A2E35"/>
<path d="M45.1619 39.7776C45.5445 38.6095 44.8489 37.3708 43.608 37.0105C42.3671 36.6504 41.0509 37.3052 40.6682 38.473C40.2852 39.6411 40.981 40.8799 42.2219 41.2401C43.4628 41.6002 44.7791 40.9456 45.1619 39.7776Z" fill="#1A2E35"/>
<path d="M48.2808 45.4391C47.945 44.4918 46.8568 43.9802 45.8503 44.2964C44.8439 44.6127 44.3003 45.6369 44.6363 46.5841C44.9721 47.5312 46.0605 48.0428 47.0669 47.7266C48.0733 47.4104 48.6168 46.3862 48.2808 45.4391Z" fill="#1A2E35"/>
<path d="M45.0222 46.1709L43.9465 47.8324C43.8282 48.0152 43.8896 48.2537 44.0838 48.3651L44.1353 48.3944C44.3295 48.5058 44.5827 48.448 44.701 48.2652L45.777 46.6037L45.0222 46.1709Z" fill="#1A2E35"/>
<path d="M45.9923 47.6263L46.6281 49.419C46.7001 49.622 46.9332 49.7315 47.149 49.6637L47.206 49.6459C47.4219 49.5779 47.5383 49.3585 47.4663 49.1556L46.8305 47.3629C46.8202 47.3336 46.7865 47.3179 46.7554 47.3276L46.0298 47.5556C45.9987 47.5653 45.9819 47.597 45.9923 47.6263Z" fill="#1A2E35"/>
<path d="M46.9404 47.3687L47.9767 48.9874C48.0941 49.1706 48.3471 49.2297 48.5418 49.1193L48.5935 49.0899C48.7883 48.9795 48.8511 48.7413 48.7338 48.5581L47.6975 46.9394C47.6805 46.913 47.6439 46.9045 47.6159 46.9204L46.9606 47.2921C46.9325 47.3079 46.9235 47.3422 46.9404 47.3687Z" fill="#1A2E35"/>
<path d="M47.7724 46.8391L49.2752 48.0925C49.4456 48.2343 49.7057 48.2195 49.8566 48.0593L49.8964 48.0168C50.0472 47.8567 50.0316 47.6118 49.8613 47.4698L48.3584 46.2166C48.3339 46.1961 48.2963 46.1981 48.2747 46.2214L47.7673 46.7603C47.7455 46.7832 47.7479 46.8186 47.7724 46.8391Z" fill="#1A2E35"/>
<path d="M14.6656 27.5225C14.6656 27.5225 14.8919 48.2355 27.2422 48.6406C39.5926 49.0459 40.1101 27.6705 40.1101 27.5225C40.1101 27.5225 38.6517 24.4332 27.3881 24.5542C16.1242 24.6752 14.6656 27.5225 14.6656 27.5225Z" fill="#717BBC"/>
<path d="M21.6048 23.8755H32.0441C32.7253 23.8755 33.2774 23.3557 33.2774 22.7145V22.5446C33.2774 21.9034 32.7253 21.3837 32.0441 21.3837H21.6048C20.9236 21.3837 20.3713 21.9034 20.3713 22.5446V22.7145C20.3713 23.3557 20.9236 23.8755 21.6048 23.8755Z" fill="#1A2E35"/>
<path d="M26.3762 5.45657H27.2774V1.16731H26.3762V5.45657Z" fill="#1A2E35"/>
<path d="M37.3488 15.7946C37.3488 17.171 38.5343 18.2869 39.9969 18.2869C41.4593 18.2869 42.6449 17.171 42.6449 15.7946C42.6449 14.4181 41.4593 13.3022 39.9969 13.3022C38.5343 13.3022 37.3488 14.4181 37.3488 15.7946Z" fill="#FF735D"/>
<path d="M10.6141 15.6304C10.6141 17.0069 11.7996 18.1228 13.2622 18.1228C14.7248 18.1228 15.9103 17.0069 15.9103 15.6304C15.9103 14.254 14.7248 13.1381 13.2622 13.1381C11.7996 13.1381 10.6141 14.254 10.6141 15.6304Z" fill="#FF735D"/>
<path d="M26.3011 4.52651C26.3011 4.52651 15.5337 4.40473 13.8293 13.1823C12.1247 21.96 21.2305 22.124 23.8494 22.2901C25.0371 22.3655 27.5777 22.3734 29.8197 22.3366C34.7833 22.2555 38.2906 21.3514 39.484 17.0173C39.6232 16.5118 39.7171 15.9928 39.7522 15.4649C40.0679 10.7146 36.6513 4.29274 26.3011 4.52651Z" fill="#E6E6E6"/>
<path d="M34.1123 17.8955L18.4693 18.1254C16.8296 18.1495 15.4797 16.918 15.454 15.3748C15.4285 13.8314 16.7368 12.561 18.3766 12.5368L34.0197 12.307C35.6593 12.2829 37.0093 13.5144 37.035 15.0576C37.0605 16.6009 35.752 17.8715 34.1123 17.8955Z" fill="#1A2E35"/>
<path d="M21.7153 15.07C21.6141 15.556 21.1135 15.8728 20.5969 15.7776C20.0805 15.6823 19.7439 15.2112 19.845 14.7251C19.9462 14.2389 20.4469 13.9221 20.9634 14.0173C21.4798 14.1126 21.8165 14.5838 21.7153 15.07Z" fill="white"/>
<path d="M32.6439 14.9058C32.5427 15.392 32.0421 15.7087 31.5255 15.6135C31.0091 15.5182 30.6724 15.047 30.7736 14.561C30.8748 14.075 31.3755 13.7581 31.892 13.8532C32.4084 13.9485 32.7451 14.4198 32.6439 14.9058Z" fill="white"/>
<path d="M31.0712 35.7485C30.8999 37.9561 28.8595 39.6148 26.514 39.4533C24.1685 39.292 22.4061 37.3716 22.5775 35.1641C22.749 32.9565 24.7892 31.2978 27.1347 31.4592C29.4804 31.6205 31.2427 33.5407 31.0712 35.7485Z" fill="#1A2E35"/>
<path d="M29.9192 35.6692C29.7941 37.2778 28.3074 38.4865 26.5981 38.3689C24.889 38.2514 23.6048 36.8519 23.7296 35.2433C23.8547 33.6347 25.3414 32.426 27.0507 32.5436C28.7598 32.6611 30.044 34.0604 29.9192 35.6692Z" fill="white"/>
<path d="M28.4229 36.2C28.4109 36.1932 28.4019 36.0202 28.394 35.7182C28.3864 35.416 28.3801 34.9858 28.3796 34.4598L28.4136 34.5176C27.9489 34.2623 27.4079 33.9654 26.8173 33.6412L26.9064 33.6423C26.4054 33.9072 25.8624 34.1946 25.2954 34.4944C25.2518 34.5627 25.3542 34.4013 25.3436 34.4182V34.4187V34.4196V34.4212L25.3434 34.4249V34.4321L25.3431 34.4463L25.3428 34.4749L25.3419 34.5319L25.3401 34.6457L25.3362 34.8712C25.3335 35.0205 25.331 35.1682 25.3283 35.3135C25.3225 35.6037 25.3168 35.8855 25.3112 36.1571L25.2678 36.0839C25.8513 36.4195 26.3831 36.7252 26.845 36.9908L26.7747 36.9897C27.2669 36.7406 27.6723 36.5418 27.9586 36.4047C28.2448 36.2679 28.4108 36.1933 28.4229 36.2C28.4348 36.2066 28.2916 36.2946 28.0197 36.4508C27.7479 36.6068 27.3464 36.8318 26.8431 37.1053L26.8087 37.1241L26.7728 37.1046C26.3054 36.8479 25.767 36.5522 25.1763 36.2281L25.1323 36.2037L25.1328 36.1546C25.1357 35.8829 25.1387 35.6011 25.1419 35.311C25.1437 35.1655 25.1458 35.018 25.1478 34.8685L25.151 34.6431L25.1526 34.5294L25.1536 34.4722L25.154 34.4438L25.1541 34.4294L25.1543 34.4223V34.4187V34.417V34.416V34.4155C25.1437 34.4321 25.2463 34.2705 25.2031 34.3388C25.7719 34.0421 26.3168 33.758 26.8195 33.4958L26.8651 33.4719L26.9087 33.497C27.4921 33.8325 28.0268 34.1399 28.4858 34.4038L28.5212 34.4242L28.5202 34.4617C28.5029 35.0083 28.4831 35.4476 28.4661 35.7469C28.4489 36.0464 28.4348 36.2067 28.4229 36.2Z" fill="#FF735D"/>
<path d="M25.3414 1.08183C25.3414 1.85391 26.0065 2.47989 26.8268 2.47989C27.6471 2.47989 28.3122 1.85391 28.3122 1.08183C28.3122 0.309746 27.6471 -0.31623 26.8268 -0.31623C26.0065 -0.31623 25.3414 0.309746 25.3414 1.08183Z" fill="#717BBC"/>
<path d="M24.4546 14.6563C24.5254 14.6635 24.49 14.9772 24.6981 15.3942C24.7986 15.6011 24.9659 15.8276 25.2039 16.0198C25.44 16.2124 25.7545 16.3601 26.0991 16.3937C26.4445 16.4194 26.7821 16.3278 27.0517 16.1787C27.3227 16.0302 27.5308 15.836 27.6694 15.6496C27.9544 15.2749 27.9799 14.9604 28.0511 14.9655C28.0786 14.9659 28.1076 15.0452 28.1078 15.1936C28.1086 15.3417 28.063 15.5584 27.9344 15.7993C27.807 16.04 27.5852 16.2978 27.2655 16.4998C26.9491 16.7015 26.52 16.8387 26.0593 16.8033C25.5995 16.7595 25.2039 16.5515 24.9319 16.2992C24.6563 16.046 24.4876 15.7548 24.4088 15.4962C24.3287 15.2375 24.3254 15.0165 24.3549 14.871C24.3836 14.7251 24.4272 14.6521 24.4546 14.6563Z" fill="white"/>
<path d="M38.7911 18.7494C38.7752 18.7409 38.9684 18.4652 39.1541 17.9674C39.3448 17.4723 39.5111 16.7557 39.5908 15.9544C39.6757 15.1525 39.6628 14.4205 39.641 13.8928C39.6281 13.629 39.6148 13.4151 39.6022 13.2677C39.5912 13.1202 39.5876 13.0381 39.5937 13.0374C39.5996 13.0368 39.6145 13.1175 39.6361 13.2646C39.6593 13.4113 39.682 13.625 39.7028 13.8896C39.7405 14.4184 39.7635 15.1545 39.6778 15.9621C39.5977 16.7693 39.42 17.4921 39.212 17.9874C39.1112 18.2362 39.0068 18.4291 38.9273 18.5573C38.8442 18.6842 38.7962 18.7526 38.7911 18.7494Z" fill="#1A2E35"/>
<path d="M13.8536 12.8956C13.8593 12.8973 13.84 12.9777 13.8004 13.121C13.7797 13.1924 13.7554 13.28 13.7334 13.3832C13.7106 13.486 13.6787 13.6018 13.6579 13.7327C13.6054 13.9922 13.5644 14.3048 13.5399 14.653C13.5208 15.0016 13.5211 15.3857 13.5569 15.7871C13.5968 16.1881 13.6683 16.5666 13.7524 16.9063C13.8417 17.2452 13.9405 17.5461 14.0407 17.7929C14.0857 17.9182 14.1387 18.027 14.1805 18.1245C14.2214 18.2224 14.2617 18.3046 14.2954 18.3714C14.3612 18.5058 14.3953 18.5818 14.3899 18.5845C14.3847 18.5871 14.3404 18.5162 14.2649 18.3854C14.2263 18.3205 14.1813 18.2398 14.1358 18.1431C14.0895 18.0469 14.0321 17.9389 13.9831 17.814C13.8747 17.5677 13.7688 17.2657 13.6742 16.9245C13.5849 16.5822 13.51 16.1998 13.4699 15.7943C13.4337 15.3886 13.4357 14.9998 13.4595 14.6482C13.4887 14.2966 13.5365 13.9818 13.5973 13.7215C13.6223 13.5904 13.6584 13.4746 13.6859 13.3721C13.7126 13.2693 13.7418 13.1824 13.7678 13.1121C13.8177 12.9709 13.8479 12.8938 13.8536 12.8956Z" fill="#1A2E35"/>
<path d="M14.6143 27.504C14.6148 27.5026 14.6368 27.5086 14.6791 27.5217C14.7253 27.5365 14.7872 27.5563 14.8661 27.5816C15.0342 27.6375 15.2745 27.7172 15.5818 27.8191C15.7372 27.8714 15.9098 27.9292 16.0981 27.9926C16.2882 28.0524 16.4976 28.1087 16.721 28.174C17.1694 28.2995 17.6741 28.4617 18.2477 28.5887C18.533 28.6577 18.8317 28.7297 19.1429 28.8049C19.4545 28.8787 19.7841 28.9338 20.1223 29.0027C20.7975 29.1488 21.53 29.248 22.2983 29.365C23.8405 29.5622 25.5484 29.6975 27.3451 29.7048C29.1427 29.6978 30.8511 29.5628 32.3934 29.3658C33.1619 29.2489 33.8945 29.1497 34.5698 29.0039C34.9079 28.9349 35.2376 28.8799 35.5492 28.8062C35.8605 28.7312 36.1592 28.659 36.4445 28.5901C37.0182 28.4631 37.5226 28.301 37.9712 28.1758C38.1946 28.1104 38.4041 28.054 38.5942 27.9943C38.7825 27.9311 38.9549 27.8731 39.1104 27.821C39.4177 27.719 39.658 27.6394 39.826 27.5836C39.9049 27.5583 39.9668 27.5386 40.013 27.5237C40.0553 27.5108 40.0773 27.5046 40.0779 27.5061C40.0783 27.5073 40.0575 27.516 40.0162 27.5316C39.971 27.5482 39.9101 27.5707 39.8324 27.5991C39.6654 27.6583 39.4269 27.743 39.1218 27.851C38.9668 27.9054 38.7951 27.9657 38.6075 28.0314C38.418 28.0935 38.209 28.1521 37.986 28.2195C37.5384 28.3494 37.0341 28.5155 36.4605 28.6463C36.1752 28.7169 35.8761 28.7909 35.5648 28.8679C35.2532 28.9434 34.9232 29.0002 34.5846 29.0706C33.9086 29.2197 33.1748 29.3216 32.405 29.4408C30.8597 29.6424 29.1472 29.78 27.3451 29.7869C25.5439 29.7797 23.8317 29.6418 22.2867 29.4401C21.5171 29.3206 20.7834 29.2186 20.1074 29.0695C19.7689 28.9989 19.4391 28.9422 19.1273 28.8667C18.816 28.7896 18.5171 28.7157 18.2318 28.6449C17.6582 28.5141 17.1538 28.3476 16.7063 28.218C16.4832 28.1504 16.2743 28.0918 16.0848 28.0297C15.897 27.9638 15.7253 27.9036 15.5704 27.8493C15.2653 27.7409 15.0268 27.6563 14.8597 27.597C14.7822 27.5686 14.7212 27.5463 14.6759 27.5296C14.6346 27.5138 14.6138 27.5053 14.6143 27.504Z" fill="#1A2E35"/>
<path d="M24.9383 5.18311C24.9383 5.18453 24.9252 5.18658 24.8995 5.18927C24.8687 5.19195 24.8312 5.19511 24.7858 5.1989C24.6859 5.20869 24.5377 5.2117 24.3484 5.23302C23.9693 5.2654 23.422 5.33569 22.7595 5.48101C22.0969 5.62506 21.3219 5.85884 20.5061 6.21455C19.6903 6.56916 18.8396 7.05519 18.0371 7.67342C17.2396 8.29782 16.5711 8.99203 16.0463 9.6785C15.5204 10.3651 15.1295 11.0369 14.8534 11.6218C14.5762 12.2066 14.3991 12.6991 14.2934 13.0433C14.2352 13.214 14.204 13.3503 14.1749 13.4407C14.1622 13.4822 14.1518 13.516 14.1432 13.5441C14.1355 13.5674 14.131 13.579 14.1294 13.5787C14.1279 13.5784 14.1296 13.5661 14.1345 13.5422C14.1407 13.5137 14.1484 13.4791 14.1578 13.4369C14.1813 13.345 14.2073 13.2071 14.2607 13.0346C14.3565 12.6866 14.5255 12.1892 14.7969 11.5983C15.0672 11.0072 15.4549 10.328 15.9809 9.63444C16.5057 8.94054 17.1776 8.23938 17.9815 7.60993C18.7904 6.98664 19.6492 6.49903 20.4724 6.14584C21.2957 5.79139 22.0778 5.56188 22.7455 5.4243C23.4135 5.28546 23.9644 5.2237 24.3456 5.20111C24.5359 5.18453 24.6846 5.18674 24.7849 5.18232C24.8307 5.18184 24.8683 5.18121 24.8994 5.18074C24.9251 5.18089 24.9383 5.18168 24.9383 5.18311Z" fill="white"/>
<path d="M14.4025 17.3425C14.3924 17.3464 14.3275 17.2285 14.2494 17.0271C14.1712 16.826 14.0846 16.5398 14.0304 16.2163C13.9767 15.8923 13.9663 15.5949 13.9754 15.381C13.9843 15.1668 14.0078 15.0357 14.0187 15.0367C14.046 15.0378 14.0081 15.5652 14.1167 16.2035C14.2207 16.8423 14.4282 17.3335 14.4025 17.3425Z" fill="white"/>
<path d="M11.5784 16.5263C11.5744 16.5296 11.5403 16.5007 11.4876 16.4412C11.4348 16.3816 11.3658 16.289 11.2978 16.1652C11.161 15.9205 11.0421 15.5317 11.102 15.1036C11.1627 14.6754 11.3853 14.3291 11.5853 14.1265C11.6852 14.0237 11.7773 13.951 11.8449 13.9066C11.9124 13.8621 11.953 13.8425 11.956 13.8467C11.9658 13.8584 11.8145 13.9549 11.632 14.1644C11.4499 14.3707 11.2465 14.7063 11.1887 15.1143C11.1315 15.5223 11.2349 15.8962 11.3535 16.1401C11.4717 16.387 11.591 16.5173 11.5784 16.5263Z" fill="white"/>
<path d="M26.9253 0.107491C26.9217 0.12297 26.7721 0.0711612 26.5304 0.0984874C26.2948 0.121707 25.9559 0.249492 25.7549 0.539972C25.5578 0.832978 25.5755 1.17621 25.651 1.38756C25.7253 1.60585 25.8376 1.71216 25.8242 1.72179C25.8205 1.72511 25.7893 1.70236 25.7431 1.65166C25.6966 1.60127 25.6396 1.51913 25.5928 1.40699C25.4976 1.18869 25.465 0.81813 25.6814 0.495586C25.9029 0.176359 26.2745 0.0499953 26.5247 0.0405179C26.6526 0.0340418 26.7558 0.0485737 26.8239 0.0673703C26.892 0.0856931 26.927 0.10291 26.9253 0.107491Z" fill="white"/>
<path d="M41.5507 14.6105C41.5326 14.629 41.2713 14.3946 40.8769 14.2169C40.4844 14.0352 40.1272 13.9874 40.1314 13.9624C40.1306 13.9422 40.5064 13.9543 40.9152 14.1429C41.3253 14.3282 41.5682 14.5985 41.5507 14.6105Z" fill="white"/>
<path d="M18.5389 42.2636C18.5376 42.2643 18.5304 42.2539 18.5176 42.2333C18.5027 42.2077 18.4845 42.1772 18.4626 42.14C18.4125 42.0509 18.3446 41.9302 18.2588 41.7778C18.215 41.698 18.1669 41.6102 18.1143 41.5146C18.0657 41.4159 18.013 41.3091 17.9566 41.1948C17.8425 40.9659 17.7137 40.7045 17.5889 40.4085C17.5248 40.2609 17.4573 40.1068 17.3873 39.9461C17.3232 39.783 17.2564 39.6135 17.1874 39.438C17.0433 39.0887 16.9213 38.7054 16.7773 38.3067C16.5143 37.5021 16.256 36.6084 16.0296 35.6605C15.8079 34.7113 15.6381 33.7993 15.5043 32.9672C15.3808 32.1334 15.283 31.3809 15.2293 30.7464C15.1965 30.4295 15.1769 30.1423 15.1601 29.8899C15.1413 29.6378 15.1287 29.4205 15.1232 29.2425C15.1172 29.0705 15.1125 28.9337 15.1089 28.8332C15.1083 28.7904 15.1078 28.7555 15.1074 28.7266C15.1076 28.7026 15.1084 28.6901 15.1098 28.6901C15.1113 28.6901 15.1135 28.7024 15.1163 28.7263C15.1192 28.7552 15.1225 28.7899 15.1266 28.8324C15.1341 28.9329 15.1443 29.069 15.1573 29.2409C15.168 29.4183 15.1855 29.6351 15.209 29.8868C15.2303 30.1382 15.2543 30.4249 15.2909 30.7408C15.3523 31.3739 15.4563 32.1245 15.584 32.9558C15.7218 33.7859 15.8937 34.6957 16.1149 35.6428C16.3409 36.5885 16.596 37.4805 16.8541 38.2843C16.9956 38.6823 17.1149 39.0657 17.2557 39.4149C17.3229 39.5904 17.3878 39.7601 17.4502 39.9234C17.5182 40.0842 17.5837 40.2388 17.6461 40.3865C17.7669 40.6831 17.8913 40.9455 18.001 41.1758C18.0549 41.291 18.1054 41.3982 18.1519 41.4976C18.2018 41.5944 18.2477 41.683 18.2894 41.7636C18.3687 41.9185 18.4318 42.0417 18.4783 42.1322C18.4971 42.1711 18.5126 42.2028 18.5255 42.2292C18.5356 42.2513 18.5403 42.2629 18.5389 42.2636Z" fill="white"/>
<path d="M11.9648 29.3863C11.9631 29.4091 11.414 29.3906 10.7385 29.3454C10.0628 29.3001 9.51658 29.2449 9.51825 29.2224C9.5201 29.1996 10.0691 29.2181 10.7447 29.2634C11.4202 29.3086 11.9665 29.3636 11.9648 29.3863Z" fill="white"/>
<path d="M5.65113 26.0139C5.62999 26.0247 5.34385 25.5664 5.0124 24.9905C4.68078 24.4145 4.42938 23.9389 4.45052 23.9281C4.47184 23.9174 4.75764 24.3753 5.08926 24.9514C5.42071 25.5273 5.67228 26.003 5.65113 26.0139Z" fill="white"/>
<path d="M24.4896 47.2439C24.4886 47.2495 24.4188 47.2412 24.2931 47.2213C24.1669 47.2033 23.9868 47.1635 23.7682 47.1022C23.549 47.0422 23.2941 46.9509 23.0197 46.8314C22.7475 46.7081 22.4568 46.5545 22.1703 46.3667C21.8855 46.1764 21.6334 45.9709 21.4181 45.7716C21.2058 45.5689 21.0283 45.374 20.8942 45.2002C20.7589 45.0273 20.6579 44.8812 20.5973 44.7757C20.5349 44.6711 20.503 44.6122 20.5082 44.6092C20.5224 44.6013 20.6627 44.8313 20.9432 45.1647C21.0821 45.3321 21.2622 45.5206 21.4745 45.7175C21.6902 45.9112 21.9399 46.112 22.2205 46.2994C22.5029 46.4844 22.7879 46.6378 23.0546 46.763C23.3233 46.8845 23.5726 46.9802 23.7871 47.0467C24.2154 47.1821 24.4928 47.2285 24.4896 47.2439Z" fill="white"/>
<path d="M27.0643 39.9364C27.0644 39.9393 27.024 39.9431 26.9466 39.9476C26.8694 39.9492 26.755 39.9652 26.6076 39.957C26.3129 39.9563 25.8838 39.9118 25.377 39.769C25.1232 39.699 24.8547 39.5946 24.5756 39.4656C24.3021 39.3269 24.0141 39.1673 23.7422 38.9592C23.1927 38.5523 22.6831 37.9816 22.354 37.2831C22.0363 36.5797 21.9411 35.8394 22.0004 35.1837C22.0244 34.8544 22.0972 34.5475 22.1764 34.2647C22.2669 33.9845 22.3689 33.7285 22.4879 33.5062C22.7232 33.0605 22.9816 32.7348 23.1822 32.5318C23.2765 32.4249 23.367 32.3571 23.4208 32.305C23.4772 32.2549 23.5079 32.2298 23.5099 32.2318C23.5165 32.2382 23.3982 32.344 23.2079 32.5528C23.0165 32.7607 22.7688 33.0881 22.5436 33.5315C22.4297 33.7526 22.3323 34.0063 22.2461 34.2831C22.1712 34.5626 22.1021 34.8654 22.0807 35.1896C22.0267 35.835 22.123 36.5612 22.434 37.2504C22.7567 37.9345 23.2545 38.4963 23.7924 38.8999C24.0586 39.1065 24.3407 39.2656 24.6088 39.4051C24.8826 39.5346 25.1461 39.641 25.3956 39.7135C25.8934 39.8614 26.3168 39.9145 26.6088 39.9249C26.901 39.9367 27.0639 39.9274 27.0643 39.9364Z" fill="white"/>
<path d="M6.74567 27.4977C6.73863 27.5109 6.61595 27.452 6.40415 27.4067C6.19336 27.3605 5.88893 27.3429 5.56705 27.4147C5.24549 27.488 4.98268 27.6338 4.81704 27.7651C4.65022 27.8959 4.56916 28.0009 4.55658 27.9919C4.54936 27.9881 4.61313 27.8692 4.77609 27.7215C4.9372 27.5738 5.20941 27.4114 5.54657 27.3346C5.88423 27.2591 6.20494 27.2876 6.41976 27.3504C6.63608 27.4124 6.7502 27.4912 6.74567 27.4977Z" fill="white"/>
</svg>
