<svg width="151" height="151" viewBox="0 0 151 151" fill="none" xmlns="http://www.w3.org/2000/svg">
<g clip-path="url(#clip0_503_10)">
<path d="M138.774 32.9043L92.3794 10.8017C82.1668 4.70155 69.4557 4.59331 59.1405 10.5186L12.2237 32.9043C12.0477 32.9925 11.8651 33.0869 11.6952 33.1875C0.561356 39.5536 -3.30389 53.7403 3.06229 64.8742C5.22024 68.6486 8.39448 71.7411 12.2237 73.8003L25.1658 79.9662V110.795C25.1735 124.581 34.1435 136.76 47.3062 140.857C56.4662 143.507 65.9641 144.804 75.4992 144.707C85.0329 144.814 94.5308 143.528 103.692 140.888C116.855 136.792 125.825 124.612 125.833 110.827V79.9535L138.416 73.9386V125.832C138.416 129.307 141.233 132.124 144.708 132.124C148.182 132.124 150.999 129.307 150.999 125.832V50.3322C151.041 42.9441 145.208 36.119 138.774 32.9043ZM113.249 110.827C113.252 119.073 107.902 126.366 100.036 128.84C92.06 131.119 83.7942 132.225 75.4989 132.124C67.2037 132.225 58.9379 131.119 50.9614 128.84C43.0956 126.366 37.7457 119.073 37.7489 110.827V85.9623L58.6185 95.9032C63.7678 98.9609 69.6489 100.568 75.6376 100.553C81.3378 100.593 86.9422 99.0839 91.8512 96.1863L113.249 85.962V110.827ZM133.382 62.4437L85.9306 85.0937C79.3143 88.9463 71.1135 88.8371 64.6019 84.8106L18.1756 62.7268C13.0006 59.9363 11.0677 53.479 13.8582 48.3043C14.802 46.5542 16.217 45.1035 17.9429 44.1161L65.0988 21.592C71.7172 17.748 79.9136 17.8568 86.4276 21.8751L132.822 43.9778C136.234 45.8723 138.369 49.45 138.416 53.3524C138.422 57.049 136.518 60.4866 133.382 62.4437Z" fill="#717BBC"/>
</g>
<defs>
<clipPath id="clip0_503_10">
<rect width="151" height="151" fill="white"/>
</clipPath>
</defs>
</svg>
