<svg width="151" height="151" viewBox="0 0 151 151" fill="none" xmlns="http://www.w3.org/2000/svg">
<g clip-path="url(#clip0_502_2)">
<path d="M141.561 25.0159H122.145C120.901 25.0161 119.685 25.3853 118.651 26.0766C117.616 26.768 116.81 27.7505 116.334 28.9C115.858 30.0495 115.733 31.3143 115.976 32.5346C116.219 33.7549 116.818 34.8758 117.697 35.7557L124.53 42.5885L101.968 65.1441C100.769 66.2898 99.1749 66.9292 97.5167 66.9292C95.8585 66.9292 94.2641 66.2898 93.0653 65.1441L91.9957 64.0682C88.4008 60.6334 83.6201 58.7167 78.648 58.7167C73.6759 58.7167 68.8952 60.6334 65.3002 64.0682L33.2127 96.1558C32.0305 97.3413 31.3676 98.948 31.37 100.622C31.3723 102.297 32.0397 103.901 33.2253 105.084C34.4109 106.266 36.0175 106.929 37.6918 106.926C39.3661 106.924 40.9709 106.257 42.1532 105.071L74.2407 72.9835C75.4387 71.8364 77.0333 71.1961 78.692 71.1961C80.3507 71.1961 81.9453 71.8364 83.1434 72.9835L84.213 74.0594C87.8094 77.4914 92.5896 79.4061 97.5607 79.4061C102.532 79.4061 107.312 77.4914 110.908 74.0594L133.47 51.4975L140.303 58.3302C141.186 59.1957 142.304 59.7818 143.518 60.0155C144.732 60.2491 145.988 60.1199 147.129 59.6441C148.27 59.1682 149.246 58.3667 149.934 57.3397C150.622 56.3127 150.993 55.1057 150.999 53.8695V34.4534C150.999 31.9504 150.005 29.5499 148.235 27.78C146.465 26.0102 144.064 25.0159 141.561 25.0159Z" fill="#717BBC"/>
<path d="M144.708 138.266H31.4583C26.4524 138.266 21.6514 136.277 18.1117 132.737C14.5719 129.198 12.5833 124.397 12.5833 119.391V6.29167C12.5833 4.62301 11.9205 3.0227 10.7405 1.84279C9.56063 0.66287 7.96032 0 6.29167 0C4.62301 0 3.0227 0.66287 1.84279 1.84279C0.66287 3.0227 0 4.62301 0 6.29167L0 119.391C0.00999027 127.731 3.32755 135.727 9.22497 141.624C15.1224 147.521 23.1181 150.839 31.4583 150.849H144.708C146.377 150.849 147.977 150.186 149.157 149.006C150.337 147.826 151 146.226 151 144.557C151 142.889 150.337 141.288 149.157 140.108C147.977 138.929 146.377 138.266 144.708 138.266Z" fill="#717BBC"/>
</g>
<defs>
<clipPath id="clip0_502_2">
<rect width="151" height="151" fill="white"/>
</clipPath>
</defs>
</svg>
