<svg width="150" height="150" viewBox="0 0 150 150" fill="none" xmlns="http://www.w3.org/2000/svg">
<g clip-path="url(#clip0_506_12)">
<path d="M118.75 12.5V0H106.25V12.5H93.7499V0H81.2499V12.5H68.7499V0H56.2499V12.5H43.7499V0H31.2499V12.5H18.7499V131.25C18.7499 136.223 20.7254 140.992 24.2417 144.508C27.758 148.025 32.5271 150 37.4999 150H112.5C117.473 150 122.242 148.025 125.758 144.508C129.275 140.992 131.25 136.223 131.25 131.25V12.5H118.75ZM118.75 131.25C118.75 132.908 118.091 134.497 116.919 135.669C115.747 136.842 114.158 137.5 112.5 137.5H37.4999C35.8423 137.5 34.2526 136.842 33.0805 135.669C31.9084 134.497 31.2499 132.908 31.2499 131.25V25H118.75V131.25ZM106.25 56.25H43.7499V43.75H106.25V56.25ZM106.25 81.25H43.7499V68.75H106.25V81.25ZM81.2499 106.25H43.7499V93.75H81.2499V106.25Z" fill="#717BBC"/>
</g>
<defs>
<clipPath id="clip0_506_12">
<rect width="150" height="150" fill="white"/>
</clipPath>
</defs>
</svg>
