<?xml version="1.0" encoding="UTF-8" standalone="no"?>
<!-- Created with Inkscape (http://www.inkscape.org/) -->

<svg
   version="1.1"
   id="svg2"
   width="528.25336"
   height="459.64001"
   viewBox="0 0 528.25336 459.64001"
   sodipodi:docname="2210.i402.043.F.m004.c9.Open mind psychotherapy flat background.eps"
   xmlns:inkscape="http://www.inkscape.org/namespaces/inkscape"
   xmlns:sodipodi="http://sodipodi.sourceforge.net/DTD/sodipodi-0.dtd"
   xmlns="http://www.w3.org/2000/svg"
   xmlns:svg="http://www.w3.org/2000/svg">
  <defs
     id="defs6" />
  <sodipodi:namedview
     id="namedview4"
     pagecolor="#ffffff"
     bordercolor="#000000"
     borderopacity="0.25"
     inkscape:showpageshadow="2"
     inkscape:pageopacity="0.0"
     inkscape:pagecheckerboard="0"
     inkscape:deskcolor="#d1d1d1" />
  <g
     id="g8"
     inkscape:groupmode="layer"
     inkscape:label="ink_ext_XXXXXX"
     transform="matrix(1.3333333,0,0,-1.3333333,0,459.64)">
    <g
       id="g10"
       transform="scale(0.1)">
      <path
         d="m 1271.42,341.289 c 0,0 -1153.518,1199.871 -871.053,1656.481 328.063,530.29 871.053,0 871.053,0 V 341.289"
         style="fill:#f0f8ff;fill-opacity:1;fill-rule:nonzero;stroke:none"
         id="path12" />
      <path
         d="m 1282.74,379.301 c 0,0 -589.064,2531.309 490.55,2703.829 1274.45,203.64 1110.65,-1239.77 1110.65,-1239.77 0,0 536.83,560.87 910.15,255.43 C 4312.03,1675.02 3466.02,325.57 3466.02,325.57 l -2183.28,53.731"
         style="fill:#f0f8ff;fill-opacity:1;fill-rule:nonzero;stroke:none"
         id="path14" />
      <path
         d="m 765.047,1731.62 c 0,0 -159.977,-14.81 -154.313,146.76 5.621,161.55 -33.828,236.71 -177.359,325.22 -143.645,88.53 -164.789,185.44 -139.297,303.04 25.547,117.54 -232.1952,185.75 -148.535,301.83 133.664,185.37 53.828,261.82 -41.195,316.57 -106.75816,61.52 -160.0628,217.9 -18.9339,234.21 141.1249,16.3 271.8279,-187.94 291.2619,-281.96 19.402,-94.02 49.793,-181.01 210.871,-211.31 161.019,-30.39 215.879,-95.56 258.109,-217.23 42.242,-121.7 13.965,-123.45 168.034,-255.7 L 765.047,1731.62"
         style="fill:#969924;fill-opacity:1;fill-rule:nonzero;stroke:none"
         id="path16" />
      <path
         d="M 1135.12,1906.92 C 892.27,2024.43 298.598,2907.03 292.664,2915.87 l 6.246,4.19 c 5.93,-8.89 598.449,-889.81 839.53,-1006.47 l -3.32,-6.67"
         style="fill:#c2c23c;fill-opacity:1;fill-rule:nonzero;stroke:none"
         id="path18" />
      <path
         d="m 563.969,2520.34 c -21.981,-8.49 -52.828,-3.57 -92.051,14.67 l 3.234,6.74 c 44.743,-20.77 77.395,-23.61 96.965,-8.38 32.321,25.18 19.344,92 19.242,92.65 l 7.34,1.55 c 0.567,-2.95 13.903,-72.09 -22.023,-100.05 -3.813,-3.01 -8.035,-5.38 -12.707,-7.18"
         style="fill:#c2c23c;fill-opacity:1;fill-rule:nonzero;stroke:none"
         id="path20" />
      <path
         d="m 419.012,2721.93 c -21.977,-8.48 -52.813,-3.62 -92.074,14.61 l 3.234,6.79 c 44.82,-20.88 77.449,-23.67 96.961,-8.42 32.336,25.14 19.406,92.02 19.265,92.7 l 7.34,1.5 c 0.625,-2.97 13.961,-72.11 -21.984,-100.09 -3.852,-2.97 -8.113,-5.31 -12.742,-7.09"
         style="fill:#c2c23c;fill-opacity:1;fill-rule:nonzero;stroke:none"
         id="path22" />
      <path
         d="m 332.473,2837.66 c -21.977,-8.48 -52.868,-3.5 -92.059,14.71 l 3.191,6.77 c 44.778,-20.85 77.446,-23.62 96.985,-8.42 32.312,25.19 19.363,92.07 19.219,92.69 l 7.351,1.47 c 0.59,-2.89 13.938,-71.99 -21.992,-100 -3.832,-3.01 -8.023,-5.42 -12.695,-7.22"
         style="fill:#c2c23c;fill-opacity:1;fill-rule:nonzero;stroke:none"
         id="path24" />
      <path
         d="m 498.996,2612.03 c -18.359,-7.08 -44.109,-2.98 -76.781,12.16 l 3.258,6.75 c 36.816,-17.1 63.722,-19.52 79.675,-6.98 26.403,20.52 15.832,75.6 15.719,76.15 l 7.313,1.49 c 0.519,-2.42 11.652,-60.1 -18.446,-83.49 -3.207,-2.58 -6.816,-4.57 -10.738,-6.08"
         style="fill:#c2c23c;fill-opacity:1;fill-rule:nonzero;stroke:none"
         id="path26" />
      <path
         d="m 638.348,2421.37 c -21.977,-8.47 -52.852,-3.52 -92.051,14.69 l 3.199,6.82 c 44.75,-20.92 77.367,-23.65 96.938,-8.44 32.312,25.14 19.41,92.02 19.242,92.7 l 7.379,1.47 c 0.609,-2.93 13.929,-72.03 -21.977,-100.04 -3.832,-3.01 -8.105,-5.4 -12.73,-7.2"
         style="fill:#c2c23c;fill-opacity:1;fill-rule:nonzero;stroke:none"
         id="path28" />
      <path
         d="m 716.07,2301.07 c -21.953,-8.48 -52.855,-3.59 -92.078,14.61 l 3.219,6.78 c 44.785,-20.8 77.473,-23.62 96.965,-8.37 32.336,25.14 19.383,91.97 19.258,92.65 l 7.343,1.5 c 0.594,-2.83 13.946,-72.02 -22,-99.99 -3.832,-3.01 -8.082,-5.39 -12.707,-7.18"
         style="fill:#c2c23c;fill-opacity:1;fill-rule:nonzero;stroke:none"
         id="path30" />
      <path
         d="m 790.953,2220.47 c -15.887,-6.14 -38.125,-2.61 -66.277,10.52 l 3.25,6.75 c 31.375,-14.66 54.195,-16.63 67.715,-6.17 22.441,17.47 13.347,64.35 13.269,64.82 l 7.371,1.46 c 0.426,-2.06 10.02,-51.83 -16.015,-72.11 -2.813,-2.12 -5.934,-3.98 -9.313,-5.27"
         style="fill:#c2c23c;fill-opacity:1;fill-rule:nonzero;stroke:none"
         id="path32" />
      <path
         d="m 937.535,3095.83 6.473,0.6 c -9.903,101.61 -80.32,254.09 -80.988,255.6 l -5.926,-2.71 c 0.711,-1.5 70.672,-153.02 80.441,-253.49"
         style="fill:#56a9ff;fill-opacity:1;fill-rule:nonzero;stroke:none"
         id="path34" />
      <path
         d="m 994.867,3093.5 c 17.843,99.4 99.773,244.77 100.603,246.23 l -5.7,3.2 c -0.77,-1.47 -83.23,-147.81 -101.301,-248.3 l 6.398,-1.13"
         style="fill:#56a9ff;fill-opacity:1;fill-rule:nonzero;stroke:none"
         id="path36" />
      <path
         d="m 1075.94,3345.79 c -0.44,-11.05 8.18,-20.37 19.23,-20.84 11.02,-0.43 20.34,8.18 20.79,19.21 0.46,11.05 -8.14,20.35 -19.19,20.81 -11.04,0.46 -20.4,-8.14 -20.83,-19.18"
         style="fill:#56a9ff;fill-opacity:1;fill-rule:nonzero;stroke:none"
         id="path38" />
      <path
         d="m 840.387,3360.71 c -0.422,-11.07 8.23,-20.4 19.246,-20.85 11.008,-0.43 20.351,8.17 20.812,19.23 0.457,11.05 -8.175,20.34 -19.199,20.8 -11.062,0.45 -20.363,-8.17 -20.859,-19.18"
         style="fill:#56a9ff;fill-opacity:1;fill-rule:nonzero;stroke:none"
         id="path40" />
      <path
         d="m 953.348,2978.63 c 76.152,-6.25 246.612,206.97 153.582,262.57 0,0 -42.08,31.92 -94.17,-78.65 0,0 27.77,150.63 -36.967,157.54 -64.711,6.94 -53.672,-149.55 -45.809,-169.37 0,0 -30.125,139.86 -104.238,101.83 -85.527,-43.89 49.902,-267.53 127.602,-273.92"
         style="fill:#fbb433;fill-opacity:1;fill-rule:nonzero;stroke:none"
         id="path42" />
      <path
         d="m 1013.43,3002.3 c 0,0 -46.117,50.22 -115.164,6.4 0,0 50.632,-100.83 115.164,-6.4"
         style="fill:#8f9843;fill-opacity:1;fill-rule:nonzero;stroke:none"
         id="path44" />
      <path
         d="m 975.305,3004.04 c 37.985,31.91 64.065,111.38 65.145,114.75 l -4.77,1.56 c -0.32,-0.82 -26.77,-81.47 -63.617,-112.43 l 3.242,-3.88"
         style="fill:#8f9843;fill-opacity:1;fill-rule:nonzero;stroke:none"
         id="path46" />
      <path
         d="m 949.07,2993.97 3.965,3.14 c -29.961,37.71 -39.765,122 -39.847,122.85 l -5.028,-0.54 c 0.383,-3.55 10.043,-86.63 40.91,-125.45"
         style="fill:#8f9843;fill-opacity:1;fill-rule:nonzero;stroke:none"
         id="path48" />
      <path
         d="m 979.098,2714.51 9.031,4.54 c -45.852,91.41 -29.656,271.02 -29.488,272.82 l -10.078,0.96 c -0.696,-7.51 -16.618,-184.32 30.535,-278.32"
         style="fill:#969924;fill-opacity:1;fill-rule:nonzero;stroke:none"
         id="path50" />
      <path
         d="m 942.883,2985.19 3.207,3.88 c -23.09,19.34 -39.789,69.97 -39.992,70.47 l -4.801,-1.56 c 0.683,-2.13 17.348,-52.53 41.586,-72.79"
         style="fill:#8f9843;fill-opacity:1;fill-rule:nonzero;stroke:none"
         id="path52" />
      <path
         d="m 964.039,3010.25 c 18.727,40.8 16.129,88.77 16.008,90.77 l -5.078,-0.3 c 0.047,-0.49 2.679,-48.73 -15.555,-88.33 l 4.625,-2.14"
         style="fill:#8f9843;fill-opacity:1;fill-rule:nonzero;stroke:none"
         id="path54" />
      <path
         d="m 1038.21,2099.95 -18.66,-7.48 -520.015,1299.35 18.621,7.47 520.054,-1299.34"
         style="fill:#479bda;fill-opacity:1;fill-rule:nonzero;stroke:none"
         id="path56" />
      <path
         d="m 728.816,2831.28 c 0,0 90.563,155.6 21.434,168.42 -56.113,10.37 -55.344,-73.63 -53.187,-89.9 2.054,-16.3 31.753,-78.52 31.753,-78.52"
         style="fill:#85c2f6;fill-opacity:1;fill-rule:nonzero;stroke:none"
         id="path58" />
      <path
         d="m 731.477,2829.21 c 0,0 -178.637,41.45 -141.157,99.43 30.43,47.09 93.043,-10.73 103.825,-23.33 10.804,-12.56 37.332,-76.1 37.332,-76.1"
         style="fill:#85c2f6;fill-opacity:1;fill-rule:nonzero;stroke:none"
         id="path60" />
      <path
         d="m 666.629,2990.41 c 0,0 98.066,151.4 29.707,167.35 -55.508,12.88 -58.879,-71.1 -57.59,-87.49 1.324,-16.33 27.883,-79.86 27.883,-79.86"
         style="fill:#85c2f6;fill-opacity:1;fill-rule:nonzero;stroke:none"
         id="path62" />
      <path
         d="m 669.23,2988.16 c 0,0 -176.308,49.49 -136.082,105.8 32.684,45.7 92.356,-14.92 102.524,-28.01 10.141,-13.11 33.558,-77.79 33.558,-77.79"
         style="fill:#85c2f6;fill-opacity:1;fill-rule:nonzero;stroke:none"
         id="path64" />
      <path
         d="m 603.797,3154.8 c 0,0 98.027,151.41 29.676,167.32 -55.5,12.98 -58.856,-71.07 -57.551,-87.48 1.316,-16.33 27.875,-79.84 27.875,-79.84"
         style="fill:#85c2f6;fill-opacity:1;fill-rule:nonzero;stroke:none"
         id="path66" />
      <path
         d="m 606.395,3152.56 c 0,0 -176.305,49.51 -136.086,105.81 32.656,45.65 92.359,-14.93 102.535,-28.05 10.156,-13.04 33.551,-77.76 33.551,-77.76"
         style="fill:#85c2f6;fill-opacity:1;fill-rule:nonzero;stroke:none"
         id="path68" />
      <path
         d="m 553.602,3293.66 c 0,0 -145.196,106.97 -86.856,146.1 47.289,31.67 80.125,-45.69 84.727,-61.48 4.515,-15.78 2.129,-84.62 2.129,-84.62"
         style="fill:#85c2f6;fill-opacity:1;fill-rule:nonzero;stroke:none"
         id="path70" />
      <path
         d="m 1133.6,1837.39 c 0,0 -420.37,-107.42 -477.315,-6.8 -56.937,100.66 -23.535,253.24 -192.676,316.02 -169.171,62.73 -263.972,193.17 -322.429,141.65 -75.3362,-66.42 21.383,-159.99 127.105,-240.73 123.313,-94.25 115.059,-210.4 104.668,-273.25 -26.066,-157.96 160.36,-162.32 199.344,-347.73 15.976,-75.89 205.348,-286.71 533.873,-54.79 l 27.43,465.63"
         style="fill:#c2c23c;fill-opacity:1;fill-rule:nonzero;stroke:none"
         id="path72" />
      <path
         d="m 1128.55,1380.68 c -153.019,10.88 -633.136,351.18 -637.941,354.59 l 2.649,3.53 c 4.812,-3.45 484.004,-343.1 635.912,-353.91 l -0.62,-4.21"
         style="fill:#969924;fill-opacity:1;fill-rule:nonzero;stroke:none"
         id="path74" />
      <path
         d="m 708.629,1583.86 c -10.438,-9.08 -28.094,-12.98 -52.68,-11.61 l 0.563,4.23 c 28.035,-1.53 46.297,3.84 54.226,15.97 13.098,20.07 -5.863,52.54 -6.035,52.87 l 3.719,2.35 c 0.832,-1.43 20.402,-35.06 5.844,-57.35 -1.539,-2.38 -3.414,-4.52 -5.637,-6.46"
         style="fill:#969924;fill-opacity:1;fill-rule:nonzero;stroke:none"
         id="path76" />
      <path
         d="m 593.879,1659.64 c -10.438,-9.1 -28.082,-13.02 -52.68,-11.66 l 0.551,4.25 c 28.09,-1.58 46.34,3.8 54.234,15.95 13.11,20.05 -5.836,52.57 -6.031,52.9 l 3.715,2.33 c 0.875,-1.43 20.445,-35.06 5.875,-57.36 -1.566,-2.38 -3.461,-4.51 -5.664,-6.41"
         style="fill:#969924;fill-opacity:1;fill-rule:nonzero;stroke:none"
         id="path78" />
      <path
         d="m 526.195,1702.42 c -10.441,-9.09 -28.132,-12.95 -52.691,-11.6 l 0.531,4.25 c 28.067,-1.59 46.328,3.82 54.242,15.94 13.098,20.07 -5.863,52.59 -6.054,52.88 l 3.742,2.32 c 0.836,-1.39 20.398,-35 5.855,-57.32 -1.554,-2.39 -3.406,-4.54 -5.625,-6.47"
         style="fill:#969924;fill-opacity:1;fill-rule:nonzero;stroke:none"
         id="path80" />
      <path
         d="m 656.953,1618.53 c -8.719,-7.6 -23.457,-10.84 -43.922,-9.72 l 0.571,4.22 c 23.07,-1.27 38.14,3.12 44.578,13.08 10.703,16.37 -4.856,43.16 -5.02,43.43 l 3.719,2.32 c 0.711,-1.16 17.039,-29.22 4.836,-47.87 -1.289,-2.04 -2.895,-3.84 -4.762,-5.46"
         style="fill:#969924;fill-opacity:1;fill-rule:nonzero;stroke:none"
         id="path82" />
      <path
         d="m 766.711,1547.36 c -10.438,-9.09 -28.113,-12.97 -52.676,-11.62 l 0.524,4.28 c 28.062,-1.62 46.289,3.79 54.226,15.92 13.102,20.04 -5.84,52.57 -6.047,52.89 l 3.75,2.33 c 0.852,-1.42 20.403,-35.03 5.867,-57.34 -1.546,-2.39 -3.441,-4.55 -5.644,-6.46"
         style="fill:#969924;fill-opacity:1;fill-rule:nonzero;stroke:none"
         id="path84" />
      <path
         d="m 830.418,1500.3 c -10.434,-9.08 -28.109,-13 -52.688,-11.65 l 0.543,4.25 c 28.067,-1.56 46.348,3.83 54.235,15.96 13.109,20.05 -5.844,52.53 -6.031,52.87 l 3.726,2.34 c 0.828,-1.37 20.414,-35.02 5.848,-57.32 -1.547,-2.39 -3.438,-4.54 -5.633,-6.45"
         style="fill:#969924;fill-opacity:1;fill-rule:nonzero;stroke:none"
         id="path86" />
      <path
         d="m 885.504,1473.56 c -7.547,-6.57 -20.266,-9.38 -37.926,-8.39 l 0.57,4.25 c 19.672,-1.13 32.434,2.63 37.93,10.99 9.09,13.92 -4.207,36.71 -4.332,36.94 l 3.75,2.31 c 0.602,-0.99 14.684,-25.2 4.137,-41.35 -1.153,-1.72 -2.52,-3.35 -4.129,-4.75"
         style="fill:#969924;fill-opacity:1;fill-rule:nonzero;stroke:none"
         id="path88" />
      <path
         d="m 1514.74,2355.36 c 234.15,-449.14 219.11,-920.04 -33.61,-1051.8 -252.72,-131.75 -647.411,125.54 -881.567,574.68 -234.157,449.13 -219.106,920.04 33.613,1051.8 252.719,131.75 647.404,-125.54 881.564,-574.68"
         style="fill:#ffabcc;fill-opacity:1;fill-rule:nonzero;stroke:none"
         id="path90" />
      <path
         d="m 2073.46,1866.61 c -244.61,-443.53 -645.21,-691.52 -894.77,-553.88 -249.569,137.63 -253.588,608.76 -8.99,1052.3 244.6,443.53 645.21,691.52 894.77,553.88 249.57,-137.63 253.59,-608.76 8.99,-1052.3"
         style="fill:#ffabcc;fill-opacity:1;fill-rule:nonzero;stroke:none"
         id="path92" />
      <path
         d="m 1279.66,1736.99 c -0.46,-12.69 -3.92,-24.6 -9.6,-35.14 l 157.97,-5.5 c 5.81,-0.17 10.65,4.34 10.86,10.13 l 16.07,459.35 c 0.21,5.84 -4.31,10.72 -10.13,10.91 l -150.37,5.23 c 0.3,-3.46 0.49,-6.95 0.37,-10.53 -1.53,-44.2 -38.63,-78.79 -82.84,-77.27 -44.23,1.56 -78.82,38.65 -77.28,82.88 0.12,3.56 0.57,7.05 1.14,10.47 l -150.397,5.27 c -5.801,0.2 -10.66,-4.35 -10.84,-10.13 l -5.254,-149.63 c -43.632,0.82 -80.011,-33.41 -81.543,-77.14 -1.531,-43.81 32.403,-80.48 75.946,-82.74 l -5.219,-149.86 c -0.215,-5.85 4.324,-10.65 10.121,-10.86 l 157.966,-5.53 c -4.92,10.87 -7.56,23.01 -7.11,35.7 1.56,44.27 38.66,78.82 82.87,77.25 44.22,-1.52 78.81,-38.63 77.27,-82.86"
         style="fill:#ffffff;fill-opacity:1;fill-rule:nonzero;stroke:none"
         id="path94" />
      <path
         d="m 1614.26,2309.07 c -12.69,0.19 -24.68,3.38 -35.34,8.84 l -2.05,-158.06 c -0.06,-5.8 4.56,-10.55 10.35,-10.63 l 459.59,-6.08 c 5.85,-0.09 10.63,4.54 10.69,10.37 l 1.97,150.45 c -3.46,-0.38 -6.95,-0.64 -10.53,-0.6 -44.22,0.56 -79.61,36.91 -79.05,81.13 0.6,44.26 36.93,79.65 81.18,79.07 3.56,-0.04 7.06,-0.42 10.49,-0.91 l 2,150.48 c 0.08,5.8 -4.58,10.56 -10.35,10.61 l -149.72,2.01 c -0.12,43.63 -35.15,79.26 -78.9,79.84 -43.83,0.57 -79.75,-34.15 -81.06,-77.73 l -149.95,1.97 c -5.85,0.07 -10.54,-4.56 -10.63,-10.37 l -2.09,-158.05 c 10.76,5.16 22.84,8.06 35.53,7.89 44.3,-0.6 79.65,-36.94 79.04,-81.18 -0.56,-44.24 -36.91,-79.62 -81.17,-79.05"
         style="fill:#ffffff;fill-opacity:1;fill-rule:nonzero;stroke:none"
         id="path96" />
      <path
         d="m 3885.39,332.512 c 0,-56.231 -632.04,-101.821 -1411.7,-101.821 -779.66,0 -1411.71,45.59 -1411.71,101.821 0,56.23 632.05,101.808 1411.71,101.808 779.66,0 1411.7,-45.578 1411.7,-101.808"
         style="fill:#cfe7f9;fill-opacity:1;fill-rule:nonzero;stroke:none"
         id="path98" />
      <path
         d="m 3680.08,524.512 c 3.05,-1.071 82.63,-188.973 20.42,-192.203 -62.22,-3.239 -99.49,175.293 -99.49,175.293 l 79.07,16.91"
         style="fill:#552b19;fill-opacity:1;fill-rule:nonzero;stroke:none"
         id="path100" />
      <path
         d="m 3400.1,524.512 c 3.06,-1.071 82.64,-188.973 20.42,-192.203 -62.2,-3.239 -99.47,175.293 -99.47,175.293 l 79.05,16.91"
         style="fill:#421f13;fill-opacity:1;fill-rule:nonzero;stroke:none"
         id="path102" />
      <path
         d="m 3744,1258.35 c -11.29,0.69 -433.4,-22.02 -476.47,-72.89 -43.07,-50.89 56.68,-680.081 106.93,-721.991 50.25,-41.899 377.64,-26.309 377.64,-26.309 l -8.1,821.19"
         style="fill:#a29cdb;fill-opacity:1;fill-rule:nonzero;stroke:none"
         id="path104" />
      <path
         d="m 2755.52,745.551 c 0,0 334.21,708.969 -94.69,854.259 -450.28,152.53 -1480.27,93.33 -1600.1,0 -119.839,-93.32 308.14,-768.111 376.62,-854.259 h 1318.17"
         style="fill:#70649b;fill-opacity:1;fill-rule:nonzero;stroke:none"
         id="path106" />
      <path
         d="m 3244.49,765.07 c 0,0 454.99,760.95 -105.16,854.27 -560.14,93.32 -1643.63,93.32 -1776.7,0 -133.06,-93.32 342.16,-768.11 418.19,-854.27 h 1463.67"
         style="fill:#8172a9;fill-opacity:1;fill-rule:nonzero;stroke:none"
         id="path108" />
      <path
         d="m 1693.73,524.512 c -3.06,-1.071 -82.64,-188.973 -20.43,-192.203 62.21,-3.239 99.48,175.293 99.48,175.293 l -79.05,16.91"
         style="fill:#552b19;fill-opacity:1;fill-rule:nonzero;stroke:none"
         id="path110" />
      <path
         d="m 1367.31,518.539 c -2.91,-1 -78.64,-179.809 -19.44,-182.891 59.2,-3.078 94.67,166.821 94.67,166.821 l -75.23,16.07"
         style="fill:#421f13;fill-opacity:1;fill-rule:nonzero;stroke:none"
         id="path112" />
      <path
         d="m 3865.99,1165.88 c -9.63,41.57 -40.23,75.71 -81.18,87.76 -25.97,7.65 -54.75,9.2 -72.2,-11.32 -89.73,-105.53 -26.85,-807.922 -26.85,-807.922 l 174.01,2.762 c 0,0 53.25,525.75 6.22,728.72"
         style="fill:#b6ace9;fill-opacity:1;fill-rule:nonzero;stroke:none"
         id="path114" />
      <path
         d="m 3553.12,821.609 -1794.22,22.77 -88.86,-409.707 1954.86,-0.274 -71.78,387.211"
         style="fill:#a29cdb;fill-opacity:1;fill-rule:nonzero;stroke:none"
         id="path116" />
      <path
         d="m 3736.47,1101.01 c 1.13,-20.83 16.67,-38.4 38.39,-38.4 20.81,0 38.5,17.53 38.4,38.4 -0.09,20.23 -16.38,37.39 -36.62,38.3 -22.41,1.01 -39.01,-16.75 -40.17,-38.3 -0.41,-7.63 11.47,-7.61 11.88,0 1.82,33.96 53.03,34.27 53.03,0 0,-34.28 -51.21,-33.98 -53.03,0 -0.41,7.6 -12.29,7.65 -11.88,0"
         style="fill:#a29cdb;fill-opacity:1;fill-rule:nonzero;stroke:none"
         id="path118" />
      <path
         d="m 3820.86,439.148 c 12.54,102.391 21.18,205.442 26.86,308.422 7.27,131.762 25.72,292.81 -20.53,419.88 -21.06,57.83 -71.64,82.11 -100.97,16.17 -49.53,-111.36 -31.37,-268.651 -27.52,-386.319 3.95,-120.512 14.5,-240.313 24.09,-360.442 0.61,-7.558 12.49,-7.621 11.88,0 -16.45,205.93 -39.05,415.082 -20.56,621.621 3.4,37.93 4.85,112.45 34.79,142.17 43.55,43.22 68.4,-36.22 75.96,-69.42 29.11,-127.92 17.75,-269.261 10.11,-399.011 -5.76,-97.848 -14.07,-195.758 -25.98,-293.071 -0.93,-7.558 10.96,-7.488 11.87,0 v 0"
         style="fill:#a29cdb;fill-opacity:1;fill-rule:nonzero;stroke:none"
         id="path120" />
      <path
         d="m 2924.91,1395.66 c 0.96,-17.75 14.22,-32.73 32.74,-32.73 17.8,0 32.74,14.94 32.74,32.73 0,17.27 -14.04,31.9 -31.25,32.66 -19.1,0.85 -33.23,-14.29 -34.23,-32.66 -0.37,-7.01 10.54,-6.99 10.91,0 1.51,27.96 43.66,28.21 43.66,0 0,-28.21 -42.15,-27.97 -43.66,0 -0.37,6.98 -11.28,7.03 -10.91,0"
         style="fill:#a29cdb;fill-opacity:1;fill-rule:nonzero;stroke:none"
         id="path122" />
      <path
         d="m 2948.52,1069.5 c 0.96,-17.76 14.21,-32.74 32.74,-32.74 17.8,0 32.74,14.95 32.74,32.74 0,17.26 -14.04,31.89 -31.25,32.66 -19.11,0.84 -33.24,-14.29 -34.23,-32.66 -0.38,-7.01 10.53,-6.99 10.91,0 1.51,27.96 43.66,28.21 43.66,0 0,-28.21 -42.15,-27.97 -43.66,0 -0.38,6.99 -11.29,7.03 -10.91,0"
         style="fill:#a29cdb;fill-opacity:1;fill-rule:nonzero;stroke:none"
         id="path124" />
      <path
         d="m 1423,1436.06 c 0.95,-17.75 14.2,-32.73 32.73,-32.73 17.8,0 32.74,14.94 32.74,32.73 0,17.26 -14.04,31.9 -31.25,32.66 -19.1,0.85 -33.24,-14.3 -34.22,-32.66 -0.38,-7.01 10.53,-6.99 10.9,0 1.51,27.95 43.67,28.21 43.67,0 0,-28.21 -42.16,-27.97 -43.67,0 -0.37,6.98 -11.28,7.03 -10.9,0"
         style="fill:#a29cdb;fill-opacity:1;fill-rule:nonzero;stroke:none"
         id="path126" />
      <path
         d="m 3356.23,186.59 c 0,0 45.14,-58.641 45.85,-71.52 C 3404.18,76.7109 3300.55,3.33203 3252.2,0.0195313 3245.45,-0.441406 3234.27,5.75 3237.46,24.5313 c 3.19,18.7773 53.33,72.5 32.93,95.7307 -20.39,23.226 85.84,66.328 85.84,66.328"
         style="fill:#ffa60e;fill-opacity:1;fill-rule:nonzero;stroke:none"
         id="path128" />
      <path
         d="m 2806.06,352.988 c 0,0 14.27,-72.629 9.16,-84.468 -15.23,-35.282 -140.7,-54.739 -185.46,-36.149 -6.25,2.609 -13.48,13.117 -2.25,28.508 11.22,15.391 80.05,41.121 72.15,71 -7.89,29.891 106.4,21.109 106.4,21.109"
         style="fill:#ffa60e;fill-opacity:1;fill-rule:nonzero;stroke:none"
         id="path130" />
      <path
         d="m 2104.38,422.859 c 0,0 -14.27,-72.629 -9.16,-84.461 15.24,-35.289 140.71,-54.757 185.45,-36.16 6.26,2.602 13.49,13.133 2.27,28.512 -11.22,15.391 -80.06,41.121 -72.16,71 7.89,29.891 -106.4,21.109 -106.4,21.109"
         style="fill:#ffa60e;fill-opacity:1;fill-rule:nonzero;stroke:none"
         id="path132" />
      <path
         d="m 2393.48,621.332 c 0,0 13.73,-72.723 22.87,-81.82 27.25,-27.09 150.98,1.429 185.62,35.328 4.84,4.742 7.65,17.191 -8.5,27.308 -16.13,10.114 -89.59,8.442 -93.36,39.133 -3.76,30.66 -106.63,-19.949 -106.63,-19.949"
         style="fill:#ffa60e;fill-opacity:1;fill-rule:nonzero;stroke:none"
         id="path134" />
      <path
         d="m 2798.15,807.461 c 0,0 438.85,12.121 507.52,15.031 100.92,4.246 129.39,42.18 77.21,146.078 -35.88,71.45 -653.79,101.49 -719.89,-15.769 -81.11,-143.86 135.16,-145.34 135.16,-145.34"
         style="fill:#618bf0;fill-opacity:1;fill-rule:nonzero;stroke:none"
         id="path136" />
      <path
         d="m 2659.56,347.32 c -24.3,126.02 -49.46,520.86 3.43,605.481 57.15,91.459 171.21,1.008 176.26,-140.879 3.27,-91.953 10.18,-403.531 6.16,-488.133 -0.98,-20.539 -54.99,-31.019 -87.19,-29.117 -0.79,0.047 -91.64,16.226 -98.66,52.648"
         style="fill:#618bf0;fill-opacity:1;fill-rule:nonzero;stroke:none"
         id="path138" />
      <path
         d="m 3165.83,602.719 c 0,0 297.8,118.82 355.52,156.113 84.85,54.816 104.48,181.449 6.85,244.578 -67.14,43.41 -617.75,-243.859 -612.64,-378.371 4.65,-122 250.27,-22.32 250.27,-22.32"
         style="fill:#618bf0;fill-opacity:1;fill-rule:nonzero;stroke:none"
         id="path140" />
      <path
         d="m 3219.42,101.309 c -84.8,96.32 -306.56,423.98 -303.86,523.73 2.93,107.813 147.09,87.609 223.34,-32.148 49.43,-77.602 213.27,-342.731 252.68,-417.7 9.56,-18.191 -31.7,-54.601 -60.42,-69.281 -0.71,-0.359 -87.23,-32.4412 -111.74,-4.601"
         style="fill:#618bf0;fill-opacity:1;fill-rule:nonzero;stroke:none"
         id="path142" />
      <path
         d="m 3193.99,881.711 c -35.47,-4.231 -66.64,-31.859 -82.42,-63.473 -3.59,-7.187 -14.37,-0.867 -10.78,6.301 17.89,35.832 52.46,64.801 93.2,69.66 7.97,0.942 7.9,-11.551 0,-12.488 v 0"
         style="fill:#171726;fill-opacity:1;fill-rule:nonzero;stroke:none"
         id="path144" />
      <path
         d="m 3241.89,1428.19 c 0,0 81.97,43.52 112.36,14.19 17.25,-16.64 18.18,-64.65 4.14,-92.73 -27.01,-53.93 -114.14,-166.04 -205.5,-215.53 -33.47,-18.12 -116.7,34.49 -83.59,90.61 43.47,73.67 122.12,156.41 172.59,203.46"
         style="fill:#f6e0d5;fill-opacity:1;fill-rule:nonzero;stroke:none"
         id="path146" />
      <path
         d="m 3224.39,1397.78 c 31.31,85.49 185.7,51.63 291.15,30.41 71.09,-14.32 109.94,-49.05 100.02,-179.75 -3.89,-51.4 -8.21,-208.51 -36.76,-286.491 -5.14,-14.019 -26.9,-25.918 -38.52,-35.289 -66.79,-53.93 -410.48,20.789 -393.08,100.25 0,0 10.29,188.16 77.19,370.87"
         style="fill:#fce6d9;fill-opacity:1;fill-rule:nonzero;stroke:none"
         id="path148" />
      <path
         d="m 2805.4,900.621 410.31,-108.93 212.31,91.09 -613.64,180.549 -8.98,-162.709"
         style="fill:#a8a8a8;fill-opacity:1;fill-rule:nonzero;stroke:none"
         id="path150" />
      <path
         d="m 2806.58,922.031 413,-109.652 212.29,91.082 -613.63,180.549 -11.66,-161.979"
         style="fill:#cbccd1;fill-opacity:1;fill-rule:nonzero;stroke:none"
         id="path152" />
      <path
         d="m 2806.29,916.609 361.04,-94.48 186.91,80.18 -540.25,158.961 -7.7,-144.661"
         style="fill:#bdbec1;fill-opacity:1;fill-rule:nonzero;stroke:none"
         id="path154" />
      <path
         d="m 3215.71,791.691 -20.59,-8.23 -389.72,117.16 -1.1,341.539 389.36,-104.59 22.05,-345.879"
         style="fill:#b8b9bc;fill-opacity:1;fill-rule:nonzero;stroke:none"
         id="path156" />
      <path
         d="m 3195.12,783.461 -389.72,117.16 -31.48,335.899 400.53,-104.41 20.67,-348.649"
         style="fill:#cbccd1;fill-opacity:1;fill-rule:nonzero;stroke:none"
         id="path158" />
      <path
         d="m 3431.87,903.461 -3.85,-20.68 -212.31,-91.09 0.34,21.618 215.82,90.152"
         style="fill:#b8b9bc;fill-opacity:1;fill-rule:nonzero;stroke:none"
         id="path160" />
      <path
         d="m 3174.45,1132.11 15.6,6.54 -385.75,103.51 -30.38,-5.64 400.53,-104.41"
         style="fill:#c4c5c6;fill-opacity:1;fill-rule:nonzero;stroke:none"
         id="path162" />
      <path
         d="m 3636.49,1118.59 c 0.74,-13.38 51.11,-151.168 21.95,-185.211 -21.15,-24.668 -114.59,19.891 -114.59,19.891 0,0 35.04,27.21 -18.15,134.9 -44.83,90.75 110.79,30.42 110.79,30.42"
         style="fill:#fbb99d;fill-opacity:1;fill-rule:nonzero;stroke:none"
         id="path164" />
      <path
         d="M 3650.06,924.102 C 3597.11,871.801 3390.67,786.941 3390.67,786.941 l 8.05,48.489 198.36,161.05 c 0,0 105.89,-20.05 52.98,-72.378"
         style="fill:#fbb99d;fill-opacity:1;fill-rule:nonzero;stroke:none"
         id="path166" />
      <path
         d="m 3403.71,847.52 c -5.13,1.039 -9.99,5.312 -14.61,7.55 -9.2,4.481 -19.4,5.762 -29.42,6.84 -5.59,0.602 -16.65,8.461 -21.66,3.231 -8.21,-8.571 13.73,-16.629 17.8,-20.039 3.74,-3.141 6.36,-8.454 4.37,-12.922 -1.3,-2.942 -4.25,-4.77 -7.09,-6.282 -9.08,-4.808 -18.83,-8.066 -28.34,-11.898 -4.95,-1.988 -9.68,-4.301 -14.49,-6.578 -3.58,-1.711 -9.06,-2.594 -12.03,-5.121 -2.35,-2 -3.14,-6.223 -0.36,-8.301 2.48,-1.859 4.83,0.082 7.36,0.77 5.69,1.55 11.41,2.949 17.14,4.312 1.26,0.297 6.8,2.457 7.93,1.559 5.52,-4.321 -9.26,-10.309 -11.54,-11.371 -5.77,-2.641 -11.71,-5.629 -15.1,-11.34 -0.44,-0.75 -0.82,-1.641 -0.5,-2.45 0.49,-1.281 2.26,-1.371 3.61,-1.148 7.98,1.258 15.31,5.406 23.31,6.508 1.31,0.16 2.88,0.148 3.64,-0.91 3.08,-4.289 -5.7,-10.2 -8.4,-12.371 -1.71,-1.379 -3.71,-3.27 -3.08,-5.379 0.42,-1.371 1.91,-2.188 3.34,-2.289 1.43,-0.102 2.84,0.398 4.19,0.871 3.99,1.398 8.28,2.527 12.06,4.418 1.83,0.91 6.99,4.101 8.74,1.922 0.35,-0.422 0.36,-1.032 0.28,-1.582 -0.33,-1.969 -1.95,-3.411 -3.26,-4.918 -1.32,-1.493 -2.47,-3.59 -1.63,-5.411 1.04,-2.25 4.19,-2.351 6.62,-1.832 8.69,1.852 16.73,6.832 24.43,11.121 8.22,4.579 16.23,9.532 24,14.829 14.62,9.972 27.19,23.121 42.64,31.711 2.33,1.289 4.75,2.519 6.67,4.351 3.65,3.481 5.1,8.731 5.43,13.77 0.62,9.437 -2.75,19.691 -9.95,26.078 -2.28,2.019 -6.6,6.5 -9.64,5.89 -2.21,-0.437 -5.11,-3.687 -6.93,-5.007 -2.63,-1.891 -5.3,-3.731 -8.18,-5.231 -4.91,-2.582 -10.78,-4.172 -17.35,-3.351"
         style="fill:#fbb99d;fill-opacity:1;fill-rule:nonzero;stroke:none"
         id="path168" />
      <path
         d="m 3485.23,1305.21 c -5.43,51.61 8.57,102.47 52.61,109.43 24.98,3.94 66.08,-25.91 80.84,-55.71 28.37,-57.23 67.64,-202.43 51.39,-311.21 -5.95,-39.85 -103.18,-76.599 -129.51,-12.79 -34.56,83.76 -47.66,197.61 -55.33,270.28"
         style="fill:#f6e0d5;fill-opacity:1;fill-rule:nonzero;stroke:none"
         id="path170" />
      <path
         d="m 3487.31,1429.36 c 0,0 -77.21,-104.36 -167.02,-74.81 -41.73,13.72 -44.13,51 -10.29,75.1 33.3,23.71 177.31,-0.29 177.31,-0.29"
         style="fill:#fbb99d;fill-opacity:1;fill-rule:nonzero;stroke:none"
         id="path172" />
      <path
         d="m 3320.41,1713.27 c 9.59,12.92 21.77,24.32 36.4,33.66 21.09,13.44 44.53,16.71 69.06,14.25 28.41,-2.84 94.23,-32.32 105.71,-108.59 5.47,-36.25 -10.33,-73.76 -31.6,-102.37 -22.42,-30.18 -58.61,-38.38 -94.74,-40.68 -14.82,-0.96 -30.06,-0.35 -43.9,4.99 -17.84,6.86 -32.01,21.1 -42.49,37.06 -11.39,17.32 -19.07,37.08 -22.34,57.56 -6.12,38.28 2.33,75.05 23.9,104.12"
         style="fill:#53424d;fill-opacity:1;fill-rule:nonzero;stroke:none"
         id="path174" />
      <path
         d="m 3294.12,1413.79 c 0,0 43.86,52.82 47.35,117.98 0.88,16.42 26.27,17.74 21.03,26.1 -5.22,8.35 80.95,23.01 80.95,23.01 0,0 -15.11,-99.32 43.86,-151.52 l -193.19,-15.57"
         style="fill:#fbb99d;fill-opacity:1;fill-rule:nonzero;stroke:none"
         id="path176" />
      <path
         d="m 3340.76,1520.96 c 0.06,20.1 21.61,40.92 15.19,51.15 -6.39,10.23 99.07,28.16 99.07,28.16 0,0 -15.14,-20.68 -17.96,-52.46 -36.45,-36.64 -73.37,-48.74 -102.49,-54.79 l 6.19,27.94"
         style="fill:#dc8162;fill-opacity:1;fill-rule:nonzero;stroke:none"
         id="path178" />
      <path
         d="m 3376.4,1738.47 c -38.34,-26.17 -123.01,-140.42 -68.68,-207.82 23.22,-28.81 105.37,-4.41 154.92,50.72 20.38,22.61 30.17,78.29 13.45,130.33 -7.48,23.54 -55.47,57.63 -99.69,26.77"
         style="fill:#fbb99d;fill-opacity:1;fill-rule:nonzero;stroke:none"
         id="path180" />
      <path
         d="m 3496.67,1774.53 c -9.76,-4.34 -18.23,-11.38 -24.52,-19.98 -6.14,-8.37 -14.4,-23.44 -10.27,-33.89 3.12,-7.88 9.75,-13.75 14.48,-20.78 4.17,-6.19 6.87,-13.28 11.19,-19.37 7.55,-10.65 19,-18.08 29.09,-26.08 9.82,-7.78 20.6,-6.04 32.16,-2.11 18.64,6.35 36.12,19.09 43.3,37.44 7.79,19.9 -5.87,41.16 -17.83,56.41 -2.9,3.68 -6.01,7.23 -8.38,11.27 -12.07,20.57 -43.17,26.21 -64.55,18.92 -1.6,-0.54 -3.15,-1.16 -4.67,-1.83"
         style="fill:#53424d;fill-opacity:1;fill-rule:nonzero;stroke:none"
         id="path182" />
      <path
         d="m 3316.01,1692.17 c 4.96,-13.28 8.97,5.88 40.15,13.36 3.8,0.91 7.95,1.13 11.88,1.26 3.33,0.1 6.79,-0.12 9.95,-1.27 6.82,-2.47 9.41,-8.96 9.49,-15.81 0.1,-14.89 6.36,-26.85 14.54,-38.89 8.95,-13.16 16.4,-26.29 18.49,-42.36 0.6,-4.76 0.37,-9.21 2.1,-13.61 2.16,-5.41 3.08,-11.27 2.67,-17.12 -0.41,-5.63 -2.05,-11.12 -2.9,-16.71 -1.28,-8.46 0.13,-14.28 5.9,-20.19 2.3,-2.41 4.91,-4.48 7.69,-6.26 5.74,-3.75 12.33,-6.21 19.12,-7.11 15.8,-2.08 30.68,4.92 40.5,17.2 16.79,21.04 19.4,51.2 19.1,77.03 -0.22,18.31 -2.26,36.6 -5.27,54.62 -2.81,16.74 -10.81,31.71 -22.71,44.04 -15.62,16.15 -36.96,26.75 -58.79,31.24 -11.14,2.29 -22.62,3.06 -33.98,2.11 -53.87,-4.66 -81.85,-51.07 -77.93,-61.53"
         style="fill:#53424d;fill-opacity:1;fill-rule:nonzero;stroke:none"
         id="path184" />
      <path
         d="m 3416.34,1591.71 c 0,0 31.95,23.88 47.52,14.87 15.59,-9.06 -11.44,-52.22 -44.48,-43.06 -32.94,9.12 -12.77,21.83 -3.04,28.19"
         style="fill:#fbb99d;fill-opacity:1;fill-rule:nonzero;stroke:none"
         id="path186" />
      <path
         d="m 3384.96,1609.82 c 0.76,0.5 -0.86,-0.47 -1.15,-0.6 -1.29,-0.6 -2.57,-1.14 -3.98,-1.42 -5.41,-1.06 -8.25,2.27 -10.02,6.77 -1.1,2.81 -5.5,0.72 -4.39,-2.08 3.91,-9.94 13.86,-11.98 22.74,-6.19 2.61,1.68 -0.61,5.21 -3.2,3.52 v 0"
         style="fill:#1e100c;fill-opacity:1;fill-rule:nonzero;stroke:none"
         id="path188" />
      <path
         d="m 3332.56,1622.71 c -1.16,-1.35 -2.69,-2.59 -4.25,-3.46 -5.09,-2.87 -8.42,0.12 -10.84,4.67 -1.43,2.68 -5.83,0.62 -4.4,-2.07 2.87,-5.37 7.47,-9.97 14.26,-8.1 3.66,1.01 6.87,3.55 9.27,6.31 2.01,2.33 -2.04,4.96 -4.04,2.65 v 0"
         style="fill:#1e100c;fill-opacity:1;fill-rule:nonzero;stroke:none"
         id="path190" />
      <path
         d="m 3321.34,1646.5 c 7.77,2.44 14.51,-0.92 18.14,-8.14 1.69,-3.37 6.72,-0.37 5.04,2.97 -4.79,9.56 -14.38,14.07 -24.79,10.82 -3.59,-1.14 -2,-6.77 1.61,-5.65 v 0"
         style="fill:#513d38;fill-opacity:1;fill-rule:nonzero;stroke:none"
         id="path192" />
      <path
         d="m 3370.01,1631.64 c 6.82,4.44 14.22,3.04 19.66,-2.93 2.54,-2.8 6.58,1.46 4.05,4.23 -7.19,7.89 -17.65,9.64 -26.78,3.69 -3.15,-2.06 -0.1,-7.06 3.07,-4.99 v 0"
         style="fill:#513d38;fill-opacity:1;fill-rule:nonzero;stroke:none"
         id="path194" />
      <path
         d="m 3350.27,1628.82 c 1.53,-5.16 2.25,-11.12 0.69,-16.27 -2.26,-7.52 -10.79,-10.82 -15.49,-17 -6.47,-8.49 -0.13,-13.63 10.22,-16.63 2.5,-0.72 3.72,2.44 1.22,3.17 -23.2,6.71 3.95,18.53 7.55,28.22 2.26,6.05 1.62,13.07 -0.19,19.23 -0.63,2.08 -4.62,1.38 -4,-0.72 v 0"
         style="fill:#dc8162;fill-opacity:1;fill-rule:nonzero;stroke:none"
         id="path196" />
      <path
         d="m 3365.19,1568.99 c 0,0 1.46,-20.11 -15.22,-20.17 -16.68,-0.06 -18.49,17.96 -18.49,17.96 l 33.71,2.21"
         style="fill:#faffff;fill-opacity:1;fill-rule:nonzero;stroke:none"
         id="path198" />
      <path
         d="m 3397.32,1575.8 c -2.04,-5.94 -8.49,-9.11 -14.44,-7.08 -5.95,2.03 -9.12,8.49 -7.09,14.44 2.03,5.94 8.5,9.11 14.44,7.08 5.95,-2.03 9.12,-8.5 7.09,-14.44"
         style="fill:#f3a498;fill-opacity:1;fill-rule:nonzero;stroke:none"
         id="path200" />
      <path
         d="m 3305.73,1595.87 c 4.97,3.96 12.22,3.14 16.17,-1.84 3.97,-4.97 3.15,-12.21 -1.83,-16.17 -4.97,-3.96 -12.22,-3.15 -16.18,1.83 -3.95,4.97 -3.14,12.22 1.84,16.18"
         style="fill:#f3a498;fill-opacity:1;fill-rule:nonzero;stroke:none"
         id="path202" />
      <path
         d="m 3427.72,1568.74 c 8.92,-13.28 24.31,-47.31 -5.95,-43.38 -21.52,2.78 -8.2,26.3 -0.38,36.79 1.89,2.51 -2.14,5.25 -4.01,2.74 -11.62,-15.57 -21.85,-44.53 7.78,-44.57 32.27,-0.03 16.89,35.72 6.24,51.61 -1.73,2.6 -5.41,-0.61 -3.68,-3.19 v 0"
         style="fill:#fb8245;fill-opacity:1;fill-rule:nonzero;stroke:none"
         id="path204" />
      <path
         d="m 1645.29,1507.07 c 0,0 25.86,-11.3 25.85,-55.99 23.32,-38.27 24.81,-81.85 26.78,-115.39 12.22,-208.79 -70.7,-241.74 -53.85,-280.04 30.27,-68.771 417.86,36.29 401.11,108.11 -72.71,311.73 83.62,309.4 -72.49,388.73 -55.58,28.25 -275.42,17.66 -327.4,-45.42"
         style="fill:#fea603;fill-opacity:1;fill-rule:nonzero;stroke:none"
         id="path206" />
      <path
         d="m 2028.61,969.352 48.35,-573.211 c 0,0 81.93,-34.743 151.41,0 l 60.8,487.437 -108.57,138.412 -151.99,-52.638"
         style="fill:#94b8ed;fill-opacity:1;fill-rule:nonzero;stroke:none"
         id="path208" />
      <path
         d="m 1637.79,1021.99 c 0,0 -39.09,-278.451 156.33,-265.42 195.41,13.032 295.29,195.418 364.77,178.051 69.48,-17.383 217.12,-356.09 217.12,-356.09 0,0 69.49,-17.371 143.3,56.461 0,0 -82.51,425.558 -234.49,529.768 -151.99,104.23 -647.03,-142.77 -647.03,-142.77"
         style="fill:#b3d0ff;fill-opacity:1;fill-rule:nonzero;stroke:none"
         id="path210" />
      <path
         d="m 2088.23,1413.64 c 6.01,-11.35 123.19,-179.26 100.26,-222.37 -10.17,-19.12 -70.22,-22.46 -109.45,31.7 -41.53,57.34 -97.42,187.24 -40.98,185.97 17.57,-0.39 50.17,4.7 50.17,4.7"
         style="fill:#cc8c71;fill-opacity:1;fill-rule:nonzero;stroke:none"
         id="path212" />
      <path
         d="m 2404.95,1201.42 c 0,0 -7.73,-6.56 -9.28,-6.86 -23.69,-4.68 -232.45,-62.91 -257.6,12.97 -37.21,112.3 89.91,37.68 243.66,27.68 l 23.22,-33.79"
         style="fill:#cc8c71;fill-opacity:1;fill-rule:nonzero;stroke:none"
         id="path214" />
      <path
         d="m 2315.22,1225.24 c 0,0 67.4,19.67 104.74,10.56 45.87,-11.19 73.58,-45.46 68.69,-57.24 -9,-21.67 -76.14,19.26 -84.95,17.36 -10.81,-2.26 -38.39,-5.13 -48.05,-4.59 -9.67,0.54 -40.43,33.91 -40.43,33.91"
         style="fill:#cc8c71;fill-opacity:1;fill-rule:nonzero;stroke:none"
         id="path216" />
      <path
         d="m 1686.67,1324.53 c 8.54,33.11 2.55,73.77 -32.27,87.46 -19.76,7.76 -42.65,-13.17 -60.09,-33.96 -41.86,-49.9 -133.21,-278.97 -73.19,-333.36 55.15,-49.971 138.58,175.19 165.55,279.86"
         style="fill:#cc8c71;fill-opacity:1;fill-rule:nonzero;stroke:none"
         id="path218" />
      <path
         d="m 2025.2,1530.57 c -95.44,54.83 -205.14,37 -230.93,13.86 -14.63,-13.12 94.95,-10.42 104.76,-35.06 17.22,-43.28 69.95,-187.6 139.26,-253.15 23.77,-22.48 131.66,38.21 107.12,91.68 -30.32,66.09 -69.2,153.38 -120.21,182.67"
         style="fill:#fea603;fill-opacity:1;fill-rule:nonzero;stroke:none"
         id="path220" />
      <path
         d="m 1762.34,1456.97 c 10,39.59 60.64,66.01 26.67,76.18 -19.27,5.77 -82.19,29.68 -136.14,-16.78 -63.65,-54.82 -70.99,-111.37 -114.84,-195.15 -14.68,-28.06 120.64,-96.64 145.43,-48.1 36.85,72.15 56.74,96.18 78.88,183.85"
         style="fill:#fea603;fill-opacity:1;fill-rule:nonzero;stroke:none"
         id="path222" />
      <path
         d="m 1895.86,1400.32 c 21.95,-3.17 31.3,37.12 31.3,37.12 l -179.17,117.3 v 0 c 0,0 19.95,-135.93 147.87,-154.42"
         style="fill:#fdfefd;fill-opacity:1;fill-rule:nonzero;stroke:none"
         id="path224" />
      <path
         d="m 1967.83,1412.66 c -25.63,-7.23 -40.67,24.78 -40.67,24.78 l 31.54,121.03 32.6,-11.54 c 0,0 48.2,-114.02 -23.47,-134.27"
         style="fill:#fdfefd;fill-opacity:1;fill-rule:nonzero;stroke:none"
         id="path226" />
      <path
         d="m 1991.3,1546.93 c 0,0 -128.09,57.08 -243.31,7.81 l 179.17,-117.3 64.14,109.49"
         style="fill:#fdfefd;fill-opacity:1;fill-rule:nonzero;stroke:none"
         id="path228" />
      <path
         d="m 1783.85,1566.75 c 0,0 40.17,-128.37 136.75,-129.52 44.88,-0.52 59.52,35.28 34.77,70.29 -24.36,34.45 -171.52,59.23 -171.52,59.23"
         style="fill:#cc8c71;fill-opacity:1;fill-rule:nonzero;stroke:none"
         id="path230" />
      <path
         d="m 1958.53,1510.58 c 3.84,-3.9 10.07,-3.9 13.91,0 3.84,3.91 3.84,10.23 0,14.13 -3.84,3.9 -10.07,3.9 -13.91,0 -3.85,-3.9 -3.85,-10.22 0,-14.13"
         style="fill:#fea603;fill-opacity:1;fill-rule:nonzero;stroke:none"
         id="path232" />
      <path
         d="m 1952.52,1527.56 c 3.84,-3.91 10.08,-3.91 13.92,0 3.84,3.89 3.84,10.22 0,14.13 -3.84,3.89 -10.08,3.89 -13.92,0 -3.84,-3.91 -3.84,-10.24 0,-14.13"
         style="fill:#fea603;fill-opacity:1;fill-rule:nonzero;stroke:none"
         id="path234" />
      <path
         d="m 1942.69,1544.98 c 3.84,-3.91 10.07,-3.91 13.91,0 3.84,3.89 3.84,10.22 0,14.12 -3.84,3.9 -10.07,3.9 -13.91,0 -3.84,-3.9 -3.84,-10.23 0,-14.12"
         style="fill:#fea603;fill-opacity:1;fill-rule:nonzero;stroke:none"
         id="path236" />
      <path
         d="m 1799.35,1573.55 c 3.84,-3.9 10.07,-3.9 13.91,0 3.84,3.9 3.84,10.23 0,14.13 -3.84,3.9 -10.07,3.9 -13.91,0 -3.84,-3.9 -3.84,-10.23 0,-14.13"
         style="fill:#fea603;fill-opacity:1;fill-rule:nonzero;stroke:none"
         id="path238" />
      <path
         d="m 2049.1,1802.94 c -26.92,42.85 -47.87,50.94 -91.27,61.28 -28.4,6.74 -97.18,0 -132.19,-74.96 -23.1,-49.46 0,-148.36 0,-148.36 61.22,-33.98 76.01,-58.73 89.5,-55.68 69.35,15.72 189.02,130.05 133.96,217.72"
         style="fill:#53424d;fill-opacity:1;fill-rule:nonzero;stroke:none"
         id="path240" />
      <path
         d="m 1965.49,1486.62 c 0,0 -24.95,66.58 -6.79,131.74 4.58,16.4 -19.54,26.23 -11.71,32.66 7.81,6.46 -70.65,49.78 -70.65,49.78 0,0 -1.67,-106.51 -92.49,-134.05 l 181.64,-80.13"
         style="fill:#cc8c71;fill-opacity:1;fill-rule:nonzero;stroke:none"
         id="path242" />
      <path
         d="m 1955.82,1607.5 c 6.58,19.76 -7.38,47.43 2.21,55.32 9.56,7.9 -86.46,60.91 -86.46,60.91 0,0 7.8,-25.4 0.02,-57.54 23.13,-48.22 54.82,-72.48 80.98,-88.2 l 3.25,29.51"
         style="fill:#bf7c64;fill-opacity:1;fill-rule:nonzero;stroke:none"
         id="path244" />
      <path
         d="m 1990.55,1796.47 c 62.58,-18.84 73.71,-155.47 -1.59,-207.68 -32.17,-22.33 -103.17,32.44 -132.26,108.24 -11.99,31.11 -2.52,93.49 31.27,142.68 15.22,22.29 49.66,-27.31 102.58,-43.24"
         style="fill:#cc8c71;fill-opacity:1;fill-rule:nonzero;stroke:none"
         id="path246" />
      <path
         d="m 2036.33,1767.3 c -9.19,-11.39 -6.72,8.77 -34.4,26.58 -3.37,2.18 -7.31,3.78 -11.07,5.23 -3.19,1.22 -6.6,2.16 -10.02,2.09 -7.42,-0.13 -12.08,-5.64 -14.41,-12.34 -5.02,-14.59 -15.03,-24.22 -26.92,-33.3 -13,-9.91 -24.54,-20.31 -31.87,-35.39 -2.15,-4.47 -3.4,-8.9 -6.54,-12.64 -3.87,-4.59 -6.7,-10.04 -8.23,-15.92 -1.47,-5.68 -1.7,-11.61 -2.72,-17.38 -1.57,-8.75 -4.84,-13.97 -12.38,-17.86 -3.02,-1.57 -6.22,-2.73 -9.51,-3.56 -6.78,-1.74 -13.96,-1.95 -20.82,-0.56 -15.97,3.26 -16.36,4.08 -21.8,19.45 -9.29,26.28 -13.51,67.82 -4.68,93.08 6.26,17.9 14.28,35.17 23.15,51.85 8.25,15.52 20.93,27.52 36.51,35.62 20.45,10.63 44.56,13.86 67.17,10.94 11.51,-1.48 22.87,-4.58 33.54,-9.33 50.54,-22.65 62.26,-77.61 55,-86.56"
         style="fill:#53424d;fill-opacity:1;fill-rule:nonzero;stroke:none"
         id="path248" />
      <path
         d="m 1906.13,1702.33 c 0,0 -22.99,34.17 -41.02,30.55 -18.07,-3.66 -6.2,-55.1 28.76,-57.2 34.87,-2.11 19.56,17.14 12.26,26.65"
         style="fill:#cc8c71;fill-opacity:1;fill-rule:nonzero;stroke:none"
         id="path250" />
      <path
         d="m 1800.43,1577.98 c -3.99,3.75 -10.21,3.5 -13.9,-0.54 -3.69,-4.05 -3.46,-10.37 0.53,-14.12 3.98,-3.75 10.2,-3.51 13.9,0.53 3.69,4.05 3.46,10.38 -0.53,14.13"
         style="fill:#fea603;fill-opacity:1;fill-rule:nonzero;stroke:none"
         id="path252" />
      <path
         d="m 1810.27,1562.07 c -3.99,3.75 -10.21,3.51 -13.9,-0.54 -3.7,-4.04 -3.46,-10.37 0.53,-14.11 3.98,-3.76 10.2,-3.52 13.89,0.53 3.7,4.05 3.47,10.37 -0.52,14.12"
         style="fill:#fea603;fill-opacity:1;fill-rule:nonzero;stroke:none"
         id="path254" />
      <path
         d="m 1806.46,1532.3 c 3.85,-3.9 10.07,-3.9 13.91,0 3.85,3.91 3.85,10.23 0,14.13 -3.84,3.9 -10.06,3.9 -13.91,0 -3.84,-3.9 -3.84,-10.22 0,-14.13"
         style="fill:#fea603;fill-opacity:1;fill-rule:nonzero;stroke:none"
         id="path256" />
      <path
         d="m 1818.68,1517.56 c 3.84,-3.9 10.07,-3.9 13.92,0 3.84,3.9 3.84,10.23 0,14.13 -3.85,3.9 -10.08,3.9 -13.92,0 -3.84,-3.9 -3.84,-10.23 0,-14.13"
         style="fill:#fea603;fill-opacity:1;fill-rule:nonzero;stroke:none"
         id="path258" />
      <path
         d="m 1832.18,1503.85 c 3.83,-3.89 10.06,-3.89 13.91,0 3.84,3.91 3.84,10.23 0,14.13 -3.85,3.91 -10.08,3.91 -13.91,0 -3.85,-3.9 -3.85,-10.22 0,-14.13"
         style="fill:#fea603;fill-opacity:1;fill-rule:nonzero;stroke:none"
         id="path260" />
      <path
         d="m 1848.77,1494.93 c 3.84,-3.91 10.08,-3.91 13.91,0 3.85,3.9 3.85,10.22 0,14.13 -3.83,3.9 -10.07,3.9 -13.91,0 -3.84,-3.91 -3.84,-10.23 0,-14.13"
         style="fill:#fea603;fill-opacity:1;fill-rule:nonzero;stroke:none"
         id="path262" />
      <path
         d="m 1865.23,1487.3 c 3.84,-3.9 10.07,-3.9 13.91,0 3.85,3.91 3.85,10.23 0,14.13 -3.84,3.9 -10.07,3.9 -13.91,0 -3.84,-3.9 -3.84,-10.22 0,-14.13"
         style="fill:#fea603;fill-opacity:1;fill-rule:nonzero;stroke:none"
         id="path264" />
      <path
         d="m 1881.59,1477.98 c 3.84,-3.91 10.07,-3.91 13.91,0 3.84,3.89 3.84,10.22 0,14.12 -3.84,3.9 -10.07,3.9 -13.91,0 -3.84,-3.9 -3.84,-10.23 0,-14.12"
         style="fill:#fea603;fill-opacity:1;fill-rule:nonzero;stroke:none"
         id="path266" />
      <path
         d="m 1899.86,1474.89 c 3.84,-3.9 10.06,-3.9 13.91,0 3.84,3.91 3.84,10.22 0,14.13 -3.85,3.9 -10.07,3.9 -13.91,0 -3.85,-3.91 -3.85,-10.22 0,-14.13"
         style="fill:#fea603;fill-opacity:1;fill-rule:nonzero;stroke:none"
         id="path268" />
      <path
         d="m 1918.7,1477.31 c 3.84,-3.91 10.07,-3.91 13.91,0 3.84,3.91 3.84,10.23 0,14.13 -3.84,3.91 -10.07,3.91 -13.91,0 -3.84,-3.9 -3.84,-10.22 0,-14.13"
         style="fill:#fea603;fill-opacity:1;fill-rule:nonzero;stroke:none"
         id="path270" />
      <path
         d="m 1936.81,1482.33 c 3.85,-3.9 10.08,-3.9 13.91,0 3.85,3.91 3.85,10.23 0,14.13 -3.83,3.9 -10.06,3.9 -13.91,0 -3.84,-3.9 -3.84,-10.22 0,-14.13"
         style="fill:#fea603;fill-opacity:1;fill-rule:nonzero;stroke:none"
         id="path272" />
      <path
         d="m 1951.75,1493.86 c 3.84,-3.89 10.07,-3.89 13.91,0 3.84,3.91 3.84,10.24 0,14.13 -3.84,3.91 -10.07,3.91 -13.91,0 -3.84,-3.89 -3.84,-10.22 0,-14.13"
         style="fill:#fea603;fill-opacity:1;fill-rule:nonzero;stroke:none"
         id="path274" />
      <path
         d="m 2017.38,1320.75 c -3.91,-16.21 -4.88,-35.76 3.72,-50.56 3.51,-6.06 12.83,-0.56 9.29,5.52 -7.07,12.18 -5.84,28.81 -2.63,42.13 1.64,6.83 -8.74,9.75 -10.38,2.91 v 0"
         style="fill:#e08b03;fill-opacity:1;fill-rule:nonzero;stroke:none"
         id="path276" />
      <path
         d="m 1828.78,1651.33 c 0,0 -41.79,-20.36 -72.68,-70.72 -43.83,-71.45 -58.33,-240.65 128.33,-240.65 0,0 -68.32,245.01 -31.7,295.16 l -23.95,16.21"
         style="fill:#53424d;fill-opacity:1;fill-rule:nonzero;stroke:none"
         id="path278" />
      <path
         d="m 1820.3,1656.22 -4.19,-12.51 c 0,0 33.36,-18.03 34.23,-15.7 0.88,2.35 11.75,15.46 11.75,15.46 l -41.79,12.75"
         style="fill:#2f7edd;fill-opacity:1;fill-rule:nonzero;stroke:none"
         id="path280" />
      <path
         d="m 1683.68,1015.8 c 0,0 104.21,-46.062 112.67,-52.288 54.16,-39.91 88.29,-48.524 77.14,-55.942 -20.52,-13.64 -92.72,16.532 -103.6,20.84 -13.32,5.352 -45.91,21.602 -56.58,28.711 -10.7,7.117 -29.63,58.679 -29.63,58.679"
         style="fill:#cc8c71;fill-opacity:1;fill-rule:nonzero;stroke:none"
         id="path282" />
      <path
         d="M 1525.63,1040.66 C 1576.97,994.891 1769.92,928 1769.92,928 l -10.24,44.961 -188.15,153.379 c 0,0 -97.19,-39.87 -45.9,-85.68"
         style="fill:#cc8c71;fill-opacity:1;fill-rule:nonzero;stroke:none"
         id="path284" />
      <path
         d="m 1709.22,1353.47 c 3.9,-16.21 4.87,-35.76 -3.72,-50.56 -3.52,-6.06 -12.83,-0.56 -9.3,5.52 7.07,12.18 5.85,28.8 2.64,42.13 -1.65,6.84 8.73,9.76 10.38,2.91 v 0"
         style="fill:#e08b03;fill-opacity:1;fill-rule:nonzero;stroke:none"
         id="path286" />
      <path
         d="m 1934.74,1704.53 c -0.73,0.74 0.85,-0.72 1.15,-0.95 1.29,-0.96 2.6,-1.86 4.11,-2.5 5.78,-2.45 9.73,0.61 12.76,5.21 1.89,2.88 6.3,-0.48 4.42,-3.35 -6.7,-10.18 -18.29,-10.12 -26.84,-1.61 -2.51,2.51 1.91,5.68 4.4,3.2 v 0"
         style="fill:#1e100c;fill-opacity:1;fill-rule:nonzero;stroke:none"
         id="path288" />
      <path
         d="m 1996.23,1706.66 c 0.98,-1.77 2.4,-3.52 3.93,-4.86 5.02,-4.38 9.43,-1.82 13.2,2.68 2.22,2.66 6.65,-0.67 4.42,-3.34 -4.44,-5.32 -10.67,-9.38 -17.8,-5.7 -3.85,1.97 -6.84,5.55 -8.86,9.21 -1.71,3.07 3.42,5.04 5.11,2.01 v 0"
         style="fill:#1e100c;fill-opacity:1;fill-rule:nonzero;stroke:none"
         id="path290" />
      <path
         d="m 2014.33,1730.58 c -8.11,4.54 -16.41,2.38 -22.15,-4.84 -2.68,-3.38 -7.59,1.15 -4.93,4.5 7.57,9.53 19.33,12.33 30.18,6.26 3.75,-2.1 0.66,-8.02 -3.1,-5.92 v 0"
         style="fill:#552b19;fill-opacity:1;fill-rule:nonzero;stroke:none"
         id="path292" />
      <path
         d="m 1956.53,1725.38 c -6.57,6.56 -15.16,6.72 -22.63,1.33 -3.49,-2.52 -6.99,3.17 -3.53,5.67 9.88,7.12 21.96,6.63 30.75,-2.15 3.04,-3.04 -1.54,-7.9 -4.59,-4.85 v 0"
         style="fill:#552b19;fill-opacity:1;fill-rule:nonzero;stroke:none"
         id="path294" />
      <path
         d="m 1977.9,1717.62 c -2.92,-5.4 -5.11,-11.88 -4.58,-18 0.76,-8.92 9.52,-14.6 13.32,-22.6 5.23,-10.99 -3.04,-15.25 -15.3,-16.15 -2.96,-0.23 -3.58,3.58 -0.63,3.8 27.47,2.06 -0.06,21.62 -1.82,33.27 -1.09,7.28 1.25,14.97 4.73,21.4 1.18,2.19 5.46,0.48 4.28,-1.72 v 0"
         style="fill:#bf7c64;fill-opacity:1;fill-rule:nonzero;stroke:none"
         id="path296" />
      <path
         d="m 1947.25,1654.33 c 0,0 -6.33,-22.09 12.27,-26.06 18.6,-3.98 24.85,15.72 24.85,15.72 l -37.12,10.34"
         style="fill:#faffff;fill-opacity:1;fill-rule:nonzero;stroke:none"
         id="path298" />
      <path
         d="m 1913.25,1667.33 c 0.88,-7.11 7.36,-12.16 14.46,-11.29 7.11,0.88 12.17,7.36 11.29,14.46 -0.88,7.11 -7.36,12.16 -14.47,11.29 -7.11,-0.88 -12.15,-7.35 -11.28,-14.46"
         style="fill:#c1775d;fill-opacity:1;fill-rule:nonzero;stroke:none"
         id="path300" />
      <path
         d="m 2026.25,1676.73 c -4.63,5.58 -12.9,6.36 -18.48,1.73 -5.58,-4.62 -6.37,-12.9 -1.74,-18.47 4.63,-5.59 12.9,-6.37 18.48,-1.74 5.59,4.62 6.37,12.9 1.74,18.48"
         style="fill:#c1775d;fill-opacity:1;fill-rule:nonzero;stroke:none"
         id="path302" />
      <path
         d="m 1630.11,1206.98 c -12.62,0.66 -510.3,-14.73 -558.45,-62.96 -48.16,-48.24 96.31,-635.571 152.49,-675.29 56.19,-39.718 389.28,-34.058 389.28,-34.058 l 16.68,772.308"
         style="fill:#908dce;fill-opacity:1;fill-rule:nonzero;stroke:none"
         id="path304" />
      <path
         d="m 1740.82,1125.31 c -10.48,38.4 -43.64,69.13 -86.69,78.08 -27.42,5.69 -59.42,7.38 -84.85,-5.46 -56.18,-28.37 -20.27,-763.532 -20.27,-763.532 l 184.81,0.274 c 0,0 59.49,498.129 7,690.638"
         style="fill:#b6ace9;fill-opacity:1;fill-rule:nonzero;stroke:none"
         id="path306" />
      <path
         d="m 1695.37,438.988 c 12.65,96.082 21.36,192.903 27.04,289.633 7.08,120.738 25.69,274.359 -21.61,389.779 -21.95,53.6 -70.91,72.78 -99.66,13.72 -48.86,-100.36 -31.72,-248.511 -28.09,-355.561 3.86,-113.629 14.43,-226.5 24.26,-339.7 0.66,-7.55 12.53,-7.621 11.87,0 -16.42,189.063 -38.1,381.2 -21.17,570.991 3.32,37.19 4.8,106.67 33.5,136.18 44.33,45.61 70.9,-31.79 78.93,-66.73 27.37,-119.152 16.51,-250.769 8.67,-371.609 -5.79,-89.07 -13.96,-178.179 -25.61,-266.703 -0.99,-7.547 10.89,-7.476 11.87,0 v 0"
         style="fill:#a29cdb;fill-opacity:1;fill-rule:nonzero;stroke:none"
         id="path308" />
      <path
         d="m 3021.87,1998.01 c 37.75,-83.01 1.06,-180.9 -81.95,-218.65 -83.01,-37.75 -180.91,-1.06 -218.65,81.95 -37.76,83.01 -1.06,180.9 81.95,218.65 83.01,37.75 180.91,1.06 218.65,-81.95"
         style="fill:#94b8ed;fill-opacity:1;fill-rule:nonzero;stroke:none"
         id="path310" />
      <path
         d="m 3038.22,2194.04 c 36.78,-80.87 1.03,-176.25 -79.84,-213.02 -80.87,-36.78 -176.25,-1.03 -213.03,79.84 -36.78,80.87 -1.03,176.25 79.84,213.03 80.88,36.78 176.25,1.03 213.03,-79.85"
         style="fill:#94b8ed;fill-opacity:1;fill-rule:nonzero;stroke:none"
         id="path312" />
      <path
         d="m 2826.9,2120.54 c 42.02,-92.43 1.17,-201.43 -91.26,-243.46 -92.42,-42.03 -201.42,-1.18 -243.46,91.25 -42.03,92.43 -1.17,201.43 91.26,243.46 92.43,42.03 201.42,1.18 243.46,-91.25"
         style="fill:#94b8ed;fill-opacity:1;fill-rule:nonzero;stroke:none"
         id="path314" />
      <path
         d="m 2803.66,1932.63 c 30.72,-67.56 0.86,-147.23 -66.69,-177.96 -67.56,-30.71 -147.24,-0.85 -177.96,66.71 -30.72,67.56 -0.86,147.23 66.7,177.95 67.56,30.72 147.24,0.86 177.95,-66.7"
         style="fill:#94b8ed;fill-opacity:1;fill-rule:nonzero;stroke:none"
         id="path316" />
      <path
         d="m 2605.83,2221.97 c 21.01,-46.21 0.58,-100.71 -45.63,-121.73 -46.21,-21.01 -100.71,-0.59 -121.73,45.63 -21.01,46.21 -0.58,100.71 45.63,121.72 46.21,21.02 100.71,0.6 121.73,-45.62"
         style="fill:#94b8ed;fill-opacity:1;fill-rule:nonzero;stroke:none"
         id="path318" />
      <path
         d="m 3153.01,1861.43 c 13,-28.61 0.36,-62.34 -28.26,-75.35 -28.6,-13.01 -62.34,-0.37 -75.35,28.24 -13.01,28.61 -0.36,62.35 28.24,75.35 28.62,13.02 62.35,0.37 75.37,-28.24"
         style="fill:#94b8ed;fill-opacity:1;fill-rule:nonzero;stroke:none"
         id="path320" />
      <path
         d="m 3231.23,1820.53 c 7.51,-16.52 0.2,-36.01 -16.32,-43.53 -16.52,-7.51 -36.02,-0.21 -43.53,16.32 -7.52,16.52 -0.21,36.01 16.31,43.53 16.54,7.52 36.02,0.21 43.54,-16.32"
         style="fill:#94b8ed;fill-opacity:1;fill-rule:nonzero;stroke:none"
         id="path322" />
      <path
         d="m 2821.28,2087.82 c -40.35,7.44 -83.95,6.4 -98.45,-1.06 -3.41,-1.75 -6.96,-3.95 -9.75,-6.55 29.27,-4.21 64.42,-13.67 97.1,-25.6 7.13,5.87 11.82,13.58 12.61,21.72 0.37,3.9 -0.15,7.75 -1.51,11.49 z m -3.17,-36.17 c 29.25,-11.18 55.88,-24.2 73.65,-36.99 1.82,2.01 3.41,4.12 4.73,6.33 5.75,9.6 5.62,20.09 -0.38,30.33 -9.99,17.07 -36.68,28.41 -66.51,34.84 0.92,-4.05 0.97,-7.66 0.69,-10.56 -0.85,-8.83 -5.31,-17.22 -12.18,-23.95 z m -109.79,21.56 c -0.66,-2.13 -0.66,-4.43 0.26,-6.87 5.69,-15.07 43.99,-30.82 83.23,-20.89 3.67,0.92 7.12,2.25 10.32,3.88 -32.06,11.33 -66.11,20.2 -93.81,23.88 z m -7.62,0.89 c -10.78,1.1 -20.4,1.29 -28.26,0.37 -9.23,-1.07 -15.39,-3.65 -17.81,-7.48 -2.75,-4.32 -2.7,-9.03 0.13,-14.42 14.5,-27.62 94.5,-60.38 152.83,-62.61 33.12,-1.27 61.93,6.13 78.53,19.45 -17.93,12.6 -45.18,25.58 -74.87,36.62 -5.15,-3.53 -11.11,-6.26 -17.58,-7.89 -40.56,-10.28 -84.57,5.46 -92.15,25.53 -1,2.65 -1.75,6.3 -0.82,10.43 z m 56.2,-158.17 c -124.01,35.38 -130.3,108.38 -130.53,111.83 l 7.53,0.49 c 0.06,-0.88 8.13,-88.47 172.61,-115.55 55.81,-9.17 95.24,0.19 108.15,25.68 9.27,18.31 2.86,42.3 -16.35,61.12 -1.79,1.74 -3.8,3.52 -6.03,5.29 -17.98,-15.22 -49.25,-23.74 -84.99,-22.38 -55.88,2.14 -142.04,33.95 -159.21,66.64 -4.08,7.77 -4.02,15.38 0.17,21.99 3.74,5.9 11.59,9.57 23.32,10.93 9.01,1.04 20.09,0.76 32.48,-0.61 2.85,4.01 7.64,8.16 15.33,12.12 15.22,7.81 56.73,9.71 96.93,3.22 -5.6,7.3 -14.65,14.01 -26.86,19.76 -48.51,22.88 -123.6,29.23 -165.32,0.32 -22.96,-15.91 -33.25,-40.32 -30.62,-72.58 l -7.52,-0.61 c -2.83,34.63 8.87,62.09 33.83,79.39 45.62,31.62 123.11,23.77 172.85,0.31 19.22,-9.06 28.98,-19.26 33.71,-28.41 33.46,-6.66 64.34,-19.42 76.24,-39.74 7.37,-12.59 7.49,-26.09 0.35,-38.03 -1.47,-2.46 -3.22,-4.79 -5.22,-7.03 2.13,-1.74 4.08,-3.48 5.84,-5.19 21.6,-21.17 28.6,-48.62 17.8,-69.93 -14.5,-28.62 -56.81,-39.44 -116.11,-29.7 -17.84,2.93 -33.92,6.55 -48.38,10.67"
         style="fill:#ffffff;fill-opacity:1;fill-rule:nonzero;stroke:none"
         id="path324" />
      <path
         d="m 2569.96,2059.26 17,-36.25 16.43,36.65 z"
         style="fill:#ffffff;fill-opacity:1;fill-rule:nonzero;stroke:none"
         id="path326" />
      <path
         d="m 2649.77,2016.06 -20.63,34.3 -12.58,-38.14 z"
         style="fill:#ffffff;fill-opacity:1;fill-rule:nonzero;stroke:none"
         id="path328" />
    </g>
  </g>
</svg>
