<svg width="1173" height="782" viewBox="0 0 1173 782" fill="none" xmlns="http://www.w3.org/2000/svg">
<mask id="mask0_8_102092" style="mask-type:luminance" maskUnits="userSpaceOnUse" x="0" y="0" width="1173" height="782">
<path d="M0 -5.24521e-06H1173V782H0V-5.24521e-06Z" fill="white"/>
</mask>
<g mask="url(#mask0_8_102092)">
<path d="M964.825 330.919L993.309 398.413L964.262 411.746C964.262 411.746 924.94 358.012 923.722 350.672C922.502 343.332 931.022 334.114 931.022 334.114L964.825 330.919Z" fill="#F35B5D"/>
<path d="M961.932 391.741L999.763 304.837L1024.08 310.058C1024.08 310.058 1006.41 392.438 1001.32 404.209C991.51 426.89 951.786 420.969 961.932 391.741Z" fill="#FD8781"/>
<path d="M991.408 271.837C994.611 273.492 999.544 277.557 1003.54 281.076L1012.87 269.341L1012.86 269.335C1013.34 268.675 1014.41 267.344 1015.8 265.651L1015.8 265.648C1020.47 259.979 1028.9 250.224 1032.3 247.734C1036.7 244.5 1037.98 248.81 1035.94 251.239C1034.36 253.113 1025.66 266.18 1021.77 272.058L1021.98 272.288C1026.17 267.097 1036.04 255.511 1039.79 252.764C1044.19 249.53 1045.47 253.84 1043.43 256.267C1041.67 258.366 1030.97 274.494 1028.09 278.85L1028.25 279.027C1032.82 273.451 1041.66 263.182 1045.15 260.619C1049.56 257.383 1050.84 261.693 1048.8 264.122C1047.45 265.725 1040.88 275.527 1036.57 282.005C1041.06 277.543 1046.4 272.516 1048.85 270.999C1053.12 268.367 1053.97 272.399 1051.93 274.469C1050.53 275.886 1043.35 284.956 1038.96 290.532L1024.98 309.506L1020.83 321.885L996.608 313.771L999.764 304.836L996.927 290.455C994.373 286.124 990.816 280.258 988.929 277.887C985.773 273.923 985.255 268.659 991.408 271.837Z" fill="#FD8781"/>
<path d="M1033.09 288.275C1032.98 288.239 1032.89 288.178 1032.81 288.092L1016.7 270.672C1016.44 270.39 1016.46 269.954 1016.74 269.694C1017.02 269.435 1017.46 269.45 1017.72 269.733L1033.82 287.152C1034.08 287.433 1034.07 287.871 1033.79 288.129C1033.59 288.309 1033.32 288.356 1033.09 288.275Z" fill="#F35B5D"/>
<path d="M1010.05 293.988C1009.76 293.888 1009.57 293.603 1009.59 293.284C1010.02 287.505 1005.72 283.087 1005.67 283.043C1005.4 282.771 1005.41 282.334 1005.68 282.065C1005.95 281.795 1006.39 281.796 1006.66 282.067C1006.85 282.264 1011.45 286.964 1010.97 293.387C1010.94 293.767 1010.61 294.053 1010.23 294.025C1010.17 294.021 1010.11 294.008 1010.05 293.988Z" fill="#F35B5D"/>
<path d="M780.075 301.259L786.659 436.018L780.075 493.084H931.826L927.119 440.976L931.826 314.317L780.075 301.259Z" fill="#FE4F4E"/>
<path d="M908.848 297.343C885.686 289.122 869.724 275.889 854.7 269.516C839.088 274.279 821.827 285.765 797.935 291.511C760.022 300.63 753.311 250.273 780.869 234.289C805.129 220.22 802.472 217.516 809.984 191.595C810.472 189.913 811.002 188.132 811.587 186.243C812.225 184.172 812.929 181.973 813.711 179.632C814.169 178.265 814.64 176.946 815.128 175.678C822.577 156.325 841.583 144.853 861.164 146.569C880.819 146.917 898.519 160.318 903.894 180.345C904.249 181.657 904.579 183.018 904.892 184.425C905.424 186.837 905.892 189.097 906.309 191.222C906.692 193.163 907.035 194.99 907.341 196.714C912.094 223.28 909.17 225.691 931.82 242.226C957.55 261.013 945.595 310.387 908.848 297.343Z" fill="#5A184A"/>
<path d="M948.444 325.41L764.105 315.718C764.105 315.718 767.195 304.122 771.343 292.528C775.491 280.935 783.037 276.388 792.598 274.463C795.297 273.917 800.244 272.761 805.954 271.383C809.19 270.598 812.672 269.744 816.131 268.889C828.199 265.906 839.973 262.908 839.973 262.908L859.224 262.384H859.335L859.443 262.395L876.666 264.688C876.666 264.688 886.902 268.357 898.089 272.311C908.589 276.017 919.928 279.98 924.43 281.394C933.739 284.311 940.766 289.624 943.675 301.59C946.584 313.555 948.444 325.41 948.444 325.41Z" fill="#FE4F4E"/>
<path d="M785.658 291.824C785.453 291.813 785.25 291.737 785.084 291.591L780.403 287.508C780.007 287.164 779.965 286.563 780.311 286.166C780.656 285.77 781.257 285.729 781.651 286.075L786.334 290.159C786.729 290.504 786.77 291.105 786.424 291.499C786.224 291.729 785.94 291.84 785.658 291.824Z" fill="#C3205C"/>
<path d="M784.572 312.467C784.367 312.456 784.164 312.379 783.998 312.234L779.317 308.15C778.921 307.805 778.879 307.204 779.225 306.808C779.571 306.413 780.173 306.372 780.567 306.718L785.249 310.801C785.645 311.145 785.686 311.746 785.34 312.142C785.14 312.372 784.855 312.481 784.572 312.467Z" fill="#C3205C"/>
<path d="M814.585 285.756C814.416 285.748 814.246 285.691 814.096 285.588C813.664 285.29 813.556 284.697 813.855 284.265L817.39 279.157C817.688 278.725 818.281 278.617 818.713 278.916C819.144 279.215 819.252 279.808 818.954 280.239L815.419 285.347C815.223 285.629 814.904 285.773 814.585 285.756Z" fill="#C3205C"/>
<path d="M797.86 305.504C797.691 305.495 797.519 305.44 797.371 305.337C796.938 305.038 796.831 304.446 797.128 304.014L800.665 298.906C800.963 298.473 801.554 298.366 801.988 298.664C802.419 298.964 802.526 299.555 802.229 299.988L798.692 305.096C798.498 305.376 798.178 305.52 797.86 305.504Z" fill="#C3205C"/>
<path d="M806.178 279.969C806.228 280.131 806.236 280.31 806.19 280.486C806.06 280.995 805.541 281.301 805.033 281.171L799.016 279.625C798.508 279.493 798.201 278.976 798.331 278.467C798.462 277.957 798.98 277.652 799.49 277.782L805.505 279.329C805.837 279.415 806.082 279.664 806.178 279.969Z" fill="#C3205C"/>
<path d="M825.916 304.25C825.71 304.239 825.508 304.163 825.341 304.017L820.66 299.934C820.264 299.59 820.223 298.988 820.569 298.592C820.915 298.196 821.515 298.156 821.909 298.501L826.592 302.585C826.988 302.929 827.028 303.531 826.683 303.925C826.483 304.155 826.198 304.264 825.916 304.25Z" fill="#C3205C"/>
<path d="M807.903 313.543C807.783 313.457 807.68 313.341 807.609 313.201C807.37 312.733 807.558 312.161 808.025 311.923L813.565 309.111C814.033 308.873 814.605 309.059 814.843 309.527C815.081 309.996 814.895 310.568 814.427 310.806L808.887 313.618C808.56 313.784 808.182 313.743 807.903 313.543Z" fill="#C3205C"/>
<path d="M893.655 297.503C893.448 297.492 893.245 297.416 893.079 297.27L888.398 293.187C888.002 292.841 887.96 292.24 888.306 291.845C888.651 291.449 889.253 291.408 889.648 291.754L894.33 295.838C894.726 296.182 894.767 296.784 894.421 297.178C894.221 297.408 893.936 297.517 893.655 297.503Z" fill="#C3205C"/>
<path d="M892.569 318.145C892.364 318.134 892.161 318.057 891.995 317.912L887.314 313.828C886.919 313.482 886.876 312.882 887.222 312.486C887.568 312.09 888.168 312.05 888.562 312.395L893.245 316.479C893.641 316.823 893.681 317.425 893.336 317.819C893.135 318.049 892.851 318.159 892.569 318.145Z" fill="#C3205C"/>
<path d="M922.583 291.434C922.414 291.425 922.242 291.37 922.093 291.267C921.66 290.968 921.554 290.376 921.851 289.944L925.387 284.836C925.684 284.403 926.277 284.296 926.71 284.593C927.142 284.894 927.248 285.485 926.949 285.918L923.415 291.026C923.221 291.306 922.9 291.452 922.583 291.434Z" fill="#C3205C"/>
<path d="M905.856 311.183C905.687 311.174 905.517 311.119 905.368 311.016C904.935 310.717 904.827 310.124 905.126 309.693L908.662 304.585C908.959 304.151 909.552 304.045 909.985 304.344C910.415 304.642 910.523 305.234 910.224 305.667L906.69 310.775C906.494 311.055 906.175 311.2 905.856 311.183Z" fill="#C3205C"/>
<path d="M938.699 321.665C938.528 321.656 938.358 321.601 938.209 321.498C937.776 321.199 937.668 320.606 937.967 320.175L941.501 315.067C941.8 314.634 942.393 314.527 942.826 314.824C943.256 315.125 943.364 315.716 943.065 316.149L939.531 321.257C939.335 321.537 939.016 321.683 938.699 321.665Z" fill="#C3205C"/>
<path d="M914.175 285.646C914.225 285.809 914.233 285.987 914.188 286.164C914.056 286.674 913.538 286.98 913.03 286.849L907.013 285.302C906.505 285.171 906.197 284.653 906.328 284.145C906.458 283.636 906.977 283.33 907.487 283.461L913.502 285.006C913.834 285.092 914.08 285.341 914.175 285.646Z" fill="#C3205C"/>
<path d="M934.117 306.007C933.912 305.996 933.709 305.919 933.543 305.774L928.862 301.69C928.466 301.346 928.424 300.744 928.77 300.348C929.115 299.953 929.716 299.914 930.112 300.258L934.794 304.341C935.19 304.687 935.229 305.288 934.883 305.683C934.685 305.912 934.4 306.023 934.117 306.007Z" fill="#C3205C"/>
<path d="M915.899 319.221C915.778 319.135 915.675 319.021 915.606 318.878C915.367 318.411 915.553 317.838 916.022 317.601L921.56 314.788C922.03 314.551 922.602 314.737 922.838 315.206C923.078 315.674 922.891 316.246 922.422 316.484L916.884 319.296C916.556 319.462 916.179 319.421 915.899 319.221Z" fill="#C3205C"/>
<path d="M857.323 299.192C857.154 299.184 856.982 299.128 856.834 299.025C856.4 298.726 856.294 298.133 856.591 297.701L860.127 292.593C860.425 292.162 861.017 292.054 861.451 292.353C861.882 292.651 861.989 293.244 861.69 293.676L858.155 298.784C857.961 299.065 857.641 299.209 857.323 299.192Z" fill="#C3205C"/>
<path d="M841.372 314.991C841.202 314.982 841.031 314.927 840.882 314.824C840.449 314.525 840.341 313.933 840.64 313.501L844.176 308.393C844.473 307.96 845.066 307.853 845.499 308.15C845.931 308.451 846.037 309.042 845.739 309.475L842.204 314.583C842.009 314.863 841.689 315.009 841.372 314.991Z" fill="#C3205C"/>
<path d="M843.598 295.157C843.649 295.32 843.656 295.498 843.612 295.675C843.48 296.183 842.963 296.489 842.454 296.36L836.438 294.813C835.929 294.681 835.621 294.164 835.753 293.655C835.883 293.147 836.4 292.841 836.91 292.972L842.927 294.517C843.258 294.603 843.504 294.852 843.598 295.157Z" fill="#C3205C"/>
<path d="M878.979 302.473C878.774 302.462 878.57 302.386 878.405 302.24L873.724 298.157C873.328 297.813 873.286 297.21 873.631 296.815C873.977 296.419 874.578 296.378 874.972 296.724L879.654 300.808C880.05 301.152 880.091 301.754 879.745 302.148C879.545 302.378 879.26 302.487 878.979 302.473Z" fill="#C3205C"/>
<path d="M859.637 316.496C859.516 316.41 859.413 316.294 859.344 316.154C859.105 315.686 859.291 315.114 859.76 314.876L865.298 312.064C865.767 311.826 866.338 312.012 866.576 312.48C866.815 312.949 866.629 313.521 866.16 313.759L860.62 316.571C860.293 316.737 859.917 316.696 859.637 316.496Z" fill="#C3205C"/>
<path d="M803.955 343.152C803.784 343.144 803.614 343.088 803.465 342.984C803.032 342.686 802.924 342.093 803.223 341.661L806.759 336.553C807.056 336.122 807.649 336.014 808.082 336.312C808.512 336.611 808.62 337.204 808.321 337.635L804.787 342.744C804.591 343.025 804.272 343.169 803.955 343.152Z" fill="#C3205C"/>
<path d="M832.008 341.897C831.803 341.886 831.6 341.809 831.434 341.664L826.753 337.58C826.357 337.234 826.315 336.634 826.66 336.238C827.006 335.843 827.607 335.802 828.002 336.147L832.685 340.231C833.081 340.575 833.12 341.177 832.774 341.571C832.575 341.801 832.291 341.911 832.008 341.897Z" fill="#C3205C"/>
<path d="M813.996 351.19C813.876 351.104 813.774 350.988 813.703 350.847C813.464 350.378 813.65 349.807 814.12 349.568L819.658 346.758C820.127 346.518 820.699 346.706 820.935 347.174C821.175 347.641 820.989 348.214 820.519 348.453L814.981 351.265C814.653 351.431 814.276 351.389 813.996 351.19Z" fill="#C3205C"/>
<path d="M899.748 335.149C899.543 335.138 899.34 335.061 899.174 334.916L894.493 330.832C894.097 330.486 894.055 329.886 894.401 329.49C894.747 329.094 895.347 329.054 895.741 329.399L900.425 333.483C900.821 333.827 900.86 334.428 900.515 334.823C900.316 335.053 900.031 335.163 899.748 335.149Z" fill="#C3205C"/>
<path d="M898.664 355.791C898.457 355.78 898.255 355.703 898.088 355.558L893.407 351.474C893.011 351.13 892.971 350.53 893.315 350.132C893.66 349.737 894.263 349.698 894.657 350.042L899.339 354.125C899.735 354.471 899.776 355.072 899.43 355.467C899.23 355.696 898.945 355.807 898.664 355.791Z" fill="#C3205C"/>
<path d="M827.232 362.44C827.027 362.429 826.823 362.353 826.658 362.207L821.977 358.124C821.581 357.78 821.539 357.178 821.884 356.782C822.23 356.386 822.831 356.346 823.225 356.691L827.907 360.775C828.303 361.12 828.344 361.721 827.998 362.115C827.798 362.345 827.513 362.456 827.232 362.44Z" fill="#C3205C"/>
<path d="M911.95 348.83C911.781 348.821 911.61 348.766 911.46 348.663C911.029 348.362 910.921 347.771 911.219 347.339L914.754 342.23C915.053 341.798 915.646 341.692 916.077 341.989C916.509 342.289 916.617 342.88 916.318 343.314L912.782 348.422C912.588 348.702 912.269 348.846 911.95 348.83Z" fill="#C3205C"/>
<path d="M863.414 336.838C863.245 336.829 863.075 336.774 862.926 336.671C862.493 336.372 862.385 335.779 862.684 335.348L866.218 330.24C866.517 329.808 867.11 329.7 867.543 329.999C867.973 330.298 868.081 330.89 867.782 331.322L864.248 336.43C864.052 336.712 863.733 336.856 863.414 336.838Z" fill="#C3205C"/>
<path d="M847.466 352.638C847.297 352.63 847.127 352.574 846.976 352.47C846.545 352.172 846.437 351.579 846.736 351.147L850.27 346.039C850.569 345.608 851.162 345.5 851.593 345.798C852.025 346.097 852.133 346.69 851.834 347.122L848.3 352.23C848.104 352.511 847.785 352.655 847.466 352.638Z" fill="#C3205C"/>
<path d="M819.831 328.914C819.662 328.906 819.49 328.85 819.342 328.747C818.909 328.448 818.802 327.855 819.099 327.424L822.636 322.316C822.934 321.884 823.525 321.776 823.959 322.075C824.39 322.374 824.497 322.966 824.2 323.398L820.663 328.506C820.469 328.788 820.149 328.931 819.831 328.914Z" fill="#C3205C"/>
<path d="M849.693 332.803C849.743 332.966 849.75 333.144 849.705 333.321C849.575 333.829 849.056 334.136 848.548 334.006L842.531 332.459C842.023 332.328 841.716 331.81 841.846 331.302C841.977 330.792 842.495 330.487 843.005 330.617L849.02 332.164C849.352 332.25 849.597 332.498 849.693 332.803Z" fill="#C3205C"/>
<path d="M885.072 340.12C884.866 340.109 884.663 340.032 884.497 339.887L879.816 335.803C879.42 335.457 879.378 334.857 879.723 334.461C880.069 334.065 880.671 334.025 881.065 334.37L885.748 338.454C886.144 338.798 886.184 339.4 885.839 339.794C885.638 340.024 885.354 340.134 885.072 340.12Z" fill="#C3205C"/>
<path d="M865.73 354.143C865.609 354.057 865.506 353.941 865.436 353.801C865.196 353.332 865.384 352.761 865.852 352.521L871.391 349.711C871.861 349.472 872.431 349.659 872.669 350.127C872.907 350.595 872.721 351.168 872.253 351.406L866.713 354.218C866.387 354.384 866.008 354.342 865.73 354.143Z" fill="#C3205C"/>
<path d="M803.955 381.297C803.784 381.287 803.614 381.233 803.465 381.129C803.032 380.831 802.924 380.238 803.223 379.806L806.759 374.697C807.056 374.265 807.649 374.159 808.082 374.456C808.512 374.756 808.62 375.347 808.321 375.781L804.787 380.889C804.591 381.169 804.272 381.314 803.955 381.297Z" fill="#C3205C"/>
<path d="M832.008 380.042C831.803 380.031 831.6 379.954 831.434 379.809L826.753 375.725C826.357 375.381 826.315 374.779 826.66 374.383C827.006 373.988 827.607 373.947 828.002 374.293L832.685 378.376C833.081 378.722 833.12 379.322 832.774 379.716C832.575 379.946 832.291 380.056 832.008 380.042Z" fill="#C3205C"/>
<path d="M813.996 389.334C813.876 389.248 813.774 389.134 813.703 388.992C813.464 388.524 813.65 387.952 814.12 387.714L819.658 384.902C820.127 384.664 820.699 384.85 820.935 385.318C821.175 385.787 820.989 386.36 820.519 386.597L814.981 389.41C814.653 389.575 814.276 389.535 813.996 389.334Z" fill="#C3205C"/>
<path d="M899.748 373.294C899.543 373.283 899.34 373.206 899.174 373.061L894.493 368.977C894.097 368.631 894.055 368.031 894.401 367.635C894.747 367.24 895.347 367.199 895.741 367.544L900.425 371.628C900.821 371.972 900.86 372.574 900.515 372.968C900.316 373.198 900.031 373.308 899.748 373.294Z" fill="#C3205C"/>
<path d="M898.664 393.936C898.457 393.925 898.255 393.848 898.088 393.704L893.407 389.621C893.011 389.275 892.971 388.674 893.315 388.279C893.66 387.883 894.263 387.842 894.657 388.187L899.339 392.27C899.735 392.616 899.776 393.216 899.43 393.612C899.23 393.84 898.945 393.951 898.664 393.936Z" fill="#C3205C"/>
<path d="M911.95 386.975C911.781 386.965 911.61 386.911 911.46 386.807C911.029 386.509 910.921 385.916 911.219 385.484L914.754 380.376C915.053 379.943 915.646 379.837 916.077 380.135C916.509 380.434 916.617 381.025 916.318 381.458L912.782 386.566C912.588 386.848 912.269 386.992 911.95 386.975Z" fill="#C3205C"/>
<path d="M863.414 374.982C863.245 374.975 863.075 374.918 862.926 374.815C862.493 374.516 862.385 373.924 862.684 373.492L866.218 368.384C866.517 367.952 867.11 367.844 867.543 368.143C867.973 368.442 868.081 369.034 867.782 369.466L864.248 374.574C864.052 374.856 863.733 375 863.414 374.982Z" fill="#C3205C"/>
<path d="M847.466 390.783C847.297 390.773 847.127 390.719 846.976 390.615C846.545 390.317 846.437 389.724 846.736 389.292L850.27 384.184C850.569 383.751 851.162 383.645 851.593 383.942C852.025 384.242 852.133 384.833 851.834 385.267L848.3 390.375C848.104 390.655 847.785 390.8 847.466 390.783Z" fill="#C3205C"/>
<path d="M849.693 370.948C849.743 371.11 849.75 371.289 849.705 371.465C849.575 371.974 849.056 372.282 848.548 372.15L842.531 370.604C842.023 370.472 841.716 369.955 841.846 369.446C841.977 368.938 842.495 368.631 843.005 368.763L849.02 370.308C849.352 370.394 849.597 370.643 849.693 370.948Z" fill="#C3205C"/>
<path d="M885.072 378.264C884.866 378.253 884.663 378.176 884.497 378.031L879.816 373.947C879.42 373.603 879.378 373.001 879.723 372.605C880.069 372.209 880.671 372.169 881.065 372.514L885.748 376.598C886.144 376.942 886.184 377.544 885.839 377.938C885.638 378.168 885.354 378.278 885.072 378.264Z" fill="#C3205C"/>
<path d="M919.798 365.434C919.593 365.423 919.39 365.346 919.224 365.201L914.543 361.117C914.148 360.771 914.105 360.171 914.451 359.775C914.797 359.379 915.397 359.339 915.791 359.684L920.474 363.768C920.87 364.112 920.91 364.714 920.565 365.108C920.364 365.338 920.08 365.448 919.798 365.434Z" fill="#C3205C"/>
<path d="M865.73 392.288C865.609 392.202 865.506 392.088 865.436 391.945C865.196 391.478 865.384 390.905 865.852 390.667L871.391 387.855C871.861 387.618 872.431 387.804 872.669 388.271C872.907 388.741 872.721 389.313 872.253 389.551L866.713 392.363C866.387 392.529 866.008 392.488 865.73 392.288Z" fill="#C3205C"/>
<path d="M826.395 396.116C826.275 396.03 826.172 395.914 826.103 395.774C825.864 395.304 826.05 394.732 826.519 394.496L832.057 391.684C832.526 391.446 833.097 391.632 833.335 392.1C833.574 392.567 833.388 393.141 832.919 393.379L827.379 396.191C827.052 396.357 826.675 396.316 826.395 396.116Z" fill="#C3205C"/>
<path d="M803.955 419.441C803.784 419.433 803.614 419.378 803.465 419.275C803.032 418.975 802.924 418.382 803.223 417.952L806.759 412.842C807.056 412.411 807.649 412.304 808.082 412.601C808.512 412.9 808.62 413.493 808.321 413.926L804.787 419.033C804.591 419.314 804.272 419.458 803.955 419.441Z" fill="#C3205C"/>
<path d="M832.008 418.186C831.803 418.176 831.6 418.099 831.434 417.955L826.753 413.87C826.357 413.526 826.315 412.925 826.66 412.529C827.006 412.134 827.607 412.093 828.002 412.437L832.685 416.521C833.081 416.865 833.12 417.467 832.774 417.863C832.575 418.091 832.291 418.202 832.008 418.186Z" fill="#C3205C"/>
<path d="M813.996 427.479C813.876 427.393 813.774 427.277 813.703 427.136C813.464 426.667 813.65 426.096 814.12 425.858L819.658 423.046C820.127 422.808 820.699 422.995 820.935 423.464C821.175 423.93 820.989 424.504 820.519 424.742L814.981 427.554C814.653 427.719 814.276 427.679 813.996 427.479Z" fill="#C3205C"/>
<path d="M899.748 411.439C899.543 411.428 899.34 411.352 899.174 411.208L894.493 407.123C894.097 406.779 894.055 406.178 894.401 405.782C894.747 405.385 895.347 405.346 895.741 405.69L900.425 409.774C900.821 410.118 900.86 410.72 900.515 411.116C900.316 411.344 900.031 411.455 899.748 411.439Z" fill="#C3205C"/>
<path d="M916.507 403.156C916.302 403.145 916.099 403.068 915.933 402.924L911.252 398.839C910.856 398.495 910.814 397.894 911.16 397.499C911.505 397.102 912.106 397.062 912.5 397.407L917.183 401.49C917.578 401.834 917.619 402.436 917.273 402.832C917.073 403.06 916.789 403.171 916.507 403.156Z" fill="#C3205C"/>
<path d="M898.664 432.081C898.457 432.07 898.255 431.993 898.088 431.85L893.407 427.764C893.011 427.42 892.971 426.82 893.315 426.424C893.66 426.028 894.263 425.988 894.657 426.332L899.339 430.415C899.735 430.759 899.776 431.362 899.43 431.757C899.23 431.986 898.945 432.097 898.664 432.081Z" fill="#C3205C"/>
<path d="M911.95 425.12C911.781 425.11 911.61 425.056 911.46 424.952C911.029 424.654 910.921 424.061 911.219 423.629L914.754 418.521C915.053 418.089 915.646 417.982 916.077 418.28C916.509 418.579 916.617 419.17 916.318 419.603L912.782 424.711C912.588 424.993 912.269 425.137 911.95 425.12Z" fill="#C3205C"/>
<path d="M863.414 413.128C863.245 413.119 863.075 413.064 862.926 412.961C862.493 412.662 862.385 412.069 862.684 411.638L866.218 406.53C866.517 406.098 867.11 405.99 867.543 406.289C867.973 406.586 868.081 407.179 867.782 407.612L864.248 412.718C864.052 413.002 863.733 413.145 863.414 413.128Z" fill="#C3205C"/>
<path d="M847.466 428.928C847.297 428.919 847.127 428.864 846.976 428.761C846.545 428.46 846.437 427.868 846.736 427.437L850.27 422.328C850.569 421.896 851.162 421.79 851.593 422.087C852.025 422.386 852.133 422.979 851.834 423.412L848.3 428.518C848.104 428.8 847.785 428.944 847.466 428.928Z" fill="#C3205C"/>
<path d="M849.693 409.093C849.743 409.255 849.75 409.434 849.705 409.61C849.575 410.119 849.056 410.427 848.548 410.295L842.531 408.749C842.023 408.617 841.716 408.1 841.846 407.591C841.977 407.083 842.495 406.776 843.005 406.908L849.02 408.453C849.352 408.539 849.597 408.789 849.693 409.093Z" fill="#C3205C"/>
<path d="M885.072 416.408C884.866 416.397 884.663 416.321 884.497 416.177L879.816 412.092C879.42 411.748 879.378 411.147 879.723 410.751C880.069 410.356 880.671 410.315 881.065 410.659L885.748 414.743C886.144 415.087 886.184 415.689 885.839 416.085C885.638 416.313 885.354 416.424 885.072 416.408Z" fill="#C3205C"/>
<path d="M835.729 438.067C835.524 438.056 835.32 437.977 835.155 437.834L830.474 433.75C830.078 433.406 830.036 432.804 830.381 432.408C830.727 432.012 831.328 431.972 831.723 432.316L836.406 436.401C836.802 436.745 836.842 437.346 836.497 437.741C836.296 437.97 836.012 438.081 835.729 438.067Z" fill="#C3205C"/>
<path d="M865.73 430.433C865.609 430.347 865.506 430.231 865.436 430.089C865.196 429.621 865.384 429.049 865.852 428.812L871.391 425.999C871.861 425.763 872.431 425.949 872.669 426.416C872.907 426.884 872.721 427.458 872.253 427.694L866.713 430.508C866.387 430.674 866.008 430.633 865.73 430.433Z" fill="#C3205C"/>
<path d="M859.449 262.38V262.396L859.336 262.383L859.449 262.38Z" fill="#5D46C1"/>
<path d="M784.979 450.579C784.979 450.579 770.293 512.967 767.574 558.17C764.854 603.371 767.574 662.588 767.574 662.588H948.444C948.444 662.588 947.499 583.283 943.234 538.078C938.966 492.876 928.536 447.255 928.536 447.255L784.979 450.579Z" fill="#3F2037"/>
<path d="M881.418 564.655C882.673 564.655 887.903 562.353 887.903 562.353L871.372 502.502L788.291 531.808L803.15 585.373L881.418 564.655Z" fill="#ECCAB3"/>
<path d="M859.34 262.384H859.226V262.367L859.34 262.384Z" fill="#5D46C1"/>
<path d="M876.114 269.375C876.114 269.375 870.871 278.054 857.532 277.353C844.646 276.674 839.712 267.015 839.712 267.015L840.838 260.634L841.027 259.561L842.798 249.512L874.636 252.077L874.966 255.953L875.076 257.221L876.114 269.375Z" fill="#FD8781"/>
<path d="M887.889 283.847C879.417 293.646 862.496 287.243 857.294 279.477C851.309 286.654 833.809 291.246 826.408 280.614C819.283 270.378 840.437 262.896 840.437 262.896C842.053 272.533 853.511 276.198 857.418 277.142C861.406 276.61 873.105 274.166 875.718 264.751C875.718 264.751 896.048 274.415 887.889 283.847Z" fill="#F4EEFE"/>
<path d="M874.966 255.952C867.421 261.695 855.613 263.411 840.839 260.633L841.028 259.56L842.799 249.511L874.636 252.076L874.966 255.952Z" fill="#3F2037"/>
<path d="M832.208 222.559C824.552 232.14 809.547 224.604 811.288 211.445C812.869 199.508 826.157 202.113 826.157 202.113L832.208 222.559Z" fill="#F35B5D"/>
<path d="M824.53 227.342C824.402 229.79 822.314 231.668 819.868 231.54C817.42 231.412 815.54 229.324 815.67 226.876C815.798 224.43 817.886 222.55 820.332 222.68C822.78 222.808 824.658 224.896 824.53 227.342Z" fill="#FFAB33"/>
<path d="M825.628 222.467C825.202 222.446 824.826 222.134 824.743 221.693C823.65 215.949 818.038 210.345 817.982 210.287C817.608 209.918 817.604 209.314 817.974 208.94C818.345 208.565 818.949 208.562 819.322 208.933C819.57 209.177 825.41 215.004 826.615 221.337C826.712 221.854 826.375 222.353 825.857 222.452C825.78 222.467 825.704 222.471 825.628 222.467Z" fill="#CF373F"/>
<path d="M823.457 216.95C823.357 216.945 823.256 216.922 823.159 216.884C820.597 215.876 818.077 216.273 818.052 216.278C817.533 216.364 817.042 216.012 816.956 215.494C816.87 214.976 817.217 214.485 817.736 214.398C817.858 214.376 820.785 213.9 823.856 215.111C824.346 215.303 824.588 215.857 824.394 216.346C824.239 216.737 823.856 216.97 823.457 216.95Z" fill="#CF373F"/>
<path d="M885.017 225.336C891.627 235.666 907.339 229.747 906.987 216.478C906.668 204.441 893.18 205.638 893.18 205.638L885.017 225.336Z" fill="#F35B5D"/>
<path d="M901.409 231.384C901.281 233.832 899.193 235.71 896.747 235.582C894.299 235.454 892.419 233.366 892.549 230.918C892.678 228.472 894.765 226.592 897.212 226.722C899.659 226.85 901.538 228.938 901.409 231.384Z" fill="#FFAB33"/>
<path d="M891.569 225.934C891.494 225.931 891.418 225.917 891.343 225.895C890.839 225.742 890.554 225.212 890.706 224.707C892.569 218.535 898.987 213.352 899.26 213.134C899.672 212.806 900.27 212.873 900.598 213.285C900.927 213.694 900.861 214.295 900.451 214.623C900.389 214.673 894.22 219.659 892.531 225.257C892.401 225.686 891.996 225.958 891.569 225.934Z" fill="#CF373F"/>
<path d="M894.308 220.675C893.909 220.655 893.553 220.383 893.439 219.978C893.298 219.471 893.597 218.945 894.103 218.805C897.285 217.922 900.145 218.704 900.267 218.737C900.774 218.88 901.068 219.405 900.926 219.913C900.785 220.419 900.261 220.714 899.753 220.573C899.729 220.567 897.267 219.907 894.612 220.642C894.512 220.67 894.407 220.68 894.308 220.675Z" fill="#CF373F"/>
<path d="M824.08 187.409C824.08 187.409 819.462 208.826 827.379 230.428C834.554 250.006 845.127 256.547 856.699 257.337C869.862 258.236 897.85 252.068 896.77 189.331C896.04 146.94 829.809 144.954 824.08 187.409Z" fill="#FD8781"/>
<path d="M821.69 196.857C821.69 196.857 821.676 210.273 827.256 210.062C832.833 209.851 831.721 179.569 831.721 179.569C831.721 179.569 836.284 187.126 845.353 186.807C854.423 186.49 846.852 174.32 846.852 174.32C846.852 174.32 854.573 186.338 862.221 186.263C869.867 186.188 862.995 171.511 862.995 171.511C862.995 171.511 872.099 188.215 879.286 188.115C886.474 188.016 881.117 174.212 881.117 174.212C881.117 174.212 886.033 189.427 891.416 190.82C891.416 190.82 888.892 212.718 894.76 212.099C900.628 211.481 899.766 186.806 897.766 179.225C895.764 171.643 883.929 152.251 859.123 153.333C834.316 154.415 823.675 167.534 821.69 196.857Z" fill="#5A184A"/>
<path d="M835.808 198.997C835.808 198.997 841.224 192.242 849.968 191.79C851.39 191.715 852.578 192.865 852.588 194.289L852.589 194.311C852.6 195.753 851.404 196.904 849.963 196.848C846.695 196.721 840.936 196.886 835.808 198.997Z" fill="#5A184A"/>
<path d="M884.597 201.562C884.597 201.562 879.919 194.275 871.27 192.909C869.864 192.686 868.561 193.706 868.402 195.12L868.399 195.144C868.236 196.575 869.307 197.846 870.745 197.942C874.007 198.159 879.717 198.924 884.597 201.562Z" fill="#5A184A"/>
<path d="M858.924 246.208C856.211 246.066 854.118 245.005 853.979 244.933C853.588 244.731 853.436 244.253 853.638 243.862C853.84 243.472 854.318 243.319 854.708 243.522C854.775 243.557 859.547 245.947 863.597 243.574C863.976 243.352 864.462 243.48 864.684 243.859C864.906 244.237 864.778 244.724 864.4 244.944C862.548 246.03 860.615 246.297 858.924 246.208Z" fill="#F35B5D"/>
<path d="M862.796 226.143C862.776 226.141 862.756 226.14 862.734 226.137L856.96 225.364C856.523 225.306 856.218 224.907 856.276 224.472C856.334 224.038 856.734 223.737 857.168 223.791L861.997 224.437L861.261 209.613C861.239 209.175 861.576 208.803 862.014 208.779C862.452 208.757 862.825 209.095 862.846 209.533L863.632 225.311C863.644 225.545 863.549 225.775 863.377 225.933C863.22 226.079 863.011 226.154 862.796 226.143Z" fill="#F35B5D"/>
<path d="M847.21 231.665C854.283 233.151 861.529 234.017 871.344 232.594C871.344 232.594 869.957 242.935 858.416 242.375C848.604 241.898 847.21 231.665 847.21 231.665Z" fill="#F4EEFE"/>
<path d="M847.836 208.825C847.692 211.577 846.324 213.741 844.783 213.66C843.241 213.578 842.109 211.283 842.253 208.533C842.396 205.782 843.763 203.617 845.307 203.699C846.848 203.778 847.981 206.074 847.836 208.825Z" fill="#3F2037"/>
<path d="M877.536 210.387C877.391 213.138 876.024 215.301 874.481 215.22C872.941 215.14 871.807 212.844 871.953 210.093C872.095 207.343 873.463 205.179 875.005 205.26C876.548 205.34 877.68 207.636 877.536 210.387Z" fill="#3F2037"/>
<path d="M837.094 218.501C837.069 218.974 836.667 219.338 836.193 219.313C835.72 219.288 835.357 218.885 835.381 218.411C835.406 217.938 835.811 217.576 836.282 217.601C836.756 217.624 837.12 218.029 837.094 218.501Z" fill="#F35B5D"/>
<path d="M841.168 220.789C841.141 221.262 840.739 221.626 840.265 221.601C839.793 221.575 839.43 221.173 839.454 220.699C839.48 220.226 839.884 219.864 840.355 219.887C840.828 219.912 841.193 220.316 841.168 220.789Z" fill="#F35B5D"/>
<path d="M836.831 223.548C836.804 224.02 836.402 224.384 835.93 224.359C835.456 224.334 835.093 223.931 835.117 223.457C835.143 222.985 835.547 222.622 836.019 222.645C836.491 222.67 836.856 223.074 836.831 223.548Z" fill="#F35B5D"/>
<path d="M843.357 224.749C843.332 225.221 842.929 225.586 842.456 225.561C841.983 225.534 841.62 225.132 841.643 224.658C841.67 224.186 842.073 223.823 842.546 223.846C843.018 223.872 843.382 224.275 843.357 224.749Z" fill="#F35B5D"/>
<path d="M847.784 224.123C847.757 224.596 847.355 224.96 846.881 224.935C846.409 224.91 846.046 224.507 846.069 224.033C846.096 223.56 846.5 223.197 846.97 223.221C847.444 223.246 847.809 223.651 847.784 224.123Z" fill="#F35B5D"/>
<path d="M846.013 219.831C845.986 220.303 845.584 220.668 845.11 220.643C844.638 220.616 844.275 220.214 844.298 219.74C844.323 219.268 844.729 218.905 845.199 218.928C845.673 218.953 846.038 219.357 846.013 219.831Z" fill="#F35B5D"/>
<path d="M883.293 220.932C883.268 221.404 883.632 221.809 884.105 221.833C884.577 221.858 884.981 221.495 885.006 221.023C885.031 220.549 884.668 220.145 884.194 220.12C883.721 220.095 883.318 220.46 883.293 220.932Z" fill="#F35B5D"/>
<path d="M879.003 222.779C878.978 223.251 879.342 223.656 879.816 223.68C880.287 223.705 880.692 223.342 880.717 222.87C880.74 222.396 880.377 221.992 879.905 221.967C879.431 221.942 879.029 222.305 879.003 222.779Z" fill="#F35B5D"/>
<path d="M883.027 225.976C883.002 226.449 883.366 226.853 883.84 226.878C884.311 226.901 884.714 226.539 884.741 226.066C884.764 225.592 884.401 225.189 883.929 225.164C883.455 225.139 883.053 225.503 883.027 225.976Z" fill="#F35B5D"/>
<path d="M876.409 226.487C876.384 226.961 876.749 227.364 877.221 227.388C877.693 227.413 878.097 227.05 878.123 226.578C878.147 226.104 877.784 225.7 877.31 225.675C876.838 225.65 876.436 226.014 876.409 226.487Z" fill="#F35B5D"/>
<path d="M872.074 225.4C872.049 225.874 872.413 226.277 872.887 226.302C873.358 226.326 873.763 225.963 873.788 225.49C873.811 225.016 873.448 224.613 872.976 224.588C872.502 224.563 872.1 224.927 872.074 225.4Z" fill="#F35B5D"/>
<path d="M874.287 221.316C874.262 221.79 874.624 222.194 875.098 222.219C875.571 222.242 875.974 221.879 875.999 221.407C876.024 220.933 875.661 220.53 875.187 220.505C874.714 220.48 874.312 220.844 874.287 221.316Z" fill="#F35B5D"/>
<path d="M844.472 198.229C837.46 197.86 831.455 203.265 831.085 210.278C830.716 217.291 836.122 223.295 843.136 223.664C850.147 224.033 856.153 218.628 856.521 211.615C856.89 204.602 851.485 198.596 844.472 198.229ZM843.069 224.934C835.355 224.527 829.41 217.923 829.817 210.21C830.222 202.498 836.825 196.554 844.539 196.959C852.253 197.365 858.196 203.969 857.791 211.682C857.386 219.394 850.781 225.339 843.069 224.934Z" fill="#F4EEFE"/>
<path d="M878.146 199.999C871.133 199.63 865.129 205.035 864.758 212.048C864.391 219.061 869.796 225.065 876.809 225.434C883.822 225.803 889.826 220.398 890.195 213.385C890.563 206.372 885.157 200.368 878.146 199.999ZM876.743 226.704C869.029 226.297 863.085 219.694 863.49 211.982C863.896 204.269 870.5 198.324 878.212 198.729C885.925 199.136 891.869 205.739 891.465 213.452C891.058 221.164 884.454 227.109 876.743 226.704Z" fill="#F4EEFE"/>
<path d="M890.243 209.475C890.09 209.467 889.941 209.405 889.824 209.287C889.579 209.039 889.58 208.635 889.829 208.39C890.013 208.208 894.382 203.97 900.522 205.315C900.864 205.39 901.082 205.728 901.007 206.07C900.932 206.413 900.592 206.63 900.25 206.555C894.776 205.359 890.764 209.253 890.725 209.292C890.592 209.423 890.415 209.484 890.243 209.475Z" fill="#F4EEFE"/>
<path d="M831.562 206.129C831.397 206.121 831.235 206.048 831.117 205.913C831.049 205.837 826.316 200.572 820.038 202.314C819.7 202.407 819.348 202.21 819.256 201.87C819.161 201.534 819.359 201.182 819.697 201.088C826.773 199.126 831.86 204.833 832.073 205.077C832.305 205.341 832.278 205.741 832.012 205.973C831.884 206.087 831.721 206.137 831.562 206.129Z" fill="#F4EEFE"/>
<path d="M857.226 210.367C857.212 210.367 857.197 210.365 857.185 210.364C856.836 210.323 856.588 210.007 856.627 209.658C856.758 208.549 857.822 206.497 860.912 206.66C864.004 206.823 864.847 208.975 864.863 210.09C864.867 210.442 864.586 210.73 864.234 210.734C863.882 210.737 863.596 210.458 863.591 210.106C863.585 209.902 863.453 208.066 860.846 207.929C858.159 207.788 857.9 209.724 857.89 209.807C857.85 210.14 857.557 210.384 857.226 210.367Z" fill="#F4EEFE"/>
<path d="M808.173 588.28L886.86 569.235L868.234 508.991L793.315 534.078L808.173 588.28Z" fill="#FDE7D4"/>
<path d="M767.574 374.428L785.308 453.961L814.658 540.171L841.19 531.809L814.946 431.972L802.396 365.404L767.574 374.428Z" fill="#FD8781"/>
<path d="M781.322 278.747C781.322 278.747 794.1 295.228 802.263 325.411C805.766 338.373 806.95 350.979 807.159 361.145C807.421 373.959 782.282 377.776 782.282 377.776C768.25 379.783 754.78 375.376 753.033 361.307C751.797 351.368 751.228 339.25 752.717 326.349C756.483 293.702 781.322 278.747 781.322 278.747Z" fill="#DD3C3A"/>
<path d="M841.192 531.809L813.662 535.525L816.725 573.158L819.424 585.302C819.845 587.193 821.69 588.409 823.595 588.047C825.399 587.703 826.651 586.053 826.497 584.222L825.481 572.229L826.725 572.098L829.756 585.295C830.2 587.226 832.036 588.502 833.997 588.246C836.082 587.974 837.562 586.078 837.318 583.992L836.046 573.047L838.86 585.295C839.303 587.226 841.139 588.502 843.103 588.246C845.186 587.974 846.664 586.078 846.423 583.992L844.816 570.175L844.905 570.166L847.601 583.116C847.972 584.894 849.719 586.03 851.496 585.647C853 585.321 854.073 583.989 854.073 582.45V569.192L841.192 531.809Z" fill="#FD8781"/>
<path d="M924.431 281.394C924.431 281.394 918.899 339.85 929.804 368.731C929.804 368.731 950.685 360.57 958.638 354.106C966.591 347.641 969.94 338.851 965.334 323.366C960.731 307.881 939.609 281.277 924.431 281.394Z" fill="#DD3C3A"/>
<path d="M716.824 238.538C720.356 239.574 726.085 242.685 730.769 245.431L737.829 231.868L737.818 231.862C738.178 231.108 738.981 229.567 740.05 227.601L740.051 227.598C743.623 221.015 750.167 209.608 753.083 206.454C756.867 202.36 758.983 206.426 757.412 209.256C756.2 211.437 750.026 226.216 747.269 232.856L747.527 233.046C750.715 227.034 758.347 213.513 761.561 210.034C765.344 205.94 767.463 210.006 765.892 212.836C764.533 215.279 756.958 233.509 754.919 238.43L755.117 238.574C758.608 232.103 765.46 220.104 768.46 216.857C772.245 212.762 774.361 216.829 772.789 219.658C771.752 221.525 767.082 232.616 764.027 239.94C767.657 234.599 772.021 228.527 774.187 226.532C777.947 223.067 779.583 226.938 777.938 229.409C776.812 231.1 771.383 241.579 768.073 248.015L757.76 269.731L757.739 289.046L729.228 283.414L732.494 270.122L725.972 256.107C722.574 252.267 717.871 247.084 715.518 245.077C711.59 241.723 710.047 236.552 716.824 238.538Z" fill="#FEB7A0"/>
<path d="M761.754 246.894C761.645 246.878 761.535 246.836 761.44 246.764L741.928 232.453C741.613 232.222 741.544 231.779 741.776 231.466C742.006 231.152 742.447 231.082 742.761 231.315L762.275 245.627C762.59 245.857 762.657 246.299 762.427 246.612C762.266 246.831 762.005 246.93 761.754 246.894Z" fill="#FE8989"/>
<path d="M739.802 257.093C739.495 257.049 739.244 256.802 739.205 256.477C738.512 250.607 733.343 247.021 733.29 246.985C732.969 246.764 732.884 246.326 733.105 246.004C733.322 245.682 733.762 245.597 734.084 245.818C734.319 245.976 739.836 249.789 740.606 256.312C740.653 256.7 740.374 257.051 739.987 257.096C739.926 257.104 739.863 257.102 739.802 257.093Z" fill="#FE8989"/>
<path d="M685.786 311.94L502.043 310.687C502.043 310.687 504.048 287.778 515.169 283.414C519.666 281.653 529.973 276.611 540.666 271.226C544.637 269.227 548.659 267.183 552.455 265.241C552.856 265.034 553.256 264.829 553.648 264.629C556.759 263.032 559.7 261.523 562.301 260.178C568.029 257.22 572.13 255.078 572.909 254.671C573 254.626 573.044 254.602 573.044 254.602L574.445 254.926C576.2 255.334 577.961 255.685 579.727 255.974C581.477 256.27 583.228 256.51 584.985 256.693C594.678 257.713 604.496 257.114 614.033 254.892C614.047 254.888 614.064 254.885 614.08 254.882C614.08 254.882 618.381 257.134 624.699 260.409C627.325 261.773 630.305 263.317 633.469 264.945C633.869 265.15 634.27 265.356 634.673 265.563C636.221 266.357 637.806 267.171 639.412 267.992C641.118 268.868 642.851 269.757 644.586 270.636C656.391 276.647 668.215 282.523 673.036 284.492C684.094 289.006 685.786 311.94 685.786 311.94Z" fill="#FE4F4E"/>
<path d="M634.674 265.563C634.031 267.396 633.294 269.27 632.448 271.139C629.106 278.52 624.75 284.394 619.497 288.599C612.911 293.872 604.911 296.513 595.713 296.449C576.499 296.319 564.718 284.979 558.216 275.492C555.786 271.946 553.895 268.383 552.456 265.24C552.856 265.035 553.255 264.83 553.649 264.628C555.065 267.733 556.935 271.258 559.342 274.769C568.535 288.165 580.777 295.009 595.722 295.11C611.868 295.22 623.813 286.968 631.227 270.588C632.084 268.696 632.827 266.8 633.468 264.946C633.868 265.149 634.269 265.357 634.674 265.563Z" fill="#C22C31"/>
<path d="M624.7 260.409C622.32 270.35 613.451 285.438 594.093 285.305C572.841 285.161 564.974 267.91 562.302 260.178C568.03 257.221 572.13 255.078 572.909 254.673C572.999 254.626 573.043 254.602 573.043 254.602L574.444 254.928C576.199 255.334 577.962 255.685 579.728 255.974C581.476 256.271 583.229 256.51 584.986 256.693C594.679 257.713 604.497 257.114 614.034 254.893C614.046 254.889 614.064 254.885 614.081 254.882C614.081 254.882 618.382 257.136 624.7 260.409Z" fill="#FEF6F0"/>
<path d="M614.983 259.568C614.983 259.568 611.301 270.871 594.743 270.757C575.431 270.626 570.954 260.297 570.954 260.297C572.662 255.86 573.845 251.75 574.647 248.073H574.652C576.13 241.338 576.366 236.042 576.302 232.792L610.24 231.68C610.534 234.555 611.021 237.941 611.575 241.349C613.048 250.395 614.983 259.568 614.983 259.568Z" fill="#FEB7A0"/>
<path d="M611.576 241.349C606.293 244.968 594.765 250.332 574.654 248.074C576.13 241.339 576.368 236.042 576.302 232.792L610.241 231.68C610.536 234.555 611.023 237.941 611.576 241.349Z" fill="#3F2037"/>
<path d="M563.652 188.456C563.652 188.456 553.249 174.092 545.024 182.494C536.799 190.899 552.348 220.466 566.686 214.146L563.652 188.456Z" fill="#FEB7A0"/>
<path d="M558.529 205.311C558.172 205.31 557.864 205.044 557.815 204.681C556.502 194.742 548.652 188.592 548.572 188.531C548.255 188.287 548.195 187.832 548.439 187.515C548.685 187.195 549.14 187.138 549.457 187.382C549.798 187.646 557.862 193.963 559.253 204.492C559.306 204.887 559.026 205.252 558.629 205.305C558.594 205.31 558.561 205.311 558.529 205.311Z" fill="#FE8989"/>
<path d="M556.378 198.164C556.147 198.163 555.918 198.048 555.779 197.84C554.736 196.275 551.586 196.095 550.463 196.158C550.06 196.183 549.722 195.873 549.698 195.472C549.676 195.072 549.983 194.731 550.383 194.709C550.582 194.697 555.274 194.467 556.986 197.036C557.209 197.37 557.118 197.82 556.785 198.042C556.66 198.127 556.517 198.164 556.378 198.164Z" fill="#FE8989"/>
<path d="M627.621 188.892C627.621 188.892 638.219 174.672 646.328 183.187C654.438 191.701 638.486 221.053 624.237 214.538L627.621 188.892Z" fill="#FEB7A0"/>
<path d="M632.512 205.816C632.479 205.816 632.446 205.813 632.414 205.808C632.016 205.75 631.741 205.383 631.799 204.986C633.332 194.477 641.482 188.271 641.827 188.013C642.148 187.771 642.601 187.836 642.842 188.157C643.083 188.479 643.018 188.933 642.698 189.174C642.617 189.233 634.68 195.295 633.235 205.195C633.183 205.558 632.87 205.818 632.512 205.816Z" fill="#FE8989"/>
<path d="M634.761 198.699C634.62 198.699 634.479 198.657 634.356 198.571C634.026 198.346 633.941 197.894 634.168 197.564C635.915 195.018 640.604 195.312 640.802 195.326C641.203 195.354 641.505 195.7 641.476 196.098C641.45 196.499 641.099 196.804 640.704 196.772C639.576 196.699 636.425 196.84 635.364 198.385C635.222 198.59 634.992 198.701 634.761 198.699Z" fill="#FE8989"/>
<path d="M602.644 144.399C572.717 144.182 554.026 159.562 557.124 195.182C558.973 216.442 569.722 242.803 594.926 243.568C621.195 244.366 631.935 215.83 635.834 194.152C639.403 174.309 629.449 152.221 610.336 145.812C609.011 145.368 604.324 144.412 602.644 144.399Z" fill="#FEB7A0"/>
<path d="M556.822 188.683C556.822 188.683 553.57 154.916 553.52 147.437C553.397 129.251 571.813 119.176 598.742 119.417C620.458 119.61 623.07 129.138 624.767 136.847C624.767 136.847 640.82 137.368 643.194 148.58C645.565 159.793 635.144 193.531 635.144 193.531C635.144 193.531 631.781 185.725 629.409 174.513C627.036 163.301 623.897 156.427 616.9 156.239C609.902 156.052 601.155 156.341 591.669 161.874C582.185 167.408 572.734 168.043 566.12 163.101C566.12 163.101 564.229 179.986 556.822 188.683Z" fill="#5A184A"/>
<mask id="mask1_8_102092" style="mask-type:luminance" maskUnits="userSpaceOnUse" x="561" y="198" width="22" height="10">
<path d="M561.848 198.273H582.785V207.467H561.848V198.273Z" fill="white"/>
</mask>
<g mask="url(#mask1_8_102092)">
<g opacity="0.5">
<path d="M582.786 202.942C582.768 205.481 578.067 207.506 572.285 207.469C566.503 207.428 561.831 205.338 561.848 202.8C561.866 200.26 566.565 198.235 572.347 198.274C578.13 198.313 582.803 200.402 582.786 202.942Z" fill="#FE8989"/>
</g>
</g>
<mask id="mask2_8_102092" style="mask-type:luminance" maskUnits="userSpaceOnUse" x="611" y="198" width="22" height="10">
<path d="M611.103 198.609H632.041V207.804H611.103V198.609Z" fill="white"/>
</mask>
<g mask="url(#mask2_8_102092)">
<g opacity="0.5">
<path d="M632.04 203.278C632.023 205.816 627.322 207.842 621.539 207.804C615.757 207.764 611.086 205.674 611.101 203.136C611.119 200.596 615.822 198.57 621.602 198.61C627.384 198.649 632.057 200.738 632.04 203.278Z" fill="#FE8989"/>
</g>
</g>
<path d="M636.072 189.223C636.072 189.223 635.731 205.648 630.698 226.281C622.626 259.351 595.736 254.755 595.736 254.755C595.736 254.755 569.309 258.987 561.689 225.81C556.936 205.112 556.822 188.682 556.822 188.682L561.17 181.532C561.17 181.532 563.987 210.09 574.879 215.109C574.879 215.109 579.783 207.76 596.008 214.77C612.327 207.98 617.657 215.401 617.657 215.401C628.613 210.531 631.824 182.013 631.824 182.013L636.072 189.223Z" fill="#5A184A"/>
<path d="M597.24 211.972C595.99 211.964 594.623 211.627 593.122 210.963C592.7 210.776 592.451 210.333 592.515 209.876L594.727 193.759C594.803 193.193 595.327 192.798 595.892 192.874C596.458 192.952 596.854 193.473 596.777 194.041L594.675 209.363C596.73 210.131 598.319 210.077 599.639 209.199C600.116 208.883 600.759 209.013 601.075 209.49C601.391 209.966 601.261 210.607 600.786 210.924C599.72 211.631 598.544 211.98 597.24 211.972Z" fill="#FE8989"/>
<path d="M595.236 224.49C589.305 224.449 584.823 221.97 584.746 221.926C584.249 221.645 584.075 221.013 584.357 220.516C584.64 220.02 585.27 219.845 585.767 220.126C586.268 220.408 597.685 226.662 607.666 217.554C608.089 217.169 608.744 217.197 609.129 217.619C609.515 218.042 609.484 218.697 609.063 219.082C604.434 223.306 599.466 224.52 595.236 224.49Z" fill="#734669"/>
<path d="M596.876 230.421C594.533 230.405 592.661 229.82 592.529 229.778C591.985 229.604 591.685 229.021 591.858 228.477C592.032 227.934 592.614 227.634 593.158 227.806C593.203 227.82 597.786 229.238 601.026 227.434C601.527 227.155 602.157 227.335 602.436 227.836C602.712 228.335 602.533 228.965 602.034 229.243C600.374 230.166 598.51 230.432 596.876 230.421Z" fill="#734669"/>
<path d="M575.329 184.277C577.566 183.095 580.83 181.639 583.997 181.198C585.698 180.961 586.778 179.26 586.21 177.638L586.096 177.311C585.684 176.14 584.529 175.398 583.295 175.522C580.47 175.803 575.461 176.756 572.176 179.986C571.465 180.686 571.213 181.731 571.505 182.685C572.001 184.298 573.839 185.064 575.329 184.277Z" fill="#3F2037"/>
<path d="M618.171 184.569C615.95 183.357 612.707 181.855 609.545 181.372C607.848 181.112 606.792 179.397 607.382 177.783L607.501 177.457C607.926 176.292 609.092 175.567 610.326 175.706C613.147 176.026 618.141 177.048 621.383 180.323C622.084 181.031 622.321 182.079 622.016 183.03C621.499 184.635 619.65 185.377 618.171 184.569Z" fill="#3F2037"/>
<path d="M583.591 192.24C583.621 195.044 582.571 197.329 581.246 197.343C579.922 197.358 578.824 195.096 578.794 192.29C578.764 189.486 579.814 187.201 581.139 187.187C582.463 187.173 583.561 189.436 583.591 192.24Z" fill="#3F2037"/>
<path d="M608.656 192.41C608.587 195.215 609.605 197.514 610.93 197.546C612.255 197.578 613.382 195.33 613.45 192.526C613.518 189.722 612.5 187.423 611.176 187.391C609.852 187.359 608.723 189.606 608.656 192.41Z" fill="#3F2037"/>
<path d="M502.043 310.686L510.387 394.847L515.858 520.291H671.555L676.577 390.106L685.786 311.939C685.786 311.939 524.223 297.588 502.043 310.686Z" fill="#FE4F4E"/>
<path d="M515.858 520.291L507.991 662.587H591.809L597.186 571.563L607.216 570.307L614.983 662.587H691.226L672.289 501.292L514.815 496.361L515.858 520.291Z" fill="#3F2037"/>
<path d="M551.046 545.746L551.265 545.865L551.302 545.914L551.046 545.746ZM562.441 550.011L558.16 540.454C557.363 538.672 555.982 537.213 554.246 536.32L543.115 530.585L532.695 523.478L521.896 515.575L516.101 508.991L499.086 531.19L500.428 532.432L503.458 538.226C506.487 544.021 513.203 550.211 513.203 550.211L520.729 555.731L526.56 560.488L531.003 566.089C532.326 567.758 534.705 568.143 536.488 566.977C537.246 566.483 537.528 565.507 537.148 564.683L532.673 554.982L536.383 557.719L541.549 564.427C542.75 565.987 544.957 566.347 546.59 565.248C547.692 564.505 548.102 563.077 547.559 561.865L543.33 552.423L545.734 554.14L550.367 560.157C551.867 562.107 554.624 562.554 556.667 561.181C557.35 560.721 557.603 559.836 557.267 559.082L551.462 546.122L556.43 552.575C557.632 554.134 559.838 554.494 561.473 553.396C562.575 552.653 562.984 551.223 562.441 550.011Z" fill="#FEB7A0"/>
<path d="M489.889 456.464L479.828 443.504L520.88 343.249L515.169 283.415C515.169 283.415 485.098 286.116 469.086 332.994C453.072 379.87 433.699 441.394 433.699 441.394C438.599 495.595 499.085 538.079 499.085 538.079L521.716 510.454L489.889 456.464Z" fill="#FE4F4E"/>
<path d="M764.646 283.415L723.838 280.54C723.838 280.54 722.785 318.394 720.07 345.13C709.975 326.379 696.85 309.862 693.284 302.439C684.075 283.271 655.693 276.241 655.693 276.241C655.693 276.241 657.288 328.599 669.846 358.734C677.118 376.187 690.917 399.346 701.246 415.75C717.594 441.717 757.745 435.262 764.258 405.277C764.399 404.631 764.528 403.974 764.646 403.308C770.295 371.29 764.646 283.415 764.646 283.415Z" fill="#FE4F4E"/>
<path d="M461.9 348.369C461.9 348.369 494.103 411.949 506.849 440.096L476.576 464.527L422.407 384.863L461.9 348.369Z" fill="#AA534F"/>
<path d="M485.605 446.204L437.807 520.291L457.457 545.252C457.457 545.252 512.16 494.797 515.346 476.741C518.533 458.683 504.962 436.018 504.962 436.018L485.605 446.204Z" fill="#AA534F"/>
<path d="M475.683 578.062L480.649 576.95C482.122 576.62 483.026 575.131 482.64 573.671L482.53 573.256C481.992 571.226 480.195 569.781 478.096 569.692L468.043 569.266C468.043 569.266 466.895 533.491 463.451 530.621C463.334 530.523 463.215 530.484 463.094 530.478L437.687 520.291L434.755 562.38L434.81 562.402H434.755C434.755 562.402 439.537 579.812 440.876 582.299C441.45 583.366 445.792 583.727 450.789 583.794C450.947 584.201 451.092 584.551 451.206 584.764C452.547 587.251 474.355 585.912 477.225 585.912C479.717 585.912 480.611 580.299 475.683 578.062Z" fill="#AA534F"/>
<path d="M225.143 349.858L195.193 436.579L232.605 450.81C232.605 450.81 277.248 380.378 278.156 371.105C279.068 361.832 267.651 351.025 267.651 351.025L225.143 349.858Z" fill="#863F38"/>
<path d="M291.876 231.325C291.876 231.325 281.463 229.785 280.572 238.624C279.682 247.464 285.891 248.926 285.891 248.926C285.891 248.926 276.044 239.331 270.11 247.007C264.175 254.685 275.24 259.995 275.24 259.995C275.24 259.995 263.008 254.386 261.303 262.522C259.598 270.657 269.444 274.911 269.444 274.911C269.444 274.911 259.138 274.889 259.847 279.417C260.554 283.944 270.151 279.438 270.151 279.438C270.151 279.438 255.917 283.133 259.012 294.357C262.109 305.582 273.033 298.31 273.033 298.31C273.033 298.31 264.63 303.493 267.944 317.753C271.258 332.015 334.071 298.12 334.071 298.12L332.399 258.939L291.876 231.325Z" fill="#352836"/>
<path d="M366.795 225.942C366.795 225.942 376.881 222.928 379.027 231.549C381.173 240.171 375.234 242.506 375.234 242.506C375.234 242.506 383.61 231.602 390.58 238.35C397.553 245.099 387.36 251.937 387.36 251.937C387.36 251.937 398.665 244.638 401.514 252.445C404.365 260.254 395.23 265.87 395.23 265.87C395.23 265.87 405.424 264.375 405.373 268.958C405.321 273.54 395.177 270.453 395.177 270.453C395.177 270.453 409.794 272.073 408.335 283.627C406.876 295.178 395.024 289.543 395.024 289.543C395.024 289.543 404.082 293.47 402.841 308.059C401.6 322.648 334.586 298.084 334.586 298.084L330.637 259.066L366.795 225.942Z" fill="#352836"/>
<path d="M291.876 231.325C291.876 231.325 281.463 229.785 280.572 238.624C279.682 247.464 285.891 248.926 285.891 248.926C285.891 248.926 276.044 239.331 270.11 247.007C264.175 254.685 275.24 259.995 275.24 259.995C275.24 259.995 263.008 254.386 261.303 262.522C259.598 270.657 269.444 274.911 269.444 274.911C269.444 274.911 259.138 274.889 259.847 279.417C260.554 283.944 270.151 279.438 270.151 279.438C270.151 279.438 255.917 283.133 259.012 294.357C262.109 305.582 273.033 298.31 273.033 298.31C273.033 298.31 264.63 303.493 267.944 317.753C271.258 332.015 334.071 298.12 334.071 298.12L332.399 258.939L291.876 231.325Z" fill="#352836"/>
<path d="M366.795 225.942C366.795 225.942 376.881 222.928 379.027 231.549C381.173 240.171 375.234 242.506 375.234 242.506C375.234 242.506 383.61 231.602 390.58 238.35C397.553 245.099 387.36 251.937 387.36 251.937C387.36 251.937 398.665 244.638 401.514 252.445C404.365 260.254 395.23 265.87 395.23 265.87C395.23 265.87 405.424 264.375 405.373 268.958C405.321 273.54 395.177 270.453 395.177 270.453C395.177 270.453 409.794 272.073 408.335 283.627C406.876 295.178 395.024 289.543 395.024 289.543C395.024 289.543 404.082 293.47 402.841 308.059C401.6 322.648 334.586 298.084 334.586 298.084L330.637 259.066L366.795 225.942Z" fill="#352836"/>
<path d="M357.446 288.815C346.327 283.747 347.217 255.329 347.217 255.329L331.269 257.513L331.196 256.485L329.519 257.122L327.766 256.731L327.841 257.76L311.744 257.879C311.744 257.879 316.688 285.879 306.41 292.482C296.131 299.087 233.122 306.549 244.613 371.223L335.525 364.689L338.955 364.443L429.869 357.909C431.992 292.255 368.564 293.882 357.446 288.815Z" fill="#AA534F"/>
<path d="M311.421 284.808C324.083 281.981 336.731 279.093 349.366 276.145C346.869 266.549 347.217 255.329 347.217 255.329L331.269 257.513L331.196 256.484L329.518 257.122L327.766 256.73L327.841 257.761L311.744 257.879C311.744 257.879 314.611 274.148 311.421 284.808Z" fill="#863F38"/>
<path d="M295.186 217.564C291.33 208.012 284.03 210.813 283.346 211.099C282.621 211.236 274.987 212.937 277.053 223.029C279.13 233.181 285.476 238.309 290.935 236.276C296.607 234.955 299.063 227.175 295.186 217.564Z" fill="#863F38"/>
<path d="M358.128 213.041C360.577 203.036 368.205 204.763 368.92 204.949C369.659 204.982 377.457 205.573 376.857 215.856C376.252 226.202 370.706 232.184 365.011 230.953C359.207 230.456 355.665 223.107 358.128 213.041Z" fill="#863F38"/>
<path d="M286.474 203.299C287.298 160.146 320.066 160.205 323.162 160.307C326.212 159.762 358.634 155.019 365.622 197.611C372.652 240.457 355.465 270.006 331.061 270.201C306.878 273.498 285.644 246.711 286.474 203.299Z" fill="#AA534F"/>
<path d="M333.118 220.224C334.452 222.095 335.334 224.094 336.08 226.131C336.801 228.176 337.362 230.267 337.688 232.425L337.786 233.071L337.486 233.377C336.657 234.23 335.795 235.056 334.913 235.864C334.012 236.659 333.119 237.459 332.128 238.176C332.656 237.072 333.283 236.05 333.903 235.021C334.543 234.009 335.203 233.015 335.891 232.045L335.69 232.997C334.826 230.992 334.195 228.922 333.728 226.804C333.282 224.68 332.974 222.517 333.118 220.224Z" fill="#863F38"/>
<path d="M345.946 244.924C338.729 253.026 325.553 253.551 315.115 247.544Z" fill="white"/>
<path d="M357.19 203.881C355.176 203.113 353.379 202.403 351.627 201.87C349.885 201.332 348.226 201.003 346.641 200.98C345.059 200.949 343.499 201.189 341.893 201.881C341.045 202.12 340.276 202.63 339.389 203.024C338.521 203.467 337.723 204.048 336.688 204.499C336.98 203.474 337.403 202.47 337.953 201.527C338.62 200.687 339.212 199.697 340.163 199.045C341.871 197.534 344.331 196.68 346.712 196.756C349.105 196.798 351.343 197.658 353.133 198.922C354.905 200.218 356.391 201.84 357.19 203.881Z" fill="#352836"/>
<path d="M316.59 206.799C314.574 206.031 312.779 205.321 311.027 204.787C309.285 204.249 307.625 203.921 306.041 203.898C304.458 203.866 302.897 204.107 301.292 204.798C300.443 205.038 299.675 205.548 298.789 205.942C297.919 206.384 297.123 206.966 296.086 207.417C296.38 206.392 296.802 205.388 297.353 204.445C298.019 203.605 298.612 202.615 299.563 201.963C301.271 200.452 303.729 199.598 306.111 199.673C308.504 199.715 310.742 200.576 312.533 201.839C314.305 203.136 315.791 204.758 316.59 206.799Z" fill="#352836"/>
<path d="M316.418 222.428C315.691 220.667 314.804 219.006 313.564 217.82C312.339 216.636 310.788 216.04 309.122 216.19C308.278 216.203 307.482 216.4 306.762 216.708C306.054 217.041 305.47 217.571 304.982 218.235C304.038 219.602 303.637 221.463 303.471 223.358C302.877 221.542 302.786 219.436 303.723 217.503C304.178 216.533 304.992 215.709 305.943 215.141C306.925 214.634 307.991 214.378 309.033 214.326C311.14 214.138 313.437 215.161 314.653 216.858C315.927 218.508 316.442 220.51 316.418 222.428Z" fill="#352836"/>
<path d="M352.861 219.218C352.134 217.456 351.247 215.794 350.007 214.61C348.782 213.426 347.23 212.83 345.566 212.98C344.72 212.993 343.924 213.19 343.205 213.498C342.496 213.831 341.913 214.361 341.426 215.024C340.48 216.391 340.08 218.253 339.914 220.148C339.32 218.332 339.231 216.224 340.166 214.292C340.623 213.323 341.434 212.499 342.385 211.929C343.367 211.424 344.434 211.168 345.476 211.114C347.582 210.928 349.881 211.951 351.095 213.648C352.37 215.298 352.884 217.3 352.861 219.218Z" fill="#352836"/>
<path d="M324.424 160.216C324.424 160.216 328.328 186.352 289.259 200.226C289.259 200.226 291.353 213.43 288.837 226.203C288.837 226.203 274.593 208.53 279.085 186.075C283.576 163.621 313.082 143.772 324.424 160.216Z" fill="#352836"/>
<path d="M321.284 160.442C321.284 160.442 322.421 186.776 363.071 194.92C363.071 194.92 362.374 211.76 366.69 224.042C366.69 224.042 378.774 201.041 371.118 179.461C363.462 157.88 330.159 142.545 321.284 160.442Z" fill="#352836"/>
<path d="M295.144 197.892C289.037 194.257 283.485 189.407 279.603 183.894C279.406 184.618 279.231 185.345 279.084 186.074C274.593 208.528 288.837 226.202 288.837 226.202C291.353 213.43 289.259 200.225 289.259 200.225C291.349 199.482 293.293 198.699 295.144 197.892Z" fill="#281F29"/>
<path d="M443.823 511.912L417.809 429.535L432.53 357.718C434.799 291.112 369.39 292.838 357.93 287.712C353.517 285.738 350.95 280.245 349.455 274.241C343.631 275.988 337.273 277.176 330.571 277.658C324.005 278.13 317.662 277.886 311.75 277.033C311.123 283.159 309.363 288.92 305.297 291.495C294.688 298.208 229.703 305.852 241.475 371.45L268.227 433.87C268.227 433.87 249.439 477.226 249.439 511.912H443.823Z" fill="#FF6A59"/>
<path d="M249.44 511.913L258.572 662.588H443.825V511.913H249.44Z" fill="#3F2037"/>
<path d="M276.699 302.757C276.699 302.757 253.239 309.756 235.858 327.334C218.476 344.913 211.164 371.223 211.164 371.223L262.56 394.847L276.699 302.757Z" fill="#FF6A59"/>
<path d="M394.79 297.168C394.79 297.168 418.951 301.113 438.435 316.329C457.918 331.545 468.529 356.705 468.529 356.705L420.571 386.7L394.79 297.168Z" fill="#FF6A59"/>
<path d="M233.843 425.617L179.305 320.185L149.356 328.743C149.356 328.743 178.318 430.207 185.664 444.488C199.82 472.01 248.964 461.292 233.843 425.617Z" fill="#AA534F"/>
<path d="M186.99 278.252C183.125 280.587 177.301 286.08 172.602 290.809L159.965 276.927L159.976 276.918C159.312 276.134 157.874 274.559 155.991 272.56L155.988 272.557C149.68 265.865 138.33 254.379 133.882 251.55C128.105 247.877 126.868 253.37 129.622 256.234C131.746 258.444 143.712 274.048 149.07 281.064L148.823 281.369C143.152 275.233 129.847 261.581 124.941 258.461C119.164 254.789 117.927 260.281 120.681 263.145C123.06 265.619 137.774 284.88 141.738 290.082L141.549 290.315C135.375 283.729 123.476 271.636 118.895 268.724C113.117 265.052 111.88 270.543 114.634 273.408C116.452 275.299 125.476 286.998 131.402 294.733C125.415 289.531 118.33 283.695 115.133 282.005C109.583 279.073 108.857 284.182 111.583 286.599C113.45 288.254 123.185 298.986 129.133 305.587L148.192 328.128L154.407 343.249L183.995 331.087L179.306 320.184L181.647 301.976C184.478 296.352 188.432 288.724 190.593 285.604C194.203 280.388 194.412 273.766 186.99 278.252Z" fill="#AA534F"/>
<path d="M136.282 302.275C136.409 302.221 136.523 302.137 136.615 302.023L155.283 278.91C155.585 278.536 155.527 277.99 155.155 277.69C154.783 277.39 154.237 277.446 153.936 277.82L135.269 300.934C134.967 301.307 135.025 301.851 135.397 302.151C135.656 302.361 135.996 302.397 136.282 302.275Z" fill="#863F38"/>
<path d="M165.541 307.49C165.893 307.339 166.115 306.969 166.059 306.571C165.037 299.385 170.047 293.506 170.098 293.446C170.411 293.085 170.372 292.538 170.011 292.225C169.65 291.911 169.104 291.948 168.789 292.309C168.561 292.572 163.207 298.83 164.341 306.815C164.409 307.289 164.848 307.618 165.322 307.551C165.399 307.54 165.472 307.519 165.541 307.49Z" fill="#863F38"/>
</g>
</svg>
