<svg width="836" height="656" viewBox="0 0 836 656" fill="none" xmlns="http://www.w3.org/2000/svg">
<g clip-path="url(#clip0_190_104)">
<path d="M253.05 252.944C248.576 247.156 242.254 241.8 241.853 234.658C241.486 228.106 246.378 221.602 244.315 215.335C242.729 210.516 237.495 207.608 232.381 206.068C222.59 203.162 212.113 203.565 202.575 207.214L203.092 206.849C197.271 204.779 190.466 206.916 185.886 210.875C181.305 214.835 178.583 220.323 176.471 225.822C174.359 231.322 172.722 237.023 169.788 242.179C166.852 247.334 162.359 252.023 156.43 253.805C158.415 257.759 164.619 259.115 168.258 256.391C169.188 255.637 170.024 254.774 170.747 253.821C173.174 250.874 175.601 247.927 178.029 244.981C180.526 249.416 176.795 255.537 179.865 259.643C181.448 261.76 184.339 262.565 187.024 263.141C208.009 267.612 229.778 266.806 250.374 260.795C252.029 260.308 253.855 259.637 254.542 258.141C255.335 256.414 254.226 254.467 253.05 252.944Z" fill="#2F2E41"/>
<path d="M312.552 275.534C312.421 276.109 312.336 276.694 312.297 277.282L266.43 303.705L255.281 297.296L243.396 312.833L262.028 326.094C263.533 327.165 265.346 327.72 267.194 327.675C269.042 327.63 270.825 326.988 272.276 325.844L319.574 288.585C321.708 289.374 324.033 289.496 326.238 288.933C328.443 288.371 330.425 287.151 331.919 285.437C333.413 283.723 334.349 281.595 334.603 279.336C334.856 277.077 334.415 274.795 333.338 272.793C332.261 270.791 330.599 269.164 328.573 268.128C326.547 267.092 324.254 266.696 321.997 266.994C319.741 267.291 317.629 268.268 315.941 269.793C314.254 271.319 313.072 273.321 312.552 275.534H312.552Z" fill="#FFB7B7"/>
<path d="M264.896 304.956L250.072 324.141C249.65 324.687 249.115 325.136 248.504 325.457C247.893 325.778 247.22 325.963 246.531 326.001C245.841 326.039 245.152 325.928 244.509 325.675C243.867 325.423 243.286 325.035 242.807 324.539L226.025 307.137C223.24 304.966 221.43 301.782 220.993 298.281C220.556 294.78 221.528 291.249 223.694 288.462C225.861 285.675 229.045 283.86 232.55 283.415C236.055 282.969 239.594 283.93 242.39 286.086L263.438 297.838C264.041 298.175 264.564 298.637 264.971 299.194C265.379 299.751 265.661 300.388 265.799 301.064C265.938 301.739 265.929 302.437 265.773 303.108C265.617 303.78 265.318 304.41 264.896 304.956H264.896Z" fill="#CCEEEF"/>
<path d="M244.494 639.233L257.584 639.232L263.811 588.814L244.491 588.815L244.494 639.233Z" fill="#FFB7B7"/>
<path d="M241.155 634.965L266.935 634.964H266.936C271.293 634.964 275.471 636.693 278.552 639.769C281.633 642.846 283.364 647.018 283.364 651.369V651.902L241.156 651.904L241.155 634.965Z" fill="#2F2E41"/>
<path d="M154.804 639.233L167.894 639.232L174.122 588.814L154.802 588.815L154.804 639.233Z" fill="#FFB7B7"/>
<path d="M151.465 634.965L177.244 634.964H177.245C181.602 634.964 185.781 636.693 188.862 639.769C191.943 642.846 193.674 647.018 193.674 651.369V651.902L151.466 651.904L151.465 634.965Z" fill="#2F2E41"/>
<path d="M236.633 245.817C237.996 233.415 229.033 222.258 216.614 220.897C204.194 219.535 193.02 228.485 191.657 240.887C190.294 253.289 199.257 264.446 211.676 265.808C224.096 267.169 235.27 258.219 236.633 245.817Z" fill="#FFB7B7"/>
<path d="M227.382 277.218L240.71 283.811C240.71 283.811 255.601 309.652 247.059 334.174C242.912 346.08 254.59 384.033 254.59 384.033C254.59 384.033 272.685 555.942 272.742 608.999C250.262 612.451 228.908 616.715 227.84 606.054C226.772 595.392 215.084 469.328 215.084 469.328C215.084 469.328 199.011 609.252 186.198 611.385C173.385 613.517 147.759 610.318 147.759 610.318C147.759 610.318 168.103 405.357 181.984 392.562L184.12 381.9L184.062 286.196L200.055 278.575L227.382 277.218Z" fill="#2F2E41"/>
<path d="M179.704 422.508C181.179 421.711 182.461 420.601 183.46 419.256C184.458 417.911 185.15 416.363 185.485 414.723C185.82 413.082 185.791 411.388 185.399 409.76C185.007 408.132 184.263 406.609 183.218 405.299L198.718 302.132L178.468 301.161L166.385 403.901C164.298 405.8 162.98 408.396 162.682 411.2C162.384 414.003 163.127 416.819 164.768 419.112C166.41 421.406 168.837 423.018 171.59 423.644C174.343 424.27 177.23 423.866 179.704 422.508Z" fill="#FFB7B7"/>
<path d="M198.278 327.982L174.06 326.455C173.37 326.412 172.699 326.221 172.09 325.895C171.482 325.569 170.951 325.115 170.534 324.566C170.117 324.017 169.823 323.384 169.673 322.711C169.522 322.038 169.519 321.341 169.663 320.666L174.709 297.039C174.952 293.52 176.582 290.24 179.242 287.918C181.903 285.597 185.377 284.424 188.902 284.657C192.427 284.889 195.716 286.508 198.048 289.159C200.379 291.81 201.563 295.275 201.339 298.796L203.369 322.791C203.427 323.478 203.336 324.17 203.102 324.819C202.868 325.467 202.497 326.058 202.014 326.551C201.531 327.043 200.947 327.426 200.302 327.673C199.658 327.92 198.967 328.026 198.278 327.982H198.278Z" fill="#CCEEEF"/>
<path d="M237.856 228.667C236.974 224.674 234.111 221.366 230.812 218.943C225.374 214.948 218.706 212.985 211.968 213.394C205.23 213.803 198.848 216.559 193.935 221.182C191.19 223.603 189.211 226.77 188.24 230.297C187.777 232.059 187.752 233.908 188.168 235.683C188.584 237.457 189.428 239.103 190.626 240.477L191.078 240.76C190.669 239.024 192.019 237.289 193.632 236.524C195.31 235.909 197.061 235.517 198.841 235.358C201.534 234.849 204.086 233.77 206.326 232.192C208.565 230.614 210.439 228.575 211.821 226.211C212.845 229.12 214.481 231.776 216.619 234C218.757 236.225 221.347 237.967 224.215 239.109C227.205 240.276 235.417 241.882 238.264 240.399C241.895 238.509 238.737 232.661 237.856 228.667Z" fill="#2F2E41"/>
<path d="M71.3948 608.089C75.3092 609.463 79.512 609.807 83.5983 609.088C87.6846 608.369 91.5167 606.612 94.7254 603.985C102.897 597.136 105.459 585.856 107.543 575.408L113.709 544.506L100.801 553.381C91.5166 559.764 82.0242 566.352 75.5967 575.597C69.1692 584.842 66.3651 597.464 71.5279 607.468" fill="#E6E6E6"/>
<path d="M73.3882 647.653C71.7634 635.833 70.0917 623.86 71.2341 611.913C72.2466 601.303 75.4884 590.942 82.0882 582.443C85.5914 577.941 89.8542 574.083 94.6848 571.044C95.9442 570.251 97.1035 572.243 95.8495 573.034C87.491 578.309 81.0259 586.097 77.3863 595.278C73.3667 605.486 72.7212 616.615 73.4136 627.459C73.8321 634.017 74.7214 640.532 75.6146 647.04C75.6851 647.334 75.6411 647.644 75.4914 647.907C75.3417 648.17 75.0976 648.367 74.8084 648.457C74.5133 648.536 74.1988 648.496 73.9331 648.346C73.6673 648.195 73.4718 647.946 73.389 647.652L73.3882 647.653Z" fill="#F2F2F2"/>
<path d="M85.083 628.687C86.7616 631.235 89.0692 633.309 91.7835 634.708C94.4977 636.108 97.5272 636.785 100.58 636.676C108.427 636.304 114.966 630.838 120.852 625.646L138.265 610.294L126.741 609.743C118.453 609.347 109.951 608.975 102.058 611.53C94.1639 614.085 86.884 620.225 85.4408 628.384" fill="#E6E6E6"/>
<path d="M68.7953 654.448C76.6176 640.628 85.69 625.268 101.902 620.358C106.41 618.998 111.136 618.511 115.827 618.923C117.305 619.05 116.936 621.325 115.46 621.199C107.598 620.547 99.7498 622.62 93.2384 627.069C86.9725 631.328 82.0935 637.249 77.9647 643.528C75.4352 647.374 73.1696 651.383 70.904 655.387C70.1801 656.667 68.063 655.742 68.7953 654.448Z" fill="#F2F2F2"/>
<path d="M597.378 398.942C582.7 379.327 555.834 374.594 542.484 384.555C529.135 394.516 526.068 421.584 540.746 441.199C554.333 459.355 578.949 464.307 592.507 457.504C592.464 457.717 592.461 457.936 592.499 458.149L593.264 461.923C593.322 462.21 593.453 462.478 593.644 462.701C593.835 462.924 594.081 463.094 594.356 463.196C594.632 463.298 594.929 463.328 595.22 463.282C595.51 463.237 595.784 463.119 596.016 462.938L602.489 457.888C602.72 457.708 602.902 457.471 603.016 457.2C603.13 456.93 603.173 456.635 603.141 456.343C603.109 456.051 603.003 455.773 602.832 455.534C602.662 455.294 602.433 455.103 602.168 454.977L598.686 453.323C598.563 453.268 598.435 453.228 598.303 453.203C608.754 442.17 610.994 417.138 597.378 398.942Z" fill="#CCCCCC"/>
<path d="M565.271 391.537C572.451 392.676 578.919 396.524 583.34 402.287C587.762 408.05 589.798 415.288 589.03 422.507C588.872 424.161 591.459 424.15 591.616 422.507C592.356 414.726 590.123 406.953 585.365 400.748C580.606 394.542 573.674 390.362 565.958 389.046C564.33 388.77 563.63 391.258 565.271 391.537Z" fill="white"/>
<path d="M621.304 59.8843C634.137 39.0189 628.62 12.341 614.419 3.63217C600.218 -5.0767 573.894 2.07501 561.061 22.9405C549.183 42.2541 553.666 66.9251 565.004 76.9942C564.79 77.032 564.586 77.1103 564.402 77.2249L561.172 79.328C560.926 79.4883 560.725 79.7088 560.588 79.9685C560.451 80.2283 560.383 80.5186 560.39 80.812C560.397 81.1054 560.479 81.3921 560.629 81.6449C560.778 81.8977 560.99 82.1082 561.243 82.2564L568.333 86.3979C568.587 86.5461 568.875 86.6271 569.168 86.6332C569.462 86.6393 569.753 86.5703 570.012 86.4327C570.272 86.2951 570.492 86.0936 570.652 85.8472C570.812 85.6008 570.906 85.3177 570.925 85.0248L571.178 81.183C571.184 81.049 571.174 80.9147 571.148 80.7831C585.275 86.4061 609.399 79.2399 621.304 59.8843Z" fill="#CCCCCC"/>
<path d="M616.337 27.3551C617.929 34.4386 616.737 41.8622 613.006 48.0934C609.276 54.3246 603.292 58.8878 596.29 60.8411C594.692 61.3054 595.658 63.7025 597.245 63.2411C604.76 61.0541 611.169 56.1111 615.186 49.4033C619.204 42.6955 620.534 34.719 618.908 27.0733C618.564 25.4605 615.99 25.7303 616.337 27.3551Z" fill="white"/>
<path d="M393.878 158.886C392.805 134.423 373.27 115.408 356.621 116.137C339.971 116.865 322.177 137.512 323.25 161.975C324.243 184.618 341.796 202.548 356.837 204.548C356.681 204.699 356.555 204.879 356.467 205.077L354.971 208.625C354.857 208.896 354.814 209.191 354.846 209.482C354.879 209.774 354.985 210.053 355.156 210.292C355.326 210.531 355.555 210.722 355.82 210.848C356.086 210.974 356.379 211.03 356.673 211.011L364.869 210.477C365.163 210.457 365.446 210.364 365.693 210.204C365.94 210.045 366.142 209.825 366.28 209.566C366.418 209.307 366.487 209.017 366.481 208.724C366.475 208.43 366.394 208.143 366.246 207.89L364.3 204.566C364.23 204.451 364.146 204.346 364.051 204.251C378.909 201.008 394.873 181.578 393.878 158.886Z" fill="#CCEEEF"/>
<path d="M371.517 134.716C376.809 139.694 379.986 146.51 380.39 153.759C380.795 161.007 378.398 168.134 373.693 173.669C372.63 174.947 374.775 176.392 375.831 175.123C380.829 169.108 383.365 161.428 382.931 153.624C382.497 145.821 379.124 138.469 373.489 133.044C372.299 131.901 370.318 133.564 371.517 134.716Z" fill="white"/>
<path d="M470.218 321.17C463.8 320.766 457.57 318.849 452.037 315.577C446.505 312.304 441.827 307.769 438.389 302.343C437.425 300.805 436.168 299.115 436.835 297.221C437.067 296.495 437.539 295.87 438.174 295.446C438.809 295.023 439.568 294.827 440.329 294.891C442.296 295.13 443.565 297.051 443.807 298.892C444.082 300.98 442.607 302.619 440.785 303.395C436.334 305.291 431.843 302.361 428.218 300.023C419.956 294.695 410.87 289.876 400.859 289.269C391.597 288.707 381.665 292.333 376.514 300.354C375.612 301.757 377.85 303.054 378.747 301.657C383.856 293.703 394.185 290.846 403.165 292.076C408.517 292.919 413.685 294.671 418.444 297.256C420.913 298.535 423.307 299.953 425.652 301.443C427.884 302.999 430.25 304.353 432.722 305.49C436.844 307.181 442.302 307.049 445.181 303.156C447.868 299.524 445.792 293.477 441.298 292.456C440.313 292.262 439.294 292.315 438.334 292.611C437.374 292.907 436.503 293.436 435.798 294.151C435.093 294.865 434.577 295.744 434.296 296.707C434.014 297.67 433.977 298.687 434.186 299.669C434.635 301.807 436.247 303.9 437.496 305.649C441.247 310.918 446.134 315.28 451.797 318.413C457.46 321.546 463.755 323.371 470.218 323.752C471.882 323.835 471.878 321.252 470.218 321.17L470.218 321.17Z" fill="#CCCCCC"/>
<path d="M718.614 143.228C725.695 139.938 734.389 138.86 741.594 141.917C748.8 144.973 753.712 152.808 751.382 159.742C750.326 162.885 747.92 165.977 748.857 169.152C749.579 171.596 752.095 173.209 754.567 174.357C757.039 175.504 759.742 176.468 761.53 178.403C763.317 180.338 763.69 183.669 761.457 185.17C760.721 185.664 759.802 185.898 759.089 186.419C758.481 186.913 758.042 187.583 757.834 188.337C757.625 189.091 757.658 189.891 757.927 190.626C758.521 192.104 759.504 193.395 760.771 194.363C763.306 196.546 766.656 199.044 765.869 202.143C765.577 202.971 765.089 203.717 764.447 204.317C763.805 204.916 763.028 205.353 762.181 205.588C760.421 206.095 758.596 206.335 756.766 206.302L681.966 208.655C679.497 208.84 677.014 208.702 674.581 208.243C673.399 208.027 672.273 207.571 671.275 206.901C670.277 206.232 669.428 205.364 668.781 204.352C667.349 201.705 668.289 198.443 670.058 195.971C671.827 193.499 674.331 191.549 676.399 189.279C678.468 187.009 680.16 184.175 679.796 181.241C679.504 178.892 677.953 176.862 676.839 174.728C675.726 172.594 675.079 169.928 676.521 167.964C678.553 165.198 683.432 165.448 685.743 162.87C687.487 160.925 687.15 158.124 687.324 155.616C687.741 149.581 691.925 143.883 697.88 141.236C700.909 139.938 704.203 139.378 707.491 139.601C710.779 139.825 713.967 140.826 716.791 142.522L718.614 143.228Z" fill="#2F2E41"/>
<path d="M809.706 441.848V454.063L762.524 459.875L762.525 441.846L809.706 441.848Z" fill="#9E616A"/>
<path d="M821.564 438.734L821.563 478.119H821.064C816.992 478.119 813.088 476.504 810.209 473.629C807.33 470.754 805.712 466.855 805.712 462.79V462.788L805.713 438.733L821.564 438.734Z" fill="#2F2E41"/>
<path d="M751.38 462.627L748.376 474.467L701.209 468.535L705.642 451.06L751.38 462.627Z" fill="#9E616A"/>
<path d="M763.64 462.514L753.956 500.694L753.473 500.572C749.526 499.573 746.138 497.05 744.053 493.558C741.969 490.065 741.36 485.889 742.359 481.948L742.359 481.947L748.274 458.627L763.64 462.514Z" fill="#2F2E41"/>
<path d="M739.333 325.646L741.881 328.296C741.881 328.296 758.505 341.313 746.205 375.602L726.086 433.479L793.524 436.104L792.079 462.551C792.079 462.551 694.279 467.984 695.135 451.889C695.99 435.795 699.599 376.203 699.599 376.203L679.28 359.91L684.179 332.351L739.333 325.646Z" fill="#2F2E41"/>
<path d="M687.093 351.911L679.28 359.91L653.086 431.81C653.086 431.81 649.095 449.744 658.075 453.729C667.055 457.714 724.836 480.008 724.836 480.008L730.736 458.803L686.215 432.12L706.966 404.909L710.089 362.022L687.093 351.911Z" fill="#2F2E41"/>
<path d="M687.509 225.072L753.996 211.797L755.441 248.221L738.219 284.876L741.881 328.296L682.293 338.692L684.16 281.598C684.16 281.598 668.157 259.056 677.584 236.335L687.509 225.072Z" fill="#E4E4E4"/>
<path d="M835.765 138.664C836.098 140.193 836.091 141.777 835.745 143.303C835.4 144.829 834.723 146.261 833.763 147.498C832.803 148.734 831.583 149.746 830.189 150.461C828.795 151.176 827.261 151.577 825.695 151.636L761.938 225.461L747.115 207.498L814.447 140.578C814.522 137.945 815.562 135.431 817.37 133.512C819.177 131.593 821.627 130.402 824.255 130.167C826.882 129.931 829.505 130.665 831.627 132.232C833.748 133.798 835.22 136.087 835.765 138.664Z" fill="#9E616A"/>
<path d="M775.82 217.406C775.835 218.095 775.701 218.78 775.427 219.413C775.152 220.046 774.745 220.612 774.231 221.074L756.304 237.189C754.053 239.909 750.815 241.627 747.298 241.966C743.781 242.305 740.273 241.238 737.542 238.999C734.812 236.76 733.082 233.531 732.732 230.02C732.382 226.509 733.44 223.003 735.675 220.27L748.189 199.587C748.546 198.997 749.026 198.49 749.597 198.102C750.168 197.714 750.816 197.453 751.497 197.338C752.178 197.222 752.876 197.254 753.543 197.432C754.21 197.61 754.831 197.93 755.364 198.369L774.076 213.808C774.609 214.247 775.04 214.796 775.341 215.417C775.642 216.038 775.805 216.716 775.82 217.406Z" fill="#E4E4E4"/>
<path d="M583.257 312.159C583.158 310.597 583.402 309.033 583.973 307.576C584.545 306.119 585.429 304.804 586.564 303.726C587.699 302.647 589.057 301.829 590.542 301.331C592.028 300.833 593.605 300.667 595.162 300.843L669.291 237.406L681.247 257.388L604.621 313.461C604.151 316.053 602.745 318.383 600.67 320.009C598.594 321.636 595.993 322.446 593.36 322.285C590.727 322.125 588.244 321.005 586.382 319.139C584.52 317.272 583.408 314.789 583.257 312.159V312.159Z" fill="#9E616A"/>
<path d="M654.356 243.291C654.445 242.607 654.68 241.95 655.046 241.365C655.412 240.78 655.901 240.282 656.477 239.902L676.624 226.655C679.257 224.303 682.718 223.09 686.246 223.281C689.774 223.472 693.083 225.053 695.446 227.676C697.809 230.299 699.034 233.751 698.852 237.275C698.671 240.798 697.097 244.106 694.477 246.473L678.996 265.048C678.555 265.578 678.004 266.006 677.381 266.305C676.758 266.603 676.078 266.764 675.388 266.776C674.697 266.788 674.012 266.652 673.379 266.376C672.746 266.1 672.18 265.691 671.72 265.177L655.539 247.109C655.078 246.595 654.734 245.988 654.53 245.329C654.326 244.67 654.266 243.975 654.356 243.291Z" fill="#E4E4E4"/>
<path d="M715.846 208.076C729.381 208.076 740.353 197.12 740.353 183.605C740.353 170.09 729.381 159.134 715.846 159.134C702.312 159.134 691.34 170.09 691.34 183.605C691.34 197.12 702.312 208.076 715.846 208.076Z" fill="#9E616A"/>
<path d="M740.917 180.126C733.178 179.506 726.752 171.786 727.557 164.074C727.648 167.253 726.565 170.354 724.516 172.787C722.466 175.22 719.592 176.816 716.441 177.272C712.891 177.662 708.999 176.59 705.909 178.378C702.486 180.359 701.391 185.169 697.826 186.879C694.381 188.532 690.006 186.278 688.304 182.861C686.602 179.444 687.019 175.338 688.147 171.692C689.756 166.492 692.685 161.796 696.649 158.061C700.614 154.326 705.479 151.679 710.771 150.378C716.063 149.076 721.603 149.165 726.851 150.634C732.099 152.104 736.877 154.905 740.72 158.765C743.974 162.033 746.558 166.199 746.977 170.788C747.396 175.378 745.264 180.359 741.136 182.42L740.917 180.126Z" fill="#2F2E41"/>
<path d="M381.15 653.493H0.997774C0.733148 653.493 0.479375 653.388 0.292256 653.201C0.105137 653.014 0 652.761 0 652.496C0 652.232 0.105137 651.979 0.292256 651.792C0.479375 651.605 0.733148 651.5 0.997774 651.5H381.15C381.414 651.5 381.668 651.605 381.855 651.792C382.042 651.979 382.147 652.232 382.147 652.496C382.147 652.761 382.042 653.014 381.855 653.201C381.668 653.388 381.414 653.493 381.15 653.493Z" fill="#CACACA"/>
</g>
<defs>
<clipPath id="clip0_190_104">
<rect width="836" height="656" fill="white"/>
</clipPath>
</defs>
</svg>
