<svg width="1962" height="1308" viewBox="0 0 1962 1308" fill="none" xmlns="http://www.w3.org/2000/svg">
<mask id="mask0_243_97" style="mask-type:luminance" maskUnits="userSpaceOnUse" x="0" y="0" width="1962" height="1308">
<path d="M0 3.14713e-05H1962V1308H0V3.14713e-05Z" fill="white"/>
</mask>
<g mask="url(#mask0_243_97)">
<path d="M243.831 484.525C243.831 484.525 339.558 368.173 630.899 373.366C922.243 378.559 1269.54 564.567 1463.5 532.142C1745.88 484.931 1833.09 644.593 1782.03 824.001C1735.54 987.346 1332.94 1012.87 1100.07 933.541C867.197 854.208 583.175 864.847 469.882 909.526C356.591 954.202 241.704 892.087 194.896 809.322C148.09 726.56 154.473 561.731 243.831 484.525Z" fill="#EEDAEC"/>
<path d="M1613.8 553.507L1661.44 666.4L1612.86 688.701C1612.86 688.701 1547.09 598.824 1545.05 586.547C1543.01 574.27 1557.26 558.851 1557.26 558.851L1613.8 553.507Z" fill="#F35B5D"/>
<path d="M1608.96 655.239L1672.24 509.881L1712.91 518.613C1712.91 518.613 1683.36 656.406 1674.85 676.094C1658.43 714.031 1591.99 704.127 1608.96 655.239Z" fill="#FD8781"/>
<path d="M1658.26 454.684C1663.62 457.452 1671.87 464.251 1678.55 470.137L1694.16 450.509L1694.14 450.499C1694.95 449.395 1696.73 447.168 1699.06 444.338L1699.07 444.333C1706.87 434.85 1720.98 418.534 1726.65 414.369C1734.02 408.959 1736.16 416.169 1732.75 420.231C1730.11 423.365 1715.56 445.222 1709.04 455.053L1709.4 455.438C1716.41 446.755 1732.92 427.376 1739.18 422.782C1746.55 417.372 1748.69 424.582 1745.28 428.642C1742.33 432.153 1724.44 459.129 1719.62 466.414L1719.89 466.71C1727.53 457.384 1742.31 440.207 1748.16 435.92C1755.53 430.507 1757.66 437.717 1754.25 441.779C1752 444.461 1741.01 460.855 1733.81 471.691C1741.32 464.227 1750.24 455.819 1754.35 453.282C1761.49 448.879 1762.91 455.623 1759.49 459.087C1757.15 461.457 1745.14 476.627 1737.8 485.953L1714.41 517.69L1707.47 538.396L1666.96 524.824L1672.24 509.879L1667.49 485.825C1663.22 478.581 1657.27 468.769 1654.12 464.803C1648.84 458.174 1647.97 449.368 1658.26 454.684Z" fill="#FD8781"/>
<path d="M1727.98 482.178C1727.81 482.118 1727.64 482.016 1727.51 481.872L1700.57 452.735C1700.14 452.264 1700.17 451.534 1700.64 451.1C1701.11 450.666 1701.84 450.692 1702.27 451.165L1729.21 480.3C1729.64 480.771 1729.62 481.503 1729.14 481.935C1728.82 482.235 1728.37 482.314 1727.98 482.178Z" fill="#F35B5D"/>
<path d="M1689.45 491.734C1688.97 491.567 1688.64 491.091 1688.68 490.557C1689.4 480.891 1682.2 473.501 1682.12 473.427C1681.67 472.972 1681.68 472.242 1682.13 471.792C1682.58 471.34 1683.32 471.342 1683.77 471.795C1684.09 472.125 1691.79 479.986 1690.99 490.73C1690.94 491.365 1690.38 491.844 1689.74 491.797C1689.64 491.789 1689.54 491.768 1689.45 491.734Z" fill="#F35B5D"/>
<path d="M1304.78 503.896L1315.79 729.299L1304.78 824.749H1558.6L1550.73 737.591L1558.6 525.737L1304.78 503.896Z" fill="#FE4F4E"/>
<path d="M1520.17 497.346C1481.43 483.596 1454.73 461.462 1429.6 450.802C1403.49 458.768 1374.62 477.98 1334.65 487.591C1271.24 502.845 1260.01 418.615 1306.11 391.879C1346.69 368.348 1342.24 363.825 1354.81 320.468C1355.62 317.655 1356.51 314.676 1357.49 311.516C1358.56 308.052 1359.73 304.374 1361.04 300.458C1361.81 298.172 1362.59 295.966 1363.41 293.845C1375.87 261.474 1407.66 242.286 1440.41 245.156C1473.29 245.739 1502.89 268.153 1511.88 301.651C1512.48 303.846 1513.03 306.122 1513.55 308.476C1514.44 312.51 1515.23 316.29 1515.92 319.845C1516.56 323.092 1517.14 326.147 1517.65 329.03C1525.6 373.465 1520.71 377.499 1558.59 405.155C1601.63 436.579 1581.63 519.163 1520.17 497.346Z" fill="#5A184A"/>
<path d="M1586.4 544.292L1278.07 528.081C1278.07 528.081 1283.24 508.686 1290.17 489.293C1297.11 469.901 1309.73 462.296 1325.73 459.076C1330.24 458.163 1338.52 456.23 1348.07 453.925C1353.48 452.612 1359.3 451.183 1365.09 449.752C1385.27 444.764 1404.97 439.749 1404.97 439.749L1437.17 438.872H1437.35L1437.53 438.891L1466.34 442.726C1466.34 442.726 1483.46 448.863 1502.17 455.476C1519.74 461.676 1538.7 468.305 1546.23 470.67C1561.8 475.549 1573.56 484.435 1578.42 504.45C1583.29 524.463 1586.4 544.292 1586.4 544.292Z" fill="#FE4F4E"/>
<path d="M1314.12 488.115C1313.78 488.097 1313.44 487.969 1313.16 487.726L1305.33 480.895C1304.67 480.32 1304.6 479.315 1305.17 478.651C1305.75 477.989 1306.76 477.921 1307.42 478.499L1315.25 485.329C1315.91 485.907 1315.98 486.912 1315.4 487.571C1315.06 487.956 1314.59 488.142 1314.12 488.115Z" fill="#C3205C"/>
<path d="M1312.3 522.643C1311.96 522.625 1311.62 522.497 1311.34 522.253L1303.51 515.423C1302.85 514.845 1302.78 513.84 1303.36 513.178C1303.94 512.517 1304.94 512.449 1305.6 513.027L1313.43 519.857C1314.1 520.433 1314.16 521.437 1313.59 522.099C1313.25 522.483 1312.78 522.667 1312.3 522.643Z" fill="#C3205C"/>
<path d="M1362.5 477.965C1362.22 477.952 1361.94 477.857 1361.68 477.685C1360.96 477.185 1360.78 476.194 1361.28 475.472L1367.19 466.928C1367.69 466.206 1368.68 466.025 1369.41 466.525C1370.13 467.025 1370.31 468.016 1369.81 468.738L1363.9 477.282C1363.57 477.753 1363.04 477.993 1362.5 477.965Z" fill="#C3205C"/>
<path d="M1334.53 510.997C1334.25 510.982 1333.96 510.89 1333.71 510.717C1332.98 510.218 1332.81 509.226 1333.3 508.504L1339.22 499.96C1339.72 499.236 1340.71 499.058 1341.43 499.555C1342.15 500.057 1342.33 501.046 1341.83 501.771L1335.92 510.315C1335.6 510.783 1335.06 511.024 1334.53 510.997Z" fill="#C3205C"/>
<path d="M1348.44 468.285C1348.52 468.557 1348.54 468.856 1348.46 469.151C1348.24 470.001 1347.38 470.514 1346.53 470.297L1336.46 467.71C1335.61 467.49 1335.1 466.624 1335.32 465.774C1335.54 464.921 1336.4 464.411 1337.25 464.628L1347.32 467.215C1347.87 467.359 1348.28 467.775 1348.44 468.285Z" fill="#C3205C"/>
<path d="M1381.46 508.9C1381.11 508.881 1380.77 508.753 1380.49 508.51L1372.66 501.68C1372 501.104 1371.93 500.097 1372.51 499.435C1373.09 498.773 1374.09 498.705 1374.75 499.283L1382.59 506.114C1383.25 506.689 1383.32 507.696 1382.74 508.356C1382.4 508.74 1381.93 508.923 1381.46 508.9Z" fill="#C3205C"/>
<path d="M1351.33 524.443C1351.13 524.299 1350.95 524.106 1350.83 523.87C1350.43 523.088 1350.75 522.131 1351.53 521.733L1360.8 517.029C1361.58 516.632 1362.54 516.943 1362.93 517.725C1363.33 518.51 1363.02 519.467 1362.24 519.865L1352.97 524.569C1352.43 524.846 1351.79 524.778 1351.33 524.443Z" fill="#C3205C"/>
<path d="M1494.76 497.614C1494.41 497.596 1494.07 497.468 1493.79 497.225L1485.96 490.394C1485.3 489.816 1485.23 488.812 1485.81 488.15C1486.39 487.488 1487.4 487.42 1488.05 487.998L1495.89 494.828C1496.55 495.404 1496.62 496.411 1496.04 497.07C1495.7 497.455 1495.23 497.638 1494.76 497.614Z" fill="#C3205C"/>
<path d="M1492.94 532.14C1492.6 532.121 1492.26 531.993 1491.98 531.75L1484.15 524.92C1483.49 524.341 1483.42 523.337 1484 522.675C1484.58 522.013 1485.58 521.945 1486.24 522.523L1494.07 529.354C1494.73 529.929 1494.8 530.936 1494.22 531.596C1493.89 531.98 1493.41 532.163 1492.94 532.14Z" fill="#C3205C"/>
<path d="M1543.14 487.463C1542.86 487.448 1542.57 487.356 1542.32 487.183C1541.6 486.684 1541.42 485.692 1541.92 484.97L1547.83 476.426C1548.33 475.702 1549.32 475.524 1550.05 476.021C1550.77 476.523 1550.95 477.512 1550.45 478.237L1544.53 486.781C1544.21 487.249 1543.67 487.492 1543.14 487.463Z" fill="#C3205C"/>
<path d="M1515.17 520.496C1514.88 520.48 1514.6 520.388 1514.35 520.216C1513.62 519.716 1513.44 518.725 1513.94 518.003L1519.86 509.459C1520.36 508.734 1521.35 508.556 1522.07 509.056C1522.79 509.556 1522.97 510.544 1522.47 511.269L1516.56 519.813C1516.23 520.281 1515.7 520.524 1515.17 520.496Z" fill="#C3205C"/>
<path d="M1570.1 538.029C1569.81 538.013 1569.53 537.921 1569.28 537.749C1568.56 537.249 1568.38 536.258 1568.87 535.535L1574.79 526.992C1575.29 526.267 1576.28 526.089 1577 526.586C1577.72 527.088 1577.9 528.077 1577.4 528.802L1571.49 537.346C1571.16 537.814 1570.63 538.057 1570.1 538.029Z" fill="#C3205C"/>
<path d="M1529.08 477.781C1529.16 478.054 1529.18 478.352 1529.1 478.647C1528.88 479.5 1528.02 480.013 1527.17 479.793L1517.1 477.206C1516.25 476.986 1515.74 476.12 1515.96 475.27C1516.17 474.42 1517.04 473.907 1517.89 474.127L1527.96 476.711C1528.51 476.855 1528.92 477.271 1529.08 477.781Z" fill="#C3205C"/>
<path d="M1562.44 511.838C1562.09 511.819 1561.75 511.691 1561.48 511.448L1553.65 504.618C1552.98 504.042 1552.91 503.035 1553.49 502.373C1554.07 501.711 1555.07 501.646 1555.74 502.221L1563.57 509.052C1564.23 509.63 1564.3 510.634 1563.72 511.296C1563.39 511.678 1562.91 511.864 1562.44 511.838Z" fill="#C3205C"/>
<path d="M1531.96 533.94C1531.76 533.796 1531.59 533.605 1531.47 533.367C1531.07 532.585 1531.39 531.627 1532.17 531.23L1541.43 526.526C1542.22 526.128 1543.18 526.44 1543.57 527.224C1543.97 528.007 1543.66 528.964 1542.87 529.362L1533.61 534.065C1533.06 534.343 1532.43 534.275 1531.96 533.94Z" fill="#C3205C"/>
<path d="M1433.99 500.439C1433.71 500.426 1433.42 500.332 1433.17 500.159C1432.44 499.659 1432.27 498.668 1432.76 497.946L1438.68 489.402C1439.18 488.68 1440.17 488.499 1440.89 488.999C1441.61 489.499 1441.79 490.49 1441.29 491.212L1435.38 499.756C1435.06 500.227 1434.52 500.468 1433.99 500.439Z" fill="#C3205C"/>
<path d="M1407.31 526.866C1407.02 526.85 1406.74 526.758 1406.49 526.586C1405.76 526.086 1405.58 525.095 1406.08 524.373L1412 515.829C1412.5 515.104 1413.49 514.926 1414.21 515.423C1414.93 515.925 1415.11 516.914 1414.61 517.639L1408.7 526.183C1408.37 526.651 1407.84 526.894 1407.31 526.866Z" fill="#C3205C"/>
<path d="M1411.03 493.69C1411.12 493.962 1411.13 494.26 1411.05 494.556C1410.83 495.406 1409.97 495.918 1409.12 495.701L1399.05 493.114C1398.2 492.894 1397.69 492.028 1397.91 491.178C1398.13 490.328 1398.99 489.815 1399.84 490.035L1409.91 492.62C1410.46 492.764 1410.87 493.18 1411.03 493.69Z" fill="#C3205C"/>
<path d="M1470.21 505.927C1469.87 505.909 1469.53 505.781 1469.25 505.537L1461.42 498.707C1460.76 498.132 1460.69 497.124 1461.27 496.462C1461.84 495.801 1462.85 495.733 1463.51 496.311L1471.34 503.141C1472 503.717 1472.07 504.724 1471.49 505.383C1471.16 505.768 1470.68 505.951 1470.21 505.927Z" fill="#C3205C"/>
<path d="M1437.86 529.382C1437.66 529.239 1437.48 529.045 1437.37 528.81C1436.97 528.027 1437.28 527.07 1438.06 526.672L1447.33 521.969C1448.11 521.571 1449.07 521.882 1449.46 522.665C1449.86 523.449 1449.55 524.407 1448.77 524.804L1439.5 529.508C1438.96 529.785 1438.33 529.717 1437.86 529.382Z" fill="#C3205C"/>
<path d="M1344.72 573.967C1344.44 573.954 1344.15 573.86 1343.9 573.688C1343.18 573.188 1343 572.196 1343.5 571.474L1349.41 562.931C1349.91 562.208 1350.9 562.028 1351.63 562.528C1352.34 563.027 1352.53 564.019 1352.03 564.741L1346.11 573.285C1345.79 573.756 1345.25 573.996 1344.72 573.967Z" fill="#C3205C"/>
<path d="M1391.64 571.868C1391.3 571.85 1390.96 571.722 1390.68 571.479L1382.85 564.648C1382.19 564.07 1382.12 563.065 1382.7 562.404C1383.28 561.742 1384.28 561.674 1384.94 562.252L1392.78 569.082C1393.44 569.658 1393.5 570.665 1392.93 571.324C1392.59 571.709 1392.12 571.892 1391.64 571.868Z" fill="#C3205C"/>
<path d="M1361.52 587.412C1361.32 587.269 1361.15 587.075 1361.03 586.84C1360.63 586.055 1360.94 585.1 1361.72 584.7L1370.99 579.999C1371.77 579.598 1372.73 579.912 1373.12 580.695C1373.52 581.477 1373.21 582.434 1372.43 582.834L1363.16 587.538C1362.62 587.815 1361.99 587.745 1361.52 587.412Z" fill="#C3205C"/>
<path d="M1504.95 560.581C1504.61 560.563 1504.27 560.434 1503.99 560.191L1496.16 553.361C1495.5 552.783 1495.43 551.778 1496.01 551.116C1496.58 550.454 1497.59 550.386 1498.25 550.965L1506.08 557.795C1506.74 558.37 1506.81 559.375 1506.23 560.037C1505.9 560.421 1505.42 560.605 1504.95 560.581Z" fill="#C3205C"/>
<path d="M1503.14 595.108C1502.79 595.09 1502.45 594.962 1502.17 594.719L1494.34 587.888C1493.68 587.313 1493.61 586.308 1494.19 585.644C1494.77 584.982 1495.77 584.916 1496.43 585.492L1504.27 592.322C1504.93 592.9 1505 593.905 1504.42 594.567C1504.08 594.949 1503.61 595.134 1503.14 595.108Z" fill="#C3205C"/>
<path d="M1383.66 606.23C1383.31 606.212 1382.97 606.084 1382.7 605.841L1374.87 599.01C1374.2 598.435 1374.13 597.428 1374.71 596.766C1375.29 596.104 1376.29 596.036 1376.95 596.614L1384.79 603.444C1385.45 604.022 1385.52 605.027 1384.94 605.686C1384.6 606.071 1384.13 606.257 1383.66 606.23Z" fill="#C3205C"/>
<path d="M1525.36 583.465C1525.08 583.449 1524.79 583.358 1524.54 583.185C1523.82 582.683 1523.64 581.694 1524.14 580.972L1530.05 572.425C1530.55 571.703 1531.54 571.526 1532.26 572.023C1532.98 572.525 1533.16 573.514 1532.66 574.238L1526.75 582.782C1526.43 583.25 1525.89 583.491 1525.36 583.465Z" fill="#C3205C"/>
<path d="M1444.18 563.407C1443.89 563.392 1443.61 563.3 1443.36 563.127C1442.64 562.628 1442.45 561.636 1442.95 560.914L1448.87 552.37C1449.37 551.648 1450.36 551.468 1451.08 551.968C1451.8 552.467 1451.98 553.459 1451.48 554.181L1445.57 562.725C1445.24 563.195 1444.71 563.436 1444.18 563.407Z" fill="#C3205C"/>
<path d="M1417.5 589.834C1417.22 589.821 1416.93 589.727 1416.68 589.554C1415.96 589.054 1415.78 588.063 1416.28 587.341L1422.19 578.797C1422.69 578.075 1423.68 577.895 1424.4 578.394C1425.13 578.894 1425.31 579.885 1424.81 580.607L1418.89 589.151C1418.57 589.622 1418.03 589.863 1417.5 589.834Z" fill="#C3205C"/>
<path d="M1371.28 550.153C1371 550.14 1370.71 550.046 1370.46 549.873C1369.73 549.374 1369.56 548.382 1370.05 547.66L1375.97 539.116C1376.47 538.394 1377.46 538.214 1378.18 538.713C1378.9 539.213 1379.08 540.205 1378.58 540.927L1372.67 549.47C1372.35 549.941 1371.81 550.182 1371.28 550.153Z" fill="#C3205C"/>
<path d="M1421.22 556.658C1421.31 556.93 1421.32 557.228 1421.25 557.524C1421.03 558.374 1420.16 558.887 1419.31 558.67L1409.25 556.083C1408.4 555.863 1407.88 554.997 1408.1 554.147C1408.32 553.294 1409.19 552.784 1410.04 553.001L1420.1 555.588C1420.65 555.732 1421.07 556.148 1421.22 556.658Z" fill="#C3205C"/>
<path d="M1480.4 568.896C1480.06 568.877 1479.72 568.749 1479.44 568.506L1471.61 561.676C1470.95 561.097 1470.88 560.093 1471.46 559.431C1472.03 558.769 1473.04 558.701 1473.7 559.279L1481.53 566.11C1482.19 566.685 1482.26 567.692 1481.68 568.352C1481.35 568.736 1480.87 568.919 1480.4 568.896Z" fill="#C3205C"/>
<path d="M1448.05 592.352C1447.85 592.208 1447.67 592.015 1447.56 591.779C1447.16 590.994 1447.47 590.04 1448.25 589.639L1457.52 584.938C1458.3 584.538 1459.26 584.852 1459.66 585.634C1460.05 586.416 1459.74 587.377 1458.96 587.774L1449.69 592.478C1449.15 592.755 1448.51 592.684 1448.05 592.352Z" fill="#C3205C"/>
<path d="M1344.72 637.77C1344.44 637.754 1344.15 637.663 1343.9 637.49C1343.18 636.991 1343 635.999 1343.5 635.277L1349.41 626.731C1349.91 626.009 1350.9 625.831 1351.63 626.328C1352.34 626.83 1352.53 627.819 1352.03 628.544L1346.11 637.087C1345.79 637.556 1345.25 637.799 1344.72 637.77Z" fill="#C3205C"/>
<path d="M1391.64 635.671C1391.3 635.653 1390.96 635.524 1390.68 635.281L1382.85 628.451C1382.19 627.875 1382.12 626.868 1382.7 626.206C1383.28 625.544 1384.28 625.476 1384.94 626.055L1392.78 632.885C1393.44 633.463 1393.5 634.468 1392.93 635.127C1392.59 635.511 1392.12 635.695 1391.64 635.671Z" fill="#C3205C"/>
<path d="M1361.52 651.214C1361.32 651.07 1361.15 650.879 1361.03 650.641C1360.63 649.859 1360.94 648.902 1361.72 648.504L1370.99 643.801C1371.77 643.403 1372.73 643.714 1373.12 644.496C1373.52 645.281 1373.21 646.239 1372.43 646.636L1363.16 651.34C1362.62 651.617 1361.99 651.549 1361.52 651.214Z" fill="#C3205C"/>
<path d="M1504.95 624.384C1504.61 624.366 1504.27 624.238 1503.99 623.994L1496.16 617.164C1495.5 616.586 1495.43 615.581 1496.01 614.919C1496.58 614.258 1497.59 614.19 1498.25 614.768L1506.08 621.598C1506.74 622.174 1506.81 623.181 1506.23 623.84C1505.9 624.224 1505.42 624.408 1504.95 624.384Z" fill="#C3205C"/>
<path d="M1503.14 658.911C1502.79 658.892 1502.45 658.764 1502.17 658.523L1494.34 651.693C1493.68 651.115 1493.61 650.11 1494.19 649.449C1494.77 648.787 1495.77 648.719 1496.43 649.294L1504.27 656.125C1504.93 656.703 1505 657.707 1504.42 658.369C1504.08 658.751 1503.61 658.937 1503.14 658.911Z" fill="#C3205C"/>
<path d="M1525.36 647.267C1525.08 647.251 1524.79 647.16 1524.54 646.987C1523.82 646.488 1523.64 645.496 1524.14 644.774L1530.05 636.23C1530.55 635.506 1531.54 635.328 1532.26 635.827C1532.98 636.327 1533.16 637.316 1532.66 638.041L1526.75 646.584C1526.43 647.055 1525.89 647.296 1525.36 647.267Z" fill="#C3205C"/>
<path d="M1444.18 627.209C1443.89 627.195 1443.61 627.101 1443.36 626.929C1442.64 626.429 1442.45 625.438 1442.95 624.715L1448.87 616.172C1449.37 615.45 1450.36 615.269 1451.08 615.769C1451.8 616.268 1451.98 617.26 1451.48 617.982L1445.57 626.526C1445.24 626.997 1444.71 627.237 1444.18 627.209Z" fill="#C3205C"/>
<path d="M1417.5 653.637C1417.22 653.621 1416.93 653.529 1416.68 653.357C1415.96 652.857 1415.78 651.866 1416.28 651.144L1422.19 642.6C1422.69 641.875 1423.68 641.697 1424.4 642.194C1425.13 642.697 1425.31 643.685 1424.81 644.41L1418.89 652.954C1418.57 653.422 1418.03 653.666 1417.5 653.637Z" fill="#C3205C"/>
<path d="M1421.22 620.46C1421.31 620.732 1421.32 621.03 1421.25 621.326C1421.03 622.176 1420.16 622.691 1419.31 622.472L1409.25 619.884C1408.4 619.665 1407.88 618.799 1408.1 617.949C1408.32 617.098 1409.19 616.586 1410.04 616.805L1420.1 619.39C1420.65 619.534 1421.07 619.95 1421.22 620.46Z" fill="#C3205C"/>
<path d="M1480.4 632.697C1480.06 632.679 1479.72 632.55 1479.44 632.307L1471.61 625.477C1470.95 624.901 1470.88 623.894 1471.46 623.232C1472.03 622.57 1473.04 622.502 1473.7 623.08L1481.53 629.911C1482.19 630.486 1482.26 631.494 1481.68 632.153C1481.35 632.537 1480.87 632.72 1480.4 632.697Z" fill="#C3205C"/>
<path d="M1538.49 611.237C1538.14 611.219 1537.8 611.09 1537.53 610.847L1529.7 604.017C1529.03 603.439 1528.96 602.434 1529.54 601.772C1530.12 601.11 1531.12 601.042 1531.78 601.62L1539.62 608.451C1540.28 609.026 1540.35 610.033 1539.77 610.693C1539.43 611.077 1538.96 611.26 1538.49 611.237Z" fill="#C3205C"/>
<path d="M1448.05 656.154C1447.85 656.01 1447.67 655.819 1447.56 655.581C1447.16 654.799 1447.47 653.841 1448.25 653.444L1457.52 648.74C1458.3 648.343 1459.26 648.654 1459.66 649.436C1460.05 650.221 1459.74 651.178 1458.96 651.576L1449.69 656.28C1449.15 656.557 1448.51 656.489 1448.05 656.154Z" fill="#C3205C"/>
<path d="M1382.26 662.558C1382.06 662.414 1381.88 662.22 1381.77 661.985C1381.37 661.2 1381.68 660.243 1382.46 659.847L1391.73 655.144C1392.51 654.746 1393.47 655.058 1393.86 655.84C1394.26 656.622 1393.95 657.582 1393.17 657.98L1383.9 662.683C1383.36 662.961 1382.72 662.893 1382.26 662.558Z" fill="#C3205C"/>
<path d="M1344.72 701.571C1344.44 701.558 1344.15 701.467 1343.9 701.294C1343.18 700.792 1343 699.8 1343.5 699.081L1349.41 690.534C1349.91 689.812 1350.9 689.634 1351.63 690.131C1352.34 690.631 1352.53 691.623 1352.03 692.347L1346.11 700.888C1345.79 701.359 1345.25 701.6 1344.72 701.571Z" fill="#C3205C"/>
<path d="M1391.64 699.473C1391.3 699.455 1390.96 699.327 1390.68 699.086L1382.85 692.253C1382.19 691.678 1382.12 690.673 1382.7 690.011C1383.28 689.349 1384.28 689.281 1384.94 689.857L1392.78 696.687C1393.44 697.263 1393.5 698.27 1392.93 698.932C1392.59 699.314 1392.12 699.499 1391.64 699.473Z" fill="#C3205C"/>
<path d="M1361.52 715.015C1361.32 714.872 1361.15 714.678 1361.03 714.443C1360.63 713.658 1360.94 712.703 1361.72 712.305L1370.99 707.602C1371.77 707.204 1372.73 707.515 1373.12 708.3C1373.52 709.08 1373.21 710.04 1372.43 710.437L1363.16 715.141C1362.62 715.418 1361.99 715.35 1361.52 715.015Z" fill="#C3205C"/>
<path d="M1504.95 688.188C1504.61 688.17 1504.27 688.041 1503.99 687.801L1496.16 680.968C1495.5 680.392 1495.43 679.388 1496.01 678.726C1496.58 678.061 1497.59 677.996 1498.25 678.571L1506.08 685.402C1506.74 685.977 1506.81 686.984 1506.23 687.646C1505.9 688.028 1505.42 688.214 1504.95 688.188Z" fill="#C3205C"/>
<path d="M1532.98 674.332C1532.64 674.314 1532.3 674.186 1532.02 673.945L1524.19 667.112C1523.53 666.537 1523.46 665.532 1524.04 664.87C1524.61 664.206 1525.62 664.14 1526.28 664.716L1534.11 671.546C1534.77 672.122 1534.84 673.129 1534.26 673.791C1533.93 674.173 1533.45 674.358 1532.98 674.332Z" fill="#C3205C"/>
<path d="M1503.14 722.714C1502.79 722.695 1502.45 722.567 1502.17 722.326L1494.34 715.493C1493.68 714.918 1493.61 713.913 1494.19 713.252C1494.77 712.59 1495.77 712.522 1496.43 713.097L1504.27 719.928C1504.93 720.503 1505 721.51 1504.42 722.172C1504.08 722.554 1503.61 722.74 1503.14 722.714Z" fill="#C3205C"/>
<path d="M1525.36 711.07C1525.08 711.054 1524.79 710.963 1524.54 710.79C1523.82 710.29 1523.64 709.299 1524.14 708.577L1530.05 700.033C1530.55 699.311 1531.54 699.13 1532.26 699.63C1532.98 700.13 1533.16 701.119 1532.66 701.843L1526.75 710.387C1526.43 710.858 1525.89 711.099 1525.36 711.07Z" fill="#C3205C"/>
<path d="M1444.18 691.013C1443.89 690.997 1443.61 690.905 1443.36 690.733C1442.64 690.233 1442.45 689.242 1442.95 688.52L1448.87 679.976C1449.37 679.254 1450.36 679.073 1451.08 679.573C1451.8 680.07 1451.98 681.061 1451.48 681.786L1445.57 690.327C1445.24 690.801 1444.71 691.041 1444.18 691.013Z" fill="#C3205C"/>
<path d="M1417.5 717.44C1417.22 717.424 1416.93 717.332 1416.68 717.16C1415.96 716.658 1415.78 715.666 1416.28 714.947L1422.19 706.4C1422.69 705.678 1423.68 705.5 1424.4 705.997C1425.13 706.497 1425.31 707.488 1424.81 708.213L1418.89 716.754C1418.57 717.225 1418.03 717.466 1417.5 717.44Z" fill="#C3205C"/>
<path d="M1421.22 684.263C1421.31 684.535 1421.32 684.833 1421.25 685.129C1421.03 685.979 1420.16 686.494 1419.31 686.274L1409.25 683.687C1408.4 683.467 1407.88 682.601 1408.1 681.751C1408.32 680.901 1409.19 680.388 1410.04 680.608L1420.1 683.193C1420.65 683.337 1421.07 683.755 1421.22 684.263Z" fill="#C3205C"/>
<path d="M1480.4 696.499C1480.06 696.481 1479.72 696.353 1479.44 696.112L1471.61 689.279C1470.95 688.703 1470.88 687.699 1471.46 687.037C1472.03 686.375 1473.04 686.307 1473.7 686.883L1481.53 693.713C1482.19 694.289 1482.26 695.296 1481.68 695.958C1481.35 696.34 1480.87 696.525 1480.4 696.499Z" fill="#C3205C"/>
<path d="M1397.87 732.725C1397.53 732.707 1397.19 732.576 1396.91 732.336L1389.08 725.505C1388.42 724.93 1388.35 723.923 1388.92 723.261C1389.5 722.599 1390.51 722.531 1391.17 723.106L1399 729.939C1399.66 730.515 1399.73 731.519 1399.15 732.181C1398.82 732.563 1398.34 732.749 1397.87 732.725Z" fill="#C3205C"/>
<path d="M1448.05 719.957C1447.85 719.813 1447.67 719.619 1447.56 719.381C1447.16 718.599 1447.47 717.642 1448.25 717.246L1457.52 712.54C1458.3 712.145 1459.26 712.457 1459.66 713.239C1460.05 714.021 1459.74 714.981 1458.96 715.376L1449.69 720.082C1449.15 720.36 1448.51 720.292 1448.05 719.957Z" fill="#C3205C"/>
<path d="M1437.54 438.865V438.893L1437.35 438.871L1437.54 438.865Z" fill="#5D46C1"/>
<path d="M1312.98 753.654C1312.98 753.654 1288.42 858.006 1283.87 933.614C1279.32 1009.22 1283.87 1108.27 1283.87 1108.27H1586.4C1586.4 1108.27 1584.82 975.619 1577.69 900.009C1570.55 824.401 1553.1 748.095 1553.1 748.095L1312.98 753.654Z" fill="#3F2037"/>
<path d="M1474.29 944.461C1476.39 944.461 1485.14 940.61 1485.14 940.61L1457.49 840.501L1318.52 889.52L1343.38 979.115L1474.29 944.461Z" fill="#ECCAB3"/>
<path d="M1437.36 438.872H1437.17V438.845L1437.36 438.872Z" fill="#5D46C1"/>
<path d="M1465.42 450.566C1465.42 450.566 1456.65 465.082 1434.34 463.91C1412.78 462.775 1404.53 446.618 1404.53 446.618L1406.41 435.945L1406.73 434.15L1409.69 417.343L1462.95 421.633L1463.5 428.115L1463.68 430.237L1465.42 450.566Z" fill="#FD8781"/>
<path d="M1485.11 474.772C1470.94 491.162 1442.64 480.452 1433.94 467.463C1423.93 479.468 1394.66 487.149 1382.28 469.365C1370.36 452.243 1405.74 439.728 1405.74 439.728C1408.45 455.848 1427.61 461.978 1434.15 463.558C1440.82 462.668 1460.38 458.579 1464.76 442.831C1464.76 442.831 1498.76 458.995 1485.11 474.772Z" fill="#F4EEFE"/>
<path d="M1463.5 428.114C1450.88 437.72 1431.13 440.59 1406.42 435.944L1406.73 434.149L1409.69 417.341L1462.95 421.632L1463.5 428.114Z" fill="#3F2037"/>
<path d="M1391.98 372.259C1379.17 388.285 1354.08 375.681 1356.99 353.67C1359.63 333.705 1381.86 338.06 1381.86 338.06L1391.98 372.259Z" fill="#F35B5D"/>
<path d="M1379.14 380.261C1378.92 384.355 1375.43 387.497 1371.34 387.282C1367.24 387.067 1364.1 383.575 1364.32 379.481C1364.53 375.39 1368.02 372.245 1372.12 372.462C1376.21 372.677 1379.35 376.169 1379.14 380.261Z" fill="#FFAB33"/>
<path d="M1380.97 372.107C1380.26 372.07 1379.63 371.55 1379.49 370.812C1377.66 361.203 1368.28 351.83 1368.18 351.733C1367.56 351.116 1367.55 350.106 1368.17 349.481C1368.79 348.853 1369.8 348.848 1370.43 349.468C1370.84 349.876 1380.61 359.623 1382.62 370.215C1382.79 371.081 1382.22 371.916 1381.36 372.081C1381.23 372.107 1381.1 372.112 1380.97 372.107Z" fill="#CF373F"/>
<path d="M1377.34 362.878C1377.18 362.87 1377.01 362.831 1376.84 362.768C1372.56 361.081 1368.34 361.745 1368.3 361.753C1367.43 361.897 1366.61 361.309 1366.47 360.443C1366.32 359.577 1366.91 358.755 1367.77 358.609C1367.98 358.572 1372.87 357.777 1378.01 359.802C1378.83 360.124 1379.23 361.05 1378.91 361.868C1378.65 362.522 1378.01 362.912 1377.34 362.878Z" fill="#CF373F"/>
<path d="M1480.31 376.905C1491.37 394.184 1517.65 384.282 1517.06 362.088C1516.52 341.955 1493.96 343.956 1493.96 343.956L1480.31 376.905Z" fill="#F35B5D"/>
<path d="M1507.73 387.021C1507.51 391.115 1504.02 394.257 1499.93 394.043C1495.84 393.828 1492.69 390.336 1492.91 386.242C1493.12 382.15 1496.61 379.006 1500.71 379.223C1504.8 379.437 1507.94 382.93 1507.73 387.021Z" fill="#FFAB33"/>
<path d="M1491.27 377.905C1491.14 377.9 1491.02 377.877 1490.89 377.84C1490.05 377.584 1489.57 376.697 1489.83 375.852C1492.94 365.529 1503.68 356.86 1504.13 356.496C1504.82 355.947 1505.82 356.059 1506.37 356.747C1506.92 357.433 1506.81 358.437 1506.13 358.987C1506.02 359.07 1495.7 367.41 1492.88 376.773C1492.66 377.49 1491.98 377.945 1491.27 377.905Z" fill="#CF373F"/>
<path d="M1495.85 369.109C1495.18 369.075 1494.59 368.62 1494.4 367.942C1494.16 367.094 1494.66 366.215 1495.51 365.98C1500.83 364.505 1505.61 365.813 1505.82 365.868C1506.66 366.106 1507.16 366.985 1506.92 367.835C1506.68 368.68 1505.81 369.174 1504.96 368.939C1504.92 368.928 1500.8 367.824 1496.36 369.054C1496.19 369.101 1496.01 369.117 1495.85 369.109Z" fill="#CF373F"/>
<path d="M1378.38 313.466C1378.38 313.466 1370.66 349.29 1383.9 385.422C1395.9 418.169 1413.59 429.109 1432.94 430.43C1454.96 431.934 1501.77 421.617 1499.97 316.681C1498.75 245.777 1387.97 242.455 1378.38 313.466Z" fill="#FD8781"/>
<path d="M1374.39 329.27C1374.39 329.27 1374.36 351.71 1383.7 351.357C1393.03 351.004 1391.17 300.353 1391.17 300.353C1391.17 300.353 1398.8 312.994 1413.97 312.46C1429.14 311.929 1416.47 291.574 1416.47 291.574C1416.47 291.574 1429.39 311.675 1442.18 311.55C1454.97 311.424 1443.48 286.876 1443.48 286.876C1443.48 286.876 1458.7 314.814 1470.72 314.647C1482.75 314.482 1473.79 291.393 1473.79 291.393C1473.79 291.393 1482.01 316.842 1491.01 319.173C1491.01 319.173 1486.79 355.799 1496.61 354.763C1506.42 353.73 1504.98 312.457 1501.63 299.778C1498.29 287.095 1478.49 254.659 1437 256.47C1395.51 258.28 1377.71 280.223 1374.39 329.27Z" fill="#5A184A"/>
<path d="M1398 332.849C1398 332.849 1407.06 321.551 1421.69 320.795C1424.06 320.669 1426.05 322.592 1426.07 324.975L1426.07 325.012C1426.09 327.424 1424.09 329.349 1421.68 329.255C1416.21 329.043 1406.58 329.318 1398 332.849Z" fill="#5A184A"/>
<path d="M1479.61 337.14C1479.61 337.14 1471.78 324.952 1457.32 322.666C1454.96 322.294 1452.78 324 1452.52 326.365L1452.51 326.404C1452.24 328.797 1454.03 330.924 1456.44 331.084C1461.89 331.447 1471.44 332.727 1479.61 337.14Z" fill="#5A184A"/>
<path d="M1436.67 411.816C1432.13 411.578 1428.63 409.804 1428.39 409.684C1427.74 409.346 1427.49 408.546 1427.82 407.892C1428.16 407.24 1428.96 406.984 1429.61 407.324C1429.73 407.382 1437.71 411.379 1444.48 407.411C1445.12 407.039 1445.93 407.254 1446.3 407.887C1446.67 408.52 1446.46 409.333 1445.82 409.702C1442.73 411.518 1439.49 411.965 1436.67 411.816Z" fill="#F35B5D"/>
<path d="M1443.14 378.254C1443.11 378.252 1443.07 378.249 1443.04 378.244L1433.38 376.952C1432.65 376.855 1432.14 376.188 1432.24 375.46C1432.33 374.733 1433 374.231 1433.73 374.32L1441.81 375.4L1440.57 350.606C1440.54 349.873 1441.1 349.251 1441.83 349.212C1442.57 349.175 1443.19 349.74 1443.23 350.472L1444.54 376.863C1444.56 377.255 1444.4 377.64 1444.11 377.904C1443.85 378.147 1443.5 378.273 1443.14 378.254Z" fill="#F35B5D"/>
<path d="M1417.07 387.491C1428.9 389.976 1441.02 391.425 1457.44 389.045C1457.44 389.045 1455.12 406.342 1435.82 405.405C1419.4 404.607 1417.07 387.491 1417.07 387.491Z" fill="#F4EEFE"/>
<path d="M1418.12 349.289C1417.88 353.89 1415.59 357.511 1413.01 357.375C1410.43 357.239 1408.54 353.399 1408.78 348.8C1409.02 344.198 1411.31 340.577 1413.89 340.714C1416.47 340.847 1418.36 344.687 1418.12 349.289Z" fill="#3F2037"/>
<path d="M1467.8 351.901C1467.55 356.502 1465.27 360.12 1462.69 359.984C1460.11 359.851 1458.21 356.01 1458.46 351.409C1458.7 346.81 1460.98 343.189 1463.56 343.325C1466.14 343.459 1468.04 347.299 1467.8 351.901Z" fill="#3F2037"/>
<path d="M1400.15 365.473C1400.11 366.263 1399.44 366.873 1398.64 366.831C1397.85 366.789 1397.25 366.114 1397.29 365.321C1397.33 364.531 1398.01 363.924 1398.79 363.966C1399.59 364.005 1400.2 364.683 1400.15 365.473Z" fill="#F35B5D"/>
<path d="M1406.97 369.3C1406.92 370.09 1406.25 370.7 1405.46 370.658C1404.67 370.613 1404.06 369.941 1404.1 369.148C1404.14 368.358 1404.82 367.751 1405.61 367.791C1406.4 367.833 1407.01 368.507 1406.97 369.3Z" fill="#F35B5D"/>
<path d="M1399.71 373.914C1399.67 374.704 1398.99 375.313 1398.2 375.271C1397.41 375.229 1396.8 374.554 1396.84 373.762C1396.89 372.972 1397.56 372.365 1398.35 372.404C1399.14 372.446 1399.75 373.121 1399.71 373.914Z" fill="#F35B5D"/>
<path d="M1410.63 375.923C1410.59 376.713 1409.91 377.322 1409.12 377.281C1408.33 377.236 1407.72 376.564 1407.76 375.771C1407.81 374.981 1408.48 374.374 1409.27 374.413C1410.06 374.455 1410.67 375.13 1410.63 375.923Z" fill="#F35B5D"/>
<path d="M1418.03 374.877C1417.99 375.667 1417.31 376.276 1416.52 376.234C1415.73 376.192 1415.13 375.517 1415.16 374.725C1415.21 373.935 1415.88 373.328 1416.67 373.367C1417.46 373.409 1418.07 374.086 1418.03 374.877Z" fill="#F35B5D"/>
<path d="M1415.07 367.697C1415.03 368.487 1414.35 369.096 1413.56 369.054C1412.77 369.01 1412.16 368.338 1412.2 367.545C1412.24 366.755 1412.92 366.148 1413.71 366.187C1414.5 366.229 1415.11 366.904 1415.07 367.697Z" fill="#F35B5D"/>
<path d="M1477.43 369.538C1477.38 370.328 1477.99 371.006 1478.78 371.045C1479.57 371.087 1480.25 370.48 1480.29 369.69C1480.33 368.897 1479.73 368.222 1478.93 368.181C1478.14 368.139 1477.47 368.748 1477.43 369.538Z" fill="#F35B5D"/>
<path d="M1470.25 372.628C1470.21 373.418 1470.82 374.096 1471.61 374.135C1472.4 374.177 1473.08 373.57 1473.12 372.78C1473.16 371.987 1472.55 371.312 1471.76 371.27C1470.97 371.228 1470.29 371.835 1470.25 372.628Z" fill="#F35B5D"/>
<path d="M1476.98 377.975C1476.94 378.767 1477.55 379.442 1478.34 379.484C1479.13 379.523 1479.8 378.916 1479.85 378.126C1479.89 377.334 1479.28 376.659 1478.49 376.617C1477.7 376.575 1477.02 377.185 1476.98 377.975Z" fill="#F35B5D"/>
<path d="M1465.91 378.83C1465.87 379.622 1466.48 380.297 1467.27 380.336C1468.06 380.378 1468.73 379.771 1468.78 378.981C1468.82 378.189 1468.21 377.514 1467.42 377.472C1466.63 377.43 1465.96 378.04 1465.91 378.83Z" fill="#F35B5D"/>
<path d="M1458.66 377.011C1458.62 377.804 1459.23 378.479 1460.02 378.521C1460.81 378.56 1461.49 377.953 1461.53 377.163C1461.57 376.37 1460.96 375.695 1460.17 375.654C1459.38 375.612 1458.7 376.221 1458.66 377.011Z" fill="#F35B5D"/>
<path d="M1462.36 370.181C1462.32 370.974 1462.93 371.649 1463.72 371.691C1464.51 371.73 1465.18 371.123 1465.23 370.333C1465.27 369.54 1464.66 368.865 1463.87 368.824C1463.08 368.782 1462.4 369.391 1462.36 370.181Z" fill="#F35B5D"/>
<path d="M1412.49 331.564C1400.76 330.947 1390.72 339.988 1390.1 351.718C1389.48 363.448 1398.53 373.491 1410.26 374.108C1421.99 374.726 1432.03 365.685 1432.65 353.955C1433.26 342.224 1424.22 332.179 1412.49 331.564ZM1410.15 376.232C1397.24 375.552 1387.3 364.505 1387.98 351.605C1388.66 338.706 1399.7 328.762 1412.6 329.44C1425.51 330.12 1435.45 341.165 1434.77 354.067C1434.09 366.967 1423.05 376.91 1410.15 376.232Z" fill="#F4EEFE"/>
<path d="M1468.82 334.525C1457.09 333.908 1447.04 342.949 1446.42 354.679C1445.81 366.409 1454.85 376.452 1466.58 377.069C1478.31 377.686 1488.35 368.646 1488.97 356.915C1489.59 345.185 1480.54 335.142 1468.82 334.525ZM1466.47 379.193C1453.57 378.513 1443.62 367.468 1444.3 354.569C1444.98 341.667 1456.03 331.723 1468.93 332.401C1481.83 333.081 1491.77 344.126 1491.09 357.028C1490.41 369.927 1479.37 379.871 1466.47 379.193Z" fill="#F4EEFE"/>
<path d="M1489.05 350.375C1488.79 350.362 1488.55 350.258 1488.35 350.061C1487.94 349.645 1487.94 348.971 1488.36 348.56C1488.67 348.256 1495.97 341.167 1506.24 343.417C1506.82 343.542 1507.18 344.107 1507.05 344.68C1506.93 345.253 1506.36 345.617 1505.79 345.491C1496.63 343.49 1489.92 350.004 1489.86 350.069C1489.63 350.289 1489.34 350.391 1489.05 350.375Z" fill="#F4EEFE"/>
<path d="M1390.9 344.779C1390.62 344.766 1390.35 344.643 1390.16 344.418C1390.04 344.29 1382.12 335.484 1371.62 338.398C1371.06 338.553 1370.47 338.223 1370.32 337.655C1370.16 337.093 1370.49 336.504 1371.05 336.347C1382.89 333.064 1391.4 342.61 1391.75 343.018C1392.14 343.46 1392.1 344.13 1391.65 344.517C1391.44 344.708 1391.16 344.792 1390.9 344.779Z" fill="#F4EEFE"/>
<path d="M1433.82 351.867C1433.8 351.867 1433.78 351.864 1433.76 351.862C1433.17 351.794 1432.76 351.265 1432.82 350.682C1433.04 348.827 1434.82 345.395 1439.99 345.667C1445.16 345.939 1446.57 349.539 1446.6 351.404C1446.61 351.992 1446.14 352.474 1445.55 352.482C1444.96 352.487 1444.48 352.019 1444.47 351.43C1444.46 351.09 1444.24 348.019 1439.88 347.788C1435.39 347.553 1434.95 350.792 1434.94 350.93C1434.87 351.488 1434.38 351.896 1433.82 351.867Z" fill="#F4EEFE"/>
<path d="M1351.78 983.977L1483.39 952.122L1452.24 851.356L1326.93 893.317L1351.78 983.977Z" fill="#FDE7D4"/>
<path d="M1283.87 626.281L1313.53 759.31L1362.62 903.509L1407 889.522L1363.11 722.532L1342.12 611.187L1283.87 626.281Z" fill="#FD8781"/>
<path d="M1306.87 466.242C1306.87 466.242 1328.24 493.809 1341.89 544.293C1347.75 565.974 1349.73 587.059 1350.08 604.063C1350.52 625.496 1308.47 631.882 1308.47 631.882C1285 635.238 1262.47 627.866 1259.55 604.335C1257.48 587.711 1256.53 567.442 1259.02 545.862C1265.32 491.256 1306.87 466.242 1306.87 466.242Z" fill="#DD3C3A"/>
<path d="M1407.01 889.522L1360.96 895.738L1366.08 958.684L1370.6 978.997C1371.3 982.16 1374.39 984.192 1377.57 983.588C1380.59 983.013 1382.69 980.253 1382.43 977.189L1380.73 957.13L1382.81 956.91L1387.88 978.984C1388.62 982.215 1391.69 984.349 1394.97 983.92C1398.46 983.465 1400.93 980.295 1400.53 976.805L1398.4 958.498L1403.11 978.984C1403.85 982.215 1406.92 984.349 1410.2 983.92C1413.69 983.465 1416.16 980.295 1415.76 976.805L1413.07 953.695L1413.22 953.679L1417.73 975.34C1418.35 978.314 1421.27 980.214 1424.24 979.573C1426.76 979.028 1428.55 976.8 1428.55 974.226V952.05L1407.01 889.522Z" fill="#FD8781"/>
<path d="M1546.23 470.67C1546.23 470.67 1536.98 568.445 1555.22 616.752C1555.22 616.752 1590.15 603.102 1603.45 592.29C1616.75 581.476 1622.35 566.774 1614.65 540.873C1606.95 514.972 1571.62 470.473 1546.23 470.67Z" fill="#DD3C3A"/>
<path d="M1198.98 398.988C1204.89 400.719 1214.47 405.923 1222.31 410.516L1234.12 387.83L1234.1 387.82C1234.7 386.559 1236.05 383.982 1237.83 380.694L1237.83 380.689C1243.81 369.678 1254.76 350.597 1259.63 345.323C1265.96 338.474 1269.5 345.276 1266.87 350.008C1264.85 353.658 1254.52 378.376 1249.91 389.484L1250.34 389.8C1255.67 379.744 1268.44 357.129 1273.81 351.311C1280.14 344.462 1283.69 351.264 1281.06 355.996C1278.78 360.082 1266.11 390.575 1262.7 398.807L1263.03 399.048C1268.87 388.223 1280.33 368.153 1285.35 362.722C1291.68 355.873 1295.22 362.675 1292.59 367.407C1290.86 370.531 1283.05 389.081 1277.94 401.332C1284.01 392.398 1291.31 382.243 1294.93 378.905C1301.22 373.11 1303.96 379.585 1301.2 383.718C1299.32 386.546 1290.24 404.073 1284.71 414.838L1267.46 451.161L1267.42 483.469L1219.73 474.048L1225.19 451.815L1214.29 428.373C1208.6 421.951 1200.73 413.281 1196.8 409.925C1190.23 404.314 1187.65 395.665 1198.98 398.988Z" fill="#FEB7A0"/>
<path d="M1274.14 412.963C1273.95 412.937 1273.77 412.866 1273.61 412.746L1240.97 388.81C1240.45 388.422 1240.33 387.682 1240.72 387.159C1241.1 386.633 1241.84 386.515 1242.37 386.905L1275.01 410.844C1275.53 411.229 1275.65 411.969 1275.26 412.492C1274.99 412.858 1274.55 413.023 1274.14 412.963Z" fill="#FE8989"/>
<path d="M1237.42 430.022C1236.91 429.949 1236.48 429.536 1236.42 428.992C1235.26 419.174 1226.61 413.175 1226.53 413.115C1225.99 412.746 1225.85 412.014 1226.22 411.475C1226.58 410.936 1227.32 410.795 1227.85 411.164C1228.25 411.428 1237.48 417.806 1238.76 428.717C1238.84 429.366 1238.38 429.952 1237.73 430.028C1237.62 430.041 1237.52 430.038 1237.42 430.022Z" fill="#FE8989"/>
<path d="M1147.07 521.762L839.733 519.666C839.733 519.666 843.087 481.347 861.69 474.048C869.211 471.103 886.45 462.669 904.336 453.662C910.978 450.319 917.706 446.9 924.055 443.651C924.725 443.305 925.394 442.963 926.051 442.628C931.254 439.957 936.172 437.432 940.523 435.183C950.105 430.236 956.964 426.652 958.267 425.972C958.419 425.896 958.492 425.857 958.492 425.857L960.836 426.398C963.771 427.081 966.717 427.667 969.67 428.151C972.597 428.645 975.527 429.048 978.465 429.354C994.679 431.06 1011.1 430.058 1027.05 426.341C1027.08 426.335 1027.1 426.33 1027.13 426.325C1027.13 426.325 1034.32 430.092 1044.89 435.57C1049.29 437.851 1054.27 440.433 1059.56 443.156C1060.23 443.499 1060.9 443.844 1061.58 444.189C1064.17 445.518 1066.82 446.879 1069.5 448.252C1072.36 449.717 1075.25 451.206 1078.16 452.676C1097.9 462.729 1117.68 472.557 1125.74 475.851C1144.24 483.401 1147.07 521.762 1147.07 521.762Z" fill="#FE4F4E"/>
<path d="M1061.58 444.19C1060.5 447.256 1059.27 450.39 1057.85 453.516C1052.26 465.861 1044.98 475.687 1036.19 482.721C1025.17 491.54 1011.79 495.958 996.409 495.851C964.272 495.634 944.566 476.665 933.691 460.797C929.626 454.866 926.463 448.907 924.056 443.649C924.726 443.306 925.393 442.964 926.052 442.626C928.42 447.819 931.548 453.715 935.574 459.588C950.951 481.994 971.427 493.442 996.425 493.612C1023.43 493.795 1043.41 479.993 1055.81 452.596C1057.24 449.43 1058.49 446.26 1059.56 443.157C1060.23 443.497 1060.9 443.845 1061.58 444.19Z" fill="#C22C31"/>
<path d="M1044.89 435.57C1040.91 452.197 1026.08 477.434 993.7 477.211C958.153 476.971 944.995 448.116 940.524 435.183C950.107 430.236 956.963 426.652 958.266 425.974C958.418 425.896 958.491 425.857 958.491 425.857L960.835 426.401C963.77 427.081 966.718 427.667 969.672 428.151C972.596 428.648 975.529 429.048 978.467 429.354C994.681 431.06 1011.1 430.058 1027.05 426.343C1027.07 426.335 1027.1 426.33 1027.13 426.325C1027.13 426.325 1034.33 430.095 1044.89 435.57Z" fill="#FEF6F0"/>
<path d="M1028.64 434.162C1028.64 434.162 1022.48 453.068 994.787 452.877C962.484 452.658 954.997 435.382 954.997 435.382C957.854 427.96 959.832 421.085 961.174 414.935H961.182C963.654 403.67 964.049 394.813 963.941 389.377L1020.71 387.517C1021.2 392.325 1022.01 397.988 1022.94 403.689C1025.4 418.82 1028.64 434.162 1028.64 434.162Z" fill="#FEB7A0"/>
<path d="M1022.94 403.688C1014.11 409.741 994.824 418.714 961.185 414.937C963.655 403.672 964.052 394.812 963.942 389.376L1020.71 387.516C1021.2 392.324 1022.02 397.988 1022.94 403.688Z" fill="#3F2037"/>
<path d="M942.782 315.218C942.782 315.218 925.383 291.193 911.626 305.246C897.868 319.304 923.876 368.76 947.857 358.189L942.782 315.218Z" fill="#FEB7A0"/>
<path d="M934.214 343.411C933.617 343.408 933.102 342.963 933.021 342.357C930.823 325.732 917.693 315.446 917.56 315.344C917.029 314.936 916.93 314.174 917.338 313.643C917.748 313.11 918.51 313.013 919.041 313.421C919.611 313.863 933.099 324.429 935.425 342.04C935.514 342.702 935.045 343.311 934.381 343.4C934.323 343.408 934.268 343.411 934.214 343.411Z" fill="#FE8989"/>
<path d="M930.617 331.456C930.23 331.454 929.848 331.263 929.615 330.915C927.87 328.296 922.601 327.995 920.723 328.1C920.048 328.142 919.483 327.624 919.444 326.954C919.407 326.284 919.92 325.714 920.59 325.677C920.922 325.657 928.77 325.272 931.634 329.57C932.006 330.127 931.854 330.881 931.297 331.252C931.088 331.393 930.85 331.456 930.617 331.456Z" fill="#FE8989"/>
<path d="M1049.78 315.947C1049.78 315.947 1067.51 292.163 1081.07 306.404C1094.63 320.646 1067.95 369.74 1044.12 358.845L1049.78 315.947Z" fill="#FEB7A0"/>
<path d="M1057.96 344.255C1057.91 344.255 1057.85 344.25 1057.8 344.242C1057.13 344.145 1056.67 343.531 1056.77 342.866C1059.33 325.289 1072.96 314.909 1073.54 314.477C1074.08 314.072 1074.84 314.182 1075.24 314.718C1075.64 315.257 1075.53 316.015 1075 316.418C1074.86 316.518 1061.59 326.657 1059.17 343.217C1059.08 343.824 1058.56 344.258 1057.96 344.255Z" fill="#FE8989"/>
<path d="M1061.72 332.351C1061.49 332.351 1061.25 332.281 1061.04 332.137C1060.49 331.76 1060.35 331.004 1060.73 330.452C1063.65 326.193 1071.5 326.685 1071.83 326.709C1072.5 326.756 1073 327.334 1072.96 328.001C1072.91 328.671 1072.32 329.181 1071.66 329.128C1069.78 329.005 1064.51 329.241 1062.73 331.825C1062.49 332.168 1062.11 332.354 1061.72 332.351Z" fill="#FE8989"/>
<path d="M1008 241.528C957.946 241.164 926.682 266.89 931.864 326.469C934.956 362.028 952.936 406.121 995.093 407.4C1039.03 408.734 1057 361.005 1063.52 324.745C1069.49 291.556 1052.84 254.61 1020.87 243.89C1018.65 243.147 1010.81 241.548 1008 241.528Z" fill="#FEB7A0"/>
<path d="M931.359 315.598C931.359 315.598 925.92 259.118 925.837 246.609C925.63 216.19 956.433 199.337 1001.48 199.74C1037.8 200.065 1042.17 216.001 1045.01 228.896C1045.01 228.896 1071.86 229.767 1075.83 248.521C1079.79 267.275 1062.36 323.707 1062.36 323.707C1062.36 323.707 1056.74 310.651 1052.77 291.897C1048.8 273.143 1043.55 261.645 1031.85 261.331C1020.14 261.017 1005.51 261.501 989.646 270.757C973.783 280.012 957.974 281.074 946.911 272.808C946.911 272.808 943.748 301.05 931.359 315.598Z" fill="#5A184A"/>
<mask id="mask1_243_97" style="mask-type:luminance" maskUnits="userSpaceOnUse" x="939" y="331" width="36" height="17">
<path d="M939.766 331.638H974.786V347.017H939.766V331.638Z" fill="white"/>
</mask>
<g mask="url(#mask1_243_97)">
<g opacity="0.5">
<path d="M974.787 339.449C974.758 343.695 966.894 347.082 957.223 347.02C947.552 346.952 939.738 343.457 939.766 339.211C939.795 334.962 947.656 331.575 957.328 331.64C966.999 331.706 974.816 335.2 974.787 339.449Z" fill="#FE8989"/>
</g>
</g>
<mask id="mask2_243_97" style="mask-type:luminance" maskUnits="userSpaceOnUse" x="1022" y="332" width="36" height="16">
<path d="M1022.15 332.2H1057.17V347.579H1022.15V332.2Z" fill="white"/>
</mask>
<g mask="url(#mask2_243_97)">
<g opacity="0.5">
<path d="M1057.17 340.01C1057.14 344.256 1049.28 347.644 1039.61 347.581C1029.94 347.513 1022.12 344.018 1022.15 339.772C1022.18 335.524 1030.04 332.136 1039.71 332.201C1049.38 332.267 1057.2 335.762 1057.17 340.01Z" fill="#FE8989"/>
</g>
</g>
<path d="M1063.91 316.501C1063.91 316.501 1063.34 343.975 1054.93 378.485C1041.42 433.8 996.448 426.112 996.448 426.112C996.448 426.112 952.246 433.191 939.5 377.698C931.55 343.077 931.359 315.596 931.359 315.596L938.632 303.636C938.632 303.636 943.343 351.404 961.561 359.799C961.561 359.799 969.765 347.506 996.903 359.231C1024.2 347.875 1033.11 360.288 1033.11 360.288C1051.44 352.142 1056.81 304.442 1056.81 304.442L1063.91 316.501Z" fill="#5A184A"/>
<path d="M998.964 354.552C996.873 354.539 994.587 353.974 992.076 352.865C991.369 352.551 990.953 351.81 991.061 351.047L994.76 324.089C994.888 323.142 995.764 322.48 996.709 322.608C997.656 322.739 998.317 323.61 998.189 324.56L994.673 350.189C998.111 351.473 1000.77 351.381 1002.98 349.914C1003.77 349.385 1004.85 349.603 1005.38 350.4C1005.91 351.196 1005.69 352.268 1004.89 352.799C1003.11 353.982 1001.15 354.565 998.964 354.552Z" fill="#FE8989"/>
<path d="M995.612 375.49C985.692 375.422 978.194 371.275 978.066 371.202C977.234 370.731 976.944 369.674 977.415 368.842C977.888 368.013 978.942 367.72 979.774 368.191C980.611 368.662 999.708 379.123 1016.4 363.888C1017.11 363.244 1018.21 363.291 1018.85 363.998C1019.5 364.704 1019.44 365.8 1018.74 366.443C1011 373.509 1002.69 375.539 995.612 375.49Z" fill="#734669"/>
<path d="M998.354 385.41C994.436 385.384 991.304 384.405 991.084 384.335C990.174 384.044 989.672 383.069 989.962 382.158C990.253 381.25 991.226 380.748 992.136 381.036C992.212 381.06 999.877 383.432 1005.3 380.413C1006.13 379.948 1007.19 380.249 1007.65 381.086C1008.12 381.92 1007.82 382.974 1006.98 383.44C1004.21 384.984 1001.09 385.428 998.354 385.41Z" fill="#734669"/>
<path d="M962.315 308.228C966.056 306.251 971.515 303.815 976.813 303.077C979.659 302.682 981.464 299.836 980.514 297.123L980.323 296.577C979.635 294.617 977.702 293.377 975.638 293.584C970.914 294.055 962.535 295.648 957.041 301.05C955.851 302.222 955.43 303.97 955.919 305.565C956.748 308.262 959.822 309.544 962.315 308.228Z" fill="#3F2037"/>
<path d="M1033.97 308.716C1030.26 306.689 1024.83 304.178 1019.55 303.369C1016.71 302.935 1014.94 300.065 1015.93 297.365L1016.13 296.821C1016.84 294.872 1018.79 293.659 1020.85 293.891C1025.57 294.428 1033.92 296.136 1039.35 301.614C1040.52 302.799 1040.92 304.552 1040.41 306.142C1039.54 308.826 1036.45 310.069 1033.97 308.716Z" fill="#3F2037"/>
<path d="M976.134 321.548C976.183 326.238 974.428 330.06 972.212 330.084C969.997 330.107 968.16 326.324 968.11 321.631C968.061 316.941 969.816 313.119 972.032 313.095C974.248 313.072 976.084 316.857 976.134 321.548Z" fill="#3F2037"/>
<path d="M1018.06 321.832C1017.94 326.523 1019.65 330.368 1021.86 330.423C1024.08 330.475 1025.96 326.716 1026.08 322.026C1026.19 317.335 1024.49 313.49 1022.27 313.437C1020.06 313.382 1018.17 317.142 1018.06 321.832Z" fill="#3F2037"/>
<path d="M839.733 519.665L853.69 660.435L862.841 870.256H1123.27L1131.67 652.505L1147.07 521.76C1147.07 521.76 876.834 497.756 839.733 519.665Z" fill="#FE4F4E"/>
<path d="M862.842 870.258L849.683 1108.27H989.88L998.874 956.015L1015.65 953.915L1028.64 1108.27H1156.17L1124.49 838.478L861.097 830.23L862.842 870.258Z" fill="#3F2037"/>
<path d="M921.697 912.834L922.064 913.033L922.126 913.114L921.697 912.834ZM940.757 919.968L933.598 903.981C932.263 901.002 929.953 898.561 927.05 897.067L908.432 887.474L891.004 875.587L872.94 862.369L863.248 851.355L834.789 888.487L837.033 890.564L842.1 900.256C847.167 909.948 858.401 920.303 858.401 920.303L870.989 929.534L880.741 937.492L888.173 946.86C890.386 949.651 894.365 950.295 897.348 948.346C898.616 947.519 899.087 945.887 898.452 944.508L890.967 928.281L897.172 932.859L905.813 944.079C907.822 946.69 911.513 947.292 914.244 945.453C916.089 944.21 916.774 941.822 915.866 939.794L908.793 924.002L912.813 926.874L920.562 936.938C923.071 940.2 927.683 940.948 931.099 938.651C932.242 937.882 932.666 936.401 932.104 935.141L922.393 913.462L930.704 924.255C932.713 926.864 936.404 927.465 939.138 925.629C940.982 924.386 941.665 921.995 940.757 919.968Z" fill="#FEB7A0"/>
<path d="M819.406 763.497L802.577 741.82L871.242 574.13L861.691 474.049C861.691 474.049 811.393 478.567 784.611 556.977C757.826 635.383 725.421 738.291 725.421 738.291C733.617 828.949 834.788 900.01 834.788 900.01L872.642 853.804L819.406 763.497Z" fill="#FE4F4E"/>
<path d="M1278.97 474.05L1210.72 469.241C1210.72 469.241 1208.96 532.556 1204.41 577.277C1187.53 545.914 1165.57 518.286 1159.61 505.871C1144.21 473.809 1096.73 462.05 1096.73 462.05C1096.73 462.05 1099.4 549.626 1120.41 600.031C1132.57 629.223 1155.65 667.961 1172.93 695.397C1200.27 738.831 1267.43 728.034 1278.32 677.88C1278.56 676.8 1278.78 675.701 1278.97 674.587C1288.42 621.032 1278.97 474.05 1278.97 474.05Z" fill="#FE4F4E"/>
<path d="M772.587 582.694C772.587 582.694 826.451 689.04 847.771 736.12L797.136 776.984L706.531 643.736L772.587 582.694Z" fill="#AA534F"/>
<path d="M812.239 746.336L732.291 870.256L765.158 912.007C765.158 912.007 856.656 827.615 861.984 797.414C867.316 767.209 844.617 729.298 844.617 729.298L812.239 746.336Z" fill="#AA534F"/>
<path d="M795.644 966.887L803.949 965.027C806.414 964.475 807.926 961.985 807.28 959.541L807.096 958.848C806.197 955.453 803.191 953.035 799.68 952.886L782.864 952.175C782.864 952.175 780.944 892.336 775.184 887.536C774.988 887.371 774.789 887.306 774.587 887.295L732.091 870.257L727.186 940.656L727.277 940.693H727.186C727.186 940.693 735.185 969.814 737.425 973.974C738.385 975.758 745.647 976.362 754.005 976.475C754.269 977.155 754.512 977.741 754.703 978.097C756.945 982.256 793.423 980.017 798.223 980.017C802.39 980.017 803.887 970.628 795.644 966.887Z" fill="#AA534F"/>
<path d="M376.582 585.185L326.485 730.237L389.062 754.04C389.062 754.04 463.734 636.233 465.253 620.723C466.779 605.213 447.682 587.136 447.682 587.136L376.582 585.185Z" fill="#863F38"/>
<path d="M488.202 386.922C488.202 386.922 470.784 384.346 469.293 399.131C467.805 413.917 478.19 416.363 478.19 416.363C478.19 416.363 461.72 400.314 451.795 413.153C441.867 425.995 460.375 434.876 460.375 434.876C460.375 434.876 439.916 425.495 437.064 439.104C434.213 452.71 450.68 459.825 450.68 459.825C450.68 459.825 433.444 459.788 434.629 467.362C435.811 474.935 451.863 467.398 451.863 467.398C451.863 467.398 428.055 473.577 433.232 492.352C438.411 511.127 456.684 498.963 456.684 498.963C456.684 498.963 442.628 507.633 448.172 531.485C453.715 555.341 558.779 498.647 558.779 498.647L555.982 433.111L488.202 386.922Z" fill="#352836"/>
<path d="M613.513 377.918C613.513 377.918 630.384 372.877 633.973 387.296C637.562 401.718 627.629 405.624 627.629 405.624C627.629 405.624 641.638 387.385 653.298 398.673C664.96 409.961 647.911 421.398 647.911 421.398C647.911 421.398 666.82 409.189 671.586 422.248C676.355 435.31 661.075 444.704 661.075 444.704C661.075 444.704 678.126 442.203 678.04 449.868C677.953 457.533 660.986 452.369 660.986 452.369C660.986 452.369 685.435 455.079 682.994 474.404C680.554 493.725 660.73 484.3 660.73 484.3C660.73 484.3 675.882 490.869 673.804 515.271C671.73 539.673 559.64 498.586 559.64 498.586L553.034 433.322L613.513 377.918Z" fill="#352836"/>
<path d="M488.202 386.922C488.202 386.922 470.784 384.346 469.293 399.131C467.805 413.917 478.19 416.363 478.19 416.363C478.19 416.363 461.72 400.314 451.795 413.153C441.867 425.995 460.375 434.876 460.375 434.876C460.375 434.876 439.916 425.495 437.064 439.104C434.213 452.71 450.68 459.825 450.68 459.825C450.68 459.825 433.444 459.788 434.629 467.362C435.811 474.935 451.863 467.398 451.863 467.398C451.863 467.398 428.055 473.577 433.232 492.352C438.411 511.127 456.684 498.963 456.684 498.963C456.684 498.963 442.628 507.633 448.172 531.485C453.715 555.341 558.779 498.647 558.779 498.647L555.982 433.111L488.202 386.922Z" fill="#352836"/>
<path d="M613.513 377.918C613.513 377.918 630.384 372.877 633.973 387.296C637.562 401.718 627.629 405.624 627.629 405.624C627.629 405.624 641.638 387.385 653.298 398.673C664.96 409.961 647.911 421.398 647.911 421.398C647.911 421.398 666.82 409.189 671.586 422.248C676.355 435.31 661.075 444.704 661.075 444.704C661.075 444.704 678.126 442.203 678.04 449.868C677.953 457.533 660.986 452.369 660.986 452.369C660.986 452.369 685.435 455.079 682.994 474.404C680.554 493.725 660.73 484.3 660.73 484.3C660.73 484.3 675.882 490.869 673.804 515.271C671.73 539.673 559.64 498.586 559.64 498.586L553.034 433.322L613.513 377.918Z" fill="#352836"/>
<path d="M597.876 483.081C579.279 474.605 580.768 427.073 580.768 427.073L554.092 430.725L553.969 429.006L551.165 430.071L548.232 429.417L548.358 431.138L521.434 431.337C521.434 431.337 529.703 478.171 512.511 489.216C495.319 500.263 389.928 512.744 409.148 620.921L561.21 609.991L566.947 609.581L719.013 598.651C722.565 488.836 616.473 491.557 597.876 483.081Z" fill="#AA534F"/>
<path d="M520.893 476.38C542.072 471.651 563.227 466.821 584.362 461.89C580.184 445.839 580.768 427.071 580.768 427.071L554.092 430.726L553.969 429.005L551.162 430.072L548.232 429.415L548.358 431.139L521.434 431.338C521.434 431.338 526.229 458.55 520.893 476.38Z" fill="#863F38"/>
<path d="M493.738 363.906C487.289 347.927 475.078 352.613 473.934 353.091C472.721 353.322 459.952 356.165 463.408 373.046C466.882 390.027 477.497 398.604 486.627 395.204C496.116 392.993 500.223 379.981 493.738 363.906Z" fill="#863F38"/>
<path d="M599.017 356.34C603.113 339.605 615.872 342.493 617.067 342.804C618.304 342.859 631.348 343.848 630.343 361.048C629.331 378.353 620.055 388.359 610.53 386.301C600.822 385.469 594.896 373.176 599.017 356.34Z" fill="#863F38"/>
<path d="M479.166 340.046C480.545 267.865 535.353 267.964 540.532 268.134C545.633 267.224 599.863 259.29 611.551 330.531C623.31 402.197 594.563 451.621 553.743 451.948C513.294 457.462 477.777 412.658 479.166 340.046Z" fill="#AA534F"/>
<path d="M557.184 368.355C559.415 371.483 560.891 374.827 562.138 378.235C563.344 381.654 564.284 385.152 564.828 388.762L564.993 389.842L564.49 390.355C563.104 391.781 561.662 393.162 560.187 394.515C558.68 395.844 557.186 397.183 555.528 398.381C556.412 396.534 557.461 394.826 558.497 393.105C559.567 391.412 560.671 389.748 561.822 388.126L561.487 389.72C560.04 386.366 558.986 382.902 558.204 379.36C557.458 375.808 556.943 372.19 557.184 368.355Z" fill="#863F38"/>
<path d="M578.642 409.669C566.569 423.219 544.532 424.098 527.073 414.05Z" fill="white"/>
<path d="M597.449 341.019C594.079 339.734 591.073 338.546 588.144 337.654C585.229 336.754 582.454 336.205 579.804 336.166C577.156 336.114 574.548 336.516 571.862 337.673C570.444 338.073 569.157 338.926 567.673 339.585C566.221 340.325 564.887 341.298 563.156 342.052C563.645 340.338 564.351 338.659 565.272 337.081C566.386 335.677 567.378 334.021 568.968 332.93C571.825 330.403 575.94 328.974 579.921 329.1C583.924 329.171 587.667 330.609 590.663 332.723C593.627 334.892 596.112 337.605 597.449 341.019Z" fill="#352836"/>
<path d="M529.539 345.899C526.167 344.614 523.164 343.427 520.234 342.535C517.32 341.635 514.544 341.085 511.894 341.046C509.247 340.994 506.636 341.397 503.952 342.553C502.531 342.953 501.247 343.806 499.764 344.465C498.309 345.206 496.978 346.179 495.243 346.932C495.735 345.219 496.441 343.539 497.362 341.962C498.477 340.557 499.468 338.901 501.059 337.81C503.915 335.283 508.028 333.855 512.012 333.98C516.014 334.051 519.758 335.49 522.753 337.603C525.717 339.772 528.202 342.485 529.539 345.899Z" fill="#352836"/>
<path d="M529.251 372.04C528.035 369.095 526.552 366.316 524.477 364.334C522.429 362.353 519.834 361.357 517.048 361.608C515.635 361.629 514.304 361.958 513.1 362.474C511.915 363.031 510.939 363.918 510.123 365.027C508.543 367.313 507.874 370.426 507.596 373.597C506.602 370.56 506.45 367.036 508.017 363.802C508.779 362.181 510.139 360.802 511.73 359.852C513.372 359.005 515.156 358.576 516.899 358.489C520.422 358.175 524.265 359.886 526.298 362.725C528.43 365.485 529.291 368.833 529.251 372.04Z" fill="#352836"/>
<path d="M590.207 366.671C588.99 363.725 587.507 360.944 585.433 358.964C583.384 356.984 580.789 355.987 578.006 356.238C576.591 356.259 575.259 356.589 574.056 357.104C572.871 357.661 571.895 358.548 571.081 359.657C569.499 361.944 568.829 365.057 568.552 368.227C567.558 365.19 567.408 361.664 568.973 358.433C569.737 356.811 571.094 355.432 572.685 354.48C574.328 353.635 576.112 353.206 577.854 353.117C581.378 352.806 585.223 354.517 587.253 357.355C589.385 360.115 590.246 363.464 590.207 366.671Z" fill="#352836"/>
<path d="M542.642 267.983C542.642 267.983 549.172 311.699 483.824 334.905C483.824 334.905 487.327 356.99 483.118 378.355C483.118 378.355 459.294 348.794 466.807 311.236C474.318 273.678 523.671 240.478 542.642 267.983Z" fill="#352836"/>
<path d="M537.391 268.36C537.391 268.36 539.293 312.408 607.285 326.03C607.285 326.03 606.118 354.196 613.339 374.74C613.339 374.74 633.55 336.269 620.744 300.173C607.939 264.075 552.234 238.425 537.391 268.36Z" fill="#352836"/>
<path d="M493.668 331.001C483.453 324.921 474.166 316.809 467.673 307.587C467.344 308.799 467.051 310.015 466.805 311.234C459.294 348.792 483.118 378.353 483.118 378.353C487.327 356.99 483.824 334.904 483.824 334.904C487.319 333.661 490.571 332.35 493.668 331.001Z" fill="#281F29"/>
<path d="M742.354 856.243L698.842 718.455L723.464 598.331C727.26 486.924 617.853 489.812 598.686 481.236C591.304 477.935 587.011 468.748 584.51 458.705C574.768 461.627 564.134 463.615 552.924 464.421C541.942 465.211 531.332 464.803 521.443 463.374C520.394 473.621 517.451 483.258 510.65 487.564C492.905 498.792 384.208 511.579 403.899 621.3L448.645 725.707C448.645 725.707 417.219 798.225 417.219 856.243H742.354Z" fill="#FF6A59"/>
<path d="M417.221 856.243L432.496 1108.27H742.356V856.243H417.221Z" fill="#3F2037"/>
<path d="M462.816 506.403C462.816 506.403 423.576 518.109 394.504 547.51C365.43 576.914 353.2 620.921 353.2 620.921L439.167 660.435L462.816 506.403Z" fill="#FF6A59"/>
<path d="M660.339 497.054C660.339 497.054 700.751 503.652 733.341 529.103C765.928 554.554 783.678 596.638 783.678 596.638L703.461 646.807L660.339 497.054Z" fill="#FF6A59"/>
<path d="M391.133 711.902L299.911 535.552L249.817 549.867C249.817 549.867 298.26 719.58 310.548 743.466C334.225 789.5 416.425 771.573 391.133 711.902Z" fill="#AA534F"/>
<path d="M312.765 465.414C306.301 469.319 296.559 478.507 288.7 486.417L267.563 463.198L267.581 463.182C266.47 461.871 264.065 459.237 260.916 455.894L260.911 455.889C250.36 444.695 231.376 425.483 223.936 420.751C214.272 414.608 212.203 423.796 216.81 428.586C220.363 432.282 240.378 458.382 249.34 470.117L248.927 470.627C239.441 460.365 217.187 437.53 208.98 432.311C199.317 426.168 197.248 435.356 201.854 440.146C205.833 444.284 230.445 476.5 237.076 485.201L236.76 485.591C226.432 474.575 206.529 454.348 198.867 449.477C189.203 443.335 187.134 452.519 191.741 457.312C194.781 460.475 209.875 480.042 219.787 492.981C209.773 484.28 197.922 474.517 192.575 471.692C183.291 466.787 182.077 475.333 186.637 479.375C189.761 482.143 206.043 500.094 215.991 511.136L247.87 548.838L258.266 574.129L307.755 553.787L299.912 535.551L303.829 505.096C308.564 495.689 315.177 482.93 318.792 477.711C324.83 468.987 325.18 457.911 312.765 465.414Z" fill="#AA534F"/>
<path d="M227.949 505.595C228.161 505.506 228.352 505.365 228.507 505.174L259.731 466.515C260.236 465.889 260.139 464.976 259.517 464.474C258.894 463.972 257.981 464.066 257.479 464.691L226.254 503.353C225.749 503.976 225.846 504.886 226.469 505.388C226.903 505.739 227.471 505.799 227.949 505.595Z" fill="#863F38"/>
<path d="M276.889 514.318C277.478 514.066 277.849 513.446 277.755 512.782C276.047 500.761 284.426 490.928 284.512 490.829C285.035 490.224 284.97 489.309 284.366 488.785C283.761 488.26 282.849 488.322 282.323 488.927C281.941 489.366 272.986 499.833 274.883 513.19C274.995 513.983 275.73 514.532 276.523 514.42C276.651 514.401 276.774 514.367 276.889 514.318Z" fill="#863F38"/>
</g>
</svg>
